G04 #@! TF.GenerationSoftware,KiCad,Pcbnew,8.0.8*
G04 #@! TF.CreationDate,2025-03-16T16:25:50-04:00*
G04 #@! TF.ProjectId,Combined_PCB,436f6d62-696e-4656-945f-5043422e6b69,1*
G04 #@! TF.SameCoordinates,Original*
G04 #@! TF.FileFunction,Soldermask,Bot*
G04 #@! TF.FilePolarity,Negative*
%FSLAX46Y46*%
G04 Gerber Fmt 4.6, Leading zero omitted, Abs format (unit mm)*
G04 Created by KiCad (PCBNEW 8.0.8) date 2025-03-16 16:25:50*
%MOMM*%
%LPD*%
G01*
G04 APERTURE LIST*
G04 Aperture macros list*
%AMRoundRect*
0 Rectangle with rounded corners*
0 $1 Rounding radius*
0 $2 $3 $4 $5 $6 $7 $8 $9 X,Y pos of 4 corners*
0 Add a 4 corners polygon primitive as box body*
4,1,4,$2,$3,$4,$5,$6,$7,$8,$9,$2,$3,0*
0 Add four circle primitives for the rounded corners*
1,1,$1+$1,$2,$3*
1,1,$1+$1,$4,$5*
1,1,$1+$1,$6,$7*
1,1,$1+$1,$8,$9*
0 Add four rect primitives between the rounded corners*
20,1,$1+$1,$2,$3,$4,$5,0*
20,1,$1+$1,$4,$5,$6,$7,0*
20,1,$1+$1,$6,$7,$8,$9,0*
20,1,$1+$1,$8,$9,$2,$3,0*%
G04 Aperture macros list end*
%ADD10RoundRect,0.038000X-0.850000X-0.850000X0.850000X-0.850000X0.850000X0.850000X-0.850000X0.850000X0*%
%ADD11O,1.776000X1.776000*%
%ADD12RoundRect,0.261177X-0.626823X-0.776823X0.626823X-0.776823X0.626823X0.776823X-0.626823X0.776823X0*%
%ADD13O,1.776000X2.076000*%
%ADD14RoundRect,0.038000X0.850000X0.850000X-0.850000X0.850000X-0.850000X-0.850000X0.850000X-0.850000X0*%
%ADD15RoundRect,0.261177X-0.751823X0.626823X-0.751823X-0.626823X0.751823X-0.626823X0.751823X0.626823X0*%
%ADD16O,2.026000X1.776000*%
%ADD17RoundRect,0.261177X0.751823X-0.626823X0.751823X0.626823X-0.751823X0.626823X-0.751823X-0.626823X0*%
G04 APERTURE END LIST*
D10*
X106680000Y-91440000D03*
D11*
X106680000Y-88900000D03*
X106680000Y-86360000D03*
X106680000Y-83820000D03*
X106680000Y-81280000D03*
X106680000Y-78740000D03*
X106680000Y-76200000D03*
X106680000Y-73660000D03*
X106680000Y-71120000D03*
X106680000Y-68580000D03*
X106680000Y-66040000D03*
X106680000Y-63500000D03*
X106680000Y-60960000D03*
X106680000Y-58420000D03*
X106680000Y-55880000D03*
X106680000Y-53340000D03*
X106680000Y-50800000D03*
X106680000Y-48260000D03*
D12*
X118150000Y-33020000D03*
D13*
X120650000Y-33020000D03*
D14*
X132080000Y-48260000D03*
D11*
X132080000Y-50800000D03*
X132080000Y-53340000D03*
X132080000Y-55880000D03*
X132080000Y-58420000D03*
X132080000Y-60960000D03*
X132080000Y-63500000D03*
X132080000Y-66040000D03*
X132080000Y-68580000D03*
X132080000Y-71120000D03*
X132080000Y-73660000D03*
X132080000Y-76200000D03*
X132080000Y-78740000D03*
X132080000Y-81280000D03*
X132080000Y-83820000D03*
X132080000Y-86360000D03*
X132080000Y-88900000D03*
X132080000Y-91440000D03*
D15*
X127000002Y-25400000D03*
D16*
X127000002Y-27900000D03*
X127000002Y-30400000D03*
X127000002Y-32900000D03*
X127000002Y-35400000D03*
X127000002Y-37900000D03*
X127000002Y-40400000D03*
X127000002Y-42900000D03*
D17*
X111760000Y-43060000D03*
D16*
X111760000Y-40560000D03*
X111760000Y-38060000D03*
X111760000Y-35560000D03*
X111760000Y-33060000D03*
X111760000Y-30560000D03*
X111760000Y-28060000D03*
X111760000Y-25560000D03*
M02*
