G04 #@! TF.GenerationSoftware,KiCad,Pcbnew,8.0.8*
G04 #@! TF.CreationDate,2025-03-16T16:25:50-04:00*
G04 #@! TF.ProjectId,Combined_PCB,436f6d62-696e-4656-945f-5043422e6b69,1*
G04 #@! TF.SameCoordinates,Original*
G04 #@! TF.FileFunction,Legend,Bot*
G04 #@! TF.FilePolarity,Positive*
%FSLAX46Y46*%
G04 Gerber Fmt 4.6, Leading zero omitted, Abs format (unit mm)*
G04 Created by KiCad (PCBNEW 8.0.8) date 2025-03-16 16:25:50*
%MOMM*%
%LPD*%
G01*
G04 APERTURE LIST*
G04 Aperture macros list*
%AMRoundRect*
0 Rectangle with rounded corners*
0 $1 Rounding radius*
0 $2 $3 $4 $5 $6 $7 $8 $9 X,Y pos of 4 corners*
0 Add a 4 corners polygon primitive as box body*
4,1,4,$2,$3,$4,$5,$6,$7,$8,$9,$2,$3,0*
0 Add four circle primitives for the rounded corners*
1,1,$1+$1,$2,$3*
1,1,$1+$1,$4,$5*
1,1,$1+$1,$6,$7*
1,1,$1+$1,$8,$9*
0 Add four rect primitives between the rounded corners*
20,1,$1+$1,$2,$3,$4,$5,0*
20,1,$1+$1,$4,$5,$6,$7,0*
20,1,$1+$1,$6,$7,$8,$9,0*
20,1,$1+$1,$8,$9,$2,$3,0*%
G04 Aperture macros list end*
%ADD10C,0.120000*%
%ADD11RoundRect,0.038000X-0.850000X-0.850000X0.850000X-0.850000X0.850000X0.850000X-0.850000X0.850000X0*%
%ADD12O,1.776000X1.776000*%
%ADD13RoundRect,0.261177X-0.626823X-0.776823X0.626823X-0.776823X0.626823X0.776823X-0.626823X0.776823X0*%
%ADD14O,1.776000X2.076000*%
%ADD15RoundRect,0.038000X0.850000X0.850000X-0.850000X0.850000X-0.850000X-0.850000X0.850000X-0.850000X0*%
%ADD16RoundRect,0.261177X-0.751823X0.626823X-0.751823X-0.626823X0.751823X-0.626823X0.751823X0.626823X0*%
%ADD17O,2.026000X1.776000*%
%ADD18RoundRect,0.261177X0.751823X-0.626823X0.751823X0.626823X-0.751823X0.626823X-0.751823X-0.626823X0*%
G04 APERTURE END LIST*
D10*
X105350000Y-46930000D02*
X105350000Y-90170000D01*
X108010000Y-46930000D02*
X105350000Y-46930000D01*
X108010000Y-46930000D02*
X108010000Y-90170000D01*
X108010000Y-90170000D02*
X105350000Y-90170000D01*
X108010000Y-91440000D02*
X108010000Y-92770000D01*
X108010000Y-92770000D02*
X106680000Y-92770000D01*
X115590000Y-23710000D02*
X119400000Y-23710000D01*
X115590000Y-35430000D02*
X115590000Y-23710000D01*
X117010000Y-30930000D02*
X117010000Y-35430000D01*
X117010000Y-35430000D02*
X115590000Y-35430000D01*
X117850000Y-35120000D02*
X118150000Y-34520000D01*
X117900000Y-24320000D02*
X117900000Y-29820000D01*
X117900000Y-29820000D02*
X118400000Y-29820000D01*
X118150000Y-34520000D02*
X118450000Y-35120000D01*
X118400000Y-24320000D02*
X117900000Y-24320000D01*
X118400000Y-29820000D02*
X118400000Y-24320000D01*
X118450000Y-35120000D02*
X117850000Y-35120000D01*
X119400000Y-30930000D02*
X117010000Y-30930000D01*
X119400000Y-30930000D02*
X121790000Y-30930000D01*
X120400000Y-24320000D02*
X120400000Y-29820000D01*
X120400000Y-29820000D02*
X120900000Y-29820000D01*
X120900000Y-24320000D02*
X120400000Y-24320000D01*
X120900000Y-29820000D02*
X120900000Y-24320000D01*
X121790000Y-30930000D02*
X121790000Y-35430000D01*
X121790000Y-35430000D02*
X123210000Y-35430000D01*
X123210000Y-23710000D02*
X119400000Y-23710000D01*
X123210000Y-35430000D02*
X123210000Y-23710000D01*
X130750000Y-46930000D02*
X132080000Y-46930000D01*
X130750000Y-48260000D02*
X130750000Y-46930000D01*
X130750000Y-49530000D02*
X133410000Y-49530000D01*
X130750000Y-92770000D02*
X130750000Y-49530000D01*
X130750000Y-92770000D02*
X133410000Y-92770000D01*
X133410000Y-92770000D02*
X133410000Y-49530000D01*
X124590002Y-22840000D02*
X136310002Y-22840000D01*
X124590002Y-24260000D02*
X124590002Y-22840000D01*
X124590002Y-44040000D02*
X124590002Y-45460000D01*
X124590002Y-45460000D02*
X136310002Y-45460000D01*
X124900002Y-25100000D02*
X125500002Y-25400000D01*
X124900002Y-25700000D02*
X124900002Y-25100000D01*
X125500002Y-25400000D02*
X124900002Y-25700000D01*
X129090002Y-24260000D02*
X124590002Y-24260000D01*
X129090002Y-34150000D02*
X129090002Y-24260000D01*
X129090002Y-34150000D02*
X129090002Y-44040000D01*
X129090002Y-44040000D02*
X124590002Y-44040000D01*
X130200002Y-25150000D02*
X130200002Y-25650000D01*
X130200002Y-25650000D02*
X135700002Y-25650000D01*
X130200002Y-27650000D02*
X130200002Y-28150000D01*
X130200002Y-28150000D02*
X135700002Y-28150000D01*
X130200002Y-30150000D02*
X130200002Y-30650000D01*
X130200002Y-30650000D02*
X135700002Y-30650000D01*
X130200002Y-32650000D02*
X130200002Y-33150000D01*
X130200002Y-33150000D02*
X135700002Y-33150000D01*
X130200002Y-35150000D02*
X130200002Y-35650000D01*
X130200002Y-35650000D02*
X135700002Y-35650000D01*
X130200002Y-37650000D02*
X130200002Y-38150000D01*
X130200002Y-38150000D02*
X135700002Y-38150000D01*
X130200002Y-40150000D02*
X130200002Y-40650000D01*
X130200002Y-40650000D02*
X135700002Y-40650000D01*
X130200002Y-42650000D02*
X130200002Y-43150000D01*
X130200002Y-43150000D02*
X135700002Y-43150000D01*
X135700002Y-25150000D02*
X130200002Y-25150000D01*
X135700002Y-25650000D02*
X135700002Y-25150000D01*
X135700002Y-27650000D02*
X130200002Y-27650000D01*
X135700002Y-28150000D02*
X135700002Y-27650000D01*
X135700002Y-30150000D02*
X130200002Y-30150000D01*
X135700002Y-30650000D02*
X135700002Y-30150000D01*
X135700002Y-32650000D02*
X130200002Y-32650000D01*
X135700002Y-33150000D02*
X135700002Y-32650000D01*
X135700002Y-35150000D02*
X130200002Y-35150000D01*
X135700002Y-35650000D02*
X135700002Y-35150000D01*
X135700002Y-37650000D02*
X130200002Y-37650000D01*
X135700002Y-38150000D02*
X135700002Y-37650000D01*
X135700002Y-40150000D02*
X130200002Y-40150000D01*
X135700002Y-40650000D02*
X135700002Y-40150000D01*
X135700002Y-42650000D02*
X130200002Y-42650000D01*
X135700002Y-43150000D02*
X135700002Y-42650000D01*
X136310002Y-22840000D02*
X136310002Y-34150000D01*
X136310002Y-45460000D02*
X136310002Y-34150000D01*
X102450000Y-23000000D02*
X102450000Y-34310000D01*
X102450000Y-45620000D02*
X102450000Y-34310000D01*
X103060000Y-25310000D02*
X103060000Y-25810000D01*
X103060000Y-25810000D02*
X108560000Y-25810000D01*
X103060000Y-27810000D02*
X103060000Y-28310000D01*
X103060000Y-28310000D02*
X108560000Y-28310000D01*
X103060000Y-30310000D02*
X103060000Y-30810000D01*
X103060000Y-30810000D02*
X108560000Y-30810000D01*
X103060000Y-32810000D02*
X103060000Y-33310000D01*
X103060000Y-33310000D02*
X108560000Y-33310000D01*
X103060000Y-35310000D02*
X103060000Y-35810000D01*
X103060000Y-35810000D02*
X108560000Y-35810000D01*
X103060000Y-37810000D02*
X103060000Y-38310000D01*
X103060000Y-38310000D02*
X108560000Y-38310000D01*
X103060000Y-40310000D02*
X103060000Y-40810000D01*
X103060000Y-40810000D02*
X108560000Y-40810000D01*
X103060000Y-42810000D02*
X103060000Y-43310000D01*
X103060000Y-43310000D02*
X108560000Y-43310000D01*
X108560000Y-25310000D02*
X103060000Y-25310000D01*
X108560000Y-25810000D02*
X108560000Y-25310000D01*
X108560000Y-27810000D02*
X103060000Y-27810000D01*
X108560000Y-28310000D02*
X108560000Y-27810000D01*
X108560000Y-30310000D02*
X103060000Y-30310000D01*
X108560000Y-30810000D02*
X108560000Y-30310000D01*
X108560000Y-32810000D02*
X103060000Y-32810000D01*
X108560000Y-33310000D02*
X108560000Y-32810000D01*
X108560000Y-35310000D02*
X103060000Y-35310000D01*
X108560000Y-35810000D02*
X108560000Y-35310000D01*
X108560000Y-37810000D02*
X103060000Y-37810000D01*
X108560000Y-38310000D02*
X108560000Y-37810000D01*
X108560000Y-40310000D02*
X103060000Y-40310000D01*
X108560000Y-40810000D02*
X108560000Y-40310000D01*
X108560000Y-42810000D02*
X103060000Y-42810000D01*
X108560000Y-43310000D02*
X108560000Y-42810000D01*
X109670000Y-24420000D02*
X114170000Y-24420000D01*
X109670000Y-34310000D02*
X109670000Y-24420000D01*
X109670000Y-34310000D02*
X109670000Y-44200000D01*
X109670000Y-44200000D02*
X114170000Y-44200000D01*
X113260000Y-43060000D02*
X113860000Y-42760000D01*
X113860000Y-42760000D02*
X113860000Y-43360000D01*
X113860000Y-43360000D02*
X113260000Y-43060000D01*
X114170000Y-23000000D02*
X102450000Y-23000000D01*
X114170000Y-24420000D02*
X114170000Y-23000000D01*
X114170000Y-44200000D02*
X114170000Y-45620000D01*
X114170000Y-45620000D02*
X102450000Y-45620000D01*
%LPC*%
D11*
X106680000Y-91440000D03*
D12*
X106680000Y-88900000D03*
X106680000Y-86360000D03*
X106680000Y-83820000D03*
X106680000Y-81280000D03*
X106680000Y-78740000D03*
X106680000Y-76200000D03*
X106680000Y-73660000D03*
X106680000Y-71120000D03*
X106680000Y-68580000D03*
X106680000Y-66040000D03*
X106680000Y-63500000D03*
X106680000Y-60960000D03*
X106680000Y-58420000D03*
X106680000Y-55880000D03*
X106680000Y-53340000D03*
X106680000Y-50800000D03*
X106680000Y-48260000D03*
D13*
X118150000Y-33020000D03*
D14*
X120650000Y-33020000D03*
D15*
X132080000Y-48260000D03*
D12*
X132080000Y-50800000D03*
X132080000Y-53340000D03*
X132080000Y-55880000D03*
X132080000Y-58420000D03*
X132080000Y-60960000D03*
X132080000Y-63500000D03*
X132080000Y-66040000D03*
X132080000Y-68580000D03*
X132080000Y-71120000D03*
X132080000Y-73660000D03*
X132080000Y-76200000D03*
X132080000Y-78740000D03*
X132080000Y-81280000D03*
X132080000Y-83820000D03*
X132080000Y-86360000D03*
X132080000Y-88900000D03*
X132080000Y-91440000D03*
D16*
X127000002Y-25400000D03*
D17*
X127000002Y-27900000D03*
X127000002Y-30400000D03*
X127000002Y-32900000D03*
X127000002Y-35400000D03*
X127000002Y-37900000D03*
X127000002Y-40400000D03*
X127000002Y-42900000D03*
D18*
X111760000Y-43060000D03*
D17*
X111760000Y-40560000D03*
X111760000Y-38060000D03*
X111760000Y-35560000D03*
X111760000Y-33060000D03*
X111760000Y-30560000D03*
X111760000Y-28060000D03*
X111760000Y-25560000D03*
%LPD*%
M02*
