G04 #@! TF.GenerationSoftware,KiCad,Pcbnew,8.0.8*
G04 #@! TF.CreationDate,2025-03-16T16:25:49-04:00*
G04 #@! TF.ProjectId,Combined_PCB,436f6d62-696e-4656-945f-5043422e6b69,1*
G04 #@! TF.SameCoordinates,Original*
G04 #@! TF.FileFunction,Paste,Top*
G04 #@! TF.FilePolarity,Positive*
%FSLAX46Y46*%
G04 Gerber Fmt 4.6, Leading zero omitted, Abs format (unit mm)*
G04 Created by KiCad (PCBNEW 8.0.8) date 2025-03-16 16:25:49*
%MOMM*%
%LPD*%
G01*
G04 APERTURE LIST*
G04 Aperture macros list*
%AMRoundRect*
0 Rectangle with rounded corners*
0 $1 Rounding radius*
0 $2 $3 $4 $5 $6 $7 $8 $9 X,Y pos of 4 corners*
0 Add a 4 corners polygon primitive as box body*
4,1,4,$2,$3,$4,$5,$6,$7,$8,$9,$2,$3,0*
0 Add four circle primitives for the rounded corners*
1,1,$1+$1,$2,$3*
1,1,$1+$1,$4,$5*
1,1,$1+$1,$6,$7*
1,1,$1+$1,$8,$9*
0 Add four rect primitives between the rounded corners*
20,1,$1+$1,$2,$3,$4,$5,0*
20,1,$1+$1,$4,$5,$6,$7,0*
20,1,$1+$1,$6,$7,$8,$9,0*
20,1,$1+$1,$8,$9,$2,$3,0*%
G04 Aperture macros list end*
%ADD10R,0.199200X0.704800*%
%ADD11RoundRect,0.250000X0.475000X-0.250000X0.475000X0.250000X-0.475000X0.250000X-0.475000X-0.250000X0*%
%ADD12R,0.460000X0.890000*%
%ADD13RoundRect,0.250000X0.250000X0.475000X-0.250000X0.475000X-0.250000X-0.475000X0.250000X-0.475000X0*%
%ADD14RoundRect,0.218750X0.381250X-0.218750X0.381250X0.218750X-0.381250X0.218750X-0.381250X-0.218750X0*%
%ADD15R,0.400000X0.900000*%
%ADD16RoundRect,0.250000X-0.262500X-0.450000X0.262500X-0.450000X0.262500X0.450000X-0.262500X0.450000X0*%
%ADD17RoundRect,0.250000X0.450000X-0.262500X0.450000X0.262500X-0.450000X0.262500X-0.450000X-0.262500X0*%
%ADD18RoundRect,0.250000X-0.250000X-0.475000X0.250000X-0.475000X0.250000X0.475000X-0.250000X0.475000X0*%
%ADD19RoundRect,0.250000X-0.450000X0.262500X-0.450000X-0.262500X0.450000X-0.262500X0.450000X0.262500X0*%
%ADD20RoundRect,0.035000X-0.105000X0.745000X-0.105000X-0.745000X0.105000X-0.745000X0.105000X0.745000X0*%
%ADD21RoundRect,0.035000X-0.745000X0.105000X-0.745000X-0.105000X0.745000X-0.105000X0.745000X0.105000X0*%
%ADD22R,1.320800X0.558800*%
G04 APERTURE END LIST*
D10*
X130810000Y-30012401D03*
X131309999Y-30012401D03*
X131809998Y-30012401D03*
X131809998Y-28407599D03*
X131309999Y-28407599D03*
X130810000Y-28407599D03*
D11*
X113124000Y-88382500D03*
X113124000Y-86482500D03*
D12*
X110620000Y-52895000D03*
X111380000Y-52895000D03*
X112140000Y-52895000D03*
X112900000Y-52895000D03*
X112900000Y-51245000D03*
X112140000Y-51245000D03*
X111380000Y-51245000D03*
X110620000Y-51245000D03*
D13*
X111386252Y-68580000D03*
X109486252Y-68580000D03*
D14*
X123190000Y-88344500D03*
X123190000Y-86219500D03*
D15*
X120720000Y-49530000D03*
X121520000Y-49530000D03*
X122320000Y-49530000D03*
X123120000Y-49530000D03*
X123120000Y-47830000D03*
X122320000Y-47830000D03*
X121520000Y-47830000D03*
X120720000Y-47830000D03*
D10*
X107950000Y-38527198D03*
X107450001Y-38527198D03*
X106950002Y-38527198D03*
X106950002Y-40132000D03*
X107450001Y-40132000D03*
X107950000Y-40132000D03*
X118880001Y-29210000D03*
X119380000Y-29210000D03*
X119879999Y-29210000D03*
X119879999Y-27605198D03*
X119380000Y-27605198D03*
X118880001Y-27605198D03*
D11*
X125824000Y-88232000D03*
X125824000Y-86332000D03*
D16*
X127357500Y-66675000D03*
X129182500Y-66675000D03*
D13*
X111440000Y-66294000D03*
X109540000Y-66294000D03*
D17*
X115824000Y-84732500D03*
X115824000Y-82907500D03*
D15*
X110560000Y-49530000D03*
X111360000Y-49530000D03*
X112160000Y-49530000D03*
X112960000Y-49530000D03*
X112960000Y-47830000D03*
X112160000Y-47830000D03*
X111360000Y-47830000D03*
X110560000Y-47830000D03*
D18*
X116967000Y-80772000D03*
X118867000Y-80772000D03*
D12*
X125860000Y-52895000D03*
X126620000Y-52895000D03*
X127380000Y-52895000D03*
X128140000Y-52895000D03*
X128140000Y-51245000D03*
X127380000Y-51245000D03*
X126620000Y-51245000D03*
X125860000Y-51245000D03*
D19*
X115824000Y-86520000D03*
X115824000Y-88345000D03*
D12*
X118240000Y-42735000D03*
X119000000Y-42735000D03*
X119760000Y-42735000D03*
X120520000Y-42735000D03*
X120520000Y-41085000D03*
X119760000Y-41085000D03*
X119000000Y-41085000D03*
X118240000Y-41085000D03*
D18*
X127320000Y-64643000D03*
X129220000Y-64643000D03*
D15*
X125800000Y-49530000D03*
X126600000Y-49530000D03*
X127400000Y-49530000D03*
X128200000Y-49530000D03*
X128200000Y-47830000D03*
X127400000Y-47830000D03*
X126600000Y-47830000D03*
X125800000Y-47830000D03*
D13*
X111440000Y-60960000D03*
X109540000Y-60960000D03*
X114173000Y-76835000D03*
X112273000Y-76835000D03*
D12*
X120780000Y-52895000D03*
X121540000Y-52895000D03*
X122300000Y-52895000D03*
X123060000Y-52895000D03*
X123060000Y-51245000D03*
X122300000Y-51245000D03*
X121540000Y-51245000D03*
X120780000Y-51245000D03*
D13*
X114173000Y-74295000D03*
X112273000Y-74295000D03*
X111440000Y-71120000D03*
X109540000Y-71120000D03*
D20*
X123130000Y-60360000D03*
X122630000Y-60360000D03*
X122130000Y-60360000D03*
X121630000Y-60360000D03*
X121130000Y-60360000D03*
X120630000Y-60360000D03*
X120130000Y-60360000D03*
X119630000Y-60360000D03*
X119130000Y-60360000D03*
X118630000Y-60360000D03*
X118130000Y-60360000D03*
X117630000Y-60360000D03*
X117130000Y-60360000D03*
X116630000Y-60360000D03*
X116130000Y-60360000D03*
X115630000Y-60360000D03*
D21*
X113700000Y-62290000D03*
X113700000Y-62790000D03*
X113700000Y-63290000D03*
X113700000Y-63790000D03*
X113700000Y-64290000D03*
X113700000Y-64790000D03*
X113700000Y-65290000D03*
X113700000Y-65790000D03*
X113700000Y-66290000D03*
X113700000Y-66790000D03*
X113700000Y-67290000D03*
X113700000Y-67790000D03*
X113700000Y-68290000D03*
X113700000Y-68790000D03*
X113700000Y-69290000D03*
X113700000Y-69790000D03*
D20*
X115630000Y-71720000D03*
X116130000Y-71720000D03*
X116630000Y-71720000D03*
X117130000Y-71720000D03*
X117630000Y-71720000D03*
X118130000Y-71720000D03*
X118630000Y-71720000D03*
X119130000Y-71720000D03*
X119630000Y-71720000D03*
X120130000Y-71720000D03*
X120630000Y-71720000D03*
X121130000Y-71720000D03*
X121630000Y-71720000D03*
X122130000Y-71720000D03*
X122630000Y-71720000D03*
X123130000Y-71720000D03*
D21*
X125060000Y-69790000D03*
X125060000Y-69290000D03*
X125060000Y-68790000D03*
X125060000Y-68290000D03*
X125060000Y-67790000D03*
X125060000Y-67290000D03*
X125060000Y-66790000D03*
X125060000Y-66290000D03*
X125060000Y-65790000D03*
X125060000Y-65290000D03*
X125060000Y-64790000D03*
X125060000Y-64290000D03*
X125060000Y-63790000D03*
X125060000Y-63290000D03*
X125060000Y-62790000D03*
X125060000Y-62290000D03*
D15*
X118180000Y-38950000D03*
X118980000Y-38950000D03*
X119780000Y-38950000D03*
X120580000Y-38950000D03*
X120580000Y-37250000D03*
X119780000Y-37250000D03*
X118980000Y-37250000D03*
X118180000Y-37250000D03*
D12*
X115700000Y-52895000D03*
X116460000Y-52895000D03*
X117220000Y-52895000D03*
X117980000Y-52895000D03*
X117980000Y-51245000D03*
X117220000Y-51245000D03*
X116460000Y-51245000D03*
X115700000Y-51245000D03*
D15*
X115640000Y-49530000D03*
X116440000Y-49530000D03*
X117240000Y-49530000D03*
X118040000Y-49530000D03*
X118040000Y-47830000D03*
X117240000Y-47830000D03*
X116440000Y-47830000D03*
X115640000Y-47830000D03*
D13*
X111440000Y-63500000D03*
X109540000Y-63500000D03*
D10*
X130810000Y-39958802D03*
X131309999Y-39958802D03*
X131809998Y-39958802D03*
X131809998Y-38354000D03*
X131309999Y-38354000D03*
X130810000Y-38354000D03*
D13*
X129220000Y-62611000D03*
X127320000Y-62611000D03*
D18*
X116967000Y-78232000D03*
X118867000Y-78232000D03*
D13*
X129220000Y-60452000D03*
X127320000Y-60452000D03*
D16*
X127357500Y-58420000D03*
X129182500Y-58420000D03*
D22*
X120769400Y-88359001D03*
X120769400Y-87409000D03*
X120769400Y-86458999D03*
X118178600Y-86458999D03*
X118178600Y-87409000D03*
X118178600Y-88359001D03*
D10*
X107950000Y-28494198D03*
X107450001Y-28494198D03*
X106950002Y-28494198D03*
X106950002Y-30099000D03*
X107450001Y-30099000D03*
X107950000Y-30099000D03*
M02*
