%TF.GenerationSoftware,KiCad,Pcbnew,8.0.4*%
%TF.CreationDate,2024-11-14T19:13:44-05:00*%
%TF.ProjectId,ADS1299_Breakout_Board,41445331-3239-4395-9f42-7265616b6f75,rev?*%
%TF.SameCoordinates,Original*%
%TF.FileFunction,Legend,Top*%
%TF.FilePolarity,Positive*%
%FSLAX46Y46*%
G04 Gerber Fmt 4.6, Leading zero omitted, Abs format (unit mm)*
G04 Created by KiCad (PCBNEW 8.0.4) date 2024-11-14 19:13:44*
%MOMM*%
%LPD*%
G01*
G04 APERTURE LIST*
%ADD10C,0.150000*%
%ADD11C,0.120000*%
%ADD12C,0.200000*%
%ADD13C,0.152400*%
%ADD14C,0.127000*%
G04 APERTURE END LIST*
D10*
X144085714Y-110061104D02*
X144047618Y-110099200D01*
X144047618Y-110099200D02*
X143933333Y-110137295D01*
X143933333Y-110137295D02*
X143857142Y-110137295D01*
X143857142Y-110137295D02*
X143742856Y-110099200D01*
X143742856Y-110099200D02*
X143666666Y-110023009D01*
X143666666Y-110023009D02*
X143628571Y-109946819D01*
X143628571Y-109946819D02*
X143590475Y-109794438D01*
X143590475Y-109794438D02*
X143590475Y-109680152D01*
X143590475Y-109680152D02*
X143628571Y-109527771D01*
X143628571Y-109527771D02*
X143666666Y-109451580D01*
X143666666Y-109451580D02*
X143742856Y-109375390D01*
X143742856Y-109375390D02*
X143857142Y-109337295D01*
X143857142Y-109337295D02*
X143933333Y-109337295D01*
X143933333Y-109337295D02*
X144047618Y-109375390D01*
X144047618Y-109375390D02*
X144085714Y-109413485D01*
X144847618Y-110137295D02*
X144390475Y-110137295D01*
X144619047Y-110137295D02*
X144619047Y-109337295D01*
X144619047Y-109337295D02*
X144542856Y-109451580D01*
X144542856Y-109451580D02*
X144466666Y-109527771D01*
X144466666Y-109527771D02*
X144390475Y-109565866D01*
X145152380Y-109413485D02*
X145190476Y-109375390D01*
X145190476Y-109375390D02*
X145266666Y-109337295D01*
X145266666Y-109337295D02*
X145457142Y-109337295D01*
X145457142Y-109337295D02*
X145533333Y-109375390D01*
X145533333Y-109375390D02*
X145571428Y-109413485D01*
X145571428Y-109413485D02*
X145609523Y-109489676D01*
X145609523Y-109489676D02*
X145609523Y-109565866D01*
X145609523Y-109565866D02*
X145571428Y-109680152D01*
X145571428Y-109680152D02*
X145114285Y-110137295D01*
X145114285Y-110137295D02*
X145609523Y-110137295D01*
X143159523Y-55254819D02*
X142826190Y-54778628D01*
X142588095Y-55254819D02*
X142588095Y-54254819D01*
X142588095Y-54254819D02*
X142969047Y-54254819D01*
X142969047Y-54254819D02*
X143064285Y-54302438D01*
X143064285Y-54302438D02*
X143111904Y-54350057D01*
X143111904Y-54350057D02*
X143159523Y-54445295D01*
X143159523Y-54445295D02*
X143159523Y-54588152D01*
X143159523Y-54588152D02*
X143111904Y-54683390D01*
X143111904Y-54683390D02*
X143064285Y-54731009D01*
X143064285Y-54731009D02*
X142969047Y-54778628D01*
X142969047Y-54778628D02*
X142588095Y-54778628D01*
X143588095Y-55254819D02*
X143588095Y-54254819D01*
X143588095Y-54254819D02*
X144159523Y-55254819D01*
X144159523Y-55254819D02*
X144159523Y-54254819D01*
X144540476Y-54254819D02*
X145159523Y-54254819D01*
X145159523Y-54254819D02*
X144826190Y-54635771D01*
X144826190Y-54635771D02*
X144969047Y-54635771D01*
X144969047Y-54635771D02*
X145064285Y-54683390D01*
X145064285Y-54683390D02*
X145111904Y-54731009D01*
X145111904Y-54731009D02*
X145159523Y-54826247D01*
X145159523Y-54826247D02*
X145159523Y-55064342D01*
X145159523Y-55064342D02*
X145111904Y-55159580D01*
X145111904Y-55159580D02*
X145064285Y-55207200D01*
X145064285Y-55207200D02*
X144969047Y-55254819D01*
X144969047Y-55254819D02*
X144683333Y-55254819D01*
X144683333Y-55254819D02*
X144588095Y-55207200D01*
X144588095Y-55207200D02*
X144540476Y-55159580D01*
X132238094Y-63954820D02*
X132238094Y-64764343D01*
X132238094Y-64764343D02*
X132285713Y-64859581D01*
X132285713Y-64859581D02*
X132333332Y-64907201D01*
X132333332Y-64907201D02*
X132428570Y-64954820D01*
X132428570Y-64954820D02*
X132619046Y-64954820D01*
X132619046Y-64954820D02*
X132714284Y-64907201D01*
X132714284Y-64907201D02*
X132761903Y-64859581D01*
X132761903Y-64859581D02*
X132809522Y-64764343D01*
X132809522Y-64764343D02*
X132809522Y-63954820D01*
X133761903Y-63954820D02*
X133285713Y-63954820D01*
X133285713Y-63954820D02*
X133238094Y-64431010D01*
X133238094Y-64431010D02*
X133285713Y-64383391D01*
X133285713Y-64383391D02*
X133380951Y-64335772D01*
X133380951Y-64335772D02*
X133619046Y-64335772D01*
X133619046Y-64335772D02*
X133714284Y-64383391D01*
X133714284Y-64383391D02*
X133761903Y-64431010D01*
X133761903Y-64431010D02*
X133809522Y-64526248D01*
X133809522Y-64526248D02*
X133809522Y-64764343D01*
X133809522Y-64764343D02*
X133761903Y-64859581D01*
X133761903Y-64859581D02*
X133714284Y-64907201D01*
X133714284Y-64907201D02*
X133619046Y-64954820D01*
X133619046Y-64954820D02*
X133380951Y-64954820D01*
X133380951Y-64954820D02*
X133285713Y-64907201D01*
X133285713Y-64907201D02*
X133238094Y-64859581D01*
X143259523Y-65454819D02*
X142926190Y-64978628D01*
X142688095Y-65454819D02*
X142688095Y-64454819D01*
X142688095Y-64454819D02*
X143069047Y-64454819D01*
X143069047Y-64454819D02*
X143164285Y-64502438D01*
X143164285Y-64502438D02*
X143211904Y-64550057D01*
X143211904Y-64550057D02*
X143259523Y-64645295D01*
X143259523Y-64645295D02*
X143259523Y-64788152D01*
X143259523Y-64788152D02*
X143211904Y-64883390D01*
X143211904Y-64883390D02*
X143164285Y-64931009D01*
X143164285Y-64931009D02*
X143069047Y-64978628D01*
X143069047Y-64978628D02*
X142688095Y-64978628D01*
X143688095Y-65454819D02*
X143688095Y-64454819D01*
X143688095Y-64454819D02*
X144259523Y-65454819D01*
X144259523Y-65454819D02*
X144259523Y-64454819D01*
X145164285Y-64788152D02*
X145164285Y-65454819D01*
X144926190Y-64407200D02*
X144688095Y-65121485D01*
X144688095Y-65121485D02*
X145307142Y-65121485D01*
X143059523Y-105454819D02*
X142726190Y-104978628D01*
X142488095Y-105454819D02*
X142488095Y-104454819D01*
X142488095Y-104454819D02*
X142869047Y-104454819D01*
X142869047Y-104454819D02*
X142964285Y-104502438D01*
X142964285Y-104502438D02*
X143011904Y-104550057D01*
X143011904Y-104550057D02*
X143059523Y-104645295D01*
X143059523Y-104645295D02*
X143059523Y-104788152D01*
X143059523Y-104788152D02*
X143011904Y-104883390D01*
X143011904Y-104883390D02*
X142964285Y-104931009D01*
X142964285Y-104931009D02*
X142869047Y-104978628D01*
X142869047Y-104978628D02*
X142488095Y-104978628D01*
X143488095Y-105454819D02*
X143488095Y-104454819D01*
X143488095Y-104454819D02*
X144059523Y-105454819D01*
X144059523Y-105454819D02*
X144059523Y-104454819D01*
X144488095Y-104550057D02*
X144535714Y-104502438D01*
X144535714Y-104502438D02*
X144630952Y-104454819D01*
X144630952Y-104454819D02*
X144869047Y-104454819D01*
X144869047Y-104454819D02*
X144964285Y-104502438D01*
X144964285Y-104502438D02*
X145011904Y-104550057D01*
X145011904Y-104550057D02*
X145059523Y-104645295D01*
X145059523Y-104645295D02*
X145059523Y-104740533D01*
X145059523Y-104740533D02*
X145011904Y-104883390D01*
X145011904Y-104883390D02*
X144440476Y-105454819D01*
X144440476Y-105454819D02*
X145059523Y-105454819D01*
X144485714Y-67086104D02*
X144447618Y-67124200D01*
X144447618Y-67124200D02*
X144333333Y-67162295D01*
X144333333Y-67162295D02*
X144257142Y-67162295D01*
X144257142Y-67162295D02*
X144142856Y-67124200D01*
X144142856Y-67124200D02*
X144066666Y-67048009D01*
X144066666Y-67048009D02*
X144028571Y-66971819D01*
X144028571Y-66971819D02*
X143990475Y-66819438D01*
X143990475Y-66819438D02*
X143990475Y-66705152D01*
X143990475Y-66705152D02*
X144028571Y-66552771D01*
X144028571Y-66552771D02*
X144066666Y-66476580D01*
X144066666Y-66476580D02*
X144142856Y-66400390D01*
X144142856Y-66400390D02*
X144257142Y-66362295D01*
X144257142Y-66362295D02*
X144333333Y-66362295D01*
X144333333Y-66362295D02*
X144447618Y-66400390D01*
X144447618Y-66400390D02*
X144485714Y-66438485D01*
X145247618Y-67162295D02*
X144790475Y-67162295D01*
X145019047Y-67162295D02*
X145019047Y-66362295D01*
X145019047Y-66362295D02*
X144942856Y-66476580D01*
X144942856Y-66476580D02*
X144866666Y-66552771D01*
X144866666Y-66552771D02*
X144790475Y-66590866D01*
X145933333Y-66628961D02*
X145933333Y-67162295D01*
X145742857Y-66324200D02*
X145552380Y-66895628D01*
X145552380Y-66895628D02*
X146047619Y-66895628D01*
X131988094Y-53454820D02*
X131988094Y-54264343D01*
X131988094Y-54264343D02*
X132035713Y-54359581D01*
X132035713Y-54359581D02*
X132083332Y-54407201D01*
X132083332Y-54407201D02*
X132178570Y-54454820D01*
X132178570Y-54454820D02*
X132369046Y-54454820D01*
X132369046Y-54454820D02*
X132464284Y-54407201D01*
X132464284Y-54407201D02*
X132511903Y-54359581D01*
X132511903Y-54359581D02*
X132559522Y-54264343D01*
X132559522Y-54264343D02*
X132559522Y-53454820D01*
X133464284Y-53788153D02*
X133464284Y-54454820D01*
X133226189Y-53407201D02*
X132988094Y-54121486D01*
X132988094Y-54121486D02*
X133607141Y-54121486D01*
X158638095Y-72654819D02*
X158638095Y-73464342D01*
X158638095Y-73464342D02*
X158685714Y-73559580D01*
X158685714Y-73559580D02*
X158733333Y-73607200D01*
X158733333Y-73607200D02*
X158828571Y-73654819D01*
X158828571Y-73654819D02*
X159019047Y-73654819D01*
X159019047Y-73654819D02*
X159114285Y-73607200D01*
X159114285Y-73607200D02*
X159161904Y-73559580D01*
X159161904Y-73559580D02*
X159209523Y-73464342D01*
X159209523Y-73464342D02*
X159209523Y-72654819D01*
X159638095Y-72750057D02*
X159685714Y-72702438D01*
X159685714Y-72702438D02*
X159780952Y-72654819D01*
X159780952Y-72654819D02*
X160019047Y-72654819D01*
X160019047Y-72654819D02*
X160114285Y-72702438D01*
X160114285Y-72702438D02*
X160161904Y-72750057D01*
X160161904Y-72750057D02*
X160209523Y-72845295D01*
X160209523Y-72845295D02*
X160209523Y-72940533D01*
X160209523Y-72940533D02*
X160161904Y-73083390D01*
X160161904Y-73083390D02*
X159590476Y-73654819D01*
X159590476Y-73654819D02*
X160209523Y-73654819D01*
X138666666Y-68124819D02*
X138666666Y-68839104D01*
X138666666Y-68839104D02*
X138619047Y-68981961D01*
X138619047Y-68981961D02*
X138523809Y-69077200D01*
X138523809Y-69077200D02*
X138380952Y-69124819D01*
X138380952Y-69124819D02*
X138285714Y-69124819D01*
X139095238Y-68220057D02*
X139142857Y-68172438D01*
X139142857Y-68172438D02*
X139238095Y-68124819D01*
X139238095Y-68124819D02*
X139476190Y-68124819D01*
X139476190Y-68124819D02*
X139571428Y-68172438D01*
X139571428Y-68172438D02*
X139619047Y-68220057D01*
X139619047Y-68220057D02*
X139666666Y-68315295D01*
X139666666Y-68315295D02*
X139666666Y-68410533D01*
X139666666Y-68410533D02*
X139619047Y-68553390D01*
X139619047Y-68553390D02*
X139047619Y-69124819D01*
X139047619Y-69124819D02*
X139666666Y-69124819D01*
X143259523Y-77654819D02*
X142926190Y-77178628D01*
X142688095Y-77654819D02*
X142688095Y-76654819D01*
X142688095Y-76654819D02*
X143069047Y-76654819D01*
X143069047Y-76654819D02*
X143164285Y-76702438D01*
X143164285Y-76702438D02*
X143211904Y-76750057D01*
X143211904Y-76750057D02*
X143259523Y-76845295D01*
X143259523Y-76845295D02*
X143259523Y-76988152D01*
X143259523Y-76988152D02*
X143211904Y-77083390D01*
X143211904Y-77083390D02*
X143164285Y-77131009D01*
X143164285Y-77131009D02*
X143069047Y-77178628D01*
X143069047Y-77178628D02*
X142688095Y-77178628D01*
X143688095Y-77654819D02*
X143688095Y-76654819D01*
X143688095Y-76654819D02*
X144259523Y-77654819D01*
X144259523Y-77654819D02*
X144259523Y-76654819D01*
X145211904Y-76654819D02*
X144735714Y-76654819D01*
X144735714Y-76654819D02*
X144688095Y-77131009D01*
X144688095Y-77131009D02*
X144735714Y-77083390D01*
X144735714Y-77083390D02*
X144830952Y-77035771D01*
X144830952Y-77035771D02*
X145069047Y-77035771D01*
X145069047Y-77035771D02*
X145164285Y-77083390D01*
X145164285Y-77083390D02*
X145211904Y-77131009D01*
X145211904Y-77131009D02*
X145259523Y-77226247D01*
X145259523Y-77226247D02*
X145259523Y-77464342D01*
X145259523Y-77464342D02*
X145211904Y-77559580D01*
X145211904Y-77559580D02*
X145164285Y-77607200D01*
X145164285Y-77607200D02*
X145069047Y-77654819D01*
X145069047Y-77654819D02*
X144830952Y-77654819D01*
X144830952Y-77654819D02*
X144735714Y-77607200D01*
X144735714Y-77607200D02*
X144688095Y-77559580D01*
X144885714Y-47286104D02*
X144847618Y-47324200D01*
X144847618Y-47324200D02*
X144733333Y-47362295D01*
X144733333Y-47362295D02*
X144657142Y-47362295D01*
X144657142Y-47362295D02*
X144542856Y-47324200D01*
X144542856Y-47324200D02*
X144466666Y-47248009D01*
X144466666Y-47248009D02*
X144428571Y-47171819D01*
X144428571Y-47171819D02*
X144390475Y-47019438D01*
X144390475Y-47019438D02*
X144390475Y-46905152D01*
X144390475Y-46905152D02*
X144428571Y-46752771D01*
X144428571Y-46752771D02*
X144466666Y-46676580D01*
X144466666Y-46676580D02*
X144542856Y-46600390D01*
X144542856Y-46600390D02*
X144657142Y-46562295D01*
X144657142Y-46562295D02*
X144733333Y-46562295D01*
X144733333Y-46562295D02*
X144847618Y-46600390D01*
X144847618Y-46600390D02*
X144885714Y-46638485D01*
X145647618Y-47362295D02*
X145190475Y-47362295D01*
X145419047Y-47362295D02*
X145419047Y-46562295D01*
X145419047Y-46562295D02*
X145342856Y-46676580D01*
X145342856Y-46676580D02*
X145266666Y-46752771D01*
X145266666Y-46752771D02*
X145190475Y-46790866D01*
X145914285Y-46562295D02*
X146409523Y-46562295D01*
X146409523Y-46562295D02*
X146142857Y-46867057D01*
X146142857Y-46867057D02*
X146257142Y-46867057D01*
X146257142Y-46867057D02*
X146333333Y-46905152D01*
X146333333Y-46905152D02*
X146371428Y-46943247D01*
X146371428Y-46943247D02*
X146409523Y-47019438D01*
X146409523Y-47019438D02*
X146409523Y-47209914D01*
X146409523Y-47209914D02*
X146371428Y-47286104D01*
X146371428Y-47286104D02*
X146333333Y-47324200D01*
X146333333Y-47324200D02*
X146257142Y-47362295D01*
X146257142Y-47362295D02*
X146028571Y-47362295D01*
X146028571Y-47362295D02*
X145952380Y-47324200D01*
X145952380Y-47324200D02*
X145914285Y-47286104D01*
X132238094Y-86454818D02*
X132238094Y-87264341D01*
X132238094Y-87264341D02*
X132285713Y-87359579D01*
X132285713Y-87359579D02*
X132333332Y-87407199D01*
X132333332Y-87407199D02*
X132428570Y-87454818D01*
X132428570Y-87454818D02*
X132619046Y-87454818D01*
X132619046Y-87454818D02*
X132714284Y-87407199D01*
X132714284Y-87407199D02*
X132761903Y-87359579D01*
X132761903Y-87359579D02*
X132809522Y-87264341D01*
X132809522Y-87264341D02*
X132809522Y-86454818D01*
X133809522Y-87454818D02*
X133238094Y-87454818D01*
X133523808Y-87454818D02*
X133523808Y-86454818D01*
X133523808Y-86454818D02*
X133428570Y-86597675D01*
X133428570Y-86597675D02*
X133333332Y-86692913D01*
X133333332Y-86692913D02*
X133238094Y-86740532D01*
X138666666Y-45344819D02*
X138666666Y-46059104D01*
X138666666Y-46059104D02*
X138619047Y-46201961D01*
X138619047Y-46201961D02*
X138523809Y-46297200D01*
X138523809Y-46297200D02*
X138380952Y-46344819D01*
X138380952Y-46344819D02*
X138285714Y-46344819D01*
X139666666Y-46344819D02*
X139095238Y-46344819D01*
X139380952Y-46344819D02*
X139380952Y-45344819D01*
X139380952Y-45344819D02*
X139285714Y-45487676D01*
X139285714Y-45487676D02*
X139190476Y-45582914D01*
X139190476Y-45582914D02*
X139095238Y-45630533D01*
X143359523Y-87854819D02*
X143026190Y-87378628D01*
X142788095Y-87854819D02*
X142788095Y-86854819D01*
X142788095Y-86854819D02*
X143169047Y-86854819D01*
X143169047Y-86854819D02*
X143264285Y-86902438D01*
X143264285Y-86902438D02*
X143311904Y-86950057D01*
X143311904Y-86950057D02*
X143359523Y-87045295D01*
X143359523Y-87045295D02*
X143359523Y-87188152D01*
X143359523Y-87188152D02*
X143311904Y-87283390D01*
X143311904Y-87283390D02*
X143264285Y-87331009D01*
X143264285Y-87331009D02*
X143169047Y-87378628D01*
X143169047Y-87378628D02*
X142788095Y-87378628D01*
X143788095Y-87854819D02*
X143788095Y-86854819D01*
X143788095Y-86854819D02*
X144359523Y-87854819D01*
X144359523Y-87854819D02*
X144359523Y-86854819D01*
X145359523Y-87854819D02*
X144788095Y-87854819D01*
X145073809Y-87854819D02*
X145073809Y-86854819D01*
X145073809Y-86854819D02*
X144978571Y-86997676D01*
X144978571Y-86997676D02*
X144883333Y-87092914D01*
X144883333Y-87092914D02*
X144788095Y-87140533D01*
X132238094Y-109454818D02*
X132238094Y-110264341D01*
X132238094Y-110264341D02*
X132285713Y-110359579D01*
X132285713Y-110359579D02*
X132333332Y-110407199D01*
X132333332Y-110407199D02*
X132428570Y-110454818D01*
X132428570Y-110454818D02*
X132619046Y-110454818D01*
X132619046Y-110454818D02*
X132714284Y-110407199D01*
X132714284Y-110407199D02*
X132761903Y-110359579D01*
X132761903Y-110359579D02*
X132809522Y-110264341D01*
X132809522Y-110264341D02*
X132809522Y-109454818D01*
X133190475Y-109454818D02*
X133809522Y-109454818D01*
X133809522Y-109454818D02*
X133476189Y-109835770D01*
X133476189Y-109835770D02*
X133619046Y-109835770D01*
X133619046Y-109835770D02*
X133714284Y-109883389D01*
X133714284Y-109883389D02*
X133761903Y-109931008D01*
X133761903Y-109931008D02*
X133809522Y-110026246D01*
X133809522Y-110026246D02*
X133809522Y-110264341D01*
X133809522Y-110264341D02*
X133761903Y-110359579D01*
X133761903Y-110359579D02*
X133714284Y-110407199D01*
X133714284Y-110407199D02*
X133619046Y-110454818D01*
X133619046Y-110454818D02*
X133333332Y-110454818D01*
X133333332Y-110454818D02*
X133238094Y-110407199D01*
X133238094Y-110407199D02*
X133190475Y-110359579D01*
X131988094Y-98954818D02*
X131988094Y-99764341D01*
X131988094Y-99764341D02*
X132035713Y-99859579D01*
X132035713Y-99859579D02*
X132083332Y-99907199D01*
X132083332Y-99907199D02*
X132178570Y-99954818D01*
X132178570Y-99954818D02*
X132369046Y-99954818D01*
X132369046Y-99954818D02*
X132464284Y-99907199D01*
X132464284Y-99907199D02*
X132511903Y-99859579D01*
X132511903Y-99859579D02*
X132559522Y-99764341D01*
X132559522Y-99764341D02*
X132559522Y-98954818D01*
X133464284Y-98954818D02*
X133273808Y-98954818D01*
X133273808Y-98954818D02*
X133178570Y-99002437D01*
X133178570Y-99002437D02*
X133130951Y-99050056D01*
X133130951Y-99050056D02*
X133035713Y-99192913D01*
X133035713Y-99192913D02*
X132988094Y-99383389D01*
X132988094Y-99383389D02*
X132988094Y-99764341D01*
X132988094Y-99764341D02*
X133035713Y-99859579D01*
X133035713Y-99859579D02*
X133083332Y-99907199D01*
X133083332Y-99907199D02*
X133178570Y-99954818D01*
X133178570Y-99954818D02*
X133369046Y-99954818D01*
X133369046Y-99954818D02*
X133464284Y-99907199D01*
X133464284Y-99907199D02*
X133511903Y-99859579D01*
X133511903Y-99859579D02*
X133559522Y-99764341D01*
X133559522Y-99764341D02*
X133559522Y-99526246D01*
X133559522Y-99526246D02*
X133511903Y-99431008D01*
X133511903Y-99431008D02*
X133464284Y-99383389D01*
X133464284Y-99383389D02*
X133369046Y-99335770D01*
X133369046Y-99335770D02*
X133178570Y-99335770D01*
X133178570Y-99335770D02*
X133083332Y-99383389D01*
X133083332Y-99383389D02*
X133035713Y-99431008D01*
X133035713Y-99431008D02*
X132988094Y-99526246D01*
X149735714Y-88286104D02*
X149697618Y-88324200D01*
X149697618Y-88324200D02*
X149583333Y-88362295D01*
X149583333Y-88362295D02*
X149507142Y-88362295D01*
X149507142Y-88362295D02*
X149392856Y-88324200D01*
X149392856Y-88324200D02*
X149316666Y-88248009D01*
X149316666Y-88248009D02*
X149278571Y-88171819D01*
X149278571Y-88171819D02*
X149240475Y-88019438D01*
X149240475Y-88019438D02*
X149240475Y-87905152D01*
X149240475Y-87905152D02*
X149278571Y-87752771D01*
X149278571Y-87752771D02*
X149316666Y-87676580D01*
X149316666Y-87676580D02*
X149392856Y-87600390D01*
X149392856Y-87600390D02*
X149507142Y-87562295D01*
X149507142Y-87562295D02*
X149583333Y-87562295D01*
X149583333Y-87562295D02*
X149697618Y-87600390D01*
X149697618Y-87600390D02*
X149735714Y-87638485D01*
X150497618Y-88362295D02*
X150040475Y-88362295D01*
X150269047Y-88362295D02*
X150269047Y-87562295D01*
X150269047Y-87562295D02*
X150192856Y-87676580D01*
X150192856Y-87676580D02*
X150116666Y-87752771D01*
X150116666Y-87752771D02*
X150040475Y-87790866D01*
X151259523Y-88362295D02*
X150802380Y-88362295D01*
X151030952Y-88362295D02*
X151030952Y-87562295D01*
X151030952Y-87562295D02*
X150954761Y-87676580D01*
X150954761Y-87676580D02*
X150878571Y-87752771D01*
X150878571Y-87752771D02*
X150802380Y-87790866D01*
X144685714Y-70286104D02*
X144647618Y-70324200D01*
X144647618Y-70324200D02*
X144533333Y-70362295D01*
X144533333Y-70362295D02*
X144457142Y-70362295D01*
X144457142Y-70362295D02*
X144342856Y-70324200D01*
X144342856Y-70324200D02*
X144266666Y-70248009D01*
X144266666Y-70248009D02*
X144228571Y-70171819D01*
X144228571Y-70171819D02*
X144190475Y-70019438D01*
X144190475Y-70019438D02*
X144190475Y-69905152D01*
X144190475Y-69905152D02*
X144228571Y-69752771D01*
X144228571Y-69752771D02*
X144266666Y-69676580D01*
X144266666Y-69676580D02*
X144342856Y-69600390D01*
X144342856Y-69600390D02*
X144457142Y-69562295D01*
X144457142Y-69562295D02*
X144533333Y-69562295D01*
X144533333Y-69562295D02*
X144647618Y-69600390D01*
X144647618Y-69600390D02*
X144685714Y-69638485D01*
X144990475Y-69638485D02*
X145028571Y-69600390D01*
X145028571Y-69600390D02*
X145104761Y-69562295D01*
X145104761Y-69562295D02*
X145295237Y-69562295D01*
X145295237Y-69562295D02*
X145371428Y-69600390D01*
X145371428Y-69600390D02*
X145409523Y-69638485D01*
X145409523Y-69638485D02*
X145447618Y-69714676D01*
X145447618Y-69714676D02*
X145447618Y-69790866D01*
X145447618Y-69790866D02*
X145409523Y-69905152D01*
X145409523Y-69905152D02*
X144952380Y-70362295D01*
X144952380Y-70362295D02*
X145447618Y-70362295D01*
X145714285Y-69562295D02*
X146209523Y-69562295D01*
X146209523Y-69562295D02*
X145942857Y-69867057D01*
X145942857Y-69867057D02*
X146057142Y-69867057D01*
X146057142Y-69867057D02*
X146133333Y-69905152D01*
X146133333Y-69905152D02*
X146171428Y-69943247D01*
X146171428Y-69943247D02*
X146209523Y-70019438D01*
X146209523Y-70019438D02*
X146209523Y-70209914D01*
X146209523Y-70209914D02*
X146171428Y-70286104D01*
X146171428Y-70286104D02*
X146133333Y-70324200D01*
X146133333Y-70324200D02*
X146057142Y-70362295D01*
X146057142Y-70362295D02*
X145828571Y-70362295D01*
X145828571Y-70362295D02*
X145752380Y-70324200D01*
X145752380Y-70324200D02*
X145714285Y-70286104D01*
X176866666Y-55924819D02*
X176866666Y-56639104D01*
X176866666Y-56639104D02*
X176819047Y-56781961D01*
X176819047Y-56781961D02*
X176723809Y-56877200D01*
X176723809Y-56877200D02*
X176580952Y-56924819D01*
X176580952Y-56924819D02*
X176485714Y-56924819D01*
X177819047Y-55924819D02*
X177342857Y-55924819D01*
X177342857Y-55924819D02*
X177295238Y-56401009D01*
X177295238Y-56401009D02*
X177342857Y-56353390D01*
X177342857Y-56353390D02*
X177438095Y-56305771D01*
X177438095Y-56305771D02*
X177676190Y-56305771D01*
X177676190Y-56305771D02*
X177771428Y-56353390D01*
X177771428Y-56353390D02*
X177819047Y-56401009D01*
X177819047Y-56401009D02*
X177866666Y-56496247D01*
X177866666Y-56496247D02*
X177866666Y-56734342D01*
X177866666Y-56734342D02*
X177819047Y-56829580D01*
X177819047Y-56829580D02*
X177771428Y-56877200D01*
X177771428Y-56877200D02*
X177676190Y-56924819D01*
X177676190Y-56924819D02*
X177438095Y-56924819D01*
X177438095Y-56924819D02*
X177342857Y-56877200D01*
X177342857Y-56877200D02*
X177295238Y-56829580D01*
X131988094Y-76204818D02*
X131988094Y-77014341D01*
X131988094Y-77014341D02*
X132035713Y-77109579D01*
X132035713Y-77109579D02*
X132083332Y-77157199D01*
X132083332Y-77157199D02*
X132178570Y-77204818D01*
X132178570Y-77204818D02*
X132369046Y-77204818D01*
X132369046Y-77204818D02*
X132464284Y-77157199D01*
X132464284Y-77157199D02*
X132511903Y-77109579D01*
X132511903Y-77109579D02*
X132559522Y-77014341D01*
X132559522Y-77014341D02*
X132559522Y-76204818D01*
X132940475Y-76204818D02*
X133607141Y-76204818D01*
X133607141Y-76204818D02*
X133178570Y-77204818D01*
X138466666Y-90924819D02*
X138466666Y-91639104D01*
X138466666Y-91639104D02*
X138419047Y-91781961D01*
X138419047Y-91781961D02*
X138323809Y-91877200D01*
X138323809Y-91877200D02*
X138180952Y-91924819D01*
X138180952Y-91924819D02*
X138085714Y-91924819D01*
X138847619Y-90924819D02*
X139466666Y-90924819D01*
X139466666Y-90924819D02*
X139133333Y-91305771D01*
X139133333Y-91305771D02*
X139276190Y-91305771D01*
X139276190Y-91305771D02*
X139371428Y-91353390D01*
X139371428Y-91353390D02*
X139419047Y-91401009D01*
X139419047Y-91401009D02*
X139466666Y-91496247D01*
X139466666Y-91496247D02*
X139466666Y-91734342D01*
X139466666Y-91734342D02*
X139419047Y-91829580D01*
X139419047Y-91829580D02*
X139371428Y-91877200D01*
X139371428Y-91877200D02*
X139276190Y-91924819D01*
X139276190Y-91924819D02*
X138990476Y-91924819D01*
X138990476Y-91924819D02*
X138895238Y-91877200D01*
X138895238Y-91877200D02*
X138847619Y-91829580D01*
X177066666Y-100654819D02*
X177066666Y-101369104D01*
X177066666Y-101369104D02*
X177019047Y-101511961D01*
X177019047Y-101511961D02*
X176923809Y-101607200D01*
X176923809Y-101607200D02*
X176780952Y-101654819D01*
X176780952Y-101654819D02*
X176685714Y-101654819D01*
X177971428Y-100988152D02*
X177971428Y-101654819D01*
X177733333Y-100607200D02*
X177495238Y-101321485D01*
X177495238Y-101321485D02*
X178114285Y-101321485D01*
D11*
%TO.C,C10*%
X160238748Y-70515000D02*
X160761252Y-70515000D01*
X160238748Y-71985000D02*
X160761252Y-71985000D01*
%TO.C,C9*%
X159515000Y-92488748D02*
X159515000Y-93011252D01*
X160985000Y-92488748D02*
X160985000Y-93011252D01*
%TO.C,C22*%
X157238748Y-95015000D02*
X157761252Y-95015000D01*
X157238748Y-96485000D02*
X157761252Y-96485000D01*
D12*
%TO.C,C12*%
X146275000Y-110325000D02*
G75*
G02*
X146075000Y-110325000I-100000J0D01*
G01*
X146075000Y-110325000D02*
G75*
G02*
X146275000Y-110325000I100000J0D01*
G01*
D11*
%TO.C,RN3*%
X143450000Y-50480000D02*
X144250000Y-50480000D01*
X143450000Y-53920000D02*
X144250000Y-53920000D01*
%TO.C,C3*%
X164803500Y-87915748D02*
X164803500Y-88438252D01*
X166273500Y-87915748D02*
X166273500Y-88438252D01*
D13*
%TO.C,U5*%
X133923000Y-61820600D02*
X133923000Y-63374600D01*
X135877000Y-63374600D02*
X135877000Y-61820600D01*
X135326171Y-61110059D02*
G75*
G02*
X135473829Y-61110059I73829J18859D01*
G01*
D11*
%TO.C,RN4*%
X143550000Y-60680000D02*
X144350000Y-60680000D01*
X143550000Y-64120000D02*
X144350000Y-64120000D01*
%TO.C,C17*%
X159515000Y-88988748D02*
X159515000Y-89511252D01*
X160985000Y-88988748D02*
X160985000Y-89511252D01*
%TO.C,RN2*%
X143350000Y-100680000D02*
X144150000Y-100680000D01*
X143350000Y-104120000D02*
X144150000Y-104120000D01*
%TO.C,C15*%
X169038748Y-70515000D02*
X169561252Y-70515000D01*
X169038748Y-71985000D02*
X169561252Y-71985000D01*
D12*
%TO.C,C14*%
X146875000Y-67150000D02*
G75*
G02*
X146675000Y-67150000I-100000J0D01*
G01*
X146675000Y-67150000D02*
G75*
G02*
X146875000Y-67150000I100000J0D01*
G01*
D13*
%TO.C,U4*%
X133723000Y-51420600D02*
X133723000Y-52974600D01*
X135677000Y-52974600D02*
X135677000Y-51420600D01*
X135126171Y-50710059D02*
G75*
G02*
X135273829Y-50710059I73829J18859D01*
G01*
D11*
%TO.C,C7*%
X165488748Y-70515000D02*
X166011252Y-70515000D01*
X165488748Y-71985000D02*
X166011252Y-71985000D01*
%TO.C,C6*%
X166009052Y-68515000D02*
X165486548Y-68515000D01*
X166009052Y-69985000D02*
X165486548Y-69985000D01*
%TO.C,C18*%
X161515000Y-88988748D02*
X161515000Y-89511252D01*
X162985000Y-88988748D02*
X162985000Y-89511252D01*
D14*
%TO.C,U2*%
X160050000Y-74120000D02*
X160050000Y-74910000D01*
X160050000Y-74120000D02*
X160840000Y-74120000D01*
X160050000Y-84120000D02*
X160050000Y-83330000D01*
X160050000Y-84120000D02*
X160840000Y-84120000D01*
X170050000Y-74120000D02*
X169260000Y-74120000D01*
X170050000Y-74120000D02*
X170050000Y-74910000D01*
X170050000Y-84120000D02*
X169260000Y-84120000D01*
X170050000Y-84120000D02*
X170050000Y-83330000D01*
D12*
X157710000Y-75370000D02*
G75*
G02*
X157510000Y-75370000I-100000J0D01*
G01*
X157510000Y-75370000D02*
G75*
G02*
X157710000Y-75370000I100000J0D01*
G01*
D11*
%TO.C,C20*%
X157238748Y-93015000D02*
X157761252Y-93015000D01*
X157238748Y-94485000D02*
X157761252Y-94485000D01*
%TO.C,J2*%
X137670000Y-69670000D02*
X139000000Y-69670000D01*
X137670000Y-71000000D02*
X137670000Y-69670000D01*
X137670000Y-72270000D02*
X137670000Y-90110000D01*
X137670000Y-72270000D02*
X140330000Y-72270000D01*
X137670000Y-90110000D02*
X140330000Y-90110000D01*
X140330000Y-72270000D02*
X140330000Y-90110000D01*
%TO.C,RN5*%
X143550000Y-72880000D02*
X144350000Y-72880000D01*
X143550000Y-76320000D02*
X144350000Y-76320000D01*
D12*
%TO.C,C13*%
X148525000Y-47000000D02*
G75*
G02*
X148325000Y-47000000I-100000J0D01*
G01*
X148325000Y-47000000D02*
G75*
G02*
X148525000Y-47000000I100000J0D01*
G01*
D11*
%TO.C,R1*%
X160727064Y-68515000D02*
X160272936Y-68515000D01*
X160727064Y-69985000D02*
X160272936Y-69985000D01*
D13*
%TO.C,U1*%
X133723000Y-84225400D02*
X133723000Y-85779400D01*
X135677000Y-85779400D02*
X135677000Y-84225400D01*
X135126171Y-83514859D02*
G75*
G02*
X135273829Y-83514859I73829J18859D01*
G01*
D11*
%TO.C,J1*%
X137670000Y-46890000D02*
X139000000Y-46890000D01*
X137670000Y-48220000D02*
X137670000Y-46890000D01*
X137670000Y-49490000D02*
X137670000Y-67330000D01*
X137670000Y-49490000D02*
X140330000Y-49490000D01*
X137670000Y-67330000D02*
X140330000Y-67330000D01*
X140330000Y-49490000D02*
X140330000Y-67330000D01*
%TO.C,RN1*%
X143650000Y-83080000D02*
X144450000Y-83080000D01*
X143650000Y-86520000D02*
X144450000Y-86520000D01*
%TO.C,C5*%
X168914400Y-87988748D02*
X168914400Y-88511252D01*
X170384400Y-87988748D02*
X170384400Y-88511252D01*
D13*
%TO.C,U3*%
X133923000Y-107225400D02*
X133923000Y-108779400D01*
X135877000Y-108779400D02*
X135877000Y-107225400D01*
X135326171Y-106514859D02*
G75*
G02*
X135473829Y-106514859I73829J18859D01*
G01*
D11*
%TO.C,C16*%
X168988748Y-68515000D02*
X169511252Y-68515000D01*
X168988748Y-69985000D02*
X169511252Y-69985000D01*
%TO.C,C21*%
X157238748Y-91015000D02*
X157761252Y-91015000D01*
X157238748Y-92485000D02*
X157761252Y-92485000D01*
%TO.C,C8*%
X161515000Y-92488748D02*
X161515000Y-93011252D01*
X162985000Y-92488748D02*
X162985000Y-93011252D01*
%TO.C,C1*%
X168982800Y-92011252D02*
X168982800Y-91488748D01*
X170452800Y-92011252D02*
X170452800Y-91488748D01*
D13*
%TO.C,U6*%
X133923000Y-96825400D02*
X133923000Y-98379400D01*
X135877000Y-98379400D02*
X135877000Y-96825400D01*
X135326171Y-96114859D02*
G75*
G02*
X135473829Y-96114859I73829J18859D01*
G01*
D11*
%TO.C,C2*%
X164865000Y-92011252D02*
X164865000Y-91488748D01*
X166335000Y-92011252D02*
X166335000Y-91488748D01*
D12*
%TO.C,C11*%
X146975000Y-89550000D02*
G75*
G02*
X146775000Y-89550000I-100000J0D01*
G01*
X146775000Y-89550000D02*
G75*
G02*
X146975000Y-89550000I100000J0D01*
G01*
%TO.C,C23*%
X148425000Y-69800000D02*
G75*
G02*
X148225000Y-69800000I-100000J0D01*
G01*
X148225000Y-69800000D02*
G75*
G02*
X148425000Y-69800000I100000J0D01*
G01*
D11*
%TO.C,J5*%
X175870000Y-57470000D02*
X177200000Y-57470000D01*
X175870000Y-58800000D02*
X175870000Y-57470000D01*
X175870000Y-60070000D02*
X175870000Y-77910000D01*
X175870000Y-60070000D02*
X178530000Y-60070000D01*
X175870000Y-77910000D02*
X178530000Y-77910000D01*
X178530000Y-60070000D02*
X178530000Y-77910000D01*
D13*
%TO.C,U7*%
X133723000Y-74025400D02*
X133723000Y-75579400D01*
X135677000Y-75579400D02*
X135677000Y-74025400D01*
X135126171Y-73314859D02*
G75*
G02*
X135273829Y-73314859I73829J18859D01*
G01*
D11*
%TO.C,C19*%
X157238748Y-97015000D02*
X157761252Y-97015000D01*
X157238748Y-98485000D02*
X157761252Y-98485000D01*
%TO.C,C4*%
X166865000Y-87945848D02*
X166865000Y-88468352D01*
X168335000Y-87945848D02*
X168335000Y-88468352D01*
%TO.C,J3*%
X137470000Y-92470000D02*
X138800000Y-92470000D01*
X137470000Y-93800000D02*
X137470000Y-92470000D01*
X137470000Y-95070000D02*
X137470000Y-112910000D01*
X137470000Y-95070000D02*
X140130000Y-95070000D01*
X137470000Y-112910000D02*
X140130000Y-112910000D01*
X140130000Y-95070000D02*
X140130000Y-112910000D01*
%TO.C,J4*%
X175870000Y-79110000D02*
X177200000Y-79110000D01*
X175870000Y-80440000D02*
X175870000Y-79110000D01*
X175870000Y-81710000D02*
X175870000Y-99550000D01*
X175870000Y-81710000D02*
X178530000Y-81710000D01*
X175870000Y-99550000D02*
X178530000Y-99550000D01*
X178530000Y-81710000D02*
X178530000Y-99550000D01*
%TD*%
M02*
