%TF.GenerationSoftware,KiCad,Pcbnew,8.0.4*%
%TF.CreationDate,2024-11-14T19:13:44-05:00*%
%TF.ProjectId,ADS1299_Breakout_Board,41445331-3239-4395-9f42-7265616b6f75,rev?*%
%TF.SameCoordinates,Original*%
%TF.FileFunction,Soldermask,Bot*%
%TF.FilePolarity,Negative*%
%FSLAX46Y46*%
G04 Gerber Fmt 4.6, Leading zero omitted, Abs format (unit mm)*
G04 Created by KiCad (PCBNEW 8.0.4) date 2024-11-14 19:13:44*
%MOMM*%
%LPD*%
G01*
G04 APERTURE LIST*
%ADD10R,1.700000X1.700000*%
%ADD11O,1.700000X1.700000*%
G04 APERTURE END LIST*
D10*
%TO.C,J2*%
X139000000Y-71000000D03*
D11*
X139000000Y-73540000D03*
X139000000Y-76080000D03*
X139000000Y-78620000D03*
X139000000Y-81160000D03*
X139000000Y-83700000D03*
X139000000Y-86240000D03*
X139000000Y-88780000D03*
%TD*%
D10*
%TO.C,J1*%
X139000000Y-48220000D03*
D11*
X139000000Y-50760000D03*
X139000000Y-53300000D03*
X139000000Y-55840000D03*
X139000000Y-58380000D03*
X139000000Y-60920000D03*
X139000000Y-63460000D03*
X139000000Y-66000000D03*
%TD*%
D10*
%TO.C,J5*%
X177200000Y-58800000D03*
D11*
X177200000Y-61340000D03*
X177200000Y-63880000D03*
X177200000Y-66420000D03*
X177200000Y-68960000D03*
X177200000Y-71500000D03*
X177200000Y-74040000D03*
X177200000Y-76580000D03*
%TD*%
D10*
%TO.C,J3*%
X138800000Y-93800000D03*
D11*
X138800000Y-96340000D03*
X138800000Y-98880000D03*
X138800000Y-101420000D03*
X138800000Y-103960000D03*
X138800000Y-106500000D03*
X138800000Y-109040000D03*
X138800000Y-111580000D03*
%TD*%
D10*
%TO.C,J4*%
X177200000Y-80440000D03*
D11*
X177200000Y-82980000D03*
X177200000Y-85520000D03*
X177200000Y-88060000D03*
X177200000Y-90600000D03*
X177200000Y-93140000D03*
X177200000Y-95680000D03*
X177200000Y-98220000D03*
%TD*%
M02*
