%TF.GenerationSoftware,KiCad,Pcbnew,8.0.4*%
%TF.CreationDate,2024-11-14T19:13:44-05:00*%
%TF.ProjectId,ADS1299_Breakout_Board,41445331-3239-4395-9f42-7265616b6f75,rev?*%
%TF.SameCoordinates,Original*%
%TF.FileFunction,Paste,Top*%
%TF.FilePolarity,Positive*%
%FSLAX46Y46*%
G04 Gerber Fmt 4.6, Leading zero omitted, Abs format (unit mm)*
G04 Created by KiCad (PCBNEW 8.0.4) date 2024-11-14 19:13:44*
%MOMM*%
%LPD*%
G01*
G04 APERTURE LIST*
G04 Aperture macros list*
%AMRoundRect*
0 Rectangle with rounded corners*
0 $1 Rounding radius*
0 $2 $3 $4 $5 $6 $7 $8 $9 X,Y pos of 4 corners*
0 Add a 4 corners polygon primitive as box body*
4,1,4,$2,$3,$4,$5,$6,$7,$8,$9,$2,$3,0*
0 Add four circle primitives for the rounded corners*
1,1,$1+$1,$2,$3*
1,1,$1+$1,$4,$5*
1,1,$1+$1,$6,$7*
1,1,$1+$1,$8,$9*
0 Add four rect primitives between the rounded corners*
20,1,$1+$1,$2,$3,$4,$5,0*
20,1,$1+$1,$4,$5,$6,$7,0*
20,1,$1+$1,$6,$7,$8,$9,0*
20,1,$1+$1,$8,$9,$2,$3,0*%
G04 Aperture macros list end*
%ADD10RoundRect,0.250000X-0.250000X-0.475000X0.250000X-0.475000X0.250000X0.475000X-0.250000X0.475000X0*%
%ADD11RoundRect,0.250000X-0.475000X0.250000X-0.475000X-0.250000X0.475000X-0.250000X0.475000X0.250000X0*%
%ADD12R,0.250000X0.600000*%
%ADD13R,0.900000X0.400000*%
%ADD14R,0.199200X0.704800*%
%ADD15RoundRect,0.250000X0.250000X0.475000X-0.250000X0.475000X-0.250000X-0.475000X0.250000X-0.475000X0*%
%ADD16RoundRect,0.035000X-0.745000X-0.105000X0.745000X-0.105000X0.745000X0.105000X-0.745000X0.105000X0*%
%ADD17RoundRect,0.035000X-0.105000X-0.745000X0.105000X-0.745000X0.105000X0.745000X-0.105000X0.745000X0*%
%ADD18RoundRect,0.250000X0.262500X0.450000X-0.262500X0.450000X-0.262500X-0.450000X0.262500X-0.450000X0*%
%ADD19RoundRect,0.250000X0.475000X-0.250000X0.475000X0.250000X-0.475000X0.250000X-0.475000X-0.250000X0*%
G04 APERTURE END LIST*
D10*
%TO.C,C10*%
X159550000Y-71250000D03*
X161450000Y-71250000D03*
%TD*%
D11*
%TO.C,C9*%
X160250000Y-91800000D03*
X160250000Y-93700000D03*
%TD*%
D10*
%TO.C,C22*%
X156550000Y-95750000D03*
X158450000Y-95750000D03*
%TD*%
D12*
%TO.C,C12*%
X146200000Y-109325000D03*
X146700000Y-109325000D03*
X147200000Y-109325000D03*
X147700000Y-109325000D03*
X147700000Y-108175000D03*
X147200000Y-108175000D03*
X146700000Y-108175000D03*
X146200000Y-108175000D03*
%TD*%
D13*
%TO.C,RN3*%
X144700000Y-53400000D03*
X144700000Y-52600000D03*
X144700000Y-51800000D03*
X144700000Y-51000000D03*
X143000000Y-51000000D03*
X143000000Y-51800000D03*
X143000000Y-52600000D03*
X143000000Y-53400000D03*
%TD*%
D11*
%TO.C,C3*%
X165538500Y-87227000D03*
X165538500Y-89127000D03*
%TD*%
D14*
%TO.C,U5*%
X135399999Y-61795199D03*
X134900000Y-61795199D03*
X134400001Y-61795199D03*
X134400001Y-63400001D03*
X134900000Y-63400001D03*
X135399999Y-63400001D03*
%TD*%
D13*
%TO.C,RN4*%
X144800000Y-63600000D03*
X144800000Y-62800000D03*
X144800000Y-62000000D03*
X144800000Y-61200000D03*
X143100000Y-61200000D03*
X143100000Y-62000000D03*
X143100000Y-62800000D03*
X143100000Y-63600000D03*
%TD*%
D11*
%TO.C,C17*%
X160250000Y-88300000D03*
X160250000Y-90200000D03*
%TD*%
D13*
%TO.C,RN2*%
X144600000Y-103600000D03*
X144600000Y-102800000D03*
X144600000Y-102000000D03*
X144600000Y-101200000D03*
X142900000Y-101200000D03*
X142900000Y-102000000D03*
X142900000Y-102800000D03*
X142900000Y-103600000D03*
%TD*%
D10*
%TO.C,C15*%
X168350000Y-71250000D03*
X170250000Y-71250000D03*
%TD*%
D12*
%TO.C,C14*%
X146800000Y-66150000D03*
X147300000Y-66150000D03*
X147800000Y-66150000D03*
X148300000Y-66150000D03*
X148300000Y-65000000D03*
X147800000Y-65000000D03*
X147300000Y-65000000D03*
X146800000Y-65000000D03*
%TD*%
D14*
%TO.C,U4*%
X135199999Y-51395199D03*
X134700000Y-51395199D03*
X134200001Y-51395199D03*
X134200001Y-53000001D03*
X134700000Y-53000001D03*
X135199999Y-53000001D03*
%TD*%
D10*
%TO.C,C7*%
X164800000Y-71250000D03*
X166700000Y-71250000D03*
%TD*%
D15*
%TO.C,C6*%
X166697800Y-69250000D03*
X164797800Y-69250000D03*
%TD*%
D11*
%TO.C,C18*%
X162250000Y-88300000D03*
X162250000Y-90200000D03*
%TD*%
D16*
%TO.C,U2*%
X159370000Y-75370000D03*
X159370000Y-75870000D03*
X159370000Y-76370000D03*
X159370000Y-76870000D03*
X159370000Y-77370000D03*
X159370000Y-77870000D03*
X159370000Y-78370000D03*
X159370000Y-78870000D03*
X159370000Y-79370000D03*
X159370000Y-79870000D03*
X159370000Y-80370000D03*
X159370000Y-80870000D03*
X159370000Y-81370000D03*
X159370000Y-81870000D03*
X159370000Y-82370000D03*
X159370000Y-82870000D03*
D17*
X161300000Y-84800000D03*
X161800000Y-84800000D03*
X162300000Y-84800000D03*
X162800000Y-84800000D03*
X163300000Y-84800000D03*
X163800000Y-84800000D03*
X164300000Y-84800000D03*
X164800000Y-84800000D03*
X165300000Y-84800000D03*
X165800000Y-84800000D03*
X166300000Y-84800000D03*
X166800000Y-84800000D03*
X167300000Y-84800000D03*
X167800000Y-84800000D03*
X168300000Y-84800000D03*
X168800000Y-84800000D03*
D16*
X170730000Y-82870000D03*
X170730000Y-82370000D03*
X170730000Y-81870000D03*
X170730000Y-81370000D03*
X170730000Y-80870000D03*
X170730000Y-80370000D03*
X170730000Y-79870000D03*
X170730000Y-79370000D03*
X170730000Y-78870000D03*
X170730000Y-78370000D03*
X170730000Y-77870000D03*
X170730000Y-77370000D03*
X170730000Y-76870000D03*
X170730000Y-76370000D03*
X170730000Y-75870000D03*
X170730000Y-75370000D03*
D17*
X168800000Y-73440000D03*
X168300000Y-73440000D03*
X167800000Y-73440000D03*
X167300000Y-73440000D03*
X166800000Y-73440000D03*
X166300000Y-73440000D03*
X165800000Y-73440000D03*
X165300000Y-73440000D03*
X164800000Y-73440000D03*
X164300000Y-73440000D03*
X163800000Y-73440000D03*
X163300000Y-73440000D03*
X162800000Y-73440000D03*
X162300000Y-73440000D03*
X161800000Y-73440000D03*
X161300000Y-73440000D03*
%TD*%
D10*
%TO.C,C20*%
X156550000Y-93750000D03*
X158450000Y-93750000D03*
%TD*%
D13*
%TO.C,RN5*%
X144800000Y-75800000D03*
X144800000Y-75000000D03*
X144800000Y-74200000D03*
X144800000Y-73400000D03*
X143100000Y-73400000D03*
X143100000Y-74200000D03*
X143100000Y-75000000D03*
X143100000Y-75800000D03*
%TD*%
D12*
%TO.C,C13*%
X148400000Y-48000000D03*
X147900000Y-48000000D03*
X147400000Y-48000000D03*
X146900000Y-48000000D03*
X146900000Y-49150000D03*
X147400000Y-49150000D03*
X147900000Y-49150000D03*
X148400000Y-49150000D03*
%TD*%
D18*
%TO.C,R1*%
X161412500Y-69250000D03*
X159587500Y-69250000D03*
%TD*%
D14*
%TO.C,U1*%
X135199999Y-84199999D03*
X134700000Y-84199999D03*
X134200001Y-84199999D03*
X134200001Y-85804801D03*
X134700000Y-85804801D03*
X135199999Y-85804801D03*
%TD*%
D13*
%TO.C,RN1*%
X144900000Y-86000000D03*
X144900000Y-85200000D03*
X144900000Y-84400000D03*
X144900000Y-83600000D03*
X143200000Y-83600000D03*
X143200000Y-84400000D03*
X143200000Y-85200000D03*
X143200000Y-86000000D03*
%TD*%
D11*
%TO.C,C5*%
X169649400Y-87300000D03*
X169649400Y-89200000D03*
%TD*%
D14*
%TO.C,U3*%
X135399999Y-107199999D03*
X134900000Y-107199999D03*
X134400001Y-107199999D03*
X134400001Y-108804801D03*
X134900000Y-108804801D03*
X135399999Y-108804801D03*
%TD*%
D10*
%TO.C,C16*%
X168300000Y-69250000D03*
X170200000Y-69250000D03*
%TD*%
%TO.C,C21*%
X156550000Y-91750000D03*
X158450000Y-91750000D03*
%TD*%
D11*
%TO.C,C8*%
X162250000Y-91800000D03*
X162250000Y-93700000D03*
%TD*%
D19*
%TO.C,C1*%
X169717800Y-92700000D03*
X169717800Y-90800000D03*
%TD*%
D14*
%TO.C,U6*%
X135399999Y-96799999D03*
X134900000Y-96799999D03*
X134400001Y-96799999D03*
X134400001Y-98404801D03*
X134900000Y-98404801D03*
X135399999Y-98404801D03*
%TD*%
D19*
%TO.C,C2*%
X165600000Y-92700000D03*
X165600000Y-90800000D03*
%TD*%
D12*
%TO.C,C11*%
X146900000Y-88550000D03*
X147400000Y-88550000D03*
X147900000Y-88550000D03*
X148400000Y-88550000D03*
X148400000Y-87400000D03*
X147900000Y-87400000D03*
X147400000Y-87400000D03*
X146900000Y-87400000D03*
%TD*%
%TO.C,C23*%
X148300000Y-70800000D03*
X147800000Y-70800000D03*
X147300000Y-70800000D03*
X146800000Y-70800000D03*
X146800000Y-71950000D03*
X147300000Y-71950000D03*
X147800000Y-71950000D03*
X148300000Y-71950000D03*
%TD*%
D14*
%TO.C,U7*%
X135199999Y-73999999D03*
X134700000Y-73999999D03*
X134200001Y-73999999D03*
X134200001Y-75604801D03*
X134700000Y-75604801D03*
X135199999Y-75604801D03*
%TD*%
D10*
%TO.C,C19*%
X156550000Y-97750000D03*
X158450000Y-97750000D03*
%TD*%
D11*
%TO.C,C4*%
X167600000Y-87257100D03*
X167600000Y-89157100D03*
%TD*%
M02*
