M48
; DRILL file {KiCad 8.0.4} date 2024-11-14T19:13:38-0500
; FORMAT={-:-/ absolute / inch / decimal}
; #@! TF.CreationDate,2024-11-14T19:13:38-05:00
; #@! TF.GenerationSoftware,Kicad,Pcbnew,8.0.4
; #@! TF.FileFunction,Plated,1,2,PTH
FMAT,2
INCH
; #@! TA.AperFunction,Plated,PTH,ViaDrill
T1C0.0118
; #@! TA.AperFunction,Plated,PTH,ComponentDrill
T2C0.0394
%
G90
G05
T1
X5.748Y-1.9764
X5.748Y-2.5276
X5.7559Y-2.874
X5.7559Y-3.4094
X5.7559Y-4.0709
X5.7677Y-2.9528
X5.7717Y-2.4961
X5.7795Y-2.0157
X5.7795Y-3.378
X5.7795Y-4.0315
X5.7835Y-2.8937
X5.8031Y-2.4567
X5.8031Y-3.3228
X5.811Y-2.063
X5.811Y-3.9843
X5.8346Y-2.4094
X5.8346Y-2.9843
X5.8425Y-2.1024
X5.8425Y-3.2913
X6.1324Y-3.0709
X6.1329Y-3.0394
X6.1339Y-2.8819
X6.1339Y-2.9134
X6.1339Y-2.9449
X6.1339Y-2.9764
X6.1339Y-3.0079
X6.1339Y-3.1024
X6.1339Y-3.1339
X6.1339Y-3.1654
X6.1339Y-3.2362
X6.1339Y-3.2992
X6.1339Y-3.3307
X6.1339Y-3.3622
X6.1339Y-3.2677
X6.1347Y-3.1969
X6.283Y-2.6673
X6.3465Y-3.3878
X6.3661Y-3.4124
X6.3986Y-3.4467
X6.4094Y-2.8346
X6.4134Y-3.3858
T2
X5.4646Y-3.6929
X5.4646Y-3.7929
X5.4646Y-3.8929
X5.4646Y-3.9929
X5.4646Y-4.0929
X5.4646Y-4.1929
X5.4646Y-4.2929
X5.4646Y-4.3929
X5.4724Y-1.8984
X5.4724Y-1.9984
X5.4724Y-2.0984
X5.4724Y-2.1984
X5.4724Y-2.2984
X5.4724Y-2.3984
X5.4724Y-2.4984
X5.4724Y-2.5984
X5.4724Y-2.7953
X5.4724Y-2.8953
X5.4724Y-2.9953
X5.4724Y-3.0953
X5.4724Y-3.1953
X5.4724Y-3.2953
X5.4724Y-3.3953
X5.4724Y-3.4953
X6.9764Y-2.315
X6.9764Y-2.415
X6.9764Y-2.515
X6.9764Y-2.615
X6.9764Y-2.715
X6.9764Y-2.815
X6.9764Y-2.915
X6.9764Y-3.015
X6.9764Y-3.1669
X6.9764Y-3.2669
X6.9764Y-3.3669
X6.9764Y-3.4669
X6.9764Y-3.5669
X6.9764Y-3.6669
X6.9764Y-3.7669
X6.9764Y-3.8669
M30
