%TF.GenerationSoftware,KiCad,Pcbnew,8.0.4*%
%TF.CreationDate,2024-11-14T19:13:44-05:00*%
%TF.ProjectId,ADS1299_Breakout_Board,41445331-3239-4395-9f42-7265616b6f75,rev?*%
%TF.SameCoordinates,Original*%
%TF.FileFunction,Copper,L1,Top*%
%TF.FilePolarity,Positive*%
%FSLAX46Y46*%
G04 Gerber Fmt 4.6, Leading zero omitted, Abs format (unit mm)*
G04 Created by KiCad (PCBNEW 8.0.4) date 2024-11-14 19:13:44*
%MOMM*%
%LPD*%
G01*
G04 APERTURE LIST*
G04 Aperture macros list*
%AMRoundRect*
0 Rectangle with rounded corners*
0 $1 Rounding radius*
0 $2 $3 $4 $5 $6 $7 $8 $9 X,Y pos of 4 corners*
0 Add a 4 corners polygon primitive as box body*
4,1,4,$2,$3,$4,$5,$6,$7,$8,$9,$2,$3,0*
0 Add four circle primitives for the rounded corners*
1,1,$1+$1,$2,$3*
1,1,$1+$1,$4,$5*
1,1,$1+$1,$6,$7*
1,1,$1+$1,$8,$9*
0 Add four rect primitives between the rounded corners*
20,1,$1+$1,$2,$3,$4,$5,0*
20,1,$1+$1,$4,$5,$6,$7,0*
20,1,$1+$1,$6,$7,$8,$9,0*
20,1,$1+$1,$8,$9,$2,$3,0*%
G04 Aperture macros list end*
%TA.AperFunction,SMDPad,CuDef*%
%ADD10RoundRect,0.250000X-0.250000X-0.475000X0.250000X-0.475000X0.250000X0.475000X-0.250000X0.475000X0*%
%TD*%
%TA.AperFunction,SMDPad,CuDef*%
%ADD11RoundRect,0.250000X-0.475000X0.250000X-0.475000X-0.250000X0.475000X-0.250000X0.475000X0.250000X0*%
%TD*%
%TA.AperFunction,SMDPad,CuDef*%
%ADD12R,0.250000X0.600000*%
%TD*%
%TA.AperFunction,SMDPad,CuDef*%
%ADD13R,0.900000X0.400000*%
%TD*%
%TA.AperFunction,SMDPad,CuDef*%
%ADD14R,0.199200X0.704800*%
%TD*%
%TA.AperFunction,SMDPad,CuDef*%
%ADD15RoundRect,0.250000X0.250000X0.475000X-0.250000X0.475000X-0.250000X-0.475000X0.250000X-0.475000X0*%
%TD*%
%TA.AperFunction,SMDPad,CuDef*%
%ADD16RoundRect,0.035000X-0.745000X-0.105000X0.745000X-0.105000X0.745000X0.105000X-0.745000X0.105000X0*%
%TD*%
%TA.AperFunction,SMDPad,CuDef*%
%ADD17RoundRect,0.035000X-0.105000X-0.745000X0.105000X-0.745000X0.105000X0.745000X-0.105000X0.745000X0*%
%TD*%
%TA.AperFunction,ComponentPad*%
%ADD18R,1.700000X1.700000*%
%TD*%
%TA.AperFunction,ComponentPad*%
%ADD19O,1.700000X1.700000*%
%TD*%
%TA.AperFunction,SMDPad,CuDef*%
%ADD20RoundRect,0.250000X0.262500X0.450000X-0.262500X0.450000X-0.262500X-0.450000X0.262500X-0.450000X0*%
%TD*%
%TA.AperFunction,SMDPad,CuDef*%
%ADD21RoundRect,0.250000X0.475000X-0.250000X0.475000X0.250000X-0.475000X0.250000X-0.475000X-0.250000X0*%
%TD*%
%TA.AperFunction,ViaPad*%
%ADD22C,0.600000*%
%TD*%
%TA.AperFunction,Conductor*%
%ADD23C,0.200000*%
%TD*%
G04 APERTURE END LIST*
D10*
%TO.P,C10,1*%
%TO.N,/BIAS_DRV*%
X159550000Y-71250000D03*
%TO.P,C10,2*%
%TO.N,/BIASIN*%
X161450000Y-71250000D03*
%TD*%
D11*
%TO.P,C9,1*%
%TO.N,/AVSS*%
X160250000Y-91800000D03*
%TO.P,C9,2*%
%TO.N,AGND*%
X160250000Y-93700000D03*
%TD*%
D10*
%TO.P,C22,1*%
%TO.N,/AVDD*%
X156550000Y-95750000D03*
%TO.P,C22,2*%
%TO.N,AGND*%
X158450000Y-95750000D03*
%TD*%
D12*
%TO.P,C12,1*%
%TO.N,AGND*%
X146200000Y-109325000D03*
%TO.P,C12,2*%
X146700000Y-109325000D03*
%TO.P,C12,3*%
X147200000Y-109325000D03*
%TO.P,C12,4*%
X147700000Y-109325000D03*
%TO.P,C12,5*%
%TO.N,/BIAS_DRV*%
X147700000Y-108175000D03*
%TO.P,C12,6*%
%TO.N,/_SRB1*%
X147200000Y-108175000D03*
%TO.P,C12,7*%
%TO.N,/_SRB2*%
X146700000Y-108175000D03*
%TO.P,C12,8*%
%TO.N,AGND*%
X146200000Y-108175000D03*
%TD*%
D13*
%TO.P,RN3,1,R1.1*%
%TO.N,/IN7N*%
X144700000Y-53400000D03*
%TO.P,RN3,2,R2.1*%
%TO.N,/IN7P*%
X144700000Y-52600000D03*
%TO.P,RN3,3,R3.1*%
%TO.N,/IN8N*%
X144700000Y-51800000D03*
%TO.P,RN3,4,R4.1*%
%TO.N,/IN8P*%
X144700000Y-51000000D03*
%TO.P,RN3,5,R4.2*%
%TO.N,/8P*%
X143000000Y-51000000D03*
%TO.P,RN3,6,R3.2*%
%TO.N,/8N*%
X143000000Y-51800000D03*
%TO.P,RN3,7,R2.2*%
%TO.N,/7P*%
X143000000Y-52600000D03*
%TO.P,RN3,8,R1.2*%
%TO.N,/7N*%
X143000000Y-53400000D03*
%TD*%
D11*
%TO.P,C3,1*%
%TO.N,/VCAP4*%
X165538500Y-87227000D03*
%TO.P,C3,2*%
%TO.N,/AVSS*%
X165538500Y-89127000D03*
%TD*%
D14*
%TO.P,U5,1,IO1*%
%TO.N,/6N*%
X135399999Y-61795199D03*
%TO.P,U5,2,GND*%
%TO.N,AGND*%
X134900000Y-61795199D03*
%TO.P,U5,3,IO2*%
%TO.N,/6P*%
X134400001Y-61795199D03*
%TO.P,U5,4,IO3*%
%TO.N,/5N*%
X134400001Y-63400001D03*
%TO.P,U5,5,NC*%
%TO.N,unconnected-(U5-NC-Pad5)*%
X134900000Y-63400001D03*
%TO.P,U5,6,IO4*%
%TO.N,/5P*%
X135399999Y-63400001D03*
%TD*%
D13*
%TO.P,RN4,1,R1.1*%
%TO.N,/IN5N*%
X144800000Y-63600000D03*
%TO.P,RN4,2,R2.1*%
%TO.N,/IN5P*%
X144800000Y-62800000D03*
%TO.P,RN4,3,R3.1*%
%TO.N,/IN6N*%
X144800000Y-62000000D03*
%TO.P,RN4,4,R4.1*%
%TO.N,/IN6P*%
X144800000Y-61200000D03*
%TO.P,RN4,5,R4.2*%
%TO.N,/6P*%
X143100000Y-61200000D03*
%TO.P,RN4,6,R3.2*%
%TO.N,/6N*%
X143100000Y-62000000D03*
%TO.P,RN4,7,R2.2*%
%TO.N,/5P*%
X143100000Y-62800000D03*
%TO.P,RN4,8,R1.2*%
%TO.N,/5N*%
X143100000Y-63600000D03*
%TD*%
D11*
%TO.P,C17,1*%
%TO.N,/AVDD*%
X160250000Y-88300000D03*
%TO.P,C17,2*%
%TO.N,/AVSS*%
X160250000Y-90200000D03*
%TD*%
D13*
%TO.P,RN2,1,R1.1*%
%TO.N,AGND*%
X144600000Y-103600000D03*
%TO.P,RN2,2,R2.1*%
%TO.N,/_SRB2*%
X144600000Y-102800000D03*
%TO.P,RN2,3,R3.1*%
%TO.N,/_SRB1*%
X144600000Y-102000000D03*
%TO.P,RN2,4,R4.1*%
%TO.N,/BIAS_DRV*%
X144600000Y-101200000D03*
%TO.P,RN2,5,R4.2*%
%TO.N,/BIAS*%
X142900000Y-101200000D03*
%TO.P,RN2,6,R3.2*%
%TO.N,/SRB1*%
X142900000Y-102000000D03*
%TO.P,RN2,7,R2.2*%
%TO.N,/SRB2*%
X142900000Y-102800000D03*
%TO.P,RN2,8,R1.2*%
%TO.N,AGND*%
X142900000Y-103600000D03*
%TD*%
D10*
%TO.P,C15,1*%
%TO.N,/DVDD*%
X168350000Y-71250000D03*
%TO.P,C15,2*%
%TO.N,AGND*%
X170250000Y-71250000D03*
%TD*%
D12*
%TO.P,C14,1*%
%TO.N,AGND*%
X146800000Y-66150000D03*
%TO.P,C14,2*%
X147300000Y-66150000D03*
%TO.P,C14,3*%
X147800000Y-66150000D03*
%TO.P,C14,4*%
X148300000Y-66150000D03*
%TO.P,C14,5*%
%TO.N,/IN6P*%
X148300000Y-65000000D03*
%TO.P,C14,6*%
%TO.N,/IN6N*%
X147800000Y-65000000D03*
%TO.P,C14,7*%
%TO.N,/IN5P*%
X147300000Y-65000000D03*
%TO.P,C14,8*%
%TO.N,/IN5N*%
X146800000Y-65000000D03*
%TD*%
D14*
%TO.P,U4,1,IO1*%
%TO.N,/8N*%
X135199999Y-51395199D03*
%TO.P,U4,2,GND*%
%TO.N,AGND*%
X134700000Y-51395199D03*
%TO.P,U4,3,IO2*%
%TO.N,/8P*%
X134200001Y-51395199D03*
%TO.P,U4,4,IO3*%
%TO.N,/7N*%
X134200001Y-53000001D03*
%TO.P,U4,5,NC*%
%TO.N,unconnected-(U4-NC-Pad5)*%
X134700000Y-53000001D03*
%TO.P,U4,6,IO4*%
%TO.N,/7P*%
X135199999Y-53000001D03*
%TD*%
D10*
%TO.P,C7,1*%
%TO.N,/VCAP3*%
X164800000Y-71250000D03*
%TO.P,C7,2*%
%TO.N,/AVSS*%
X166700000Y-71250000D03*
%TD*%
D15*
%TO.P,C6,1*%
%TO.N,/AVSS*%
X166697800Y-69250000D03*
%TO.P,C6,2*%
%TO.N,/VCAP3*%
X164797800Y-69250000D03*
%TD*%
D11*
%TO.P,C18,1*%
%TO.N,/AVDD*%
X162250000Y-88300000D03*
%TO.P,C18,2*%
%TO.N,/AVSS*%
X162250000Y-90200000D03*
%TD*%
D16*
%TO.P,U2,1,IN8N*%
%TO.N,/IN8N*%
X159370000Y-75370000D03*
%TO.P,U2,2,IN8P*%
%TO.N,/IN8P*%
X159370000Y-75870000D03*
%TO.P,U2,3,IN7N*%
%TO.N,/IN7N*%
X159370000Y-76370000D03*
%TO.P,U2,4,IN7P*%
%TO.N,/IN7P*%
X159370000Y-76870000D03*
%TO.P,U2,5,IN6N*%
%TO.N,/IN6N*%
X159370000Y-77370000D03*
%TO.P,U2,6,IN6P*%
%TO.N,/IN6P*%
X159370000Y-77870000D03*
%TO.P,U2,7,IN5N*%
%TO.N,/IN5N*%
X159370000Y-78370000D03*
%TO.P,U2,8,IN5P*%
%TO.N,/IN5P*%
X159370000Y-78870000D03*
%TO.P,U2,9,IN4N*%
%TO.N,/IN4N*%
X159370000Y-79370000D03*
%TO.P,U2,10,IN4P*%
%TO.N,/IN4P*%
X159370000Y-79870000D03*
%TO.P,U2,11,IN3N*%
%TO.N,/IN3N*%
X159370000Y-80370000D03*
%TO.P,U2,12,IN3P*%
%TO.N,/IN3P*%
X159370000Y-80870000D03*
%TO.P,U2,13,IN2N*%
%TO.N,/IN2N*%
X159370000Y-81370000D03*
%TO.P,U2,14,IN2P*%
%TO.N,/IN2P*%
X159370000Y-81870000D03*
%TO.P,U2,15,IN1N*%
%TO.N,/IN1N*%
X159370000Y-82370000D03*
%TO.P,U2,16,IN1P*%
%TO.N,/IN1P*%
X159370000Y-82870000D03*
D17*
%TO.P,U2,17,SRB1*%
%TO.N,/_SRB1*%
X161300000Y-84800000D03*
%TO.P,U2,18,SRB2*%
%TO.N,/_SRB2*%
X161800000Y-84800000D03*
%TO.P,U2,19,AVDD@1*%
%TO.N,/AVDD*%
X162300000Y-84800000D03*
%TO.P,U2,20,AVSS@1*%
%TO.N,/AVSS*%
X162800000Y-84800000D03*
%TO.P,U2,21,AVDD@1*%
%TO.N,/AVDD*%
X163300000Y-84800000D03*
%TO.P,U2,22,AVDD@1*%
X163800000Y-84800000D03*
%TO.P,U2,23,AVSS@1*%
%TO.N,/AVSS*%
X164300000Y-84800000D03*
%TO.P,U2,24,VREFP*%
%TO.N,/VREFP*%
X164800000Y-84800000D03*
%TO.P,U2,25,VREFN*%
%TO.N,/AVSS*%
X165300000Y-84800000D03*
%TO.P,U2,26,VCAP4*%
%TO.N,/VCAP4*%
X165800000Y-84800000D03*
%TO.P,U2,27*%
%TO.N,N/C*%
X166300000Y-84800000D03*
%TO.P,U2,28,VCAP1*%
%TO.N,/VCAP1*%
X166800000Y-84800000D03*
%TO.P,U2,29*%
%TO.N,N/C*%
X167300000Y-84800000D03*
%TO.P,U2,30,VCAP2*%
%TO.N,/VCAP2*%
X167800000Y-84800000D03*
%TO.P,U2,31,RESV1*%
%TO.N,AGND*%
X168300000Y-84800000D03*
%TO.P,U2,32,AVSS@1*%
%TO.N,/AVSS*%
X168800000Y-84800000D03*
D16*
%TO.P,U2,33,DGND*%
%TO.N,AGND*%
X170730000Y-82870000D03*
%TO.P,U2,34,DIN*%
%TO.N,/MOSI*%
X170730000Y-82370000D03*
%TO.P,U2,35,~{PWDN}*%
%TO.N,/DVDD*%
X170730000Y-81870000D03*
%TO.P,U2,36,~{RESET}*%
%TO.N,/RESET*%
X170730000Y-81370000D03*
%TO.P,U2,37,CLK*%
%TO.N,/CLK*%
X170730000Y-80870000D03*
%TO.P,U2,38,START*%
%TO.N,/START*%
X170730000Y-80370000D03*
%TO.P,U2,39,~{CS}*%
%TO.N,/CS1*%
X170730000Y-79870000D03*
%TO.P,U2,40,SCLK*%
%TO.N,/SCLK*%
X170730000Y-79370000D03*
%TO.P,U2,41,DAISY_IN*%
%TO.N,AGND*%
X170730000Y-78870000D03*
%TO.P,U2,42,GPIO1*%
%TO.N,/GPIO1*%
X170730000Y-78370000D03*
%TO.P,U2,43,DOUT*%
%TO.N,/MISO*%
X170730000Y-77870000D03*
%TO.P,U2,44,GPIO2*%
%TO.N,/GPIO2*%
X170730000Y-77370000D03*
%TO.P,U2,45,GPIO3*%
%TO.N,/GPIO3*%
X170730000Y-76870000D03*
%TO.P,U2,46,GPIO4*%
%TO.N,/GPIO4*%
X170730000Y-76370000D03*
%TO.P,U2,47,~{DRDY}*%
%TO.N,/DRDY*%
X170730000Y-75870000D03*
%TO.P,U2,48,DVDD*%
%TO.N,/DVDD*%
X170730000Y-75370000D03*
D17*
%TO.P,U2,49,DGND*%
%TO.N,AGND*%
X168800000Y-73440000D03*
%TO.P,U2,50,DVDD*%
%TO.N,/DVDD*%
X168300000Y-73440000D03*
%TO.P,U2,51,DGND*%
%TO.N,AGND*%
X167800000Y-73440000D03*
%TO.P,U2,52,CLKSEL*%
%TO.N,/DVDD*%
X167300000Y-73440000D03*
%TO.P,U2,53,AVSS1*%
%TO.N,/AVSS*%
X166800000Y-73440000D03*
%TO.P,U2,54,AVDD1*%
%TO.N,/AVDD*%
X166300000Y-73440000D03*
%TO.P,U2,55,VCAP3*%
%TO.N,/VCAP3*%
X165800000Y-73440000D03*
%TO.P,U2,56,AVDD@1*%
%TO.N,/AVDD*%
X165300000Y-73440000D03*
%TO.P,U2,57,AVSS@1*%
%TO.N,/AVSS*%
X164800000Y-73440000D03*
%TO.P,U2,58,AVSS@2*%
X164300000Y-73440000D03*
%TO.P,U2,59,AVDD@2*%
%TO.N,/AVDD*%
X163800000Y-73440000D03*
%TO.P,U2,60,BIASREF*%
%TO.N,AGND*%
X163300000Y-73440000D03*
%TO.P,U2,61,BIASINV*%
%TO.N,/BIASINV*%
X162800000Y-73440000D03*
%TO.P,U2,62,BIASIN*%
%TO.N,/BIASIN*%
X162300000Y-73440000D03*
%TO.P,U2,63,BIASOUT*%
X161800000Y-73440000D03*
%TO.P,U2,64,RESERVED*%
%TO.N,AGND*%
X161300000Y-73440000D03*
%TD*%
D10*
%TO.P,C20,1*%
%TO.N,/AVDD*%
X156550000Y-93750000D03*
%TO.P,C20,2*%
%TO.N,AGND*%
X158450000Y-93750000D03*
%TD*%
D18*
%TO.P,J2,1,Pin_1*%
%TO.N,/4P*%
X139000000Y-71000000D03*
D19*
%TO.P,J2,2,Pin_2*%
%TO.N,/4N*%
X139000000Y-73540000D03*
%TO.P,J2,3,Pin_3*%
%TO.N,/3P*%
X139000000Y-76080000D03*
%TO.P,J2,4,Pin_4*%
%TO.N,/3N*%
X139000000Y-78620000D03*
%TO.P,J2,5,Pin_5*%
%TO.N,/2P*%
X139000000Y-81160000D03*
%TO.P,J2,6,Pin_6*%
%TO.N,/2N*%
X139000000Y-83700000D03*
%TO.P,J2,7,Pin_7*%
%TO.N,/1P*%
X139000000Y-86240000D03*
%TO.P,J2,8,Pin_8*%
%TO.N,/1N*%
X139000000Y-88780000D03*
%TD*%
D13*
%TO.P,RN5,1,R1.1*%
%TO.N,/IN3N*%
X144800000Y-75800000D03*
%TO.P,RN5,2,R2.1*%
%TO.N,/IN3P*%
X144800000Y-75000000D03*
%TO.P,RN5,3,R3.1*%
%TO.N,/IN4N*%
X144800000Y-74200000D03*
%TO.P,RN5,4,R4.1*%
%TO.N,/IN4P*%
X144800000Y-73400000D03*
%TO.P,RN5,5,R4.2*%
%TO.N,/4P*%
X143100000Y-73400000D03*
%TO.P,RN5,6,R3.2*%
%TO.N,/4N*%
X143100000Y-74200000D03*
%TO.P,RN5,7,R2.2*%
%TO.N,/3P*%
X143100000Y-75000000D03*
%TO.P,RN5,8,R1.2*%
%TO.N,/3N*%
X143100000Y-75800000D03*
%TD*%
D12*
%TO.P,C13,1*%
%TO.N,AGND*%
X148400000Y-48000000D03*
%TO.P,C13,2*%
X147900000Y-48000000D03*
%TO.P,C13,3*%
X147400000Y-48000000D03*
%TO.P,C13,4*%
X146900000Y-48000000D03*
%TO.P,C13,5*%
%TO.N,/IN8P*%
X146900000Y-49150000D03*
%TO.P,C13,6*%
%TO.N,/IN8N*%
X147400000Y-49150000D03*
%TO.P,C13,7*%
%TO.N,/IN7P*%
X147900000Y-49150000D03*
%TO.P,C13,8*%
%TO.N,/IN7N*%
X148400000Y-49150000D03*
%TD*%
D20*
%TO.P,R1,1*%
%TO.N,/BIASIN*%
X161412500Y-69250000D03*
%TO.P,R1,2*%
%TO.N,/BIAS_DRV*%
X159587500Y-69250000D03*
%TD*%
D14*
%TO.P,U1,1,IO1*%
%TO.N,/2N*%
X135199999Y-84199999D03*
%TO.P,U1,2,GND*%
%TO.N,AGND*%
X134700000Y-84199999D03*
%TO.P,U1,3,IO2*%
%TO.N,/2P*%
X134200001Y-84199999D03*
%TO.P,U1,4,IO3*%
%TO.N,/1N*%
X134200001Y-85804801D03*
%TO.P,U1,5,NC*%
%TO.N,unconnected-(U1-NC-Pad5)*%
X134700000Y-85804801D03*
%TO.P,U1,6,IO4*%
%TO.N,/1P*%
X135199999Y-85804801D03*
%TD*%
D18*
%TO.P,J1,1,Pin_1*%
%TO.N,/8P*%
X139000000Y-48220000D03*
D19*
%TO.P,J1,2,Pin_2*%
%TO.N,/8N*%
X139000000Y-50760000D03*
%TO.P,J1,3,Pin_3*%
%TO.N,/7P*%
X139000000Y-53300000D03*
%TO.P,J1,4,Pin_4*%
%TO.N,/7N*%
X139000000Y-55840000D03*
%TO.P,J1,5,Pin_5*%
%TO.N,/6P*%
X139000000Y-58380000D03*
%TO.P,J1,6,Pin_6*%
%TO.N,/6N*%
X139000000Y-60920000D03*
%TO.P,J1,7,Pin_7*%
%TO.N,/5P*%
X139000000Y-63460000D03*
%TO.P,J1,8,Pin_8*%
%TO.N,/5N*%
X139000000Y-66000000D03*
%TD*%
D13*
%TO.P,RN1,1,R1.1*%
%TO.N,/IN1N*%
X144900000Y-86000000D03*
%TO.P,RN1,2,R2.1*%
%TO.N,/IN1P*%
X144900000Y-85200000D03*
%TO.P,RN1,3,R3.1*%
%TO.N,/IN2N*%
X144900000Y-84400000D03*
%TO.P,RN1,4,R4.1*%
%TO.N,/IN2P*%
X144900000Y-83600000D03*
%TO.P,RN1,5,R4.2*%
%TO.N,/2P*%
X143200000Y-83600000D03*
%TO.P,RN1,6,R3.2*%
%TO.N,/2N*%
X143200000Y-84400000D03*
%TO.P,RN1,7,R2.2*%
%TO.N,/1P*%
X143200000Y-85200000D03*
%TO.P,RN1,8,R1.2*%
%TO.N,/1N*%
X143200000Y-86000000D03*
%TD*%
D11*
%TO.P,C5,1*%
%TO.N,/VCAP2*%
X169649400Y-87300000D03*
%TO.P,C5,2*%
%TO.N,/AVSS*%
X169649400Y-89200000D03*
%TD*%
D14*
%TO.P,U3,1,IO1*%
%TO.N,/SRB2*%
X135399999Y-107199999D03*
%TO.P,U3,2,GND*%
%TO.N,AGND*%
X134900000Y-107199999D03*
%TO.P,U3,3,IO2*%
%TO.N,/SRB1*%
X134400001Y-107199999D03*
%TO.P,U3,4,IO3*%
%TO.N,/AVDD*%
X134400001Y-108804801D03*
%TO.P,U3,5,NC*%
%TO.N,unconnected-(U3-NC-Pad5)*%
X134900000Y-108804801D03*
%TO.P,U3,6,IO4*%
%TO.N,unconnected-(U3-IO4-Pad6)*%
X135399999Y-108804801D03*
%TD*%
D10*
%TO.P,C16,1*%
%TO.N,/DVDD*%
X168300000Y-69250000D03*
%TO.P,C16,2*%
%TO.N,AGND*%
X170200000Y-69250000D03*
%TD*%
%TO.P,C21,1*%
%TO.N,/AVDD*%
X156550000Y-91750000D03*
%TO.P,C21,2*%
%TO.N,AGND*%
X158450000Y-91750000D03*
%TD*%
D11*
%TO.P,C8,1*%
%TO.N,/AVSS*%
X162250000Y-91800000D03*
%TO.P,C8,2*%
%TO.N,AGND*%
X162250000Y-93700000D03*
%TD*%
D21*
%TO.P,C1,1*%
%TO.N,/VREFP*%
X169717800Y-92700000D03*
%TO.P,C1,2*%
%TO.N,/AVSS*%
X169717800Y-90800000D03*
%TD*%
D14*
%TO.P,U6,1,IO1*%
%TO.N,/BIASINV*%
X135399999Y-96799999D03*
%TO.P,U6,2,GND*%
%TO.N,AGND*%
X134900000Y-96799999D03*
%TO.P,U6,3,IO2*%
%TO.N,/AVDD*%
X134400001Y-96799999D03*
%TO.P,U6,4,IO3*%
%TO.N,/AVSS*%
X134400001Y-98404801D03*
%TO.P,U6,5,NC*%
%TO.N,unconnected-(U6-NC-Pad5)*%
X134900000Y-98404801D03*
%TO.P,U6,6,IO4*%
%TO.N,/BIAS*%
X135399999Y-98404801D03*
%TD*%
D21*
%TO.P,C2,1*%
%TO.N,/VREFP*%
X165600000Y-92700000D03*
%TO.P,C2,2*%
%TO.N,/AVSS*%
X165600000Y-90800000D03*
%TD*%
D12*
%TO.P,C11,1*%
%TO.N,AGND*%
X146900000Y-88550000D03*
%TO.P,C11,2*%
X147400000Y-88550000D03*
%TO.P,C11,3*%
X147900000Y-88550000D03*
%TO.P,C11,4*%
X148400000Y-88550000D03*
%TO.P,C11,5*%
%TO.N,/IN2P*%
X148400000Y-87400000D03*
%TO.P,C11,6*%
%TO.N,/IN2N*%
X147900000Y-87400000D03*
%TO.P,C11,7*%
%TO.N,/IN1P*%
X147400000Y-87400000D03*
%TO.P,C11,8*%
%TO.N,/IN1N*%
X146900000Y-87400000D03*
%TD*%
%TO.P,C23,1*%
%TO.N,AGND*%
X148300000Y-70800000D03*
%TO.P,C23,2*%
X147800000Y-70800000D03*
%TO.P,C23,3*%
X147300000Y-70800000D03*
%TO.P,C23,4*%
X146800000Y-70800000D03*
%TO.P,C23,5*%
%TO.N,/IN4P*%
X146800000Y-71950000D03*
%TO.P,C23,6*%
%TO.N,/IN4N*%
X147300000Y-71950000D03*
%TO.P,C23,7*%
%TO.N,/IN3P*%
X147800000Y-71950000D03*
%TO.P,C23,8*%
%TO.N,/IN3N*%
X148300000Y-71950000D03*
%TD*%
D18*
%TO.P,J5,1,Pin_1*%
%TO.N,/DVDD*%
X177200000Y-58800000D03*
D19*
%TO.P,J5,2,Pin_2*%
%TO.N,/DRDY*%
X177200000Y-61340000D03*
%TO.P,J5,3,Pin_3*%
%TO.N,/GPIO4*%
X177200000Y-63880000D03*
%TO.P,J5,4,Pin_4*%
%TO.N,/GPIO3*%
X177200000Y-66420000D03*
%TO.P,J5,5,Pin_5*%
%TO.N,/GPIO2*%
X177200000Y-68960000D03*
%TO.P,J5,6,Pin_6*%
%TO.N,/MISO*%
X177200000Y-71500000D03*
%TO.P,J5,7,Pin_7*%
%TO.N,/GPIO1*%
X177200000Y-74040000D03*
%TO.P,J5,8,Pin_8*%
%TO.N,AGND*%
X177200000Y-76580000D03*
%TD*%
D14*
%TO.P,U7,1,IO1*%
%TO.N,/4N*%
X135199999Y-73999999D03*
%TO.P,U7,2,GND*%
%TO.N,AGND*%
X134700000Y-73999999D03*
%TO.P,U7,3,IO2*%
%TO.N,/4P*%
X134200001Y-73999999D03*
%TO.P,U7,4,IO3*%
%TO.N,/3N*%
X134200001Y-75604801D03*
%TO.P,U7,5,NC*%
%TO.N,unconnected-(U7-NC-Pad5)*%
X134700000Y-75604801D03*
%TO.P,U7,6,IO4*%
%TO.N,/3P*%
X135199999Y-75604801D03*
%TD*%
D10*
%TO.P,C19,1*%
%TO.N,/AVDD*%
X156550000Y-97750000D03*
%TO.P,C19,2*%
%TO.N,AGND*%
X158450000Y-97750000D03*
%TD*%
D11*
%TO.P,C4,1*%
%TO.N,/VCAP1*%
X167600000Y-87257100D03*
%TO.P,C4,2*%
%TO.N,/AVSS*%
X167600000Y-89157100D03*
%TD*%
D18*
%TO.P,J3,1,Pin_1*%
%TO.N,/AVDD*%
X138800000Y-93800000D03*
D19*
%TO.P,J3,2,Pin_2*%
%TO.N,/BIASINV*%
X138800000Y-96340000D03*
%TO.P,J3,3,Pin_3*%
%TO.N,/BIAS*%
X138800000Y-98880000D03*
%TO.P,J3,4,Pin_4*%
%TO.N,/AVSS*%
X138800000Y-101420000D03*
%TO.P,J3,5,Pin_5*%
%TO.N,/SRB1*%
X138800000Y-103960000D03*
%TO.P,J3,6,Pin_6*%
%TO.N,/SRB2*%
X138800000Y-106500000D03*
%TO.P,J3,7,Pin_7*%
%TO.N,/AVDD*%
X138800000Y-109040000D03*
%TO.P,J3,8,Pin_8*%
%TO.N,AGND*%
X138800000Y-111580000D03*
%TD*%
D18*
%TO.P,J4,1,Pin_1*%
%TO.N,/SCLK*%
X177200000Y-80440000D03*
D19*
%TO.P,J4,2,Pin_2*%
%TO.N,/CS1*%
X177200000Y-82980000D03*
%TO.P,J4,3,Pin_3*%
%TO.N,/START*%
X177200000Y-85520000D03*
%TO.P,J4,4,Pin_4*%
%TO.N,/CLK*%
X177200000Y-88060000D03*
%TO.P,J4,5,Pin_5*%
%TO.N,/RESET*%
X177200000Y-90600000D03*
%TO.P,J4,6,Pin_6*%
%TO.N,/DVDD*%
X177200000Y-93140000D03*
%TO.P,J4,7,Pin_7*%
%TO.N,/MOSI*%
X177200000Y-95680000D03*
%TO.P,J4,8,Pin_8*%
%TO.N,AGND*%
X177200000Y-98220000D03*
%TD*%
D22*
%TO.N,/AVSS*%
X162900000Y-86000000D03*
%TO.N,/BIAS_DRV*%
X147600000Y-101200000D03*
X159588000Y-67750000D03*
%TO.N,/AVDD*%
X162525000Y-87546200D03*
%TO.N,/IN3N*%
X148200000Y-75800000D03*
X155821000Y-81200000D03*
%TO.N,/IN2N*%
X155801000Y-83000000D03*
X147400000Y-84400000D03*
%TO.N,/IN2P*%
X148400000Y-83600000D03*
X155800000Y-83800000D03*
%TO.N,/IN3P*%
X155800000Y-82200000D03*
X146500000Y-75000000D03*
%TO.N,/IN1P*%
X155800000Y-85400000D03*
X146800000Y-85800000D03*
%TO.N,/IN1N*%
X155800000Y-84600000D03*
X146200000Y-86600000D03*
%TO.N,/_SRB1*%
X146800000Y-102400000D03*
X161200000Y-86050000D03*
%TO.N,/_SRB2*%
X161700000Y-86674200D03*
X146200000Y-103400000D03*
%TO.N,/IN8P*%
X146000000Y-50200000D03*
X155800000Y-74000000D03*
%TO.N,/IN8N*%
X155800000Y-73200000D03*
X146800000Y-51200000D03*
%TO.N,/IN6N*%
X155800000Y-76400000D03*
X147400000Y-62400000D03*
%TO.N,/IN6P*%
X155776000Y-77200000D03*
X148200000Y-61200000D03*
%TO.N,/IN7N*%
X148400000Y-53400000D03*
X155800000Y-74800000D03*
%TO.N,/IN7P*%
X147600000Y-52400000D03*
X155800000Y-75600000D03*
%TO.N,/BIASINV*%
X162800000Y-72000000D03*
%TO.N,/IN4N*%
X146900000Y-73500000D03*
X155800000Y-79600000D03*
%TO.N,/IN5P*%
X146600000Y-63400000D03*
X155800000Y-78800000D03*
%TO.N,/IN4P*%
X146200000Y-73000000D03*
X155800000Y-80400000D03*
%TO.N,/IN5N*%
X146000000Y-64200000D03*
X155764000Y-78000000D03*
%TD*%
D23*
%TO.N,/VREFP*%
X164800000Y-85624700D02*
X163800000Y-86624700D01*
X169717800Y-92700000D02*
X169718000Y-92700000D01*
X163800000Y-86624700D02*
X163800000Y-90900000D01*
X163800000Y-90900000D02*
X165600000Y-92700000D01*
X164800000Y-84800000D02*
X164800000Y-85624700D01*
X165600000Y-92700000D02*
X169717800Y-92700000D01*
%TO.N,/AVSS*%
X165300000Y-84800000D02*
X165300000Y-85824700D01*
X166574400Y-82443700D02*
X166800000Y-82443700D01*
X169649400Y-89200000D02*
X169649000Y-89200000D01*
X164550000Y-72845700D02*
X163990400Y-72286100D01*
X166800000Y-82443700D02*
X166800000Y-73440000D01*
X166699000Y-69251100D02*
X166698000Y-69250000D01*
X163400000Y-87185800D02*
X163400000Y-89050000D01*
X166800000Y-71350000D02*
X166700000Y-71250000D01*
X167303900Y-82443700D02*
X168800000Y-83939800D01*
X164550000Y-73440000D02*
X164550000Y-72845700D01*
X162900000Y-86000000D02*
X162800000Y-85900000D01*
X164509900Y-83718100D02*
X164300000Y-83928000D01*
X163990400Y-68523600D02*
X164336100Y-68177900D01*
X165538000Y-89127000D02*
X165538500Y-89127000D01*
X170417800Y-93510700D02*
X163960700Y-93510700D01*
X166698900Y-69251100D02*
X166697800Y-69250000D01*
X165300000Y-83718100D02*
X164509900Y-83718100D01*
X170780800Y-93147700D02*
X170417800Y-93510700D01*
X169649000Y-90731600D02*
X169683500Y-90765800D01*
X162800000Y-85900000D02*
X162800000Y-84800000D01*
X163400000Y-89050000D02*
X162250000Y-90200000D01*
X170780800Y-91863100D02*
X170780800Y-93147700D01*
X163960700Y-93510700D02*
X162250000Y-91800000D01*
X165625700Y-68177900D02*
X166697800Y-69250000D01*
X134400000Y-98404800D02*
X134400000Y-98957200D01*
X136863000Y-101420000D02*
X138800000Y-101420000D01*
X168800000Y-83939800D02*
X168800000Y-84800000D01*
X169717800Y-90800000D02*
X165600000Y-90800000D01*
X160250000Y-90200000D02*
X160250000Y-91800000D01*
X169649000Y-89200000D02*
X169649000Y-90731600D01*
X165300000Y-83718100D02*
X166574400Y-82443700D01*
X167570000Y-89127000D02*
X167600000Y-89157100D01*
X166700000Y-69252200D02*
X166699000Y-69251100D01*
X167600000Y-89157100D02*
X169606000Y-89157100D01*
X165538500Y-89127000D02*
X167570000Y-89127000D01*
X162900000Y-86000000D02*
X162900000Y-86685800D01*
X166700000Y-71250000D02*
X166700000Y-69252200D01*
X164300000Y-73440000D02*
X164550000Y-73440000D01*
X164336100Y-68177900D02*
X165625700Y-68177900D01*
X164513000Y-88102000D02*
X165538000Y-89127000D01*
X164300000Y-83928000D02*
X164300000Y-84800000D01*
X134400000Y-98957200D02*
X136863000Y-101420000D01*
X162250000Y-90200000D02*
X160250000Y-90200000D01*
X169683500Y-90765800D02*
X169718000Y-90800000D01*
X166800000Y-82443700D02*
X167303900Y-82443700D01*
X165300000Y-84800000D02*
X165300000Y-83718100D01*
X160250000Y-91800000D02*
X162250000Y-91800000D01*
X169683500Y-90765800D02*
X170780800Y-91863100D01*
X166699000Y-69251100D02*
X166698900Y-69251100D01*
X162900000Y-86685800D02*
X163400000Y-87185800D01*
X165300000Y-85824700D02*
X164513000Y-86611300D01*
X166800000Y-73440000D02*
X166800000Y-71350000D01*
X164513000Y-86611300D02*
X164513000Y-88102000D01*
X169718000Y-90800000D02*
X169717800Y-90800000D01*
X169606000Y-89157100D02*
X169649000Y-89200000D01*
X163990400Y-72286100D02*
X163990400Y-68523600D01*
X164550000Y-73440000D02*
X164800000Y-73440000D01*
%TO.N,/VCAP4*%
X165800000Y-86965500D02*
X165538300Y-87226800D01*
X165538500Y-87227000D02*
X165538300Y-87226800D01*
X165800000Y-84800000D02*
X165800000Y-86965500D01*
X165538300Y-87226800D02*
X165538000Y-87227000D01*
%TO.N,/VCAP1*%
X166800000Y-84800000D02*
X166800000Y-86457100D01*
X166800000Y-86457100D02*
X167600000Y-87257100D01*
%TO.N,/VCAP2*%
X169649000Y-87224700D02*
X169649400Y-87225100D01*
X168881400Y-86457100D02*
X169649000Y-87224700D01*
X169649000Y-87224700D02*
X169649000Y-87300000D01*
X169649400Y-87225100D02*
X169649400Y-87300000D01*
X167800000Y-86050000D02*
X168207100Y-86457100D01*
X167800000Y-84800000D02*
X167800000Y-86050000D01*
X168207100Y-86457100D02*
X168881400Y-86457100D01*
%TO.N,/VCAP3*%
X164800000Y-70450000D02*
X164798000Y-70447800D01*
X165800000Y-73440000D02*
X165800000Y-72250000D01*
X164798000Y-70447800D02*
X164798000Y-69848900D01*
X164797800Y-69848700D02*
X164797800Y-69250000D01*
X164798000Y-69848900D02*
X164798000Y-69250000D01*
X164800000Y-71250000D02*
X164800000Y-70450000D01*
X165800000Y-72250000D02*
X164800000Y-71250000D01*
X164798000Y-69848900D02*
X164797800Y-69848700D01*
%TO.N,AGND*%
X134700000Y-51395200D02*
X134700000Y-51947600D01*
X170730000Y-82870000D02*
X171670000Y-82870000D01*
X170730000Y-84194732D02*
X170730000Y-82870000D01*
X134648000Y-62600000D02*
X132000000Y-62600000D01*
X168300000Y-84800000D02*
X168300000Y-85800000D01*
X147300000Y-70800000D02*
X147300000Y-68900000D01*
X167800000Y-74264732D02*
X168055268Y-74520000D01*
X158450000Y-91750000D02*
X158450000Y-91900000D01*
X134900000Y-107200000D02*
X134900000Y-107752000D01*
X134900000Y-96800000D02*
X134900000Y-97352400D01*
X175420000Y-98220000D02*
X177200000Y-98220000D01*
X147300000Y-66150000D02*
X147300000Y-67900000D01*
X170250000Y-71250000D02*
X168800000Y-72700000D01*
X147800000Y-70800000D02*
X147800000Y-68800000D01*
X134700000Y-51947600D02*
X134448000Y-52200000D01*
X161300000Y-73440000D02*
X161300000Y-74264732D01*
X168924732Y-86000000D02*
X170730000Y-84194732D01*
X134700000Y-74552400D02*
X134452000Y-74800000D01*
X170250000Y-69300000D02*
X170200000Y-69250000D01*
X174219000Y-76600000D02*
X177180000Y-76600000D01*
X168730000Y-74520000D02*
X168800000Y-74450000D01*
X134700000Y-84752400D02*
X134452000Y-85000000D01*
X158450000Y-91900000D02*
X158450000Y-91750000D01*
X148400000Y-88550000D02*
X148400000Y-90800000D01*
X134652000Y-97600000D02*
X131800000Y-97600000D01*
X134452000Y-74800000D02*
X131800000Y-74800000D01*
X168500000Y-86000000D02*
X168924732Y-86000000D01*
X147400000Y-48000000D02*
X147400000Y-46200000D01*
X142900000Y-103600000D02*
X142900000Y-107480000D01*
X162250000Y-93700000D02*
X160250000Y-93700000D01*
X146200000Y-108175000D02*
X146200000Y-109325000D01*
X146800000Y-68800000D02*
X146800000Y-70800000D01*
X173000000Y-84200000D02*
X173000000Y-95800000D01*
X160250000Y-93700000D02*
X158450000Y-91900000D01*
X158450000Y-91900000D02*
X158450000Y-93750000D01*
X146900000Y-48000000D02*
X146900000Y-46300000D01*
X147900000Y-88550000D02*
X147900000Y-90700000D01*
X163300000Y-74264732D02*
X163300000Y-73440000D01*
X168800000Y-72700000D02*
X168800000Y-73440000D01*
X142900000Y-107480000D02*
X138800000Y-111580000D01*
X158450000Y-93750000D02*
X158450000Y-95750000D01*
X161555268Y-74520000D02*
X163044732Y-74520000D01*
X147800000Y-66150000D02*
X147800000Y-68000000D01*
X134900000Y-107752000D02*
X134652000Y-108000000D01*
X168300000Y-85800000D02*
X168500000Y-86000000D01*
X146200000Y-108175000D02*
X146200000Y-105200000D01*
X148400000Y-48000000D02*
X148400000Y-46200000D01*
X163044732Y-74520000D02*
X163300000Y-74264732D01*
X173000000Y-95800000D02*
X175420000Y-98220000D01*
X170730000Y-78870000D02*
X171949000Y-78870000D01*
X134448000Y-52200000D02*
X132000000Y-52200000D01*
X134700000Y-84200000D02*
X134700000Y-84752400D01*
X148300000Y-70800000D02*
X148300000Y-68900000D01*
X134652000Y-108000000D02*
X131800000Y-108000000D01*
X177180000Y-76600000D02*
X177200000Y-76580000D01*
X170250000Y-71250000D02*
X170250000Y-69300000D01*
X134900000Y-61795200D02*
X134900000Y-62347600D01*
X134900000Y-62347600D02*
X134648000Y-62600000D01*
X147400000Y-90800000D02*
X147400000Y-88550000D01*
X168055268Y-74520000D02*
X168730000Y-74520000D01*
X158450000Y-95750000D02*
X158450000Y-97750000D01*
X168800000Y-74450000D02*
X168800000Y-73440000D01*
X161300000Y-74264732D02*
X161555268Y-74520000D01*
X134700000Y-74000000D02*
X134700000Y-74552400D01*
X167800000Y-73440000D02*
X167800000Y-74264732D01*
X148300000Y-66150000D02*
X148300000Y-67900000D01*
X134452000Y-85000000D02*
X132000000Y-85000000D01*
X171670000Y-82870000D02*
X173000000Y-84200000D01*
X146900000Y-88550000D02*
X146900000Y-90700000D01*
X147900000Y-48000000D02*
X147900000Y-46300000D01*
X146800000Y-66150000D02*
X146800000Y-68000000D01*
X146200000Y-105200000D02*
X144600000Y-103600000D01*
X134900000Y-97352400D02*
X134652000Y-97600000D01*
X171949000Y-78870000D02*
X174219000Y-76600000D01*
%TO.N,/BIAS_DRV*%
X147700000Y-101200000D02*
X147600000Y-101200000D01*
X159588000Y-67750000D02*
X159588000Y-69481200D01*
X159588000Y-71212500D02*
X159550000Y-71250000D01*
X159588000Y-69481200D02*
X159588000Y-71212500D01*
X147700000Y-108175000D02*
X147700000Y-101200000D01*
X159587500Y-69480700D02*
X159587500Y-69250000D01*
X159550000Y-71250000D02*
X160000000Y-70800000D01*
X147600000Y-101200000D02*
X144600000Y-101200000D01*
X159588000Y-69481200D02*
X159587500Y-69480700D01*
%TO.N,/DVDD*%
X168350000Y-69300000D02*
X168300000Y-69250000D01*
X171801000Y-81870000D02*
X173800000Y-83868600D01*
X170730000Y-75370000D02*
X169645200Y-75370000D01*
X168300000Y-71300000D02*
X168350000Y-71250000D01*
X169837400Y-81870000D02*
X169645200Y-81677800D01*
X170730000Y-81870000D02*
X169837400Y-81870000D01*
X168350000Y-71250000D02*
X168350000Y-69300000D01*
X167300000Y-74330418D02*
X168339582Y-75370000D01*
X176720000Y-58800000D02*
X177200000Y-58800000D01*
X173800000Y-83868600D02*
X173800000Y-93200000D01*
X168300000Y-71599500D02*
X167300000Y-72599500D01*
X167300000Y-73440000D02*
X167300000Y-74330418D01*
X168339582Y-75370000D02*
X170730000Y-75370000D01*
X168300000Y-71599500D02*
X168300000Y-71300000D01*
X167300000Y-72599500D02*
X167300000Y-73440000D01*
X170730000Y-75370000D02*
X171489000Y-75370000D01*
X169645200Y-81677800D02*
X169645200Y-75370000D01*
X172800000Y-74059000D02*
X172800000Y-62720000D01*
X173800000Y-93200000D02*
X177140000Y-93200000D01*
X172800000Y-62720000D02*
X176720000Y-58800000D01*
X170730000Y-81870000D02*
X171801000Y-81870000D01*
X177140000Y-93200000D02*
X177200000Y-93140000D01*
X171489000Y-75370000D02*
X172800000Y-74059000D01*
X168300000Y-73440000D02*
X168300000Y-71599500D01*
%TO.N,/AVDD*%
X165555000Y-74520000D02*
X166045000Y-74520000D01*
X163057800Y-75526900D02*
X164059900Y-74524800D01*
X162525000Y-87546200D02*
X162250000Y-87821600D01*
X160250000Y-88300000D02*
X159200000Y-88300000D01*
X156550000Y-90950000D02*
X156550000Y-91750000D01*
X134400000Y-108805000D02*
X134400000Y-108804800D01*
X164285000Y-74750000D02*
X164815000Y-74750000D01*
X134400000Y-96800000D02*
X134400000Y-96247600D01*
X136848000Y-93800000D02*
X138800000Y-93800000D01*
X162525000Y-87546200D02*
X162525000Y-87374000D01*
X165300000Y-73440000D02*
X165300000Y-74264700D01*
X166300000Y-74264700D02*
X166300000Y-73440000D01*
X163800000Y-74264700D02*
X164059900Y-74524800D01*
X137950000Y-109890000D02*
X138800000Y-109040000D01*
X166045000Y-74520000D02*
X166300000Y-74264700D01*
X165300000Y-74264700D02*
X165555000Y-74520000D01*
X163057800Y-83705600D02*
X162560400Y-83705600D01*
X162300000Y-86651500D02*
X162300000Y-84800000D01*
X162400000Y-86751500D02*
X162300000Y-86651500D01*
X156550000Y-93750000D02*
X156550000Y-95750000D01*
X134933000Y-109890000D02*
X137950000Y-109890000D01*
X163800000Y-84800000D02*
X163300000Y-84800000D01*
X163057800Y-83705600D02*
X163057800Y-75526900D01*
X164059900Y-74524800D02*
X164285000Y-74750000D01*
X134400000Y-109357000D02*
X134933000Y-109890000D01*
X159200000Y-88300000D02*
X156550000Y-90950000D01*
X134400000Y-108805000D02*
X134400000Y-109357000D01*
X156550000Y-95750000D02*
X156550000Y-97750000D01*
X163800000Y-73440000D02*
X163800000Y-74264700D01*
X162250000Y-87821600D02*
X162250000Y-88300000D01*
X162250000Y-88300000D02*
X160250000Y-88300000D01*
X164815000Y-74750000D02*
X165300000Y-74264700D01*
X162400000Y-87248500D02*
X162400000Y-86751500D01*
X163300000Y-83947800D02*
X163057800Y-83705600D01*
X156550000Y-91750000D02*
X156550000Y-93750000D01*
X162525000Y-87374000D02*
X162400000Y-87248500D01*
X163300000Y-84800000D02*
X163300000Y-83947800D01*
X162560400Y-83705600D02*
X162300000Y-83966000D01*
X134400000Y-96247600D02*
X136848000Y-93800000D01*
X162300000Y-83966000D02*
X162300000Y-84800000D01*
%TO.N,/IN3N*%
X148200000Y-75800000D02*
X148300000Y-75800000D01*
X155821000Y-81200000D02*
X157000000Y-81200000D01*
X157000000Y-81200000D02*
X157830000Y-80370000D01*
X148300000Y-75800000D02*
X148300000Y-71950000D01*
X144800000Y-75800000D02*
X148200000Y-75800000D01*
X157830000Y-80370000D02*
X159370000Y-80370000D01*
%TO.N,/3P*%
X140080000Y-75000000D02*
X143100000Y-75000000D01*
X135200000Y-75604800D02*
X138525000Y-75604800D01*
X139000000Y-76080000D02*
X140080000Y-75000000D01*
X138525000Y-75604800D02*
X139000000Y-76080000D01*
%TO.N,/2P*%
X134200000Y-83647600D02*
X136688000Y-81160000D01*
X141440000Y-83600000D02*
X143200000Y-83600000D01*
X134200000Y-84200000D02*
X134200000Y-83647600D01*
X136688000Y-81160000D02*
X139000000Y-81160000D01*
X139000000Y-81160000D02*
X141440000Y-83600000D01*
%TO.N,/IN2N*%
X158333000Y-81370000D02*
X159370000Y-81370000D01*
X155801000Y-83000000D02*
X156047000Y-82754300D01*
X147400000Y-84400000D02*
X144900000Y-84400000D01*
X156949000Y-82754300D02*
X158333000Y-81370000D01*
X147900000Y-84900000D02*
X147900000Y-87400000D01*
X147400000Y-84400000D02*
X147900000Y-84900000D01*
X156047000Y-82754300D02*
X156949000Y-82754300D01*
%TO.N,/3N*%
X139000000Y-78620000D02*
X140280000Y-78620000D01*
X134200000Y-76157200D02*
X136663000Y-78620000D01*
X134200000Y-75604800D02*
X134200000Y-76157200D01*
X136663000Y-78620000D02*
X139000000Y-78620000D01*
X140280000Y-78620000D02*
X143100000Y-75800000D01*
%TO.N,/IN2P*%
X148400000Y-83600000D02*
X148400000Y-87400000D01*
X144900000Y-83600000D02*
X148400000Y-83600000D01*
X156469000Y-83800000D02*
X158399000Y-81870000D01*
X155800000Y-83800000D02*
X156469000Y-83800000D01*
X158399000Y-81870000D02*
X159370000Y-81870000D01*
%TO.N,/IN3P*%
X146500000Y-75000000D02*
X147800000Y-73700000D01*
X158267000Y-80870000D02*
X159370000Y-80870000D01*
X157207000Y-81930100D02*
X158267000Y-80870000D01*
X155800000Y-82200000D02*
X156070000Y-81930100D01*
X146500000Y-75000000D02*
X144800000Y-75000000D01*
X156070000Y-81930100D02*
X157207000Y-81930100D01*
X147800000Y-73700000D02*
X147800000Y-71950000D01*
%TO.N,/2N*%
X135200000Y-84200000D02*
X138500000Y-84200000D01*
X138500000Y-84200000D02*
X139000000Y-83700000D01*
X139000000Y-83700000D02*
X139700000Y-84400000D01*
X139700000Y-84400000D02*
X143200000Y-84400000D01*
%TO.N,/IN1P*%
X158530000Y-82870000D02*
X159370000Y-82870000D01*
X146800000Y-85800000D02*
X147400000Y-86400000D01*
X155800000Y-85400000D02*
X156000000Y-85400000D01*
X144900000Y-85200000D02*
X146200000Y-85200000D01*
X147400000Y-86400000D02*
X147400000Y-87400000D01*
X156000000Y-85400000D02*
X158530000Y-82870000D01*
X146200000Y-85200000D02*
X146800000Y-85800000D01*
%TO.N,/IN1N*%
X146400000Y-86600000D02*
X146900000Y-87100000D01*
X155800000Y-84600000D02*
X156234000Y-84600000D01*
X144900000Y-86000000D02*
X145800000Y-86000000D01*
X158464000Y-82370000D02*
X159370000Y-82370000D01*
X156234000Y-84600000D02*
X158464000Y-82370000D01*
X146200000Y-86600000D02*
X146400000Y-86600000D01*
X146900000Y-87100000D02*
X146900000Y-87400000D01*
X145800000Y-86000000D02*
X146200000Y-86400000D01*
X146200000Y-86400000D02*
X146200000Y-86600000D01*
%TO.N,/_SRB1*%
X146400000Y-102000000D02*
X144600000Y-102000000D01*
X161200000Y-86050000D02*
X161300000Y-85950000D01*
X147200000Y-102800000D02*
X146800000Y-102400000D01*
X147200000Y-108175000D02*
X147200000Y-102800000D01*
X161300000Y-85950000D02*
X161300000Y-84800000D01*
X146800000Y-102400000D02*
X146400000Y-102000000D01*
%TO.N,/SRB1*%
X134400000Y-106648000D02*
X137088000Y-103960000D01*
X140760000Y-102000000D02*
X142900000Y-102000000D01*
X134400000Y-107200000D02*
X134400000Y-106648000D01*
X137088000Y-103960000D02*
X138800000Y-103960000D01*
X138800000Y-103960000D02*
X140760000Y-102000000D01*
%TO.N,/1P*%
X135200000Y-85804800D02*
X138565000Y-85804800D01*
X138565000Y-85804800D02*
X139000000Y-86240000D01*
X140040000Y-85200000D02*
X143200000Y-85200000D01*
X139000000Y-86240000D02*
X140040000Y-85200000D01*
%TO.N,/_SRB2*%
X146200000Y-103400000D02*
X146200000Y-103200000D01*
X145800000Y-102800000D02*
X144600000Y-102800000D01*
X146700000Y-108175000D02*
X146700000Y-103700000D01*
X146700000Y-103700000D02*
X146400000Y-103400000D01*
X161800000Y-86574600D02*
X161800000Y-84800000D01*
X161700000Y-86674200D02*
X161800000Y-86574600D01*
X146200000Y-103200000D02*
X145800000Y-102800000D01*
X146400000Y-103400000D02*
X146200000Y-103400000D01*
%TO.N,/SRB2*%
X138800000Y-106500000D02*
X142500000Y-102800000D01*
X135400000Y-107200000D02*
X138100000Y-107200000D01*
X138100000Y-107200000D02*
X138800000Y-106500000D01*
X142500000Y-102800000D02*
X142900000Y-102800000D01*
%TO.N,/1N*%
X136623000Y-88780000D02*
X139000000Y-88780000D01*
X139000000Y-88780000D02*
X141780000Y-86000000D01*
X134200000Y-86357200D02*
X136623000Y-88780000D01*
X134200000Y-85804800D02*
X134200000Y-86357200D01*
X141780000Y-86000000D02*
X143200000Y-86000000D01*
%TO.N,/8N*%
X139000000Y-50760000D02*
X140040000Y-51800000D01*
X140040000Y-51800000D02*
X143000000Y-51800000D01*
X135200000Y-51395200D02*
X138365000Y-51395200D01*
X138365000Y-51395200D02*
X139000000Y-50760000D01*
%TO.N,/8P*%
X140220000Y-48220000D02*
X143000000Y-51000000D01*
X134200000Y-51395200D02*
X134200000Y-50842800D01*
X134200000Y-50842800D02*
X136823000Y-48220000D01*
X136823000Y-48220000D02*
X139000000Y-48220000D01*
X139000000Y-48220000D02*
X140220000Y-48220000D01*
%TO.N,/IN8P*%
X157870000Y-75870000D02*
X159370000Y-75870000D01*
X145400000Y-51000000D02*
X146000000Y-50400000D01*
X146200000Y-50200000D02*
X146900000Y-49500000D01*
X144700000Y-51000000D02*
X145400000Y-51000000D01*
X156000000Y-74000000D02*
X157870000Y-75870000D01*
X155800000Y-74000000D02*
X156000000Y-74000000D01*
X146000000Y-50200000D02*
X146200000Y-50200000D01*
X146900000Y-49500000D02*
X146900000Y-49150000D01*
X146000000Y-50400000D02*
X146000000Y-50200000D01*
%TO.N,/BIAS*%
X138800000Y-98880000D02*
X140580000Y-98880000D01*
X140580000Y-98880000D02*
X142900000Y-101200000D01*
X135400000Y-98404800D02*
X138325000Y-98404800D01*
X138325000Y-98404800D02*
X138800000Y-98880000D01*
%TO.N,/IN8N*%
X155800000Y-73200000D02*
X156000000Y-73200000D01*
X158170000Y-75370000D02*
X159370000Y-75370000D01*
X147400000Y-50600000D02*
X147400000Y-49150000D01*
X144700000Y-51800000D02*
X146200000Y-51800000D01*
X146200000Y-51800000D02*
X146800000Y-51200000D01*
X156000000Y-73200000D02*
X158170000Y-75370000D01*
X146800000Y-51200000D02*
X147400000Y-50600000D01*
%TO.N,/6P*%
X134400000Y-61795200D02*
X134400000Y-61243200D01*
X140280000Y-58380000D02*
X143100000Y-61200000D01*
X137263000Y-58380000D02*
X139000000Y-58380000D01*
X139000000Y-58380000D02*
X140280000Y-58380000D01*
X134400000Y-61243200D02*
X137263000Y-58380000D01*
%TO.N,/7N*%
X136488000Y-55840000D02*
X139000000Y-55840000D01*
X134200000Y-53552400D02*
X136488000Y-55840000D01*
X140560000Y-55840000D02*
X143000000Y-53400000D01*
X134200000Y-53000000D02*
X134200000Y-53552400D01*
X139000000Y-55840000D02*
X140560000Y-55840000D01*
%TO.N,/IN6N*%
X156600000Y-76400000D02*
X157600000Y-77400000D01*
X147400000Y-62400000D02*
X147800000Y-62800000D01*
X155800000Y-76400000D02*
X156600000Y-76400000D01*
X144800000Y-62000000D02*
X147000000Y-62000000D01*
X147000000Y-62000000D02*
X147400000Y-62400000D01*
X147800000Y-62800000D02*
X147800000Y-65000000D01*
X157600000Y-77400000D02*
X159400000Y-77400000D01*
X159400000Y-77400000D02*
X159370000Y-77370000D01*
%TO.N,/IN6P*%
X144800000Y-61200000D02*
X148200000Y-61200000D01*
X148300000Y-61200000D02*
X148300000Y-65000000D01*
X157221000Y-77870000D02*
X159370000Y-77870000D01*
X148200000Y-61200000D02*
X148300000Y-61200000D01*
X156551000Y-77200000D02*
X157221000Y-77870000D01*
X155776000Y-77200000D02*
X156551000Y-77200000D01*
%TO.N,/IN7N*%
X148400000Y-53400000D02*
X148400000Y-49150000D01*
X156200000Y-74800000D02*
X157770000Y-76370000D01*
X144700000Y-53400000D02*
X148400000Y-53400000D01*
X155800000Y-74800000D02*
X156200000Y-74800000D01*
X157770000Y-76370000D02*
X159370000Y-76370000D01*
%TO.N,/6N*%
X139000000Y-60920000D02*
X140080000Y-62000000D01*
X140080000Y-62000000D02*
X143100000Y-62000000D01*
X135400000Y-61795200D02*
X138125000Y-61795200D01*
X138125000Y-61795200D02*
X139000000Y-60920000D01*
%TO.N,/7P*%
X138700000Y-53000000D02*
X139000000Y-53300000D01*
X135200000Y-53000000D02*
X138700000Y-53000000D01*
X139000000Y-53300000D02*
X139700000Y-52600000D01*
X139700000Y-52600000D02*
X143000000Y-52600000D01*
%TO.N,/IN7P*%
X147600000Y-52400000D02*
X147400000Y-52600000D01*
X155800000Y-75600000D02*
X155903000Y-75497100D01*
X157670000Y-76870000D02*
X159370000Y-76870000D01*
X155903000Y-75497100D02*
X156297000Y-75497100D01*
X147600000Y-52400000D02*
X147900000Y-52100000D01*
X156297000Y-75497100D02*
X157670000Y-76870000D01*
X147900000Y-52100000D02*
X147900000Y-49150000D01*
X147400000Y-52600000D02*
X144700000Y-52600000D01*
%TO.N,/5N*%
X134400000Y-63400000D02*
X134400000Y-63952400D01*
X140700000Y-66000000D02*
X143100000Y-63600000D01*
X134400000Y-63952400D02*
X136448000Y-66000000D01*
X136448000Y-66000000D02*
X139000000Y-66000000D01*
X139000000Y-66000000D02*
X140700000Y-66000000D01*
%TO.N,/SCLK*%
X172736000Y-79370000D02*
X173766000Y-80400000D01*
X173766000Y-80400000D02*
X177160000Y-80400000D01*
X170730000Y-79370000D02*
X172736000Y-79370000D01*
X177160000Y-80400000D02*
X177200000Y-80440000D01*
%TO.N,/BIASINV*%
X138340000Y-96800000D02*
X138800000Y-96340000D01*
X162800000Y-73440000D02*
X162800000Y-72000000D01*
X135400000Y-96800000D02*
X138340000Y-96800000D01*
%TO.N,/MOSI*%
X173566000Y-95800000D02*
X177080000Y-95800000D01*
X173400000Y-84034300D02*
X173400000Y-95634300D01*
X171736000Y-82370000D02*
X173400000Y-84034300D01*
X177080000Y-95800000D02*
X177200000Y-95680000D01*
X173400000Y-95634300D02*
X173566000Y-95800000D01*
X170730000Y-82370000D02*
X171736000Y-82370000D01*
%TO.N,/GPIO2*%
X176760000Y-69400000D02*
X177200000Y-68960000D01*
X174400000Y-69400000D02*
X176760000Y-69400000D01*
X174400000Y-74721800D02*
X174400000Y-69400000D01*
X170730000Y-77370000D02*
X171752000Y-77370000D01*
X171752000Y-77370000D02*
X174400000Y-74721800D01*
%TO.N,/GPIO3*%
X170730000Y-76870000D02*
X171686000Y-76870000D01*
X174000000Y-66800000D02*
X174380000Y-66420000D01*
X171686000Y-76870000D02*
X174000000Y-74556100D01*
X174380000Y-66420000D02*
X177200000Y-66420000D01*
X174000000Y-74556100D02*
X174000000Y-66800000D01*
%TO.N,/IN4N*%
X146900000Y-73500000D02*
X146200000Y-74200000D01*
X147300000Y-73100000D02*
X147300000Y-71950000D01*
X146900000Y-73500000D02*
X147300000Y-73100000D01*
X146200000Y-74200000D02*
X144800000Y-74200000D01*
X157464000Y-79370000D02*
X159370000Y-79370000D01*
X157234000Y-79600000D02*
X157464000Y-79370000D01*
X155800000Y-79600000D02*
X157234000Y-79600000D01*
%TO.N,/IN5P*%
X146000000Y-62800000D02*
X144800000Y-62800000D01*
X147300000Y-64100000D02*
X147300000Y-65000000D01*
X155870000Y-78870000D02*
X159370000Y-78870000D01*
X155800000Y-78800000D02*
X155870000Y-78870000D01*
X146600000Y-63400000D02*
X147300000Y-64100000D01*
X146600000Y-63400000D02*
X146000000Y-62800000D01*
%TO.N,/START*%
X170730000Y-80370000D02*
X171998000Y-80370000D01*
X175120000Y-85520000D02*
X177200000Y-85520000D01*
X171998000Y-80370000D02*
X175000000Y-83371600D01*
X175000000Y-83371600D02*
X175000000Y-85400000D01*
X175000000Y-85400000D02*
X175120000Y-85520000D01*
%TO.N,/MISO*%
X171817000Y-77870000D02*
X174800000Y-74887500D01*
X170730000Y-77870000D02*
X171817000Y-77870000D01*
X174800000Y-74887500D02*
X174800000Y-71600000D01*
X174900000Y-71500000D02*
X177200000Y-71500000D01*
X174800000Y-71600000D02*
X174900000Y-71500000D01*
%TO.N,/CLK*%
X174600000Y-83537300D02*
X174600000Y-88060000D01*
X174600000Y-88060000D02*
X177200000Y-88060000D01*
X171933000Y-80870000D02*
X174600000Y-83537300D01*
X170730000Y-80870000D02*
X171933000Y-80870000D01*
%TO.N,/DRDY*%
X174746000Y-61340000D02*
X177200000Y-61340000D01*
X171555000Y-75870000D02*
X173200000Y-74224700D01*
X173200000Y-74224700D02*
X173200000Y-62885700D01*
X170730000Y-75870000D02*
X171555000Y-75870000D01*
X173200000Y-62885700D02*
X174746000Y-61340000D01*
%TO.N,/CS1*%
X172670000Y-79870000D02*
X175780000Y-82980000D01*
X170730000Y-79870000D02*
X172670000Y-79870000D01*
X175780000Y-82980000D02*
X177200000Y-82980000D01*
%TO.N,/BIASIN*%
X161800000Y-71600000D02*
X161450000Y-71250000D01*
X161412000Y-70231200D02*
X161412000Y-69250000D01*
X162300000Y-73440000D02*
X161800000Y-73440000D01*
X161800000Y-73440000D02*
X161800000Y-71600000D01*
X161450000Y-71250000D02*
X161412000Y-71212500D01*
X161412000Y-70231200D02*
X161412500Y-70230700D01*
X161412500Y-70230700D02*
X161412500Y-69250000D01*
X161412000Y-71212500D02*
X161412000Y-70231200D01*
%TO.N,/GPIO1*%
X175200000Y-74040000D02*
X177200000Y-74040000D01*
X171883000Y-78370000D02*
X175200000Y-75053200D01*
X170730000Y-78370000D02*
X171883000Y-78370000D01*
X175200000Y-75053200D02*
X175200000Y-74040000D01*
%TO.N,/GPIO4*%
X171620000Y-76370000D02*
X173600000Y-74390400D01*
X173600000Y-74390400D02*
X173600000Y-64400000D01*
X170730000Y-76370000D02*
X171620000Y-76370000D01*
X174120000Y-63880000D02*
X177200000Y-63880000D01*
X173600000Y-64400000D02*
X174120000Y-63880000D01*
%TO.N,/RESET*%
X177000000Y-90800000D02*
X177200000Y-90600000D01*
X171867000Y-81370000D02*
X174200000Y-83702900D01*
X174200000Y-83702900D02*
X174200000Y-90800000D01*
X170730000Y-81370000D02*
X171867000Y-81370000D01*
X174200000Y-90800000D02*
X177000000Y-90800000D01*
%TO.N,/IN4P*%
X146200000Y-73000000D02*
X146800000Y-72400000D01*
X157000000Y-80400000D02*
X157470000Y-79930000D01*
X157470000Y-79930000D02*
X159310000Y-79930000D01*
X144800000Y-73400000D02*
X145800000Y-73400000D01*
X155800000Y-80400000D02*
X157000000Y-80400000D01*
X159310000Y-79930000D02*
X159370000Y-79870000D01*
X146800000Y-72400000D02*
X146800000Y-71950000D01*
X145800000Y-73400000D02*
X146200000Y-73000000D01*
%TO.N,/IN5N*%
X144800000Y-63600000D02*
X145600000Y-63600000D01*
X146800000Y-64800000D02*
X146800000Y-65000000D01*
X157156000Y-78370000D02*
X159370000Y-78370000D01*
X146200000Y-64200000D02*
X146800000Y-64800000D01*
X155764000Y-78000000D02*
X156786000Y-78000000D01*
X146000000Y-64200000D02*
X146200000Y-64200000D01*
X146000000Y-64000000D02*
X146000000Y-64200000D01*
X145600000Y-63600000D02*
X146000000Y-64000000D01*
X156786000Y-78000000D02*
X157156000Y-78370000D01*
%TO.N,/4P*%
X136648000Y-71000000D02*
X139000000Y-71000000D01*
X134200000Y-73447600D02*
X136648000Y-71000000D01*
X140700000Y-71000000D02*
X143100000Y-73400000D01*
X134200000Y-74000000D02*
X134200000Y-73447600D01*
X139000000Y-71000000D02*
X140700000Y-71000000D01*
%TO.N,/5P*%
X135400000Y-63400000D02*
X138940000Y-63400000D01*
X138940000Y-63400000D02*
X139000000Y-63460000D01*
X139660000Y-62800000D02*
X143100000Y-62800000D01*
X139000000Y-63460000D02*
X139660000Y-62800000D01*
%TO.N,/4N*%
X138540000Y-74000000D02*
X139000000Y-73540000D01*
X139660000Y-74200000D02*
X143100000Y-74200000D01*
X135200000Y-74000000D02*
X138540000Y-74000000D01*
X139000000Y-73540000D02*
X139660000Y-74200000D01*
%TD*%
%TA.AperFunction,Conductor*%
%TO.N,AGND*%
G36*
X185442539Y-45520185D02*
G01*
X185488294Y-45572989D01*
X185499500Y-45624500D01*
X185499500Y-114375500D01*
X185479815Y-114442539D01*
X185427011Y-114488294D01*
X185375500Y-114499500D01*
X129524000Y-114499500D01*
X129456961Y-114479815D01*
X129411206Y-114427011D01*
X129400000Y-114375500D01*
X129400000Y-96334704D01*
X133799492Y-96334704D01*
X133799500Y-96334825D01*
X133799500Y-96884100D01*
X133799901Y-96890225D01*
X133799901Y-97200268D01*
X133799902Y-97200275D01*
X133806309Y-97259882D01*
X133856603Y-97394727D01*
X133856607Y-97394734D01*
X133942853Y-97509943D01*
X133947629Y-97514719D01*
X133981114Y-97576042D01*
X133976130Y-97645734D01*
X133947629Y-97690081D01*
X133942855Y-97694855D01*
X133856607Y-97810065D01*
X133856603Y-97810072D01*
X133806309Y-97944918D01*
X133799902Y-98004517D01*
X133799901Y-98004536D01*
X133799901Y-98314577D01*
X133799500Y-98320707D01*
X133799500Y-98870050D01*
X133799496Y-98870112D01*
X133799500Y-98959057D01*
X133799500Y-99036271D01*
X133819591Y-99111242D01*
X133819591Y-99111243D01*
X133820708Y-99115410D01*
X133840423Y-99188984D01*
X133840424Y-99188987D01*
X133840432Y-99189005D01*
X133840433Y-99189007D01*
X133871631Y-99243039D01*
X133919480Y-99325916D01*
X133919481Y-99325917D01*
X133919484Y-99325922D01*
X133919494Y-99325932D01*
X133919496Y-99325935D01*
X133954006Y-99360442D01*
X133954010Y-99360446D01*
X134037098Y-99443534D01*
X134037145Y-99443574D01*
X136168574Y-101574831D01*
X136432409Y-101838645D01*
X136494304Y-101900540D01*
X136494370Y-101900590D01*
X136495451Y-101901197D01*
X136560393Y-101938687D01*
X136631216Y-101979577D01*
X136631219Y-101979577D01*
X136631228Y-101979583D01*
X136631236Y-101979585D01*
X136631238Y-101979586D01*
X136716901Y-102002536D01*
X136716903Y-102002537D01*
X136716904Y-102002537D01*
X136783943Y-102020500D01*
X136783944Y-102020500D01*
X136783948Y-102020501D01*
X136783960Y-102020502D01*
X136783967Y-102020504D01*
X136889374Y-102020500D01*
X136889378Y-102020500D01*
X137510909Y-102020500D01*
X137577948Y-102040185D01*
X137623292Y-102092097D01*
X137625965Y-102097830D01*
X137625966Y-102097831D01*
X137761501Y-102291395D01*
X137761506Y-102291402D01*
X137928597Y-102458493D01*
X137928603Y-102458498D01*
X138114158Y-102588425D01*
X138157783Y-102643002D01*
X138164977Y-102712500D01*
X138133454Y-102774855D01*
X138114158Y-102791575D01*
X137928597Y-102921505D01*
X137761506Y-103088596D01*
X137625965Y-103282170D01*
X137625962Y-103282175D01*
X137623289Y-103287909D01*
X137577115Y-103340346D01*
X137510909Y-103359500D01*
X137167057Y-103359500D01*
X137008943Y-103359500D01*
X136856215Y-103400423D01*
X136856214Y-103400423D01*
X136856212Y-103400424D01*
X136856209Y-103400425D01*
X136806096Y-103429359D01*
X136806095Y-103429360D01*
X136762689Y-103454420D01*
X136719285Y-103479479D01*
X136719282Y-103479481D01*
X133919481Y-106279282D01*
X133919477Y-106279287D01*
X133880327Y-106347099D01*
X133840424Y-106416211D01*
X133840423Y-106416212D01*
X133815868Y-106507851D01*
X133799499Y-106568943D01*
X133799499Y-106568945D01*
X133799499Y-106737046D01*
X133799500Y-106737059D01*
X133799500Y-107284100D01*
X133799901Y-107290225D01*
X133799901Y-107600268D01*
X133799902Y-107600275D01*
X133806309Y-107659882D01*
X133856603Y-107794727D01*
X133856607Y-107794734D01*
X133942853Y-107909943D01*
X133947629Y-107914719D01*
X133981114Y-107976042D01*
X133976130Y-108045734D01*
X133947629Y-108090081D01*
X133942853Y-108094856D01*
X133856607Y-108210065D01*
X133856603Y-108210072D01*
X133806309Y-108344918D01*
X133799902Y-108404517D01*
X133799902Y-108404524D01*
X133799901Y-108404536D01*
X133799901Y-108714577D01*
X133799500Y-108720707D01*
X133799500Y-109270330D01*
X133799499Y-109270348D01*
X133799499Y-109436054D01*
X133799498Y-109436054D01*
X133840423Y-109588787D01*
X133847473Y-109600997D01*
X133847475Y-109600999D01*
X133919477Y-109725712D01*
X133919481Y-109725717D01*
X134038349Y-109844585D01*
X134038355Y-109844590D01*
X134448139Y-110254374D01*
X134448149Y-110254385D01*
X134452479Y-110258715D01*
X134452480Y-110258716D01*
X134564284Y-110370520D01*
X134635922Y-110411879D01*
X134651095Y-110420639D01*
X134651097Y-110420641D01*
X134689151Y-110442611D01*
X134701215Y-110449577D01*
X134853943Y-110490501D01*
X134853946Y-110490501D01*
X135019653Y-110490501D01*
X135019669Y-110490500D01*
X137680950Y-110490500D01*
X137747989Y-110510185D01*
X137793744Y-110562989D01*
X137803688Y-110632147D01*
X137774663Y-110695703D01*
X137768631Y-110702181D01*
X137761891Y-110708920D01*
X137761886Y-110708926D01*
X137626400Y-110902420D01*
X137626399Y-110902422D01*
X137526570Y-111116507D01*
X137526567Y-111116513D01*
X137469364Y-111329999D01*
X137469364Y-111330000D01*
X138366988Y-111330000D01*
X138334075Y-111387007D01*
X138300000Y-111514174D01*
X138300000Y-111645826D01*
X138334075Y-111772993D01*
X138366988Y-111830000D01*
X137469364Y-111830000D01*
X137526567Y-112043486D01*
X137526570Y-112043492D01*
X137626399Y-112257578D01*
X137761894Y-112451082D01*
X137928917Y-112618105D01*
X138122421Y-112753600D01*
X138336507Y-112853429D01*
X138336516Y-112853433D01*
X138550000Y-112910634D01*
X138550000Y-112013012D01*
X138607007Y-112045925D01*
X138734174Y-112080000D01*
X138865826Y-112080000D01*
X138992993Y-112045925D01*
X139050000Y-112013012D01*
X139050000Y-112910633D01*
X139263483Y-112853433D01*
X139263492Y-112853429D01*
X139477578Y-112753600D01*
X139671082Y-112618105D01*
X139838105Y-112451082D01*
X139973600Y-112257578D01*
X140073429Y-112043492D01*
X140073432Y-112043486D01*
X140130636Y-111830000D01*
X139233012Y-111830000D01*
X139265925Y-111772993D01*
X139300000Y-111645826D01*
X139300000Y-111514174D01*
X139265925Y-111387007D01*
X139233012Y-111330000D01*
X140130636Y-111330000D01*
X140130635Y-111329999D01*
X140073432Y-111116513D01*
X140073429Y-111116507D01*
X139973600Y-110902422D01*
X139973599Y-110902420D01*
X139838113Y-110708926D01*
X139838108Y-110708920D01*
X139671078Y-110541890D01*
X139485405Y-110411879D01*
X139441780Y-110357302D01*
X139434588Y-110287804D01*
X139466110Y-110225449D01*
X139485406Y-110208730D01*
X139671401Y-110078495D01*
X139838495Y-109911401D01*
X139974035Y-109717830D01*
X139995012Y-109672844D01*
X145575000Y-109672844D01*
X145581401Y-109732372D01*
X145581403Y-109732379D01*
X145631645Y-109867086D01*
X145631649Y-109867093D01*
X145717809Y-109982187D01*
X145717812Y-109982190D01*
X145832906Y-110068350D01*
X145832913Y-110068354D01*
X145967620Y-110118596D01*
X145967627Y-110118598D01*
X146027155Y-110124999D01*
X146027172Y-110125000D01*
X146075000Y-110125000D01*
X146325000Y-110125000D01*
X146372828Y-110125000D01*
X146372841Y-110124999D01*
X146436743Y-110118128D01*
X146463257Y-110118128D01*
X146527158Y-110124999D01*
X146527172Y-110125000D01*
X146575000Y-110125000D01*
X146825000Y-110125000D01*
X146872828Y-110125000D01*
X146872841Y-110124999D01*
X146936743Y-110118128D01*
X146963257Y-110118128D01*
X147027158Y-110124999D01*
X147027172Y-110125000D01*
X147075000Y-110125000D01*
X147325000Y-110125000D01*
X147372828Y-110125000D01*
X147372841Y-110124999D01*
X147436743Y-110118128D01*
X147463257Y-110118128D01*
X147527158Y-110124999D01*
X147527172Y-110125000D01*
X147575000Y-110125000D01*
X147825000Y-110125000D01*
X147872828Y-110125000D01*
X147872844Y-110124999D01*
X147932372Y-110118598D01*
X147932379Y-110118596D01*
X148067086Y-110068354D01*
X148067093Y-110068350D01*
X148182187Y-109982190D01*
X148182190Y-109982187D01*
X148268350Y-109867093D01*
X148268354Y-109867086D01*
X148318596Y-109732379D01*
X148318598Y-109732372D01*
X148324999Y-109672844D01*
X148325000Y-109672827D01*
X148325000Y-109450000D01*
X147825000Y-109450000D01*
X147825000Y-110125000D01*
X147575000Y-110125000D01*
X147575000Y-109450000D01*
X147325000Y-109450000D01*
X147325000Y-110125000D01*
X147075000Y-110125000D01*
X147075000Y-109450000D01*
X146825000Y-109450000D01*
X146825000Y-110125000D01*
X146575000Y-110125000D01*
X146575000Y-109450000D01*
X146325000Y-109450000D01*
X146325000Y-110125000D01*
X146075000Y-110125000D01*
X146075000Y-109450000D01*
X145575000Y-109450000D01*
X145575000Y-109672844D01*
X139995012Y-109672844D01*
X140073903Y-109503663D01*
X140135063Y-109275408D01*
X140155659Y-109040000D01*
X140135063Y-108804592D01*
X140073903Y-108576337D01*
X139974035Y-108362171D01*
X139961955Y-108344918D01*
X139838494Y-108168597D01*
X139671402Y-108001506D01*
X139671396Y-108001501D01*
X139485842Y-107871575D01*
X139442217Y-107816998D01*
X139435023Y-107747500D01*
X139466546Y-107685145D01*
X139485842Y-107668425D01*
X139583170Y-107600275D01*
X139671401Y-107538495D01*
X139838495Y-107371401D01*
X139974035Y-107177830D01*
X140073903Y-106963663D01*
X140135063Y-106735408D01*
X140155659Y-106500000D01*
X140135063Y-106264592D01*
X140100671Y-106136239D01*
X140102334Y-106066393D01*
X140132763Y-106016470D01*
X141959211Y-104190022D01*
X142020530Y-104156540D01*
X142090222Y-104161524D01*
X142121200Y-104178440D01*
X142207910Y-104243352D01*
X142207913Y-104243354D01*
X142342620Y-104293596D01*
X142342627Y-104293598D01*
X142402155Y-104299999D01*
X142402172Y-104300000D01*
X142700000Y-104300000D01*
X143100000Y-104300000D01*
X143397828Y-104300000D01*
X143397844Y-104299999D01*
X143457372Y-104293598D01*
X143457379Y-104293596D01*
X143592086Y-104243354D01*
X143592089Y-104243352D01*
X143675688Y-104180770D01*
X143741152Y-104156352D01*
X143809425Y-104171203D01*
X143824312Y-104180770D01*
X143907910Y-104243352D01*
X143907913Y-104243354D01*
X144042620Y-104293596D01*
X144042627Y-104293598D01*
X144102155Y-104299999D01*
X144102172Y-104300000D01*
X144400000Y-104300000D01*
X144400000Y-103800000D01*
X143100000Y-103800000D01*
X143100000Y-104300000D01*
X142700000Y-104300000D01*
X142700000Y-103624499D01*
X142719685Y-103557460D01*
X142772489Y-103511705D01*
X142824000Y-103500499D01*
X143397871Y-103500499D01*
X143397872Y-103500499D01*
X143457483Y-103494091D01*
X143592331Y-103443796D01*
X143617796Y-103424733D01*
X143683261Y-103400316D01*
X143692107Y-103400000D01*
X143807893Y-103400000D01*
X143874932Y-103419685D01*
X143882204Y-103424733D01*
X143907668Y-103443795D01*
X143907671Y-103443797D01*
X143952618Y-103460561D01*
X144042517Y-103494091D01*
X144102127Y-103500500D01*
X144676001Y-103500499D01*
X144743039Y-103520183D01*
X144788794Y-103572987D01*
X144800000Y-103624499D01*
X144800000Y-104300000D01*
X145097828Y-104300000D01*
X145097844Y-104299999D01*
X145157372Y-104293598D01*
X145157379Y-104293596D01*
X145292086Y-104243354D01*
X145292093Y-104243350D01*
X145407187Y-104157190D01*
X145407190Y-104157187D01*
X145498669Y-104034989D01*
X145501052Y-104036773D01*
X145539881Y-103997936D01*
X145608152Y-103983076D01*
X145673619Y-104007485D01*
X145687002Y-104019080D01*
X145697738Y-104029816D01*
X145850478Y-104125789D01*
X146016455Y-104183867D01*
X146073230Y-104224588D01*
X146098978Y-104289540D01*
X146099500Y-104300908D01*
X146099500Y-107255840D01*
X146079815Y-107322879D01*
X146027011Y-107368634D01*
X145988759Y-107379129D01*
X145967626Y-107381401D01*
X145967620Y-107381403D01*
X145832913Y-107431645D01*
X145832906Y-107431649D01*
X145717812Y-107517809D01*
X145717809Y-107517812D01*
X145631649Y-107632906D01*
X145631645Y-107632913D01*
X145581403Y-107767620D01*
X145581401Y-107767627D01*
X145575000Y-107827155D01*
X145575000Y-108050000D01*
X145950500Y-108050000D01*
X146017539Y-108069685D01*
X146063294Y-108122489D01*
X146074500Y-108173938D01*
X146074501Y-108175938D01*
X146054850Y-108242987D01*
X146002069Y-108288769D01*
X145950501Y-108300000D01*
X145575000Y-108300000D01*
X145575000Y-108522844D01*
X145581401Y-108582372D01*
X145581403Y-108582380D01*
X145627759Y-108706667D01*
X145632743Y-108776359D01*
X145627759Y-108793333D01*
X145581403Y-108917619D01*
X145581401Y-108917627D01*
X145575000Y-108977155D01*
X145575000Y-109200000D01*
X146075000Y-109200000D01*
X146075000Y-108973626D01*
X146094685Y-108906587D01*
X146147489Y-108860832D01*
X146216647Y-108850888D01*
X146273301Y-108874353D01*
X146275307Y-108875854D01*
X146317179Y-108931783D01*
X146325000Y-108975123D01*
X146325000Y-109200000D01*
X148325000Y-109200000D01*
X148325000Y-108977172D01*
X148324999Y-108977155D01*
X148318598Y-108917627D01*
X148318597Y-108917623D01*
X148272506Y-108794049D01*
X148267522Y-108724357D01*
X148272501Y-108707394D01*
X148319091Y-108582483D01*
X148325500Y-108522873D01*
X148325499Y-107827128D01*
X148319091Y-107767517D01*
X148308317Y-107738632D01*
X148300500Y-107695300D01*
X148300500Y-101625493D01*
X148319508Y-101559519D01*
X148325787Y-101549525D01*
X148325786Y-101549525D01*
X148325789Y-101549522D01*
X148385368Y-101379255D01*
X148389505Y-101342539D01*
X148405565Y-101200003D01*
X148405565Y-101199996D01*
X148385369Y-101020750D01*
X148385368Y-101020745D01*
X148325788Y-100850476D01*
X148283506Y-100783185D01*
X148229816Y-100697738D01*
X148102262Y-100570184D01*
X148080013Y-100556204D01*
X147949523Y-100474211D01*
X147779254Y-100414631D01*
X147779249Y-100414630D01*
X147600004Y-100394435D01*
X147599996Y-100394435D01*
X147420750Y-100414630D01*
X147420745Y-100414631D01*
X147250476Y-100474211D01*
X147097736Y-100570185D01*
X147094903Y-100572445D01*
X147092724Y-100573334D01*
X147091842Y-100573889D01*
X147091744Y-100573734D01*
X147030217Y-100598855D01*
X147017588Y-100599500D01*
X145391439Y-100599500D01*
X145324400Y-100579815D01*
X145317128Y-100574767D01*
X145292331Y-100556204D01*
X145292328Y-100556202D01*
X145157482Y-100505908D01*
X145157483Y-100505908D01*
X145097883Y-100499501D01*
X145097881Y-100499500D01*
X145097873Y-100499500D01*
X145097864Y-100499500D01*
X144102129Y-100499500D01*
X144102123Y-100499501D01*
X144042516Y-100505908D01*
X143907671Y-100556202D01*
X143907669Y-100556203D01*
X143824311Y-100618606D01*
X143758847Y-100643023D01*
X143690574Y-100628172D01*
X143675689Y-100618606D01*
X143592330Y-100556203D01*
X143592328Y-100556202D01*
X143457482Y-100505908D01*
X143457483Y-100505908D01*
X143397883Y-100499501D01*
X143397881Y-100499500D01*
X143397873Y-100499500D01*
X143397865Y-100499500D01*
X143100097Y-100499500D01*
X143033058Y-100479815D01*
X143012416Y-100463181D01*
X141067590Y-98518355D01*
X141067588Y-98518352D01*
X140948717Y-98399481D01*
X140948712Y-98399477D01*
X140820781Y-98325617D01*
X140820780Y-98325616D01*
X140811787Y-98320423D01*
X140750693Y-98304053D01*
X140659057Y-98279499D01*
X140500943Y-98279499D01*
X140493347Y-98279499D01*
X140493331Y-98279500D01*
X140089091Y-98279500D01*
X140022052Y-98259815D01*
X139976711Y-98207909D01*
X139974037Y-98202175D01*
X139974034Y-98202170D01*
X139838494Y-98008597D01*
X139671402Y-97841506D01*
X139671396Y-97841501D01*
X139485842Y-97711575D01*
X139442217Y-97656998D01*
X139435023Y-97587500D01*
X139466546Y-97525145D01*
X139485842Y-97508425D01*
X139607948Y-97422925D01*
X139671401Y-97378495D01*
X139838495Y-97211401D01*
X139974035Y-97017830D01*
X140073903Y-96803663D01*
X140135063Y-96575408D01*
X140155659Y-96340000D01*
X140135063Y-96104592D01*
X140079255Y-95896312D01*
X140073905Y-95876344D01*
X140073904Y-95876343D01*
X140073903Y-95876337D01*
X139974035Y-95662171D01*
X139955286Y-95635395D01*
X139838496Y-95468600D01*
X139814482Y-95444586D01*
X139716567Y-95346671D01*
X139683084Y-95285351D01*
X139688068Y-95215659D01*
X139729939Y-95159725D01*
X139760915Y-95142810D01*
X139892331Y-95093796D01*
X140007546Y-95007546D01*
X140093796Y-94892331D01*
X140144091Y-94757483D01*
X140150500Y-94697873D01*
X140150499Y-92902128D01*
X140144091Y-92842517D01*
X140130599Y-92806344D01*
X140093797Y-92707671D01*
X140093793Y-92707664D01*
X140007547Y-92592455D01*
X140007544Y-92592452D01*
X139892335Y-92506206D01*
X139892328Y-92506202D01*
X139757482Y-92455908D01*
X139757483Y-92455908D01*
X139697883Y-92449501D01*
X139697881Y-92449500D01*
X139697873Y-92449500D01*
X139697864Y-92449500D01*
X137902129Y-92449500D01*
X137902123Y-92449501D01*
X137842516Y-92455908D01*
X137707671Y-92506202D01*
X137707664Y-92506206D01*
X137592455Y-92592452D01*
X137592452Y-92592455D01*
X137506206Y-92707664D01*
X137506202Y-92707671D01*
X137455908Y-92842517D01*
X137452995Y-92869616D01*
X137449501Y-92902123D01*
X137449500Y-92902135D01*
X137449500Y-93075500D01*
X137429815Y-93142539D01*
X137377011Y-93188294D01*
X137325500Y-93199500D01*
X136854130Y-93199500D01*
X136854121Y-93199499D01*
X136768986Y-93199492D01*
X136768951Y-93199497D01*
X136697375Y-93218676D01*
X136697367Y-93218678D01*
X136616237Y-93240410D01*
X136550180Y-93278548D01*
X136550173Y-93278552D01*
X136479301Y-93319462D01*
X136426986Y-93371778D01*
X136426979Y-93371785D01*
X134036977Y-95761397D01*
X134036887Y-95761476D01*
X134008048Y-95790316D01*
X133969307Y-95829057D01*
X133919491Y-95878864D01*
X133880101Y-95947091D01*
X133880096Y-95947099D01*
X133840431Y-96015788D01*
X133840423Y-96015814D01*
X133840423Y-96015816D01*
X133820648Y-96089614D01*
X133799500Y-96168516D01*
X133799500Y-96240434D01*
X133799492Y-96334704D01*
X129400000Y-96334704D01*
X129400000Y-91224983D01*
X155549500Y-91224983D01*
X155549500Y-92275001D01*
X155549501Y-92275019D01*
X155560000Y-92377796D01*
X155560001Y-92377799D01*
X155615185Y-92544331D01*
X155615189Y-92544340D01*
X155701889Y-92684904D01*
X155720329Y-92752296D01*
X155701889Y-92815096D01*
X155615189Y-92955659D01*
X155615186Y-92955666D01*
X155560001Y-93122203D01*
X155560001Y-93122204D01*
X155560000Y-93122204D01*
X155549500Y-93224983D01*
X155549500Y-94275001D01*
X155549501Y-94275019D01*
X155560000Y-94377796D01*
X155560001Y-94377799D01*
X155615185Y-94544331D01*
X155615189Y-94544340D01*
X155701889Y-94684904D01*
X155720329Y-94752296D01*
X155701889Y-94815096D01*
X155615189Y-94955659D01*
X155615185Y-94955668D01*
X155615115Y-94955880D01*
X155560001Y-95122203D01*
X155560001Y-95122204D01*
X155560000Y-95122204D01*
X155549500Y-95224983D01*
X155549500Y-96275001D01*
X155549501Y-96275019D01*
X155560000Y-96377796D01*
X155560001Y-96377799D01*
X155615185Y-96544331D01*
X155615189Y-96544340D01*
X155701889Y-96684904D01*
X155720329Y-96752296D01*
X155701889Y-96815096D01*
X155615189Y-96955659D01*
X155615185Y-96955668D01*
X155588844Y-97035160D01*
X155560001Y-97122203D01*
X155560001Y-97122204D01*
X155560000Y-97122204D01*
X155549500Y-97224983D01*
X155549500Y-98275001D01*
X155549501Y-98275019D01*
X155560000Y-98377796D01*
X155560001Y-98377799D01*
X155590554Y-98470000D01*
X155615186Y-98544334D01*
X155707288Y-98693656D01*
X155831344Y-98817712D01*
X155980666Y-98909814D01*
X156147203Y-98964999D01*
X156249991Y-98975500D01*
X156850008Y-98975499D01*
X156850016Y-98975498D01*
X156850019Y-98975498D01*
X156906302Y-98969748D01*
X156952797Y-98964999D01*
X157119334Y-98909814D01*
X157268656Y-98817712D01*
X157392712Y-98693656D01*
X157394752Y-98690347D01*
X157396745Y-98688555D01*
X157397193Y-98687989D01*
X157397289Y-98688065D01*
X157446694Y-98643623D01*
X157515656Y-98632395D01*
X157579740Y-98660234D01*
X157605829Y-98690339D01*
X157607681Y-98693341D01*
X157607683Y-98693344D01*
X157731654Y-98817315D01*
X157880875Y-98909356D01*
X157880880Y-98909358D01*
X158047302Y-98964505D01*
X158047309Y-98964506D01*
X158150019Y-98974999D01*
X158700000Y-98974999D01*
X158749972Y-98974999D01*
X158749986Y-98974998D01*
X158852697Y-98964505D01*
X159019119Y-98909358D01*
X159019124Y-98909356D01*
X159168345Y-98817315D01*
X159292315Y-98693345D01*
X159384356Y-98544124D01*
X159384358Y-98544119D01*
X159439505Y-98377697D01*
X159439506Y-98377690D01*
X159449999Y-98274986D01*
X159450000Y-98274973D01*
X159450000Y-98000000D01*
X158700000Y-98000000D01*
X158700000Y-98974999D01*
X158150019Y-98974999D01*
X158199999Y-98974998D01*
X158200000Y-98974998D01*
X158200000Y-97500000D01*
X158700000Y-97500000D01*
X159449999Y-97500000D01*
X159449999Y-97225028D01*
X159449998Y-97225013D01*
X159439505Y-97122302D01*
X159384358Y-96955880D01*
X159384353Y-96955869D01*
X159297523Y-96815097D01*
X159279082Y-96747705D01*
X159297523Y-96684903D01*
X159384353Y-96544130D01*
X159384358Y-96544119D01*
X159439505Y-96377697D01*
X159439506Y-96377690D01*
X159449999Y-96274986D01*
X159450000Y-96274973D01*
X159450000Y-96000000D01*
X158700000Y-96000000D01*
X158700000Y-97500000D01*
X158200000Y-97500000D01*
X158200000Y-94000000D01*
X158700000Y-94000000D01*
X158700000Y-95500000D01*
X159449999Y-95500000D01*
X159449999Y-95225028D01*
X159449998Y-95225013D01*
X159439505Y-95122302D01*
X159384358Y-94955880D01*
X159384356Y-94955875D01*
X159297523Y-94815097D01*
X159279083Y-94747704D01*
X159297512Y-94684922D01*
X159299165Y-94682241D01*
X159351104Y-94635507D01*
X159420065Y-94624273D01*
X159448865Y-94632560D01*
X159449023Y-94632086D01*
X159622302Y-94689505D01*
X159622309Y-94689506D01*
X159725019Y-94699999D01*
X159999999Y-94699999D01*
X160500000Y-94699999D01*
X160774972Y-94699999D01*
X160774986Y-94699998D01*
X160877697Y-94689505D01*
X161044119Y-94634358D01*
X161044130Y-94634353D01*
X161184903Y-94547523D01*
X161252295Y-94529082D01*
X161315097Y-94547523D01*
X161455869Y-94634353D01*
X161455880Y-94634358D01*
X161622302Y-94689505D01*
X161622309Y-94689506D01*
X161725019Y-94699999D01*
X161999999Y-94699999D01*
X162000000Y-94699998D01*
X162000000Y-93950000D01*
X160500000Y-93950000D01*
X160500000Y-94699999D01*
X159999999Y-94699999D01*
X160000000Y-94699998D01*
X160000000Y-93950000D01*
X159493000Y-93950000D01*
X159479319Y-93963681D01*
X159417996Y-93997166D01*
X159391638Y-94000000D01*
X158700000Y-94000000D01*
X158200000Y-94000000D01*
X158200000Y-90525000D01*
X158199999Y-90524999D01*
X158150029Y-90525000D01*
X158150018Y-90525001D01*
X158133904Y-90526647D01*
X158065211Y-90513874D01*
X158014329Y-90465991D01*
X157997411Y-90398201D01*
X158019830Y-90332025D01*
X158033620Y-90315613D01*
X158938207Y-89411026D01*
X158999528Y-89377543D01*
X159069220Y-89382527D01*
X159125153Y-89424399D01*
X159149570Y-89489863D01*
X159134718Y-89558136D01*
X159131425Y-89563805D01*
X159090190Y-89630659D01*
X159090186Y-89630666D01*
X159035001Y-89797203D01*
X159035001Y-89797204D01*
X159035000Y-89797204D01*
X159024500Y-89899983D01*
X159024500Y-90420704D01*
X159004815Y-90487743D01*
X158952011Y-90533498D01*
X158882853Y-90543442D01*
X158861499Y-90538411D01*
X158852699Y-90535495D01*
X158852690Y-90535493D01*
X158749986Y-90525000D01*
X158700000Y-90525000D01*
X158700000Y-93500000D01*
X158982000Y-93500000D01*
X158995681Y-93486319D01*
X159057004Y-93452834D01*
X159083362Y-93450000D01*
X162376000Y-93450000D01*
X162443039Y-93469685D01*
X162488794Y-93522489D01*
X162500000Y-93574000D01*
X162500000Y-94699999D01*
X162774972Y-94699999D01*
X162774986Y-94699998D01*
X162877697Y-94689505D01*
X163044119Y-94634358D01*
X163044124Y-94634356D01*
X163193345Y-94542315D01*
X163317315Y-94418345D01*
X163409356Y-94269124D01*
X163409358Y-94269119D01*
X163466635Y-94096270D01*
X163468313Y-94096826D01*
X163497377Y-94043179D01*
X163558589Y-94009492D01*
X163628297Y-94014245D01*
X163647349Y-94023184D01*
X163678797Y-94041341D01*
X163716851Y-94063311D01*
X163728915Y-94070277D01*
X163881643Y-94111200D01*
X164039757Y-94111200D01*
X170331131Y-94111200D01*
X170331147Y-94111201D01*
X170338743Y-94111201D01*
X170496854Y-94111201D01*
X170496857Y-94111201D01*
X170649585Y-94070277D01*
X170699704Y-94041339D01*
X170786516Y-93991220D01*
X170898320Y-93879416D01*
X170898321Y-93879414D01*
X171261320Y-93516416D01*
X171340377Y-93379484D01*
X171381301Y-93226757D01*
X171381301Y-93068642D01*
X171381301Y-93061047D01*
X171381300Y-93061029D01*
X171381300Y-91952160D01*
X171381301Y-91952147D01*
X171381301Y-91784044D01*
X171377116Y-91768425D01*
X171340377Y-91631316D01*
X171323081Y-91601358D01*
X171261324Y-91494390D01*
X171261318Y-91494382D01*
X170977888Y-91210952D01*
X170944403Y-91149629D01*
X170942211Y-91110666D01*
X170943300Y-91100009D01*
X170943299Y-90499992D01*
X170932799Y-90397203D01*
X170877614Y-90230666D01*
X170785512Y-90081344D01*
X170750470Y-90046302D01*
X170716985Y-89984979D01*
X170721969Y-89915287D01*
X170732613Y-89893524D01*
X170778890Y-89818498D01*
X170809214Y-89769334D01*
X170864399Y-89602797D01*
X170874900Y-89500009D01*
X170874899Y-88899992D01*
X170864399Y-88797203D01*
X170809214Y-88630666D01*
X170717112Y-88481344D01*
X170593056Y-88357288D01*
X170590219Y-88355538D01*
X170588683Y-88353830D01*
X170587389Y-88352807D01*
X170587563Y-88352585D01*
X170543496Y-88303594D01*
X170532272Y-88234632D01*
X170560113Y-88170549D01*
X170590217Y-88144462D01*
X170593056Y-88142712D01*
X170717112Y-88018656D01*
X170809214Y-87869334D01*
X170864399Y-87702797D01*
X170874900Y-87600009D01*
X170874899Y-86999992D01*
X170874135Y-86992517D01*
X170864399Y-86897203D01*
X170864398Y-86897200D01*
X170860675Y-86885965D01*
X170809214Y-86730666D01*
X170717112Y-86581344D01*
X170593056Y-86457288D01*
X170486226Y-86391395D01*
X170443736Y-86365187D01*
X170443731Y-86365185D01*
X170406838Y-86352960D01*
X170277197Y-86310001D01*
X170277195Y-86310000D01*
X170174416Y-86299500D01*
X170174409Y-86299500D01*
X169624397Y-86299500D01*
X169557358Y-86279815D01*
X169536716Y-86263181D01*
X169368990Y-86095455D01*
X169368988Y-86095452D01*
X169326380Y-86052844D01*
X169292895Y-85991521D01*
X169297879Y-85921829D01*
X169315258Y-85890237D01*
X169376161Y-85809925D01*
X169376161Y-85809924D01*
X169376163Y-85809922D01*
X169430166Y-85672979D01*
X169440500Y-85586927D01*
X169440499Y-84013074D01*
X169430166Y-83927021D01*
X169395611Y-83839398D01*
X169391193Y-83826008D01*
X169384090Y-83799500D01*
X169359577Y-83708015D01*
X169322145Y-83643182D01*
X169280520Y-83571084D01*
X169168716Y-83459280D01*
X169168715Y-83459279D01*
X169164385Y-83454949D01*
X169164374Y-83454939D01*
X167791490Y-82082055D01*
X167791488Y-82082052D01*
X167672617Y-81963181D01*
X167672612Y-81963177D01*
X167545022Y-81889514D01*
X167545017Y-81889511D01*
X167535684Y-81884122D01*
X167535685Y-81884122D01*
X167492405Y-81872525D01*
X167432745Y-81836160D01*
X167402217Y-81773312D01*
X167400500Y-81752751D01*
X167400500Y-75579515D01*
X167420185Y-75512476D01*
X167472989Y-75466721D01*
X167542147Y-75456777D01*
X167605703Y-75485802D01*
X167612181Y-75491834D01*
X167854721Y-75734374D01*
X167854731Y-75734385D01*
X167859061Y-75738715D01*
X167859062Y-75738716D01*
X167970866Y-75850520D01*
X168048975Y-75895616D01*
X168107797Y-75929577D01*
X168260525Y-75970501D01*
X168260528Y-75970501D01*
X168426235Y-75970501D01*
X168426251Y-75970500D01*
X168920700Y-75970500D01*
X168987739Y-75990185D01*
X169033494Y-76042989D01*
X169044700Y-76094500D01*
X169044700Y-81591130D01*
X169044699Y-81591148D01*
X169044699Y-81756854D01*
X169044698Y-81756854D01*
X169085624Y-81909589D01*
X169085625Y-81909590D01*
X169108446Y-81949116D01*
X169108447Y-81949118D01*
X169164675Y-82046509D01*
X169164681Y-82046517D01*
X169283549Y-82165385D01*
X169283555Y-82165390D01*
X169352539Y-82234374D01*
X169352549Y-82234385D01*
X169356879Y-82238715D01*
X169356880Y-82238716D01*
X169413182Y-82295018D01*
X169446666Y-82356339D01*
X169449500Y-82382697D01*
X169449500Y-82516921D01*
X169460355Y-82607326D01*
X169460355Y-82636891D01*
X169450000Y-82723122D01*
X169450000Y-82730000D01*
X169452193Y-82732193D01*
X169511763Y-82749685D01*
X169543528Y-82779075D01*
X169567794Y-82811075D01*
X169592617Y-82876387D01*
X169578189Y-82944751D01*
X169529091Y-82994462D01*
X169468990Y-83010000D01*
X169450000Y-83010000D01*
X169450000Y-83016884D01*
X169460324Y-83102858D01*
X169514278Y-83239676D01*
X169603140Y-83356859D01*
X169720323Y-83445721D01*
X169857142Y-83499675D01*
X169857141Y-83499675D01*
X169943116Y-83510000D01*
X170590000Y-83510000D01*
X170590000Y-83134499D01*
X170609685Y-83067460D01*
X170662489Y-83021705D01*
X170713997Y-83010499D01*
X170746001Y-83010499D01*
X170813039Y-83030184D01*
X170858794Y-83082988D01*
X170870000Y-83134499D01*
X170870000Y-83510000D01*
X171516884Y-83510000D01*
X171602858Y-83499675D01*
X171739676Y-83445721D01*
X171739677Y-83445720D01*
X171780174Y-83415010D01*
X171845485Y-83390185D01*
X171913849Y-83404612D01*
X171942790Y-83426139D01*
X172035818Y-83519184D01*
X172760094Y-84243590D01*
X172763189Y-84246685D01*
X172796669Y-84308011D01*
X172799500Y-84334358D01*
X172799500Y-95547174D01*
X172799421Y-95548381D01*
X172799500Y-95635395D01*
X172799500Y-95713369D01*
X172799538Y-95713653D01*
X172799570Y-95713898D01*
X172820120Y-95790316D01*
X172820134Y-95790425D01*
X172820148Y-95790422D01*
X172840424Y-95866090D01*
X172840493Y-95866254D01*
X172840625Y-95866574D01*
X172840628Y-95866583D01*
X172868879Y-95915413D01*
X172880052Y-95934724D01*
X172902787Y-95974102D01*
X172919482Y-96003020D01*
X172919560Y-96003121D01*
X172919660Y-96003251D01*
X172919810Y-96003447D01*
X172975063Y-96058600D01*
X172975061Y-96058601D01*
X172975126Y-96058662D01*
X173006071Y-96089607D01*
X173036536Y-96120072D01*
X173037441Y-96120865D01*
X173140812Y-96224048D01*
X173140809Y-96224050D01*
X173140891Y-96224127D01*
X173197284Y-96280520D01*
X173197286Y-96280521D01*
X173197710Y-96280847D01*
X173197719Y-96280852D01*
X173265505Y-96319907D01*
X173334216Y-96359577D01*
X173334221Y-96359578D01*
X173334477Y-96359685D01*
X173334717Y-96359784D01*
X173334721Y-96359786D01*
X173410713Y-96380074D01*
X173410813Y-96380134D01*
X173410822Y-96380103D01*
X173486943Y-96400500D01*
X173486948Y-96400500D01*
X173486953Y-96400501D01*
X173487480Y-96400569D01*
X173487485Y-96400571D01*
X173565990Y-96400500D01*
X175991293Y-96400500D01*
X176058332Y-96420185D01*
X176092868Y-96453377D01*
X176161500Y-96551395D01*
X176161505Y-96551401D01*
X176328599Y-96718495D01*
X176466559Y-96815096D01*
X176514594Y-96848730D01*
X176558219Y-96903307D01*
X176565413Y-96972805D01*
X176533890Y-97035160D01*
X176514595Y-97051880D01*
X176328922Y-97181890D01*
X176328920Y-97181891D01*
X176161891Y-97348920D01*
X176161886Y-97348926D01*
X176026400Y-97542420D01*
X176026399Y-97542422D01*
X175926570Y-97756507D01*
X175926567Y-97756513D01*
X175869364Y-97969999D01*
X175869364Y-97970000D01*
X176766988Y-97970000D01*
X176734075Y-98027007D01*
X176700000Y-98154174D01*
X176700000Y-98285826D01*
X176734075Y-98412993D01*
X176766988Y-98470000D01*
X175869364Y-98470000D01*
X175926567Y-98683486D01*
X175926570Y-98683492D01*
X176026399Y-98897578D01*
X176161894Y-99091082D01*
X176328917Y-99258105D01*
X176522421Y-99393600D01*
X176736507Y-99493429D01*
X176736516Y-99493433D01*
X176950000Y-99550634D01*
X176950000Y-98653012D01*
X177007007Y-98685925D01*
X177134174Y-98720000D01*
X177265826Y-98720000D01*
X177392993Y-98685925D01*
X177450000Y-98653012D01*
X177450000Y-99550633D01*
X177663483Y-99493433D01*
X177663492Y-99493429D01*
X177877578Y-99393600D01*
X178071082Y-99258105D01*
X178238105Y-99091082D01*
X178373600Y-98897578D01*
X178473429Y-98683492D01*
X178473432Y-98683486D01*
X178530636Y-98470000D01*
X177633012Y-98470000D01*
X177665925Y-98412993D01*
X177700000Y-98285826D01*
X177700000Y-98154174D01*
X177665925Y-98027007D01*
X177633012Y-97970000D01*
X178530636Y-97970000D01*
X178530635Y-97969999D01*
X178473432Y-97756513D01*
X178473429Y-97756507D01*
X178373600Y-97542422D01*
X178373599Y-97542420D01*
X178238113Y-97348926D01*
X178238108Y-97348920D01*
X178071078Y-97181890D01*
X177885405Y-97051879D01*
X177841780Y-96997302D01*
X177834588Y-96927804D01*
X177866110Y-96865449D01*
X177885406Y-96848730D01*
X177933439Y-96815097D01*
X178071401Y-96718495D01*
X178238495Y-96551401D01*
X178374035Y-96357830D01*
X178473903Y-96143663D01*
X178535063Y-95915408D01*
X178555659Y-95680000D01*
X178535063Y-95444592D01*
X178473903Y-95216337D01*
X178374035Y-95002171D01*
X178341619Y-94955875D01*
X178238494Y-94808597D01*
X178071402Y-94641506D01*
X178071396Y-94641501D01*
X177885842Y-94511575D01*
X177842217Y-94456998D01*
X177835023Y-94387500D01*
X177866546Y-94325145D01*
X177885842Y-94308425D01*
X177908026Y-94292891D01*
X178071401Y-94178495D01*
X178238495Y-94011401D01*
X178374035Y-93817830D01*
X178473903Y-93603663D01*
X178535063Y-93375408D01*
X178555659Y-93140000D01*
X178535063Y-92904592D01*
X178478544Y-92693656D01*
X178473905Y-92676344D01*
X178473904Y-92676343D01*
X178473903Y-92676337D01*
X178374035Y-92462171D01*
X178369651Y-92455909D01*
X178238494Y-92268597D01*
X178071402Y-92101506D01*
X178071396Y-92101501D01*
X177885842Y-91971575D01*
X177842217Y-91916998D01*
X177835023Y-91847500D01*
X177866546Y-91785145D01*
X177885842Y-91768425D01*
X177908026Y-91752891D01*
X178071401Y-91638495D01*
X178238495Y-91471401D01*
X178374035Y-91277830D01*
X178473903Y-91063663D01*
X178535063Y-90835408D01*
X178555659Y-90600000D01*
X178535063Y-90364592D01*
X178488626Y-90191285D01*
X178473905Y-90136344D01*
X178473904Y-90136343D01*
X178473903Y-90136337D01*
X178374035Y-89922171D01*
X178358505Y-89899991D01*
X178238494Y-89728597D01*
X178071402Y-89561506D01*
X178071396Y-89561501D01*
X177885842Y-89431575D01*
X177842217Y-89376998D01*
X177835023Y-89307500D01*
X177866546Y-89245145D01*
X177885842Y-89228425D01*
X177927151Y-89199500D01*
X178071401Y-89098495D01*
X178238495Y-88931401D01*
X178374035Y-88737830D01*
X178473903Y-88523663D01*
X178535063Y-88295408D01*
X178555659Y-88060000D01*
X178535063Y-87824592D01*
X178473903Y-87596337D01*
X178374035Y-87382171D01*
X178374034Y-87382169D01*
X178238494Y-87188597D01*
X178071402Y-87021506D01*
X178071396Y-87021501D01*
X177885842Y-86891575D01*
X177842217Y-86836998D01*
X177835023Y-86767500D01*
X177866546Y-86705145D01*
X177885842Y-86688425D01*
X177930044Y-86657474D01*
X178071401Y-86558495D01*
X178238495Y-86391401D01*
X178374035Y-86197830D01*
X178473903Y-85983663D01*
X178535063Y-85755408D01*
X178555659Y-85520000D01*
X178535063Y-85284592D01*
X178473903Y-85056337D01*
X178374035Y-84842171D01*
X178374034Y-84842169D01*
X178238494Y-84648597D01*
X178071402Y-84481506D01*
X178071396Y-84481501D01*
X177885842Y-84351575D01*
X177842217Y-84296998D01*
X177835023Y-84227500D01*
X177866546Y-84165145D01*
X177885842Y-84148425D01*
X177933045Y-84115373D01*
X178071401Y-84018495D01*
X178238495Y-83851401D01*
X178374035Y-83657830D01*
X178473903Y-83443663D01*
X178535063Y-83215408D01*
X178555659Y-82980000D01*
X178554187Y-82963181D01*
X178546403Y-82874211D01*
X178535063Y-82744592D01*
X178474061Y-82516926D01*
X178473905Y-82516344D01*
X178473904Y-82516343D01*
X178473903Y-82516337D01*
X178374035Y-82302171D01*
X178355562Y-82275789D01*
X178238496Y-82108600D01*
X178204880Y-82074984D01*
X178116567Y-81986671D01*
X178083084Y-81925351D01*
X178088068Y-81855659D01*
X178129939Y-81799725D01*
X178160915Y-81782810D01*
X178292331Y-81733796D01*
X178407546Y-81647546D01*
X178493796Y-81532331D01*
X178544091Y-81397483D01*
X178550500Y-81337873D01*
X178550499Y-79542128D01*
X178544091Y-79482517D01*
X178521053Y-79420750D01*
X178493797Y-79347671D01*
X178493793Y-79347664D01*
X178407547Y-79232455D01*
X178407544Y-79232452D01*
X178292335Y-79146206D01*
X178292328Y-79146202D01*
X178157482Y-79095908D01*
X178157483Y-79095908D01*
X178097883Y-79089501D01*
X178097881Y-79089500D01*
X178097873Y-79089500D01*
X178097864Y-79089500D01*
X176302129Y-79089500D01*
X176302123Y-79089501D01*
X176242516Y-79095908D01*
X176107671Y-79146202D01*
X176107664Y-79146206D01*
X175992455Y-79232452D01*
X175992452Y-79232455D01*
X175906206Y-79347664D01*
X175906202Y-79347671D01*
X175855908Y-79482517D01*
X175852209Y-79516926D01*
X175849501Y-79542123D01*
X175849500Y-79542135D01*
X175849500Y-79675500D01*
X175829815Y-79742539D01*
X175777011Y-79788294D01*
X175725500Y-79799500D01*
X174066097Y-79799500D01*
X173999058Y-79779815D01*
X173978416Y-79763181D01*
X173223590Y-79008355D01*
X173223588Y-79008352D01*
X173104717Y-78889481D01*
X173104716Y-78889480D01*
X173017904Y-78839360D01*
X173017904Y-78839359D01*
X173017900Y-78839358D01*
X172967785Y-78810423D01*
X172815057Y-78769499D01*
X172656943Y-78769499D01*
X172649347Y-78769499D01*
X172649331Y-78769500D01*
X172632111Y-78769500D01*
X172565072Y-78749815D01*
X172519317Y-78697011D01*
X172509373Y-78627853D01*
X172538398Y-78564297D01*
X172544432Y-78557816D01*
X173879254Y-77223074D01*
X175561634Y-75540795D01*
X175561667Y-75540767D01*
X175568712Y-75533722D01*
X175568716Y-75533720D01*
X175655359Y-75447077D01*
X175678236Y-75424202D01*
X175680646Y-75421915D01*
X175682570Y-75418801D01*
X175683194Y-75417854D01*
X175684933Y-75414271D01*
X175728228Y-75339283D01*
X175756608Y-75290131D01*
X175759360Y-75285857D01*
X175759766Y-75285080D01*
X175760882Y-75280114D01*
X175774171Y-75230519D01*
X175778588Y-75214035D01*
X175800300Y-75133013D01*
X175800493Y-75132317D01*
X175800500Y-75132266D01*
X175800500Y-75060717D01*
X175800500Y-75046378D01*
X175800503Y-74974161D01*
X175800501Y-74974156D01*
X175800502Y-74966585D01*
X175800500Y-74966535D01*
X175800500Y-74789110D01*
X175820185Y-74722071D01*
X175872989Y-74676316D01*
X175942147Y-74666372D01*
X176005703Y-74695397D01*
X176026074Y-74717986D01*
X176027834Y-74720499D01*
X176161501Y-74911396D01*
X176161506Y-74911402D01*
X176328597Y-75078493D01*
X176328603Y-75078498D01*
X176359010Y-75099789D01*
X176469114Y-75176885D01*
X176514594Y-75208730D01*
X176558219Y-75263307D01*
X176565413Y-75332805D01*
X176533890Y-75395160D01*
X176514595Y-75411880D01*
X176328922Y-75541890D01*
X176328920Y-75541891D01*
X176161891Y-75708920D01*
X176161886Y-75708926D01*
X176026400Y-75902420D01*
X176026399Y-75902422D01*
X175926570Y-76116507D01*
X175926567Y-76116513D01*
X175869364Y-76329999D01*
X175869364Y-76330000D01*
X176766988Y-76330000D01*
X176734075Y-76387007D01*
X176700000Y-76514174D01*
X176700000Y-76645826D01*
X176734075Y-76772993D01*
X176766988Y-76830000D01*
X175869364Y-76830000D01*
X175926567Y-77043486D01*
X175926570Y-77043492D01*
X176026399Y-77257578D01*
X176161894Y-77451082D01*
X176328917Y-77618105D01*
X176522421Y-77753600D01*
X176736507Y-77853429D01*
X176736516Y-77853433D01*
X176950000Y-77910634D01*
X176950000Y-77013012D01*
X177007007Y-77045925D01*
X177134174Y-77080000D01*
X177265826Y-77080000D01*
X177392993Y-77045925D01*
X177450000Y-77013012D01*
X177450000Y-77910633D01*
X177663483Y-77853433D01*
X177663492Y-77853429D01*
X177877578Y-77753600D01*
X178071082Y-77618105D01*
X178238105Y-77451082D01*
X178373600Y-77257578D01*
X178473429Y-77043492D01*
X178473432Y-77043486D01*
X178530636Y-76830000D01*
X177633012Y-76830000D01*
X177665925Y-76772993D01*
X177700000Y-76645826D01*
X177700000Y-76514174D01*
X177665925Y-76387007D01*
X177633012Y-76330000D01*
X178530636Y-76330000D01*
X178530635Y-76329999D01*
X178473432Y-76116513D01*
X178473429Y-76116507D01*
X178373600Y-75902422D01*
X178373599Y-75902420D01*
X178238113Y-75708926D01*
X178238108Y-75708920D01*
X178071078Y-75541890D01*
X177885405Y-75411879D01*
X177841780Y-75357302D01*
X177834588Y-75287804D01*
X177866110Y-75225449D01*
X177885406Y-75208730D01*
X177898588Y-75199500D01*
X178071401Y-75078495D01*
X178238495Y-74911401D01*
X178374035Y-74717830D01*
X178473903Y-74503663D01*
X178535063Y-74275408D01*
X178555659Y-74040000D01*
X178535063Y-73804592D01*
X178480243Y-73600000D01*
X178473905Y-73576344D01*
X178473904Y-73576343D01*
X178473903Y-73576337D01*
X178374035Y-73362171D01*
X178374034Y-73362169D01*
X178238494Y-73168597D01*
X178071402Y-73001506D01*
X178071396Y-73001501D01*
X177885842Y-72871575D01*
X177842217Y-72816998D01*
X177835023Y-72747500D01*
X177866546Y-72685145D01*
X177885842Y-72668425D01*
X178030490Y-72567141D01*
X178071401Y-72538495D01*
X178238495Y-72371401D01*
X178374035Y-72177830D01*
X178473903Y-71963663D01*
X178535063Y-71735408D01*
X178555659Y-71500000D01*
X178535063Y-71264592D01*
X178473903Y-71036337D01*
X178374035Y-70822171D01*
X178374034Y-70822169D01*
X178238494Y-70628597D01*
X178071402Y-70461506D01*
X178071396Y-70461501D01*
X177885842Y-70331575D01*
X177842217Y-70276998D01*
X177835023Y-70207500D01*
X177866546Y-70145145D01*
X177885842Y-70128425D01*
X177987189Y-70057461D01*
X178071401Y-69998495D01*
X178238495Y-69831401D01*
X178374035Y-69637830D01*
X178473903Y-69423663D01*
X178535063Y-69195408D01*
X178555659Y-68960000D01*
X178535063Y-68724592D01*
X178473903Y-68496337D01*
X178374035Y-68282171D01*
X178361825Y-68264732D01*
X178238494Y-68088597D01*
X178071402Y-67921506D01*
X178071396Y-67921501D01*
X177885842Y-67791575D01*
X177842217Y-67736998D01*
X177835023Y-67667500D01*
X177866546Y-67605145D01*
X177885842Y-67588425D01*
X177911092Y-67570745D01*
X178071401Y-67458495D01*
X178238495Y-67291401D01*
X178374035Y-67097830D01*
X178473903Y-66883663D01*
X178535063Y-66655408D01*
X178555659Y-66420000D01*
X178535063Y-66184592D01*
X178473903Y-65956337D01*
X178374035Y-65742171D01*
X178374034Y-65742169D01*
X178238494Y-65548597D01*
X178071402Y-65381506D01*
X178071396Y-65381501D01*
X177885842Y-65251575D01*
X177842217Y-65196998D01*
X177835023Y-65127500D01*
X177866546Y-65065145D01*
X177885842Y-65048425D01*
X177975895Y-64985369D01*
X178071401Y-64918495D01*
X178238495Y-64751401D01*
X178374035Y-64557830D01*
X178473903Y-64343663D01*
X178535063Y-64115408D01*
X178555659Y-63880000D01*
X178535063Y-63644592D01*
X178473903Y-63416337D01*
X178374035Y-63202171D01*
X178374034Y-63202169D01*
X178238494Y-63008597D01*
X178071402Y-62841506D01*
X178071396Y-62841501D01*
X177885842Y-62711575D01*
X177842217Y-62656998D01*
X177835023Y-62587500D01*
X177866546Y-62525145D01*
X177885842Y-62508425D01*
X177972280Y-62447900D01*
X178071401Y-62378495D01*
X178238495Y-62211401D01*
X178374035Y-62017830D01*
X178473903Y-61803663D01*
X178535063Y-61575408D01*
X178555659Y-61340000D01*
X178535063Y-61104592D01*
X178473903Y-60876337D01*
X178374035Y-60662171D01*
X178360627Y-60643023D01*
X178238496Y-60468600D01*
X178184526Y-60414630D01*
X178116567Y-60346671D01*
X178083084Y-60285351D01*
X178088068Y-60215659D01*
X178129939Y-60159725D01*
X178160915Y-60142810D01*
X178292331Y-60093796D01*
X178407546Y-60007546D01*
X178493796Y-59892331D01*
X178544091Y-59757483D01*
X178550500Y-59697873D01*
X178550499Y-57902128D01*
X178544827Y-57849360D01*
X178544091Y-57842516D01*
X178493797Y-57707671D01*
X178493793Y-57707664D01*
X178407547Y-57592455D01*
X178407544Y-57592452D01*
X178292335Y-57506206D01*
X178292328Y-57506202D01*
X178157482Y-57455908D01*
X178157483Y-57455908D01*
X178097883Y-57449501D01*
X178097881Y-57449500D01*
X178097873Y-57449500D01*
X178097864Y-57449500D01*
X176302129Y-57449500D01*
X176302123Y-57449501D01*
X176242516Y-57455908D01*
X176107671Y-57506202D01*
X176107664Y-57506206D01*
X175992455Y-57592452D01*
X175992452Y-57592455D01*
X175906206Y-57707664D01*
X175906202Y-57707671D01*
X175855908Y-57842517D01*
X175849784Y-57899481D01*
X175849501Y-57902123D01*
X175849500Y-57902135D01*
X175849500Y-58769902D01*
X175829815Y-58836941D01*
X175813181Y-58857583D01*
X172319481Y-62351282D01*
X172319475Y-62351290D01*
X172278938Y-62421504D01*
X172278938Y-62421505D01*
X172240423Y-62488215D01*
X172199499Y-62640943D01*
X172199499Y-62640945D01*
X172199499Y-62809046D01*
X172199500Y-62809059D01*
X172199500Y-73758902D01*
X172179815Y-73825941D01*
X172163181Y-73846583D01*
X171316583Y-74693181D01*
X171255260Y-74726666D01*
X171228902Y-74729500D01*
X169943080Y-74729500D01*
X169857021Y-74739834D01*
X169803715Y-74760855D01*
X169758226Y-74769500D01*
X169382846Y-74769500D01*
X169315807Y-74749815D01*
X169270052Y-74697011D01*
X169260108Y-74627853D01*
X169284042Y-74570575D01*
X169375721Y-74449676D01*
X169429675Y-74312858D01*
X169440000Y-74226884D01*
X169440000Y-73580000D01*
X169064500Y-73580000D01*
X168997461Y-73560315D01*
X168951706Y-73507511D01*
X168940500Y-73456004D01*
X168940499Y-73424004D01*
X168960181Y-73356964D01*
X169012984Y-73311207D01*
X169064499Y-73300000D01*
X169440000Y-73300000D01*
X169440000Y-72653115D01*
X169429675Y-72567141D01*
X169429673Y-72567135D01*
X169403415Y-72500549D01*
X169397133Y-72430963D01*
X169429470Y-72369026D01*
X169490158Y-72334405D01*
X169559931Y-72338090D01*
X169583866Y-72349520D01*
X169680875Y-72409356D01*
X169680880Y-72409358D01*
X169847302Y-72464505D01*
X169847309Y-72464506D01*
X169950019Y-72474999D01*
X170500000Y-72474999D01*
X170549972Y-72474999D01*
X170549986Y-72474998D01*
X170652697Y-72464505D01*
X170819119Y-72409358D01*
X170819124Y-72409356D01*
X170968345Y-72317315D01*
X171092315Y-72193345D01*
X171184356Y-72044124D01*
X171184358Y-72044119D01*
X171239505Y-71877697D01*
X171239506Y-71877690D01*
X171249999Y-71774986D01*
X171250000Y-71774973D01*
X171250000Y-71500000D01*
X170500000Y-71500000D01*
X170500000Y-72474999D01*
X169950019Y-72474999D01*
X169999999Y-72474998D01*
X170000000Y-72474998D01*
X170000000Y-70518000D01*
X169986319Y-70504319D01*
X169952834Y-70442996D01*
X169950000Y-70416638D01*
X169950000Y-69982000D01*
X170450000Y-69982000D01*
X170463681Y-69995681D01*
X170497166Y-70057004D01*
X170500000Y-70083362D01*
X170500000Y-71000000D01*
X171249999Y-71000000D01*
X171249999Y-70725028D01*
X171249998Y-70725013D01*
X171239505Y-70622302D01*
X171184358Y-70455880D01*
X171184356Y-70455875D01*
X171092315Y-70306654D01*
X171087492Y-70301831D01*
X171054007Y-70240508D01*
X171058991Y-70170816D01*
X171069635Y-70149052D01*
X171134355Y-70044126D01*
X171134358Y-70044119D01*
X171189505Y-69877697D01*
X171189506Y-69877690D01*
X171199999Y-69774986D01*
X171200000Y-69774973D01*
X171200000Y-69500000D01*
X170450000Y-69500000D01*
X170450000Y-69982000D01*
X169950000Y-69982000D01*
X169950000Y-69000000D01*
X170450000Y-69000000D01*
X171199999Y-69000000D01*
X171199999Y-68725028D01*
X171199998Y-68725013D01*
X171189505Y-68622302D01*
X171134358Y-68455880D01*
X171134356Y-68455875D01*
X171042315Y-68306654D01*
X170918345Y-68182684D01*
X170769124Y-68090643D01*
X170769119Y-68090641D01*
X170602697Y-68035494D01*
X170602690Y-68035493D01*
X170499986Y-68025000D01*
X170450000Y-68025000D01*
X170450000Y-69000000D01*
X169950000Y-69000000D01*
X169950000Y-68025000D01*
X169949999Y-68024999D01*
X169900029Y-68025000D01*
X169900011Y-68025001D01*
X169797302Y-68035494D01*
X169630880Y-68090641D01*
X169630875Y-68090643D01*
X169481654Y-68182684D01*
X169357683Y-68306655D01*
X169357679Y-68306660D01*
X169355826Y-68309665D01*
X169354018Y-68311290D01*
X169353202Y-68312323D01*
X169353025Y-68312183D01*
X169303874Y-68356385D01*
X169234911Y-68367601D01*
X169170831Y-68339752D01*
X169144753Y-68309653D01*
X169144737Y-68309628D01*
X169142712Y-68306344D01*
X169018656Y-68182288D01*
X168909864Y-68115185D01*
X168869336Y-68090187D01*
X168869331Y-68090185D01*
X168864539Y-68088597D01*
X168702797Y-68035001D01*
X168702795Y-68035000D01*
X168600010Y-68024500D01*
X167999998Y-68024500D01*
X167999980Y-68024501D01*
X167897203Y-68035000D01*
X167897200Y-68035001D01*
X167730668Y-68090185D01*
X167730663Y-68090187D01*
X167581342Y-68182289D01*
X167575810Y-68186664D01*
X167511015Y-68212804D01*
X167442373Y-68199763D01*
X167421990Y-68186664D01*
X167416457Y-68182289D01*
X167416456Y-68182288D01*
X167307664Y-68115185D01*
X167267136Y-68090187D01*
X167267131Y-68090185D01*
X167262339Y-68088597D01*
X167100597Y-68035001D01*
X167100595Y-68035000D01*
X166997810Y-68024500D01*
X166397799Y-68024500D01*
X166397783Y-68024501D01*
X166387213Y-68025581D01*
X166318521Y-68012807D01*
X166286938Y-67989903D01*
X166113290Y-67816255D01*
X166113288Y-67816252D01*
X165994417Y-67697381D01*
X165994416Y-67697380D01*
X165907604Y-67647260D01*
X165907604Y-67647259D01*
X165907600Y-67647258D01*
X165857485Y-67618323D01*
X165704757Y-67577399D01*
X165546643Y-67577399D01*
X165539047Y-67577399D01*
X165539031Y-67577400D01*
X164422770Y-67577400D01*
X164422754Y-67577399D01*
X164415158Y-67577399D01*
X164257043Y-67577399D01*
X164194958Y-67594035D01*
X164104314Y-67618323D01*
X164104309Y-67618326D01*
X163967390Y-67697375D01*
X163967382Y-67697381D01*
X163614617Y-68050146D01*
X163614614Y-68050148D01*
X163614615Y-68050149D01*
X163509880Y-68154884D01*
X163479625Y-68207288D01*
X163430823Y-68291815D01*
X163389899Y-68444543D01*
X163389899Y-68444545D01*
X163389899Y-68612646D01*
X163389900Y-68612659D01*
X163389900Y-71200889D01*
X163370215Y-71267928D01*
X163317411Y-71313683D01*
X163248253Y-71323627D01*
X163199928Y-71305883D01*
X163149523Y-71274211D01*
X162979254Y-71214631D01*
X162979249Y-71214630D01*
X162800004Y-71194435D01*
X162799996Y-71194435D01*
X162620746Y-71214631D01*
X162620744Y-71214631D01*
X162615447Y-71216485D01*
X162545668Y-71220043D01*
X162485043Y-71185310D01*
X162452819Y-71123315D01*
X162450499Y-71099441D01*
X162450499Y-70724998D01*
X162450498Y-70724981D01*
X162439999Y-70622203D01*
X162439998Y-70622200D01*
X162405960Y-70519481D01*
X162384814Y-70455666D01*
X162292712Y-70306344D01*
X162292709Y-70306341D01*
X162288234Y-70300681D01*
X162289626Y-70299579D01*
X162260566Y-70246360D01*
X162265550Y-70176668D01*
X162276193Y-70154906D01*
X162359814Y-70019334D01*
X162414999Y-69852797D01*
X162425500Y-69750009D01*
X162425499Y-68749992D01*
X162423151Y-68727011D01*
X162414999Y-68647203D01*
X162414998Y-68647200D01*
X162365009Y-68496344D01*
X162359814Y-68480666D01*
X162267712Y-68331344D01*
X162143656Y-68207288D01*
X161994334Y-68115186D01*
X161827797Y-68060001D01*
X161827795Y-68060000D01*
X161725010Y-68049500D01*
X161099998Y-68049500D01*
X161099980Y-68049501D01*
X160997203Y-68060000D01*
X160997200Y-68060001D01*
X160830668Y-68115185D01*
X160830663Y-68115187D01*
X160681342Y-68207289D01*
X160587681Y-68300951D01*
X160526358Y-68334436D01*
X160456666Y-68329452D01*
X160412319Y-68300951D01*
X160342209Y-68230841D01*
X160308724Y-68169518D01*
X160312849Y-68102204D01*
X160313785Y-68099527D01*
X160313789Y-68099522D01*
X160373368Y-67929255D01*
X160374241Y-67921506D01*
X160393565Y-67750003D01*
X160393565Y-67749996D01*
X160373369Y-67570750D01*
X160373368Y-67570745D01*
X160313788Y-67400476D01*
X160245251Y-67291401D01*
X160217816Y-67247738D01*
X160090262Y-67120184D01*
X160054692Y-67097834D01*
X159937523Y-67024211D01*
X159767254Y-66964631D01*
X159767249Y-66964630D01*
X159588004Y-66944435D01*
X159587996Y-66944435D01*
X159408750Y-66964630D01*
X159408745Y-66964631D01*
X159238476Y-67024211D01*
X159085737Y-67120184D01*
X158958184Y-67247737D01*
X158862211Y-67400476D01*
X158802631Y-67570745D01*
X158802630Y-67570750D01*
X158782435Y-67749996D01*
X158782435Y-67750003D01*
X158802630Y-67929249D01*
X158802633Y-67929262D01*
X158862890Y-68101464D01*
X158866452Y-68171243D01*
X158833531Y-68230099D01*
X158732289Y-68331342D01*
X158640187Y-68480663D01*
X158640186Y-68480666D01*
X158585001Y-68647203D01*
X158585001Y-68647204D01*
X158585000Y-68647204D01*
X158574500Y-68749983D01*
X158574500Y-69750001D01*
X158574501Y-69750019D01*
X158585000Y-69852796D01*
X158585001Y-69852799D01*
X158640185Y-70019331D01*
X158640189Y-70019340D01*
X158723806Y-70154906D01*
X158742246Y-70222298D01*
X158721323Y-70288962D01*
X158711726Y-70300649D01*
X158711766Y-70300681D01*
X158707290Y-70306341D01*
X158615187Y-70455663D01*
X158615185Y-70455668D01*
X158594050Y-70519450D01*
X158560001Y-70622203D01*
X158560001Y-70622204D01*
X158560000Y-70622204D01*
X158549500Y-70724983D01*
X158549500Y-71775001D01*
X158549501Y-71775019D01*
X158560000Y-71877796D01*
X158560001Y-71877799D01*
X158600000Y-71998505D01*
X158615186Y-72044334D01*
X158707288Y-72193656D01*
X158831344Y-72317712D01*
X158980666Y-72409814D01*
X159147203Y-72464999D01*
X159249991Y-72475500D01*
X159850008Y-72475499D01*
X159850016Y-72475498D01*
X159850019Y-72475498D01*
X159906302Y-72469748D01*
X159952797Y-72464999D01*
X160119334Y-72409814D01*
X160268656Y-72317712D01*
X160392712Y-72193656D01*
X160394461Y-72190819D01*
X160396169Y-72189283D01*
X160397193Y-72187989D01*
X160397414Y-72188163D01*
X160446406Y-72144096D01*
X160515368Y-72132872D01*
X160579451Y-72160713D01*
X160605537Y-72190817D01*
X160607288Y-72193656D01*
X160607289Y-72193657D01*
X160607290Y-72193658D01*
X160700860Y-72287228D01*
X160734345Y-72348551D01*
X160729361Y-72418243D01*
X160727242Y-72422806D01*
X160670324Y-72567141D01*
X160660000Y-72653115D01*
X160660000Y-73300000D01*
X161035500Y-73300000D01*
X161102539Y-73319685D01*
X161148294Y-73372489D01*
X161159500Y-73423996D01*
X161159501Y-73455996D01*
X161139819Y-73523036D01*
X161087016Y-73568793D01*
X161035501Y-73580000D01*
X160660000Y-73580000D01*
X160660000Y-74226884D01*
X160670324Y-74312858D01*
X160724278Y-74449676D01*
X160813140Y-74566859D01*
X160930323Y-74655721D01*
X161067142Y-74709675D01*
X161067141Y-74709675D01*
X161153116Y-74720000D01*
X161160000Y-74720000D01*
X161160000Y-74701010D01*
X161179685Y-74633971D01*
X161232489Y-74588216D01*
X161301647Y-74578272D01*
X161358925Y-74602206D01*
X161386247Y-74622925D01*
X161390925Y-74626472D01*
X161432448Y-74682664D01*
X161438863Y-74718863D01*
X161440000Y-74720000D01*
X161446883Y-74720000D01*
X161533111Y-74709644D01*
X161562683Y-74709644D01*
X161567017Y-74710164D01*
X161567021Y-74710166D01*
X161653073Y-74720500D01*
X161946926Y-74720499D01*
X162032979Y-74710166D01*
X162032982Y-74710164D01*
X162035219Y-74709896D01*
X162064789Y-74709897D01*
X162067017Y-74710164D01*
X162067021Y-74710166D01*
X162153073Y-74720500D01*
X162446926Y-74720499D01*
X162532979Y-74710166D01*
X162532982Y-74710164D01*
X162535219Y-74709896D01*
X162564789Y-74709897D01*
X162567017Y-74710164D01*
X162567021Y-74710166D01*
X162653073Y-74720500D01*
X162715602Y-74720499D01*
X162782640Y-74740183D01*
X162828396Y-74792986D01*
X162838340Y-74862144D01*
X162809316Y-74925700D01*
X162803284Y-74932180D01*
X162689086Y-75046378D01*
X162577281Y-75158182D01*
X162577277Y-75158187D01*
X162534787Y-75231784D01*
X162534787Y-75231785D01*
X162498223Y-75295114D01*
X162498223Y-75295115D01*
X162457299Y-75447843D01*
X162457299Y-75447845D01*
X162457299Y-75615946D01*
X162457300Y-75615959D01*
X162457300Y-83016393D01*
X162437615Y-83083432D01*
X162384811Y-83129187D01*
X162365395Y-83136167D01*
X162328616Y-83146022D01*
X162328609Y-83146025D01*
X162278496Y-83174959D01*
X162278495Y-83174960D01*
X162271056Y-83179255D01*
X162191685Y-83225079D01*
X162191682Y-83225081D01*
X162120442Y-83296322D01*
X162079880Y-83336884D01*
X162079878Y-83336886D01*
X162002675Y-83414089D01*
X161933582Y-83483182D01*
X161872259Y-83516666D01*
X161845902Y-83519500D01*
X161653078Y-83519500D01*
X161564781Y-83530102D01*
X161535217Y-83530102D01*
X161489839Y-83524653D01*
X161446927Y-83519500D01*
X161446921Y-83519500D01*
X161153080Y-83519500D01*
X161067022Y-83529833D01*
X160930077Y-83583837D01*
X160930075Y-83583838D01*
X160812783Y-83672783D01*
X160723838Y-83790075D01*
X160669833Y-83927022D01*
X160659500Y-84013072D01*
X160659500Y-85407058D01*
X160639815Y-85474097D01*
X160623182Y-85494738D01*
X160570186Y-85547734D01*
X160474211Y-85700476D01*
X160414631Y-85870745D01*
X160414630Y-85870750D01*
X160394435Y-86049996D01*
X160394435Y-86050003D01*
X160414630Y-86229249D01*
X160414631Y-86229254D01*
X160474211Y-86399523D01*
X160543360Y-86509572D01*
X160570184Y-86552262D01*
X160697738Y-86679816D01*
X160778665Y-86730666D01*
X160856374Y-86779494D01*
X160855447Y-86780968D01*
X160900695Y-86821819D01*
X160911112Y-86847310D01*
X160912333Y-86846883D01*
X160914631Y-86853452D01*
X160914632Y-86853455D01*
X160926008Y-86885965D01*
X160974211Y-87023723D01*
X161043119Y-87133388D01*
X161062120Y-87200625D01*
X161041753Y-87267460D01*
X160988485Y-87312675D01*
X160919229Y-87321913D01*
X160899125Y-87317068D01*
X160877797Y-87310001D01*
X160877795Y-87310000D01*
X160775010Y-87299500D01*
X159724998Y-87299500D01*
X159724980Y-87299501D01*
X159622203Y-87310000D01*
X159622200Y-87310001D01*
X159455668Y-87365185D01*
X159455663Y-87365187D01*
X159306342Y-87457289D01*
X159182287Y-87581344D01*
X159132986Y-87661274D01*
X159081038Y-87707998D01*
X159059543Y-87715950D01*
X158968218Y-87740421D01*
X158968215Y-87740422D01*
X158920165Y-87768165D01*
X158920164Y-87768165D01*
X158831287Y-87819477D01*
X158831282Y-87819481D01*
X156181286Y-90469478D01*
X156181282Y-90469480D01*
X156181283Y-90469481D01*
X156120959Y-90529803D01*
X156072284Y-90559826D01*
X155980666Y-90590186D01*
X155831342Y-90682289D01*
X155707289Y-90806342D01*
X155615187Y-90955663D01*
X155615186Y-90955666D01*
X155560001Y-91122203D01*
X155560001Y-91122204D01*
X155560000Y-91122204D01*
X155549500Y-91224983D01*
X129400000Y-91224983D01*
X129400000Y-73534704D01*
X133599492Y-73534704D01*
X133599500Y-73534825D01*
X133599500Y-74084100D01*
X133599901Y-74090225D01*
X133599901Y-74400268D01*
X133599902Y-74400275D01*
X133606309Y-74459882D01*
X133656603Y-74594727D01*
X133656607Y-74594734D01*
X133742853Y-74709943D01*
X133747629Y-74714719D01*
X133781114Y-74776042D01*
X133776130Y-74845734D01*
X133747629Y-74890081D01*
X133742855Y-74894855D01*
X133656607Y-75010065D01*
X133656603Y-75010072D01*
X133606309Y-75144918D01*
X133599902Y-75204517D01*
X133599901Y-75204536D01*
X133599901Y-75514577D01*
X133599500Y-75520707D01*
X133599500Y-76070050D01*
X133599496Y-76070112D01*
X133599496Y-76078165D01*
X133599496Y-76078167D01*
X133599498Y-76114075D01*
X133599500Y-76159057D01*
X133599500Y-76236270D01*
X133614926Y-76293831D01*
X133614926Y-76293837D01*
X133614928Y-76293837D01*
X133640424Y-76388989D01*
X133640429Y-76389001D01*
X133663995Y-76429814D01*
X133671631Y-76443039D01*
X133719480Y-76525916D01*
X133719481Y-76525917D01*
X133719484Y-76525922D01*
X133719494Y-76525932D01*
X133719496Y-76525935D01*
X133754006Y-76560442D01*
X133754010Y-76560446D01*
X133837098Y-76643534D01*
X133837145Y-76643574D01*
X135672516Y-78478797D01*
X136232409Y-79038645D01*
X136294304Y-79100540D01*
X136294370Y-79100590D01*
X136295424Y-79101181D01*
X136357506Y-79137021D01*
X136427778Y-79177592D01*
X136431228Y-79179584D01*
X136474661Y-79191219D01*
X136516901Y-79202536D01*
X136516903Y-79202537D01*
X136516904Y-79202537D01*
X136583943Y-79220500D01*
X136583944Y-79220500D01*
X136583948Y-79220501D01*
X136583960Y-79220502D01*
X136583967Y-79220504D01*
X136689374Y-79220500D01*
X136689378Y-79220500D01*
X137710909Y-79220500D01*
X137777948Y-79240185D01*
X137823292Y-79292097D01*
X137825965Y-79297830D01*
X137961501Y-79491395D01*
X137961506Y-79491402D01*
X138128597Y-79658493D01*
X138128603Y-79658498D01*
X138314158Y-79788425D01*
X138357783Y-79843002D01*
X138364977Y-79912500D01*
X138333454Y-79974855D01*
X138314158Y-79991575D01*
X138128597Y-80121505D01*
X137961506Y-80288596D01*
X137825965Y-80482170D01*
X137825962Y-80482175D01*
X137823289Y-80487909D01*
X137777115Y-80540346D01*
X137710909Y-80559500D01*
X136701225Y-80559500D01*
X136701216Y-80559499D01*
X136608985Y-80559492D01*
X136608948Y-80559497D01*
X136539078Y-80578219D01*
X136539071Y-80578221D01*
X136456237Y-80600410D01*
X136385264Y-80641386D01*
X136385258Y-80641389D01*
X136319300Y-80679463D01*
X136302429Y-80696335D01*
X136260048Y-80738716D01*
X133836390Y-83161982D01*
X133836309Y-83162054D01*
X133775991Y-83222373D01*
X133775983Y-83222381D01*
X133719492Y-83278861D01*
X133680175Y-83346961D01*
X133680171Y-83346968D01*
X133640429Y-83415791D01*
X133623029Y-83480733D01*
X133623026Y-83480744D01*
X133599500Y-83568516D01*
X133599500Y-83636769D01*
X133599492Y-83734705D01*
X133599500Y-83734826D01*
X133599500Y-84284100D01*
X133599901Y-84290225D01*
X133599901Y-84600268D01*
X133599902Y-84600275D01*
X133606309Y-84659882D01*
X133656603Y-84794727D01*
X133656607Y-84794734D01*
X133742853Y-84909943D01*
X133747629Y-84914719D01*
X133781114Y-84976042D01*
X133776130Y-85045734D01*
X133747629Y-85090081D01*
X133742853Y-85094856D01*
X133656607Y-85210065D01*
X133656603Y-85210072D01*
X133606309Y-85344918D01*
X133599902Y-85404517D01*
X133599901Y-85404536D01*
X133599901Y-85714577D01*
X133599500Y-85720707D01*
X133599500Y-86270050D01*
X133599496Y-86270112D01*
X133599496Y-86278165D01*
X133599496Y-86278167D01*
X133599497Y-86299500D01*
X133599500Y-86359577D01*
X133599500Y-86436267D01*
X133599502Y-86436276D01*
X133599503Y-86436282D01*
X133609989Y-86475408D01*
X133619145Y-86509572D01*
X133619146Y-86509578D01*
X133640425Y-86588994D01*
X133640432Y-86589007D01*
X133640433Y-86589008D01*
X133647451Y-86601163D01*
X133676396Y-86651292D01*
X133676398Y-86651296D01*
X133719483Y-86725923D01*
X133719495Y-86725935D01*
X133719496Y-86725936D01*
X133762280Y-86768716D01*
X133806064Y-86812500D01*
X133836908Y-86843344D01*
X133836952Y-86843383D01*
X136193264Y-89199500D01*
X136254304Y-89260540D01*
X136254370Y-89260590D01*
X136255451Y-89261197D01*
X136320393Y-89298687D01*
X136391216Y-89339577D01*
X136391219Y-89339577D01*
X136391228Y-89339583D01*
X136391236Y-89339585D01*
X136391238Y-89339586D01*
X136476901Y-89362536D01*
X136476903Y-89362537D01*
X136476904Y-89362537D01*
X136543943Y-89380500D01*
X136543945Y-89380500D01*
X136543949Y-89380501D01*
X136543960Y-89380502D01*
X136543967Y-89380504D01*
X136634318Y-89380500D01*
X137710909Y-89380500D01*
X137777948Y-89400185D01*
X137823292Y-89452097D01*
X137825965Y-89457830D01*
X137961505Y-89651401D01*
X138128599Y-89818495D01*
X138167389Y-89845656D01*
X138322165Y-89954032D01*
X138322167Y-89954033D01*
X138322170Y-89954035D01*
X138536337Y-90053903D01*
X138764592Y-90115063D01*
X138952918Y-90131539D01*
X138999999Y-90135659D01*
X139000000Y-90135659D01*
X139000001Y-90135659D01*
X139039234Y-90132226D01*
X139235408Y-90115063D01*
X139463663Y-90053903D01*
X139677830Y-89954035D01*
X139871401Y-89818495D01*
X140038495Y-89651401D01*
X140174035Y-89457830D01*
X140273903Y-89243663D01*
X140335063Y-89015408D01*
X140345349Y-88897844D01*
X146275000Y-88897844D01*
X146281401Y-88957372D01*
X146281403Y-88957379D01*
X146331645Y-89092086D01*
X146331649Y-89092093D01*
X146417809Y-89207187D01*
X146417812Y-89207190D01*
X146532906Y-89293350D01*
X146532913Y-89293354D01*
X146667620Y-89343596D01*
X146667627Y-89343598D01*
X146727155Y-89349999D01*
X146727172Y-89350000D01*
X146775000Y-89350000D01*
X147025000Y-89350000D01*
X147072828Y-89350000D01*
X147072841Y-89349999D01*
X147136743Y-89343128D01*
X147163257Y-89343128D01*
X147227158Y-89349999D01*
X147227172Y-89350000D01*
X147275000Y-89350000D01*
X147525000Y-89350000D01*
X147572828Y-89350000D01*
X147572841Y-89349999D01*
X147636743Y-89343128D01*
X147663257Y-89343128D01*
X147727158Y-89349999D01*
X147727172Y-89350000D01*
X147775000Y-89350000D01*
X148025000Y-89350000D01*
X148072828Y-89350000D01*
X148072841Y-89349999D01*
X148136743Y-89343128D01*
X148163257Y-89343128D01*
X148227158Y-89349999D01*
X148227172Y-89350000D01*
X148275000Y-89350000D01*
X148525000Y-89350000D01*
X148572828Y-89350000D01*
X148572844Y-89349999D01*
X148632372Y-89343598D01*
X148632379Y-89343596D01*
X148767086Y-89293354D01*
X148767093Y-89293350D01*
X148882187Y-89207190D01*
X148882190Y-89207187D01*
X148968350Y-89092093D01*
X148968354Y-89092086D01*
X149018596Y-88957379D01*
X149018598Y-88957372D01*
X149024999Y-88897844D01*
X149025000Y-88897827D01*
X149025000Y-88675000D01*
X148525000Y-88675000D01*
X148525000Y-89350000D01*
X148275000Y-89350000D01*
X148275000Y-88675000D01*
X148025000Y-88675000D01*
X148025000Y-89350000D01*
X147775000Y-89350000D01*
X147775000Y-88675000D01*
X147525000Y-88675000D01*
X147525000Y-89350000D01*
X147275000Y-89350000D01*
X147275000Y-88675000D01*
X147025000Y-88675000D01*
X147025000Y-89350000D01*
X146775000Y-89350000D01*
X146775000Y-88675000D01*
X146275000Y-88675000D01*
X146275000Y-88897844D01*
X140345349Y-88897844D01*
X140355659Y-88780000D01*
X140335063Y-88544592D01*
X140300671Y-88416239D01*
X140302334Y-88346393D01*
X140332763Y-88296470D01*
X141992417Y-86636819D01*
X142053740Y-86603334D01*
X142080098Y-86600500D01*
X142408561Y-86600500D01*
X142475600Y-86620185D01*
X142482872Y-86625233D01*
X142507668Y-86643795D01*
X142507671Y-86643797D01*
X142642517Y-86694091D01*
X142642516Y-86694091D01*
X142649444Y-86694835D01*
X142702127Y-86700500D01*
X143697872Y-86700499D01*
X143757483Y-86694091D01*
X143892331Y-86643796D01*
X143975689Y-86581393D01*
X144041153Y-86556977D01*
X144109426Y-86571828D01*
X144124309Y-86581393D01*
X144134482Y-86589008D01*
X144207669Y-86643796D01*
X144207671Y-86643797D01*
X144342517Y-86694091D01*
X144342516Y-86694091D01*
X144349444Y-86694835D01*
X144402127Y-86700500D01*
X145299090Y-86700499D01*
X145366129Y-86720183D01*
X145411884Y-86772987D01*
X145416131Y-86783544D01*
X145474209Y-86949519D01*
X145505916Y-86999980D01*
X145570184Y-87102262D01*
X145697738Y-87229816D01*
X145757648Y-87267460D01*
X145836598Y-87317068D01*
X145850478Y-87325789D01*
X146011620Y-87382175D01*
X146020745Y-87385368D01*
X146020750Y-87385369D01*
X146164383Y-87401552D01*
X146228797Y-87428618D01*
X146268352Y-87486213D01*
X146274500Y-87524771D01*
X146274500Y-87747869D01*
X146274501Y-87747876D01*
X146280908Y-87807481D01*
X146285384Y-87819481D01*
X146327493Y-87932381D01*
X146332477Y-88002071D01*
X146327493Y-88019046D01*
X146281403Y-88142619D01*
X146281401Y-88142627D01*
X146275000Y-88202155D01*
X146275000Y-88425000D01*
X149025000Y-88425000D01*
X149025000Y-88202172D01*
X149024999Y-88202155D01*
X149018598Y-88142627D01*
X149018597Y-88142623D01*
X148972506Y-88019049D01*
X148967522Y-87949357D01*
X148972501Y-87932394D01*
X149019091Y-87807483D01*
X149025500Y-87747873D01*
X149025499Y-87052128D01*
X149019091Y-86992517D01*
X149008317Y-86963632D01*
X149000500Y-86920300D01*
X149000500Y-84182412D01*
X149020185Y-84115373D01*
X149027555Y-84105097D01*
X149029810Y-84102267D01*
X149029816Y-84102262D01*
X149125789Y-83949522D01*
X149185368Y-83779255D01*
X149194298Y-83700000D01*
X149205565Y-83600003D01*
X149205565Y-83599996D01*
X149185369Y-83420750D01*
X149185368Y-83420745D01*
X149163138Y-83357216D01*
X149125789Y-83250478D01*
X149119157Y-83239924D01*
X149078337Y-83174959D01*
X149029816Y-83097738D01*
X148902262Y-82970184D01*
X148880013Y-82956204D01*
X148749523Y-82874211D01*
X148579254Y-82814631D01*
X148579249Y-82814630D01*
X148400004Y-82794435D01*
X148399996Y-82794435D01*
X148220750Y-82814630D01*
X148220745Y-82814631D01*
X148050476Y-82874211D01*
X147897736Y-82970185D01*
X147894903Y-82972445D01*
X147892724Y-82973334D01*
X147891842Y-82973889D01*
X147891744Y-82973734D01*
X147830217Y-82998855D01*
X147817588Y-82999500D01*
X145691439Y-82999500D01*
X145624400Y-82979815D01*
X145617128Y-82974767D01*
X145592331Y-82956204D01*
X145592328Y-82956202D01*
X145457482Y-82905908D01*
X145457483Y-82905908D01*
X145397883Y-82899501D01*
X145397881Y-82899500D01*
X145397873Y-82899500D01*
X145397864Y-82899500D01*
X144402129Y-82899500D01*
X144402123Y-82899501D01*
X144342516Y-82905908D01*
X144207671Y-82956202D01*
X144207669Y-82956203D01*
X144124311Y-83018606D01*
X144058847Y-83043023D01*
X143990574Y-83028172D01*
X143975689Y-83018606D01*
X143963383Y-83009394D01*
X143892331Y-82956204D01*
X143892330Y-82956203D01*
X143892328Y-82956202D01*
X143757482Y-82905908D01*
X143757483Y-82905908D01*
X143697883Y-82899501D01*
X143697881Y-82899500D01*
X143697873Y-82899500D01*
X143697864Y-82899500D01*
X142702129Y-82899500D01*
X142702123Y-82899501D01*
X142642516Y-82905908D01*
X142507671Y-82956202D01*
X142507668Y-82956204D01*
X142482872Y-82974767D01*
X142417408Y-82999184D01*
X142408561Y-82999500D01*
X141740097Y-82999500D01*
X141673058Y-82979815D01*
X141652416Y-82963181D01*
X140332766Y-81643531D01*
X140299281Y-81582208D01*
X140300672Y-81523757D01*
X140302502Y-81516926D01*
X140335063Y-81395408D01*
X140355659Y-81160000D01*
X140335063Y-80924592D01*
X140273903Y-80696337D01*
X140174035Y-80482171D01*
X140174034Y-80482169D01*
X140038494Y-80288597D01*
X139871402Y-80121506D01*
X139871396Y-80121501D01*
X139685842Y-79991575D01*
X139642217Y-79936998D01*
X139635023Y-79867500D01*
X139666546Y-79805145D01*
X139685842Y-79788425D01*
X139779164Y-79723080D01*
X139871401Y-79658495D01*
X140038495Y-79491401D01*
X140174035Y-79297830D01*
X140175491Y-79294707D01*
X140176711Y-79292092D01*
X140222885Y-79239655D01*
X140289091Y-79220501D01*
X140359054Y-79220501D01*
X140359057Y-79220501D01*
X140511785Y-79179577D01*
X140583424Y-79138216D01*
X140648716Y-79100520D01*
X140760520Y-78988716D01*
X140760520Y-78988714D01*
X140770724Y-78978511D01*
X140770728Y-78978506D01*
X141749238Y-77999996D01*
X154958435Y-77999996D01*
X154958435Y-78000003D01*
X154978630Y-78179249D01*
X154978631Y-78179254D01*
X155038211Y-78349522D01*
X155052254Y-78371872D01*
X155071253Y-78439109D01*
X155064301Y-78478797D01*
X155014632Y-78620742D01*
X155014630Y-78620750D01*
X154994435Y-78799996D01*
X154994435Y-78800003D01*
X155014630Y-78979249D01*
X155014633Y-78979262D01*
X155076510Y-79156094D01*
X155074364Y-79156844D01*
X155083962Y-79215144D01*
X155075609Y-79243590D01*
X155076510Y-79243906D01*
X155014633Y-79420737D01*
X155014630Y-79420750D01*
X154994435Y-79599996D01*
X154994435Y-79600003D01*
X155014630Y-79779249D01*
X155014633Y-79779262D01*
X155076510Y-79956094D01*
X155074364Y-79956844D01*
X155083962Y-80015144D01*
X155075609Y-80043590D01*
X155076510Y-80043906D01*
X155014633Y-80220737D01*
X155014630Y-80220750D01*
X154994435Y-80399996D01*
X154994435Y-80400003D01*
X155014630Y-80579249D01*
X155014631Y-80579254D01*
X155074211Y-80749522D01*
X155078617Y-80756534D01*
X155097619Y-80823770D01*
X155090667Y-80863464D01*
X155035631Y-81020745D01*
X155035630Y-81020750D01*
X155015435Y-81199996D01*
X155015435Y-81200003D01*
X155035630Y-81379249D01*
X155035633Y-81379262D01*
X155095209Y-81549520D01*
X155137809Y-81617318D01*
X155156809Y-81684555D01*
X155137809Y-81749261D01*
X155074211Y-81850476D01*
X155014631Y-82020745D01*
X155014630Y-82020750D01*
X154994435Y-82199996D01*
X154994435Y-82200003D01*
X155014630Y-82379249D01*
X155014631Y-82379254D01*
X155076511Y-82556095D01*
X155074676Y-82556736D01*
X155084460Y-82616191D01*
X155076438Y-82643531D01*
X155077510Y-82643906D01*
X155015633Y-82820737D01*
X155015630Y-82820750D01*
X154995435Y-82999996D01*
X154995435Y-83000003D01*
X155015630Y-83179249D01*
X155015633Y-83179262D01*
X155077510Y-83356094D01*
X155075050Y-83356954D01*
X155084464Y-83414089D01*
X155075785Y-83443652D01*
X155076510Y-83443906D01*
X155014633Y-83620737D01*
X155014630Y-83620750D01*
X154994435Y-83799996D01*
X154994435Y-83800003D01*
X155014630Y-83979249D01*
X155014633Y-83979262D01*
X155076510Y-84156094D01*
X155074364Y-84156844D01*
X155083962Y-84215144D01*
X155075609Y-84243590D01*
X155076510Y-84243906D01*
X155014633Y-84420737D01*
X155014630Y-84420750D01*
X154994435Y-84599996D01*
X154994435Y-84600003D01*
X155014630Y-84779249D01*
X155014633Y-84779262D01*
X155076510Y-84956094D01*
X155074364Y-84956844D01*
X155083962Y-85015144D01*
X155075609Y-85043590D01*
X155076510Y-85043906D01*
X155014633Y-85220737D01*
X155014630Y-85220750D01*
X154994435Y-85399996D01*
X154994435Y-85400003D01*
X155014630Y-85579249D01*
X155014631Y-85579254D01*
X155074211Y-85749523D01*
X155160433Y-85886743D01*
X155170184Y-85902262D01*
X155297738Y-86029816D01*
X155334387Y-86052844D01*
X155442060Y-86120500D01*
X155450478Y-86125789D01*
X155598148Y-86177461D01*
X155620745Y-86185368D01*
X155620750Y-86185369D01*
X155799996Y-86205565D01*
X155800000Y-86205565D01*
X155800004Y-86205565D01*
X155979249Y-86185369D01*
X155979252Y-86185368D01*
X155979255Y-86185368D01*
X156149522Y-86125789D01*
X156302262Y-86029816D01*
X156429816Y-85902262D01*
X156525789Y-85749522D01*
X156530477Y-85736122D01*
X156559835Y-85689398D01*
X158702416Y-83546818D01*
X158763739Y-83513333D01*
X158790097Y-83510499D01*
X160156920Y-83510499D01*
X160156926Y-83510499D01*
X160242979Y-83500166D01*
X160379922Y-83446163D01*
X160497216Y-83357216D01*
X160586163Y-83239922D01*
X160640166Y-83102979D01*
X160650500Y-83016927D01*
X160650499Y-82723074D01*
X160640166Y-82637021D01*
X160640164Y-82637018D01*
X160639896Y-82634779D01*
X160639897Y-82605210D01*
X160640164Y-82602982D01*
X160640166Y-82602979D01*
X160650500Y-82516927D01*
X160650499Y-82223074D01*
X160640166Y-82137021D01*
X160640164Y-82137018D01*
X160639896Y-82134779D01*
X160639897Y-82105210D01*
X160640164Y-82102982D01*
X160640166Y-82102979D01*
X160650500Y-82016927D01*
X160650499Y-81723074D01*
X160640166Y-81637021D01*
X160640164Y-81637018D01*
X160639896Y-81634779D01*
X160639897Y-81605210D01*
X160640164Y-81602982D01*
X160640166Y-81602979D01*
X160650500Y-81516927D01*
X160650499Y-81223074D01*
X160640166Y-81137021D01*
X160640164Y-81137018D01*
X160639896Y-81134779D01*
X160639897Y-81105210D01*
X160640164Y-81102982D01*
X160640166Y-81102979D01*
X160650500Y-81016927D01*
X160650499Y-80723074D01*
X160640166Y-80637021D01*
X160640164Y-80637018D01*
X160639896Y-80634779D01*
X160639897Y-80605210D01*
X160640164Y-80602982D01*
X160640166Y-80602979D01*
X160650500Y-80516927D01*
X160650499Y-80223074D01*
X160640166Y-80137021D01*
X160640164Y-80137018D01*
X160639896Y-80134779D01*
X160639897Y-80105210D01*
X160640164Y-80102982D01*
X160640166Y-80102979D01*
X160650500Y-80016927D01*
X160650499Y-79723074D01*
X160640166Y-79637021D01*
X160640164Y-79637018D01*
X160639896Y-79634779D01*
X160639897Y-79605210D01*
X160640164Y-79602982D01*
X160640166Y-79602979D01*
X160650500Y-79516927D01*
X160650499Y-79223074D01*
X160640166Y-79137021D01*
X160640164Y-79137018D01*
X160639896Y-79134779D01*
X160639897Y-79105210D01*
X160640164Y-79102982D01*
X160640166Y-79102979D01*
X160650500Y-79016927D01*
X160650499Y-78723074D01*
X160640166Y-78637021D01*
X160640164Y-78637018D01*
X160639896Y-78634779D01*
X160639897Y-78605210D01*
X160640164Y-78602982D01*
X160640166Y-78602979D01*
X160650500Y-78516927D01*
X160650499Y-78223074D01*
X160640166Y-78137021D01*
X160640164Y-78137018D01*
X160639896Y-78134779D01*
X160639897Y-78105210D01*
X160640164Y-78102982D01*
X160640166Y-78102979D01*
X160650500Y-78016927D01*
X160650499Y-77723074D01*
X160640166Y-77637021D01*
X160640164Y-77637018D01*
X160639896Y-77634779D01*
X160639897Y-77605210D01*
X160640164Y-77602982D01*
X160640166Y-77602979D01*
X160650500Y-77516927D01*
X160650499Y-77223074D01*
X160640166Y-77137021D01*
X160640164Y-77137018D01*
X160639896Y-77134779D01*
X160639897Y-77105210D01*
X160640164Y-77102982D01*
X160640166Y-77102979D01*
X160650500Y-77016927D01*
X160650499Y-76723074D01*
X160640166Y-76637021D01*
X160640164Y-76637018D01*
X160639896Y-76634779D01*
X160639897Y-76605210D01*
X160640164Y-76602982D01*
X160640166Y-76602979D01*
X160650500Y-76516927D01*
X160650499Y-76223074D01*
X160640166Y-76137021D01*
X160640164Y-76137018D01*
X160639896Y-76134779D01*
X160639897Y-76105210D01*
X160640164Y-76102982D01*
X160640166Y-76102979D01*
X160650500Y-76016927D01*
X160650499Y-75723074D01*
X160640166Y-75637021D01*
X160640164Y-75637018D01*
X160639896Y-75634779D01*
X160639897Y-75605210D01*
X160640164Y-75602982D01*
X160640166Y-75602979D01*
X160650500Y-75516927D01*
X160650499Y-75223074D01*
X160640166Y-75137021D01*
X160586163Y-75000078D01*
X160574437Y-74984615D01*
X160497216Y-74882783D01*
X160379924Y-74793838D01*
X160379922Y-74793837D01*
X160242979Y-74739834D01*
X160242978Y-74739833D01*
X160156927Y-74729500D01*
X158583080Y-74729500D01*
X158497020Y-74739834D01*
X158497013Y-74739836D01*
X158495248Y-74740532D01*
X158493712Y-74740670D01*
X158489315Y-74741782D01*
X158489138Y-74741082D01*
X158425661Y-74746807D01*
X158363728Y-74714464D01*
X158362089Y-74712854D01*
X156559837Y-72910602D01*
X156530475Y-72863871D01*
X156529880Y-72862171D01*
X156525789Y-72850478D01*
X156429816Y-72697738D01*
X156302262Y-72570184D01*
X156264846Y-72546674D01*
X156149523Y-72474211D01*
X155979254Y-72414631D01*
X155979249Y-72414630D01*
X155800004Y-72394435D01*
X155799996Y-72394435D01*
X155620750Y-72414630D01*
X155620745Y-72414631D01*
X155450476Y-72474211D01*
X155297737Y-72570184D01*
X155170184Y-72697737D01*
X155074211Y-72850476D01*
X155014631Y-73020745D01*
X155014630Y-73020750D01*
X154994435Y-73199996D01*
X154994435Y-73200003D01*
X155014630Y-73379249D01*
X155014633Y-73379262D01*
X155076510Y-73556094D01*
X155074364Y-73556844D01*
X155083962Y-73615144D01*
X155075609Y-73643590D01*
X155076510Y-73643906D01*
X155014633Y-73820737D01*
X155014630Y-73820750D01*
X154994435Y-73999996D01*
X154994435Y-74000003D01*
X155014630Y-74179249D01*
X155014633Y-74179262D01*
X155076510Y-74356094D01*
X155074364Y-74356844D01*
X155083962Y-74415144D01*
X155075609Y-74443590D01*
X155076510Y-74443906D01*
X155014633Y-74620737D01*
X155014630Y-74620750D01*
X154994435Y-74799996D01*
X154994435Y-74800003D01*
X155014630Y-74979249D01*
X155014633Y-74979262D01*
X155076510Y-75156094D01*
X155074364Y-75156844D01*
X155083962Y-75215144D01*
X155075609Y-75243590D01*
X155076510Y-75243906D01*
X155014633Y-75420737D01*
X155014630Y-75420750D01*
X154994435Y-75599996D01*
X154994435Y-75600003D01*
X155014630Y-75779249D01*
X155014633Y-75779262D01*
X155076510Y-75956094D01*
X155074364Y-75956844D01*
X155083962Y-76015144D01*
X155075609Y-76043590D01*
X155076510Y-76043906D01*
X155014633Y-76220737D01*
X155014630Y-76220750D01*
X154994435Y-76399996D01*
X154994435Y-76400003D01*
X155014630Y-76579249D01*
X155014633Y-76579262D01*
X155068593Y-76733469D01*
X155072155Y-76803248D01*
X155056548Y-76840392D01*
X155053323Y-76845523D01*
X155050208Y-76850482D01*
X154990633Y-77020737D01*
X154990630Y-77020750D01*
X154970435Y-77199996D01*
X154970435Y-77200003D01*
X154990630Y-77379249D01*
X154990631Y-77379254D01*
X155048886Y-77545735D01*
X155052447Y-77615514D01*
X155040535Y-77643870D01*
X155041231Y-77644206D01*
X155038210Y-77650478D01*
X154978633Y-77820737D01*
X154978630Y-77820750D01*
X154958435Y-77999996D01*
X141749238Y-77999996D01*
X143212416Y-76536818D01*
X143273739Y-76503333D01*
X143300097Y-76500499D01*
X143597871Y-76500499D01*
X143597872Y-76500499D01*
X143657483Y-76494091D01*
X143792331Y-76443796D01*
X143875689Y-76381393D01*
X143941153Y-76356977D01*
X144009426Y-76371828D01*
X144024309Y-76381393D01*
X144088993Y-76429815D01*
X144107669Y-76443796D01*
X144107671Y-76443797D01*
X144242517Y-76494091D01*
X144242516Y-76494091D01*
X144249444Y-76494835D01*
X144302127Y-76500500D01*
X145297872Y-76500499D01*
X145357483Y-76494091D01*
X145492331Y-76443796D01*
X145517128Y-76425233D01*
X145582592Y-76400816D01*
X145591439Y-76400500D01*
X147617588Y-76400500D01*
X147684627Y-76420185D01*
X147694903Y-76427555D01*
X147697736Y-76429814D01*
X147697738Y-76429816D01*
X147800031Y-76494091D01*
X147836372Y-76516926D01*
X147850478Y-76525789D01*
X147949511Y-76560442D01*
X148020745Y-76585368D01*
X148020750Y-76585369D01*
X148199996Y-76605565D01*
X148200000Y-76605565D01*
X148200004Y-76605565D01*
X148379249Y-76585369D01*
X148379252Y-76585368D01*
X148379255Y-76585368D01*
X148549522Y-76525789D01*
X148702262Y-76429816D01*
X148829816Y-76302262D01*
X148925789Y-76149522D01*
X148985368Y-75979255D01*
X148985369Y-75979249D01*
X149005565Y-75800003D01*
X149005565Y-75799996D01*
X148985369Y-75620750D01*
X148985366Y-75620737D01*
X148925790Y-75450479D01*
X148919506Y-75440478D01*
X148900500Y-75374507D01*
X148900500Y-72429700D01*
X148908318Y-72386366D01*
X148908947Y-72384681D01*
X148919091Y-72357483D01*
X148925500Y-72297873D01*
X148925499Y-71602128D01*
X148919091Y-71542517D01*
X148872505Y-71417615D01*
X148867522Y-71347927D01*
X148872506Y-71330951D01*
X148918597Y-71207376D01*
X148918598Y-71207372D01*
X148924999Y-71147844D01*
X148925000Y-71147827D01*
X148925000Y-70925000D01*
X146175000Y-70925000D01*
X146175000Y-71147844D01*
X146181401Y-71207372D01*
X146181403Y-71207380D01*
X146227492Y-71330952D01*
X146232476Y-71400644D01*
X146227492Y-71417617D01*
X146180909Y-71542514D01*
X146180908Y-71542516D01*
X146174675Y-71600500D01*
X146174501Y-71602123D01*
X146174500Y-71602135D01*
X146174500Y-72086494D01*
X146154815Y-72153533D01*
X146102011Y-72199288D01*
X146064384Y-72209714D01*
X146020750Y-72214630D01*
X145850478Y-72274210D01*
X145697737Y-72370184D01*
X145570182Y-72497739D01*
X145475416Y-72648558D01*
X145423082Y-72694848D01*
X145357169Y-72705875D01*
X145342824Y-72704332D01*
X145297873Y-72699500D01*
X145297866Y-72699500D01*
X144302129Y-72699500D01*
X144302123Y-72699501D01*
X144242516Y-72705908D01*
X144107671Y-72756202D01*
X144107669Y-72756203D01*
X144024311Y-72818606D01*
X143958847Y-72843023D01*
X143890574Y-72828172D01*
X143875689Y-72818606D01*
X143792330Y-72756203D01*
X143792328Y-72756202D01*
X143657482Y-72705908D01*
X143657483Y-72705908D01*
X143597883Y-72699501D01*
X143597881Y-72699500D01*
X143597873Y-72699500D01*
X143597865Y-72699500D01*
X143300098Y-72699500D01*
X143233059Y-72679815D01*
X143212417Y-72663181D01*
X141187590Y-70638355D01*
X141187588Y-70638352D01*
X141068717Y-70519481D01*
X141068716Y-70519480D01*
X140969995Y-70462484D01*
X140969994Y-70462483D01*
X140952105Y-70452155D01*
X146175000Y-70452155D01*
X146175000Y-70675000D01*
X146675000Y-70675000D01*
X146925000Y-70675000D01*
X147175000Y-70675000D01*
X147425000Y-70675000D01*
X147675000Y-70675000D01*
X147925000Y-70675000D01*
X148175000Y-70675000D01*
X148425000Y-70675000D01*
X148925000Y-70675000D01*
X148925000Y-70452172D01*
X148924999Y-70452155D01*
X148918598Y-70392627D01*
X148918596Y-70392620D01*
X148868354Y-70257913D01*
X148868350Y-70257906D01*
X148782190Y-70142812D01*
X148782187Y-70142809D01*
X148667093Y-70056649D01*
X148667086Y-70056645D01*
X148532379Y-70006403D01*
X148532372Y-70006401D01*
X148472844Y-70000000D01*
X148425000Y-70000000D01*
X148425000Y-70675000D01*
X148175000Y-70675000D01*
X148175000Y-70000000D01*
X148127172Y-70000000D01*
X148127153Y-70000001D01*
X148063255Y-70006871D01*
X148036745Y-70006871D01*
X147972846Y-70000001D01*
X147972828Y-70000000D01*
X147925000Y-70000000D01*
X147925000Y-70675000D01*
X147675000Y-70675000D01*
X147675000Y-70000000D01*
X147627172Y-70000000D01*
X147627153Y-70000001D01*
X147563255Y-70006871D01*
X147536745Y-70006871D01*
X147472846Y-70000001D01*
X147472828Y-70000000D01*
X147425000Y-70000000D01*
X147425000Y-70675000D01*
X147175000Y-70675000D01*
X147175000Y-70000000D01*
X147127172Y-70000000D01*
X147127153Y-70000001D01*
X147063255Y-70006871D01*
X147036745Y-70006871D01*
X146972846Y-70000001D01*
X146972828Y-70000000D01*
X146925000Y-70000000D01*
X146925000Y-70675000D01*
X146675000Y-70675000D01*
X146675000Y-70000000D01*
X146627155Y-70000000D01*
X146567627Y-70006401D01*
X146567620Y-70006403D01*
X146432913Y-70056645D01*
X146432906Y-70056649D01*
X146317812Y-70142809D01*
X146317809Y-70142812D01*
X146231649Y-70257906D01*
X146231645Y-70257913D01*
X146181403Y-70392620D01*
X146181401Y-70392627D01*
X146175000Y-70452155D01*
X140952105Y-70452155D01*
X140931783Y-70440422D01*
X140875881Y-70425443D01*
X140779057Y-70399499D01*
X140620943Y-70399499D01*
X140613347Y-70399499D01*
X140613331Y-70399500D01*
X140474499Y-70399500D01*
X140407460Y-70379815D01*
X140361705Y-70327011D01*
X140350499Y-70275500D01*
X140350499Y-70102129D01*
X140350498Y-70102123D01*
X140350497Y-70102116D01*
X140344091Y-70042517D01*
X140335444Y-70019334D01*
X140293797Y-69907671D01*
X140293793Y-69907664D01*
X140207547Y-69792455D01*
X140207544Y-69792452D01*
X140092335Y-69706206D01*
X140092328Y-69706202D01*
X139957482Y-69655908D01*
X139957483Y-69655908D01*
X139897883Y-69649501D01*
X139897881Y-69649500D01*
X139897873Y-69649500D01*
X139897864Y-69649500D01*
X138102129Y-69649500D01*
X138102123Y-69649501D01*
X138042516Y-69655908D01*
X137907671Y-69706202D01*
X137907664Y-69706206D01*
X137792455Y-69792452D01*
X137792452Y-69792455D01*
X137706206Y-69907664D01*
X137706202Y-69907671D01*
X137655908Y-70042517D01*
X137649501Y-70102116D01*
X137649501Y-70102123D01*
X137649500Y-70102135D01*
X137649500Y-70275500D01*
X137629815Y-70342539D01*
X137577011Y-70388294D01*
X137525500Y-70399500D01*
X136654130Y-70399500D01*
X136654121Y-70399499D01*
X136568986Y-70399492D01*
X136568951Y-70399497D01*
X136497375Y-70418676D01*
X136497367Y-70418678D01*
X136416237Y-70440410D01*
X136350180Y-70478548D01*
X136350173Y-70478552D01*
X136279303Y-70519461D01*
X136279284Y-70519480D01*
X136224075Y-70574688D01*
X133836973Y-72961401D01*
X133836892Y-72961472D01*
X133768619Y-73029744D01*
X133768615Y-73029748D01*
X133719489Y-73078866D01*
X133680101Y-73147091D01*
X133680096Y-73147099D01*
X133640431Y-73215788D01*
X133640423Y-73215814D01*
X133640423Y-73215816D01*
X133620648Y-73289614D01*
X133599500Y-73368516D01*
X133599500Y-73439510D01*
X133599492Y-73534704D01*
X129400000Y-73534704D01*
X129400000Y-53465591D01*
X133599492Y-53465591D01*
X133599500Y-53556817D01*
X133599500Y-53631486D01*
X133619868Y-53707471D01*
X133619869Y-53707483D01*
X133619871Y-53707483D01*
X133634924Y-53763663D01*
X133640424Y-53784186D01*
X133640442Y-53784231D01*
X133676396Y-53846492D01*
X133676401Y-53846501D01*
X133719481Y-53921119D01*
X133719506Y-53921151D01*
X133771038Y-53972675D01*
X133771052Y-53972688D01*
X133771060Y-53972696D01*
X133818549Y-54020185D01*
X133836883Y-54038519D01*
X133836971Y-54038596D01*
X136062051Y-56263287D01*
X136119283Y-56320519D01*
X136119284Y-56320520D01*
X136119323Y-56320550D01*
X136187968Y-56360175D01*
X136187967Y-56360175D01*
X136187971Y-56360176D01*
X136256216Y-56399577D01*
X136256220Y-56399578D01*
X136256243Y-56399591D01*
X136256272Y-56399603D01*
X136256762Y-56399730D01*
X136339661Y-56421936D01*
X136339667Y-56421939D01*
X136339668Y-56421938D01*
X136360868Y-56427618D01*
X136408943Y-56440500D01*
X136408945Y-56440500D01*
X136408949Y-56440501D01*
X136408988Y-56440506D01*
X136408995Y-56440508D01*
X136409000Y-56440507D01*
X136409001Y-56440508D01*
X136499346Y-56440500D01*
X137710909Y-56440500D01*
X137777948Y-56460185D01*
X137823292Y-56512097D01*
X137825965Y-56517830D01*
X137825966Y-56517831D01*
X137961501Y-56711395D01*
X137961506Y-56711402D01*
X138128597Y-56878493D01*
X138128603Y-56878498D01*
X138314158Y-57008425D01*
X138357783Y-57063002D01*
X138364977Y-57132500D01*
X138333454Y-57194855D01*
X138314158Y-57211575D01*
X138128597Y-57341505D01*
X137961506Y-57508596D01*
X137825965Y-57702170D01*
X137825962Y-57702175D01*
X137823289Y-57707909D01*
X137777115Y-57760346D01*
X137710909Y-57779500D01*
X137350321Y-57779500D01*
X137350276Y-57779497D01*
X137342036Y-57779497D01*
X137247168Y-57779500D01*
X137183943Y-57779500D01*
X137183940Y-57779500D01*
X137183924Y-57779501D01*
X137183923Y-57779501D01*
X137095549Y-57803184D01*
X137095547Y-57803184D01*
X137031222Y-57820420D01*
X137031201Y-57820428D01*
X137031196Y-57820430D01*
X136992946Y-57842516D01*
X136959052Y-57862086D01*
X136943613Y-57870999D01*
X136894273Y-57899485D01*
X136837332Y-57956430D01*
X136837332Y-57956431D01*
X136782480Y-58011284D01*
X136782478Y-58011286D01*
X136778151Y-58015614D01*
X136778136Y-58015630D01*
X133990637Y-60803325D01*
X133990635Y-60803328D01*
X133919473Y-60874490D01*
X133885956Y-60932547D01*
X133840417Y-61011424D01*
X133820639Y-61085250D01*
X133820638Y-61085252D01*
X133799497Y-61164153D01*
X133799500Y-61259032D01*
X133799500Y-61879300D01*
X133799901Y-61885425D01*
X133799901Y-62195468D01*
X133799902Y-62195475D01*
X133806309Y-62255082D01*
X133856603Y-62389927D01*
X133856607Y-62389934D01*
X133942853Y-62505143D01*
X133947629Y-62509919D01*
X133981114Y-62571242D01*
X133976130Y-62640934D01*
X133947629Y-62685281D01*
X133942853Y-62690056D01*
X133856607Y-62805265D01*
X133856603Y-62805272D01*
X133806309Y-62940118D01*
X133799902Y-62999717D01*
X133799901Y-62999736D01*
X133799901Y-63309777D01*
X133799500Y-63315907D01*
X133799500Y-63865251D01*
X133799491Y-63865389D01*
X133799500Y-63957729D01*
X133799500Y-64031490D01*
X133820531Y-64109948D01*
X133820534Y-64109959D01*
X133840422Y-64184183D01*
X133840445Y-64184238D01*
X133876396Y-64246493D01*
X133876402Y-64246503D01*
X133919477Y-64321112D01*
X133919498Y-64321139D01*
X133919514Y-64321160D01*
X133970818Y-64372454D01*
X133970817Y-64372454D01*
X133970826Y-64372462D01*
X134036720Y-64438356D01*
X134036822Y-64438446D01*
X136022898Y-66424134D01*
X136022897Y-66424134D01*
X136022906Y-66424142D01*
X136079286Y-66480522D01*
X136079331Y-66480557D01*
X136150565Y-66521674D01*
X136150564Y-66521674D01*
X136150572Y-66521677D01*
X136216216Y-66559577D01*
X136216218Y-66559577D01*
X136216224Y-66559581D01*
X136216231Y-66559584D01*
X136216266Y-66559598D01*
X136216270Y-66559600D01*
X136301195Y-66582347D01*
X136301205Y-66582352D01*
X136301206Y-66582350D01*
X136312879Y-66585477D01*
X136368943Y-66600500D01*
X136368948Y-66600500D01*
X136368959Y-66600503D01*
X136368999Y-66600509D01*
X136369001Y-66600508D01*
X136369002Y-66600509D01*
X136457941Y-66600500D01*
X137710909Y-66600500D01*
X137777948Y-66620185D01*
X137823292Y-66672097D01*
X137825965Y-66677830D01*
X137961505Y-66871401D01*
X138128599Y-67038495D01*
X138213338Y-67097830D01*
X138322165Y-67174032D01*
X138322167Y-67174033D01*
X138322170Y-67174035D01*
X138536337Y-67273903D01*
X138764592Y-67335063D01*
X138952918Y-67351539D01*
X138999999Y-67355659D01*
X139000000Y-67355659D01*
X139000001Y-67355659D01*
X139039234Y-67352226D01*
X139235408Y-67335063D01*
X139463663Y-67273903D01*
X139677830Y-67174035D01*
X139871401Y-67038495D01*
X140038495Y-66871401D01*
X140174035Y-66677830D01*
X140176707Y-66672097D01*
X140222878Y-66619658D01*
X140289091Y-66600500D01*
X140613331Y-66600500D01*
X140613347Y-66600501D01*
X140620943Y-66600501D01*
X140779054Y-66600501D01*
X140779057Y-66600501D01*
X140931785Y-66559577D01*
X141002861Y-66518541D01*
X141038710Y-66497844D01*
X146175000Y-66497844D01*
X146181401Y-66557372D01*
X146181403Y-66557379D01*
X146231645Y-66692086D01*
X146231649Y-66692093D01*
X146317809Y-66807187D01*
X146317812Y-66807190D01*
X146432906Y-66893350D01*
X146432913Y-66893354D01*
X146567620Y-66943596D01*
X146567627Y-66943598D01*
X146627155Y-66949999D01*
X146627172Y-66950000D01*
X146675000Y-66950000D01*
X146925000Y-66950000D01*
X146972828Y-66950000D01*
X146972841Y-66949999D01*
X147036743Y-66943128D01*
X147063257Y-66943128D01*
X147127158Y-66949999D01*
X147127172Y-66950000D01*
X147175000Y-66950000D01*
X147425000Y-66950000D01*
X147472828Y-66950000D01*
X147472841Y-66949999D01*
X147536743Y-66943128D01*
X147563257Y-66943128D01*
X147627158Y-66949999D01*
X147627172Y-66950000D01*
X147675000Y-66950000D01*
X147925000Y-66950000D01*
X147972828Y-66950000D01*
X147972841Y-66949999D01*
X148036743Y-66943128D01*
X148063257Y-66943128D01*
X148127158Y-66949999D01*
X148127172Y-66950000D01*
X148175000Y-66950000D01*
X148425000Y-66950000D01*
X148472828Y-66950000D01*
X148472844Y-66949999D01*
X148532372Y-66943598D01*
X148532379Y-66943596D01*
X148667086Y-66893354D01*
X148667093Y-66893350D01*
X148782187Y-66807190D01*
X148782190Y-66807187D01*
X148868350Y-66692093D01*
X148868354Y-66692086D01*
X148918596Y-66557379D01*
X148918598Y-66557372D01*
X148924999Y-66497844D01*
X148925000Y-66497827D01*
X148925000Y-66275000D01*
X148425000Y-66275000D01*
X148425000Y-66950000D01*
X148175000Y-66950000D01*
X148175000Y-66275000D01*
X147925000Y-66275000D01*
X147925000Y-66950000D01*
X147675000Y-66950000D01*
X147675000Y-66275000D01*
X147425000Y-66275000D01*
X147425000Y-66950000D01*
X147175000Y-66950000D01*
X147175000Y-66275000D01*
X146925000Y-66275000D01*
X146925000Y-66950000D01*
X146675000Y-66950000D01*
X146675000Y-66275000D01*
X146175000Y-66275000D01*
X146175000Y-66497844D01*
X141038710Y-66497844D01*
X141068716Y-66480520D01*
X141180520Y-66368716D01*
X141180520Y-66368714D01*
X141190724Y-66358511D01*
X141190727Y-66358506D01*
X143212417Y-64336818D01*
X143273740Y-64303333D01*
X143300098Y-64300499D01*
X143597871Y-64300499D01*
X143597872Y-64300499D01*
X143657483Y-64294091D01*
X143792331Y-64243796D01*
X143875689Y-64181393D01*
X143941153Y-64156977D01*
X144009426Y-64171828D01*
X144024309Y-64181393D01*
X144028110Y-64184238D01*
X144107669Y-64243796D01*
X144107671Y-64243797D01*
X144242517Y-64294091D01*
X144242516Y-64294091D01*
X144249444Y-64294835D01*
X144302127Y-64300500D01*
X145099091Y-64300499D01*
X145166130Y-64320183D01*
X145211885Y-64372987D01*
X145216133Y-64383545D01*
X145274210Y-64549521D01*
X145338683Y-64652128D01*
X145370184Y-64702262D01*
X145497738Y-64829816D01*
X145588080Y-64886582D01*
X145638869Y-64918495D01*
X145650478Y-64925789D01*
X145820745Y-64985368D01*
X145820750Y-64985369D01*
X145999997Y-65005565D01*
X146000000Y-65005565D01*
X146000001Y-65005565D01*
X146009254Y-65004522D01*
X146036616Y-65001439D01*
X146105437Y-65013493D01*
X146156817Y-65060841D01*
X146174500Y-65124658D01*
X146174500Y-65347869D01*
X146174501Y-65347876D01*
X146180908Y-65407481D01*
X146191606Y-65436164D01*
X146227493Y-65532381D01*
X146232477Y-65602071D01*
X146227493Y-65619046D01*
X146181403Y-65742619D01*
X146181401Y-65742627D01*
X146175000Y-65802155D01*
X146175000Y-66025000D01*
X148925000Y-66025000D01*
X148925000Y-65802172D01*
X148924999Y-65802155D01*
X148918598Y-65742627D01*
X148918597Y-65742623D01*
X148872506Y-65619049D01*
X148867522Y-65549357D01*
X148872501Y-65532394D01*
X148919091Y-65407483D01*
X148925500Y-65347873D01*
X148925499Y-64652128D01*
X148919091Y-64592517D01*
X148908317Y-64563632D01*
X148900500Y-64520300D01*
X148900500Y-61625493D01*
X148919508Y-61559519D01*
X148925787Y-61549525D01*
X148925786Y-61549525D01*
X148925789Y-61549522D01*
X148985368Y-61379255D01*
X148989791Y-61339999D01*
X149005565Y-61200003D01*
X149005565Y-61199996D01*
X148985369Y-61020750D01*
X148985368Y-61020745D01*
X148975905Y-60993701D01*
X148925789Y-60850478D01*
X148829816Y-60697738D01*
X148702262Y-60570184D01*
X148680013Y-60556204D01*
X148549523Y-60474211D01*
X148379254Y-60414631D01*
X148379249Y-60414630D01*
X148200004Y-60394435D01*
X148199996Y-60394435D01*
X148020750Y-60414630D01*
X148020745Y-60414631D01*
X147850476Y-60474211D01*
X147697736Y-60570185D01*
X147694903Y-60572445D01*
X147692724Y-60573334D01*
X147691842Y-60573889D01*
X147691744Y-60573734D01*
X147630217Y-60598855D01*
X147617588Y-60599500D01*
X145591439Y-60599500D01*
X145524400Y-60579815D01*
X145517128Y-60574767D01*
X145492331Y-60556204D01*
X145492328Y-60556202D01*
X145357482Y-60505908D01*
X145357483Y-60505908D01*
X145297883Y-60499501D01*
X145297881Y-60499500D01*
X145297873Y-60499500D01*
X145297864Y-60499500D01*
X144302129Y-60499500D01*
X144302123Y-60499501D01*
X144242516Y-60505908D01*
X144107671Y-60556202D01*
X144107669Y-60556203D01*
X144024311Y-60618606D01*
X143958847Y-60643023D01*
X143890574Y-60628172D01*
X143875689Y-60618606D01*
X143792330Y-60556203D01*
X143792328Y-60556202D01*
X143657482Y-60505908D01*
X143657483Y-60505908D01*
X143597883Y-60499501D01*
X143597881Y-60499500D01*
X143597873Y-60499500D01*
X143597865Y-60499500D01*
X143300097Y-60499500D01*
X143233058Y-60479815D01*
X143212416Y-60463181D01*
X140767590Y-58018355D01*
X140767588Y-58018352D01*
X140648717Y-57899481D01*
X140648716Y-57899480D01*
X140561904Y-57849360D01*
X140561904Y-57849359D01*
X140561900Y-57849358D01*
X140511785Y-57820423D01*
X140359057Y-57779499D01*
X140359054Y-57779499D01*
X140289091Y-57779499D01*
X140222052Y-57759814D01*
X140176711Y-57707908D01*
X140174037Y-57702174D01*
X140174034Y-57702169D01*
X140038494Y-57508597D01*
X139871402Y-57341506D01*
X139871396Y-57341501D01*
X139685842Y-57211575D01*
X139642217Y-57156998D01*
X139635023Y-57087500D01*
X139666546Y-57025145D01*
X139685842Y-57008425D01*
X139708026Y-56992891D01*
X139871401Y-56878495D01*
X140038495Y-56711401D01*
X140174035Y-56517830D01*
X140176707Y-56512097D01*
X140222878Y-56459658D01*
X140289091Y-56440500D01*
X140473331Y-56440500D01*
X140473347Y-56440501D01*
X140480943Y-56440501D01*
X140639054Y-56440501D01*
X140639057Y-56440501D01*
X140791785Y-56399577D01*
X140841904Y-56370639D01*
X140928716Y-56320520D01*
X141040520Y-56208716D01*
X141040520Y-56208714D01*
X141050728Y-56198507D01*
X141050730Y-56198504D01*
X143112416Y-54136818D01*
X143173739Y-54103333D01*
X143200097Y-54100499D01*
X143497871Y-54100499D01*
X143497872Y-54100499D01*
X143557483Y-54094091D01*
X143692331Y-54043796D01*
X143775689Y-53981393D01*
X143841153Y-53956977D01*
X143909426Y-53971828D01*
X143924309Y-53981393D01*
X143988993Y-54029815D01*
X144007669Y-54043796D01*
X144007671Y-54043797D01*
X144142517Y-54094091D01*
X144142516Y-54094091D01*
X144149444Y-54094835D01*
X144202127Y-54100500D01*
X145197872Y-54100499D01*
X145257483Y-54094091D01*
X145392331Y-54043796D01*
X145417128Y-54025233D01*
X145482592Y-54000816D01*
X145491439Y-54000500D01*
X147817588Y-54000500D01*
X147884627Y-54020185D01*
X147894903Y-54027555D01*
X147897736Y-54029814D01*
X147897738Y-54029816D01*
X148000031Y-54094091D01*
X148014739Y-54103333D01*
X148050478Y-54125789D01*
X148220745Y-54185368D01*
X148220750Y-54185369D01*
X148399996Y-54205565D01*
X148400000Y-54205565D01*
X148400004Y-54205565D01*
X148579249Y-54185369D01*
X148579252Y-54185368D01*
X148579255Y-54185368D01*
X148749522Y-54125789D01*
X148902262Y-54029816D01*
X149029816Y-53902262D01*
X149125789Y-53749522D01*
X149185368Y-53579255D01*
X149187896Y-53556817D01*
X149205565Y-53400003D01*
X149205565Y-53399996D01*
X149185369Y-53220750D01*
X149185368Y-53220745D01*
X149125788Y-53050476D01*
X149092645Y-52997730D01*
X149029816Y-52897738D01*
X149029814Y-52897736D01*
X149029813Y-52897734D01*
X149027550Y-52894896D01*
X149026659Y-52892715D01*
X149026111Y-52891842D01*
X149026264Y-52891745D01*
X149001144Y-52830209D01*
X149000500Y-52817587D01*
X149000500Y-49629700D01*
X149008318Y-49586366D01*
X149019090Y-49557485D01*
X149019089Y-49557485D01*
X149019091Y-49557483D01*
X149025500Y-49497873D01*
X149025499Y-48802128D01*
X149019091Y-48742517D01*
X148972505Y-48617615D01*
X148967522Y-48547927D01*
X148972506Y-48530951D01*
X149018597Y-48407376D01*
X149018598Y-48407372D01*
X149024999Y-48347844D01*
X149025000Y-48347827D01*
X149025000Y-48125000D01*
X146275000Y-48125000D01*
X146275000Y-48347844D01*
X146281401Y-48407372D01*
X146281403Y-48407380D01*
X146327492Y-48530952D01*
X146332476Y-48600644D01*
X146327492Y-48617617D01*
X146280909Y-48742514D01*
X146280908Y-48742516D01*
X146274501Y-48802116D01*
X146274501Y-48802123D01*
X146274500Y-48802135D01*
X146274500Y-49224902D01*
X146254815Y-49291941D01*
X146238180Y-49312584D01*
X146182722Y-49368041D01*
X146121399Y-49401525D01*
X146081159Y-49403579D01*
X146000003Y-49394435D01*
X145999996Y-49394435D01*
X145820750Y-49414630D01*
X145820745Y-49414631D01*
X145650476Y-49474211D01*
X145497737Y-49570184D01*
X145370184Y-49697737D01*
X145274211Y-49850476D01*
X145214631Y-50020745D01*
X145214630Y-50020749D01*
X145195630Y-50189384D01*
X145168563Y-50253798D01*
X145110968Y-50293353D01*
X145072410Y-50299500D01*
X144202129Y-50299500D01*
X144202123Y-50299501D01*
X144142516Y-50305908D01*
X144007671Y-50356202D01*
X144007669Y-50356203D01*
X143924311Y-50418606D01*
X143858847Y-50443023D01*
X143790574Y-50428172D01*
X143775689Y-50418606D01*
X143692330Y-50356203D01*
X143692328Y-50356202D01*
X143557482Y-50305908D01*
X143557483Y-50305908D01*
X143497883Y-50299501D01*
X143497881Y-50299500D01*
X143497873Y-50299500D01*
X143497865Y-50299500D01*
X143200098Y-50299500D01*
X143133059Y-50279815D01*
X143112417Y-50263181D01*
X140707590Y-47858355D01*
X140707588Y-47858352D01*
X140588717Y-47739481D01*
X140588716Y-47739480D01*
X140501904Y-47689360D01*
X140501904Y-47689359D01*
X140501900Y-47689358D01*
X140451785Y-47660423D01*
X140451784Y-47660422D01*
X140451783Y-47660422D01*
X140451782Y-47660421D01*
X140442399Y-47657907D01*
X140432963Y-47652155D01*
X146275000Y-47652155D01*
X146275000Y-47875000D01*
X146775000Y-47875000D01*
X147025000Y-47875000D01*
X147275000Y-47875000D01*
X147525000Y-47875000D01*
X147775000Y-47875000D01*
X148025000Y-47875000D01*
X148275000Y-47875000D01*
X148525000Y-47875000D01*
X149025000Y-47875000D01*
X149025000Y-47652172D01*
X149024999Y-47652155D01*
X149018598Y-47592627D01*
X149018596Y-47592620D01*
X148968354Y-47457913D01*
X148968350Y-47457906D01*
X148882190Y-47342812D01*
X148882187Y-47342809D01*
X148767093Y-47256649D01*
X148767086Y-47256645D01*
X148632379Y-47206403D01*
X148632372Y-47206401D01*
X148572844Y-47200000D01*
X148525000Y-47200000D01*
X148525000Y-47875000D01*
X148275000Y-47875000D01*
X148275000Y-47200000D01*
X148227172Y-47200000D01*
X148227153Y-47200001D01*
X148163255Y-47206871D01*
X148136745Y-47206871D01*
X148072846Y-47200001D01*
X148072828Y-47200000D01*
X148025000Y-47200000D01*
X148025000Y-47875000D01*
X147775000Y-47875000D01*
X147775000Y-47200000D01*
X147727172Y-47200000D01*
X147727153Y-47200001D01*
X147663255Y-47206871D01*
X147636745Y-47206871D01*
X147572846Y-47200001D01*
X147572828Y-47200000D01*
X147525000Y-47200000D01*
X147525000Y-47875000D01*
X147275000Y-47875000D01*
X147275000Y-47200000D01*
X147227172Y-47200000D01*
X147227153Y-47200001D01*
X147163255Y-47206871D01*
X147136745Y-47206871D01*
X147072846Y-47200001D01*
X147072828Y-47200000D01*
X147025000Y-47200000D01*
X147025000Y-47875000D01*
X146775000Y-47875000D01*
X146775000Y-47200000D01*
X146727155Y-47200000D01*
X146667627Y-47206401D01*
X146667620Y-47206403D01*
X146532913Y-47256645D01*
X146532906Y-47256649D01*
X146417812Y-47342809D01*
X146417809Y-47342812D01*
X146331649Y-47457906D01*
X146331645Y-47457913D01*
X146281403Y-47592620D01*
X146281401Y-47592627D01*
X146275000Y-47652155D01*
X140432963Y-47652155D01*
X140382741Y-47621539D01*
X140352215Y-47558691D01*
X140350499Y-47538134D01*
X140350499Y-47322129D01*
X140350498Y-47322123D01*
X140350497Y-47322116D01*
X140344091Y-47262517D01*
X140341902Y-47256649D01*
X140293797Y-47127671D01*
X140293793Y-47127664D01*
X140207547Y-47012455D01*
X140207544Y-47012452D01*
X140092335Y-46926206D01*
X140092328Y-46926202D01*
X139957482Y-46875908D01*
X139957483Y-46875908D01*
X139897883Y-46869501D01*
X139897881Y-46869500D01*
X139897873Y-46869500D01*
X139897864Y-46869500D01*
X138102129Y-46869500D01*
X138102123Y-46869501D01*
X138042516Y-46875908D01*
X137907671Y-46926202D01*
X137907664Y-46926206D01*
X137792455Y-47012452D01*
X137792452Y-47012455D01*
X137706206Y-47127664D01*
X137706202Y-47127671D01*
X137655908Y-47262517D01*
X137649501Y-47322116D01*
X137649501Y-47322123D01*
X137649500Y-47322135D01*
X137649500Y-47495500D01*
X137629815Y-47562539D01*
X137577011Y-47608294D01*
X137525500Y-47619500D01*
X136849376Y-47619500D01*
X136837662Y-47619499D01*
X136743966Y-47619496D01*
X136743965Y-47619496D01*
X136743958Y-47619496D01*
X136743955Y-47619496D01*
X136684298Y-47635481D01*
X136684296Y-47635482D01*
X136591227Y-47660416D01*
X136521728Y-47700541D01*
X136521726Y-47700542D01*
X136454290Y-47739473D01*
X136388562Y-47805201D01*
X133836435Y-50357133D01*
X133836386Y-50357177D01*
X133799085Y-50394479D01*
X133761780Y-50431784D01*
X133761779Y-50431785D01*
X133719484Y-50474075D01*
X133680098Y-50542296D01*
X133680096Y-50542300D01*
X133640430Y-50610997D01*
X133640422Y-50611019D01*
X133622944Y-50676245D01*
X133622943Y-50676249D01*
X133599502Y-50763714D01*
X133599501Y-50763721D01*
X133599500Y-50763747D01*
X133599500Y-50812700D01*
X133599496Y-50930443D01*
X133599500Y-50930500D01*
X133599500Y-51479300D01*
X133599901Y-51485425D01*
X133599901Y-51795468D01*
X133599902Y-51795475D01*
X133606309Y-51855082D01*
X133656603Y-51989927D01*
X133656607Y-51989934D01*
X133742853Y-52105143D01*
X133747629Y-52109919D01*
X133781114Y-52171242D01*
X133776130Y-52240934D01*
X133747629Y-52285281D01*
X133742853Y-52290056D01*
X133656607Y-52405265D01*
X133656603Y-52405272D01*
X133606309Y-52540118D01*
X133599902Y-52599717D01*
X133599901Y-52599736D01*
X133599901Y-52909777D01*
X133599500Y-52915907D01*
X133599500Y-53465465D01*
X133599492Y-53465591D01*
X129400000Y-53465591D01*
X129400000Y-45624500D01*
X129419685Y-45557461D01*
X129472489Y-45511706D01*
X129524000Y-45500500D01*
X185375500Y-45500500D01*
X185442539Y-45520185D01*
G37*
%TD.AperFunction*%
%TD*%
M02*
