M48
; DRILL file {KiCad 8.0.8} date 2025-03-16T16:25:44-0400
; FORMAT={-:-/ absolute / inch / decimal}
; #@! TF.CreationDate,2025-03-16T16:25:44-04:00
; #@! TF.GenerationSoftware,Kicad,Pcbnew,8.0.8
; #@! TF.FileFunction,Plated,1,4,PTH
FMAT,2
INCH
; #@! TA.AperFunction,Plated,PTH,ViaDrill
T1C0.0197
; #@! TA.AperFunction,Plated,PTH,ComponentDrill
T2C0.0374
; #@! TA.AperFunction,Plated,PTH,ComponentDrill
T3C0.0394
%
G90
G05
T1
X4.2Y-1.75
X4.425Y-2.15
X4.45Y-3.65
X4.545Y-3.13
X4.57Y-2.73
X4.595Y-1.59
X4.6Y-2.15
X4.6Y-2.5843
X4.625Y-2.73
X4.63Y-3.0
X4.65Y-1.75
X4.65Y-2.925
X4.65Y-3.315
X4.675Y-2.7085
X4.7Y-0.965
X4.704Y-2.996
X4.7245Y-2.725
X4.745Y-2.5508
X4.75Y-2.9
X4.7737Y-2.7249
X4.775Y-1.75
X4.8Y-2.15
X4.8Y-2.475
X4.8228Y-2.7287
X4.825Y-2.63
X4.85Y-3.225
X4.93Y-2.38
X4.96Y-3.3
X4.97Y-2.15
X5.0Y-3.65
X5.0237Y-3.1763
X5.075Y-2.75
X5.085Y-2.185
X5.2Y-1.75
T2
X4.4Y-1.0063
X4.4Y-1.1047
X4.4Y-1.2031
X4.4Y-1.3016
X4.4Y-1.4
X4.4Y-1.4984
X4.4Y-1.5969
X4.4Y-1.6953
X5.0Y-1.0
X5.0Y-1.0984
X5.0Y-1.1969
X5.0Y-1.2953
X5.0Y-1.3937
X5.0Y-1.4921
X5.0Y-1.5906
X5.0Y-1.689
T3
X4.2Y-1.9
X4.2Y-2.0
X4.2Y-2.1
X4.2Y-2.2
X4.2Y-2.3
X4.2Y-2.4
X4.2Y-2.5
X4.2Y-2.6
X4.2Y-2.7
X4.2Y-2.8
X4.2Y-2.9
X4.2Y-3.0
X4.2Y-3.1
X4.2Y-3.2
X4.2Y-3.3
X4.2Y-3.4
X4.2Y-3.5
X4.2Y-3.6
X4.6516Y-1.3
X4.75Y-1.3
X5.2Y-1.9
X5.2Y-2.0
X5.2Y-2.1
X5.2Y-2.2
X5.2Y-2.3
X5.2Y-2.4
X5.2Y-2.5
X5.2Y-2.6
X5.2Y-2.7
X5.2Y-2.8
X5.2Y-2.9
X5.2Y-3.0
X5.2Y-3.1
X5.2Y-3.2
X5.2Y-3.3
X5.2Y-3.4
X5.2Y-3.5
X5.2Y-3.6
M30
