G04 #@! TF.GenerationSoftware,KiCad,Pcbnew,8.0.8*
G04 #@! TF.CreationDate,2025-03-16T16:25:49-04:00*
G04 #@! TF.ProjectId,Combined_PCB,436f6d62-696e-4656-945f-5043422e6b69,1*
G04 #@! TF.SameCoordinates,Original*
G04 #@! TF.FileFunction,Copper,L4,Bot*
G04 #@! TF.FilePolarity,Positive*
%FSLAX46Y46*%
G04 Gerber Fmt 4.6, Leading zero omitted, Abs format (unit mm)*
G04 Created by KiCad (PCBNEW 8.0.8) date 2025-03-16 16:25:49*
%MOMM*%
%LPD*%
G01*
G04 APERTURE LIST*
G04 Aperture macros list*
%AMRoundRect*
0 Rectangle with rounded corners*
0 $1 Rounding radius*
0 $2 $3 $4 $5 $6 $7 $8 $9 X,Y pos of 4 corners*
0 Add a 4 corners polygon primitive as box body*
4,1,4,$2,$3,$4,$5,$6,$7,$8,$9,$2,$3,0*
0 Add four circle primitives for the rounded corners*
1,1,$1+$1,$2,$3*
1,1,$1+$1,$4,$5*
1,1,$1+$1,$6,$7*
1,1,$1+$1,$8,$9*
0 Add four rect primitives between the rounded corners*
20,1,$1+$1,$2,$3,$4,$5,0*
20,1,$1+$1,$4,$5,$6,$7,0*
20,1,$1+$1,$6,$7,$8,$9,0*
20,1,$1+$1,$8,$9,$2,$3,0*%
G04 Aperture macros list end*
G04 #@! TA.AperFunction,ComponentPad*
%ADD10R,1.700000X1.700000*%
G04 #@! TD*
G04 #@! TA.AperFunction,ComponentPad*
%ADD11O,1.700000X1.700000*%
G04 #@! TD*
G04 #@! TA.AperFunction,ComponentPad*
%ADD12RoundRect,0.250000X-0.600000X-0.750000X0.600000X-0.750000X0.600000X0.750000X-0.600000X0.750000X0*%
G04 #@! TD*
G04 #@! TA.AperFunction,ComponentPad*
%ADD13O,1.700000X2.000000*%
G04 #@! TD*
G04 #@! TA.AperFunction,ComponentPad*
%ADD14RoundRect,0.250000X-0.725000X0.600000X-0.725000X-0.600000X0.725000X-0.600000X0.725000X0.600000X0*%
G04 #@! TD*
G04 #@! TA.AperFunction,ComponentPad*
%ADD15O,1.950000X1.700000*%
G04 #@! TD*
G04 #@! TA.AperFunction,ComponentPad*
%ADD16RoundRect,0.250000X0.725000X-0.600000X0.725000X0.600000X-0.725000X0.600000X-0.725000X-0.600000X0*%
G04 #@! TD*
G04 #@! TA.AperFunction,ViaPad*
%ADD17C,1.000000*%
G04 #@! TD*
G04 #@! TA.AperFunction,Conductor*
%ADD18C,0.250000*%
G04 #@! TD*
G04 #@! TA.AperFunction,Conductor*
%ADD19C,0.200000*%
G04 #@! TD*
G04 APERTURE END LIST*
D10*
X106680000Y-91440000D03*
D11*
X106680000Y-88900000D03*
X106680000Y-86360000D03*
X106680000Y-83820000D03*
X106680000Y-81280000D03*
X106680000Y-78740000D03*
X106680000Y-76200000D03*
X106680000Y-73660000D03*
X106680000Y-71120000D03*
X106680000Y-68580000D03*
X106680000Y-66040000D03*
X106680000Y-63500000D03*
X106680000Y-60960000D03*
X106680000Y-58420000D03*
X106680000Y-55880000D03*
X106680000Y-53340000D03*
X106680000Y-50800000D03*
X106680000Y-48260000D03*
D12*
X118150000Y-33020000D03*
D13*
X120650000Y-33020000D03*
D10*
X132080000Y-48260000D03*
D11*
X132080000Y-50800000D03*
X132080000Y-53340000D03*
X132080000Y-55880000D03*
X132080000Y-58420000D03*
X132080000Y-60960000D03*
X132080000Y-63500000D03*
X132080000Y-66040000D03*
X132080000Y-68580000D03*
X132080000Y-71120000D03*
X132080000Y-73660000D03*
X132080000Y-76200000D03*
X132080000Y-78740000D03*
X132080000Y-81280000D03*
X132080000Y-83820000D03*
X132080000Y-86360000D03*
X132080000Y-88900000D03*
X132080000Y-91440000D03*
D14*
X127000002Y-25400000D03*
D15*
X127000002Y-27900000D03*
X127000002Y-30400000D03*
X127000002Y-32900000D03*
X127000002Y-35400000D03*
X127000002Y-37900000D03*
X127000002Y-40400000D03*
X127000002Y-42900000D03*
D16*
X111760000Y-43060000D03*
D15*
X111760000Y-40560000D03*
X111760000Y-38060000D03*
X111760000Y-35560000D03*
X111760000Y-33060000D03*
X111760000Y-30560000D03*
X111760000Y-28060000D03*
X111760000Y-25560000D03*
D17*
X116078000Y-69342000D03*
X118110000Y-84201000D03*
X115443000Y-79502000D03*
X126238000Y-54610000D03*
X128905000Y-69850000D03*
X132080000Y-44450000D03*
X125222000Y-60452000D03*
X123190000Y-81915000D03*
X121920000Y-54610000D03*
X119380000Y-24511000D03*
X112395000Y-54610000D03*
X116840000Y-54610000D03*
X116713000Y-40386000D03*
X117475000Y-69342000D03*
X106680000Y-44450000D03*
X127000000Y-92710000D03*
X113030000Y-92710000D03*
X121285000Y-44450000D03*
X129159212Y-55499212D03*
X118110000Y-44450000D03*
X121920000Y-62865000D03*
X127601041Y-80678959D03*
X125984000Y-83820000D03*
X122555000Y-66802000D03*
X120523000Y-64790000D03*
X118745000Y-68795000D03*
X118110000Y-74295000D03*
X121252397Y-69212478D03*
X122498678Y-69308870D03*
X120002397Y-69215026D03*
X117602000Y-76200000D03*
X119482576Y-76097424D03*
X116840000Y-65640000D03*
X120650000Y-73660000D03*
D18*
X115951000Y-69469000D02*
X116078000Y-69342000D01*
X112649000Y-69469000D02*
X115951000Y-69469000D01*
D19*
X118295000Y-68345000D02*
X114065000Y-68345000D01*
X114065000Y-68345000D02*
X106680000Y-60960000D01*
X118745000Y-68795000D02*
X118295000Y-68345000D01*
D18*
X112649000Y-69469000D02*
X106680000Y-63500000D01*
X129159212Y-52324212D02*
X129159212Y-55499212D01*
X121285000Y-44450000D02*
X129159212Y-52324212D01*
X118745000Y-59690000D02*
X121920000Y-62865000D01*
X118110000Y-44450000D02*
X118745000Y-45085000D01*
X118745000Y-45085000D02*
X118745000Y-59690000D01*
D19*
X125984000Y-82296000D02*
X125984000Y-83820000D01*
X127601041Y-80678959D02*
X125984000Y-82296000D01*
X120543000Y-64790000D02*
X120523000Y-64790000D01*
X122555000Y-66802000D02*
X120543000Y-64790000D01*
X114935000Y-74295000D02*
X106680000Y-66040000D01*
X118110000Y-74295000D02*
X114935000Y-74295000D01*
X115540000Y-64740000D02*
X115540000Y-66178478D01*
X121252397Y-68548793D02*
X121252397Y-69212478D01*
X106680000Y-55880000D02*
X115540000Y-64740000D01*
X120014302Y-67310698D02*
X121252397Y-68548793D01*
X115540000Y-66178478D02*
X116672220Y-67310698D01*
X116672220Y-67310698D02*
X120014302Y-67310698D01*
X122498678Y-69158678D02*
X122498678Y-69308870D01*
X116672918Y-66675000D02*
X120015000Y-66675000D01*
X106680000Y-53340000D02*
X115990000Y-62650000D01*
X115990000Y-65992082D02*
X116672918Y-66675000D01*
X120015000Y-66675000D02*
X122498678Y-69158678D01*
X115990000Y-62650000D02*
X115990000Y-65992082D01*
X106680000Y-58420000D02*
X116205000Y-67945000D01*
X119380000Y-67945000D02*
X120002397Y-68567397D01*
X116205000Y-67945000D02*
X119380000Y-67945000D01*
X120002397Y-68567397D02*
X120002397Y-69215026D01*
X111760000Y-76200000D02*
X117602000Y-76200000D01*
X106680000Y-71120000D02*
X111760000Y-76200000D01*
X119482576Y-76097424D02*
X120720000Y-74860000D01*
X120720000Y-74860000D02*
X132577057Y-74860000D01*
X133280000Y-67240000D02*
X132080000Y-66040000D01*
X132577057Y-74860000D02*
X133280000Y-74157057D01*
X133280000Y-74157057D02*
X133280000Y-67240000D01*
X116840000Y-65640000D02*
X119996000Y-65640000D01*
X122936000Y-68580000D02*
X132080000Y-68580000D01*
X119996000Y-65640000D02*
X122936000Y-68580000D01*
X120650000Y-73660000D02*
X129540000Y-73660000D01*
X129540000Y-73660000D02*
X132080000Y-71120000D01*
G04 #@! TA.AperFunction,Conductor*
G36*
X108253819Y-65969723D02*
G01*
X112245163Y-69961069D01*
X112245167Y-69961072D01*
X112348921Y-70030399D01*
X112348923Y-70030399D01*
X112348925Y-70030401D01*
X112464215Y-70078155D01*
X112464217Y-70078155D01*
X112464222Y-70078157D01*
X112586601Y-70102499D01*
X112586605Y-70102500D01*
X112586606Y-70102500D01*
X112711394Y-70102500D01*
X115370595Y-70102500D01*
X115437634Y-70122185D01*
X115449260Y-70130647D01*
X115514994Y-70184594D01*
X115515001Y-70184598D01*
X115690191Y-70278239D01*
X115690193Y-70278239D01*
X115690196Y-70278241D01*
X115880299Y-70335908D01*
X115880298Y-70335908D01*
X115898024Y-70337653D01*
X116078000Y-70355380D01*
X116275701Y-70335908D01*
X116465804Y-70278241D01*
X116641004Y-70184595D01*
X116794568Y-70058568D01*
X116920595Y-69905004D01*
X116979562Y-69794684D01*
X117014239Y-69729808D01*
X117014239Y-69729807D01*
X117014241Y-69729804D01*
X117071908Y-69539701D01*
X117091380Y-69342000D01*
X117071908Y-69144299D01*
X117062563Y-69113495D01*
X117061939Y-69043630D01*
X117099187Y-68984517D01*
X117162481Y-68954925D01*
X117181224Y-68953500D01*
X117647236Y-68953500D01*
X117714275Y-68973185D01*
X117760030Y-69025989D01*
X117765894Y-69041498D01*
X117787735Y-69113497D01*
X117808760Y-69182808D01*
X117902401Y-69357998D01*
X117902405Y-69358005D01*
X118028431Y-69511568D01*
X118181994Y-69637594D01*
X118182001Y-69637598D01*
X118357191Y-69731239D01*
X118357193Y-69731239D01*
X118357196Y-69731241D01*
X118547299Y-69788908D01*
X118547298Y-69788908D01*
X118560061Y-69790165D01*
X118745000Y-69808380D01*
X118942701Y-69788908D01*
X119044390Y-69758060D01*
X119114254Y-69757437D01*
X119173368Y-69794684D01*
X119176237Y-69798056D01*
X119285828Y-69931594D01*
X119439391Y-70057620D01*
X119439398Y-70057624D01*
X119614588Y-70151265D01*
X119614590Y-70151265D01*
X119614593Y-70151267D01*
X119804696Y-70208934D01*
X119804695Y-70208934D01*
X119822421Y-70210679D01*
X120002397Y-70228406D01*
X120200098Y-70208934D01*
X120390201Y-70151267D01*
X120394972Y-70148717D01*
X120570774Y-70054750D01*
X120572080Y-70057194D01*
X120627287Y-70039802D01*
X120688172Y-70054420D01*
X120689391Y-70055071D01*
X120689393Y-70055073D01*
X120694166Y-70057624D01*
X120864588Y-70148717D01*
X120864590Y-70148717D01*
X120864593Y-70148719D01*
X121054696Y-70206386D01*
X121054695Y-70206386D01*
X121072421Y-70208131D01*
X121252397Y-70225858D01*
X121450098Y-70206386D01*
X121640201Y-70148719D01*
X121640205Y-70148717D01*
X121744037Y-70093218D01*
X121812439Y-70078976D01*
X121877683Y-70103976D01*
X121881155Y-70106723D01*
X121935672Y-70151464D01*
X121935675Y-70151466D01*
X122110869Y-70245109D01*
X122110871Y-70245109D01*
X122110874Y-70245111D01*
X122300977Y-70302778D01*
X122300976Y-70302778D01*
X122318702Y-70304523D01*
X122498678Y-70322250D01*
X122696379Y-70302778D01*
X122886482Y-70245111D01*
X123061682Y-70151465D01*
X123215246Y-70025438D01*
X123341273Y-69871874D01*
X123434919Y-69696674D01*
X123492586Y-69506571D01*
X123512058Y-69308870D01*
X123512057Y-69308869D01*
X123512655Y-69302808D01*
X123514840Y-69303023D01*
X123531743Y-69245461D01*
X123584547Y-69199706D01*
X123636058Y-69188500D01*
X130787711Y-69188500D01*
X130854750Y-69208185D01*
X130891519Y-69244678D01*
X131004276Y-69417265D01*
X131004284Y-69417276D01*
X131156756Y-69582902D01*
X131156760Y-69582906D01*
X131334424Y-69721189D01*
X131334429Y-69721191D01*
X131334431Y-69721193D01*
X131370930Y-69740946D01*
X131420520Y-69790165D01*
X131435628Y-69858382D01*
X131411457Y-69923937D01*
X131370930Y-69959054D01*
X131334431Y-69978806D01*
X131334422Y-69978812D01*
X131156761Y-70117092D01*
X131156756Y-70117097D01*
X131004284Y-70282723D01*
X131004276Y-70282734D01*
X130881140Y-70471207D01*
X130790703Y-70677385D01*
X130735436Y-70895628D01*
X130735434Y-70895640D01*
X130716844Y-71119994D01*
X130716844Y-71120005D01*
X130735435Y-71344364D01*
X130770605Y-71483248D01*
X130767980Y-71553068D01*
X130738080Y-71601369D01*
X129324270Y-73015181D01*
X129262947Y-73048666D01*
X129236589Y-73051500D01*
X121513905Y-73051500D01*
X121446866Y-73031815D01*
X121418052Y-73006165D01*
X121366568Y-72943431D01*
X121213005Y-72817405D01*
X121212998Y-72817401D01*
X121037808Y-72723760D01*
X120942752Y-72694925D01*
X120847701Y-72666092D01*
X120847699Y-72666091D01*
X120847701Y-72666091D01*
X120650000Y-72646620D01*
X120452300Y-72666091D01*
X120262191Y-72723760D01*
X120087001Y-72817401D01*
X120086994Y-72817405D01*
X119933431Y-72943431D01*
X119807405Y-73096994D01*
X119807401Y-73097001D01*
X119713760Y-73272191D01*
X119656091Y-73462300D01*
X119636620Y-73660000D01*
X119656091Y-73857699D01*
X119713760Y-74047808D01*
X119807401Y-74222998D01*
X119807405Y-74223005D01*
X119933431Y-74376567D01*
X119933432Y-74376568D01*
X120052563Y-74474336D01*
X120091897Y-74532081D01*
X120093768Y-74601926D01*
X120061579Y-74657870D01*
X119663173Y-75056276D01*
X119601850Y-75089761D01*
X119563338Y-75091998D01*
X119482576Y-75084044D01*
X119284876Y-75103515D01*
X119094767Y-75161184D01*
X118914199Y-75257700D01*
X118913161Y-75255759D01*
X118855912Y-75273670D01*
X118855216Y-75273478D01*
X118834019Y-75322220D01*
X118817512Y-75338586D01*
X118766008Y-75380854D01*
X118639981Y-75534418D01*
X118639979Y-75534422D01*
X118617195Y-75577048D01*
X118568232Y-75626892D01*
X118500094Y-75642352D01*
X118434415Y-75618520D01*
X118411984Y-75597259D01*
X118318566Y-75483429D01*
X118314261Y-75479124D01*
X118315951Y-75477433D01*
X118282566Y-75428413D01*
X118280702Y-75358568D01*
X118316895Y-75298803D01*
X118364570Y-75271656D01*
X118497804Y-75231241D01*
X118497808Y-75231239D01*
X118678377Y-75134724D01*
X118679420Y-75136676D01*
X118736592Y-75118754D01*
X118737340Y-75118959D01*
X118758601Y-75070149D01*
X118775061Y-75053837D01*
X118826568Y-75011568D01*
X118952595Y-74858004D01*
X119046241Y-74682804D01*
X119103908Y-74492701D01*
X119123380Y-74295000D01*
X119103908Y-74097299D01*
X119046241Y-73907196D01*
X119046239Y-73907193D01*
X119046239Y-73907191D01*
X118952598Y-73732001D01*
X118952594Y-73731994D01*
X118826568Y-73578431D01*
X118673005Y-73452405D01*
X118672998Y-73452401D01*
X118497808Y-73358760D01*
X118402752Y-73329925D01*
X118307701Y-73301092D01*
X118307699Y-73301091D01*
X118307701Y-73301091D01*
X118110000Y-73281620D01*
X117912300Y-73301091D01*
X117722191Y-73358760D01*
X117547001Y-73452401D01*
X117546994Y-73452405D01*
X117393431Y-73578431D01*
X117341948Y-73641165D01*
X117284203Y-73680499D01*
X117246095Y-73686500D01*
X115238411Y-73686500D01*
X115171372Y-73666815D01*
X115150730Y-73650181D01*
X108021919Y-66521370D01*
X107988434Y-66460047D01*
X107989395Y-66403248D01*
X108024561Y-66264380D01*
X108024563Y-66264372D01*
X108024563Y-66264371D01*
X108024564Y-66264368D01*
X108042562Y-66047159D01*
X108067715Y-65981979D01*
X108124117Y-65940741D01*
X108193860Y-65936543D01*
X108253819Y-65969723D01*
G37*
G04 #@! TD.AperFunction*
G04 #@! TA.AperFunction,Conductor*
G36*
X136902539Y-19270185D02*
G01*
X136948294Y-19322989D01*
X136959500Y-19374500D01*
X136959500Y-86358141D01*
X136959443Y-86361886D01*
X136941442Y-86957590D01*
X136940990Y-86965067D01*
X136887222Y-87556755D01*
X136886319Y-87564191D01*
X136796925Y-88151545D01*
X136795575Y-88158912D01*
X136670883Y-88739790D01*
X136669091Y-88747063D01*
X136509545Y-89319382D01*
X136507316Y-89326533D01*
X136313517Y-89888141D01*
X136310861Y-89895145D01*
X136083500Y-90444045D01*
X136080426Y-90450875D01*
X135820337Y-90985044D01*
X135816856Y-90991676D01*
X135524998Y-91509154D01*
X135521123Y-91515564D01*
X135198540Y-92014497D01*
X135194285Y-92020662D01*
X134842168Y-92499202D01*
X134837548Y-92505098D01*
X134457194Y-92961488D01*
X134452227Y-92967095D01*
X134044997Y-93399701D01*
X134039701Y-93404997D01*
X133607095Y-93812227D01*
X133601488Y-93817194D01*
X133145098Y-94197548D01*
X133139202Y-94202168D01*
X132660662Y-94554285D01*
X132654497Y-94558540D01*
X132155564Y-94881123D01*
X132149154Y-94884998D01*
X131631676Y-95176856D01*
X131625044Y-95180337D01*
X131090875Y-95440426D01*
X131084045Y-95443500D01*
X130535145Y-95670861D01*
X130528141Y-95673517D01*
X129966533Y-95867316D01*
X129959382Y-95869545D01*
X129387063Y-96029091D01*
X129379790Y-96030883D01*
X128798912Y-96155575D01*
X128791545Y-96156925D01*
X128204191Y-96246319D01*
X128196755Y-96247222D01*
X127605067Y-96300990D01*
X127597590Y-96301442D01*
X127001886Y-96319443D01*
X126998141Y-96319500D01*
X111761859Y-96319500D01*
X111758114Y-96319443D01*
X111162409Y-96301442D01*
X111154932Y-96300990D01*
X110563244Y-96247222D01*
X110555808Y-96246319D01*
X109968454Y-96156925D01*
X109961087Y-96155575D01*
X109380209Y-96030883D01*
X109372936Y-96029091D01*
X108800617Y-95869545D01*
X108793466Y-95867316D01*
X108231858Y-95673517D01*
X108224854Y-95670861D01*
X107675954Y-95443500D01*
X107669124Y-95440426D01*
X107134955Y-95180337D01*
X107128323Y-95176856D01*
X106610845Y-94884998D01*
X106604435Y-94881123D01*
X106105502Y-94558540D01*
X106099350Y-94554294D01*
X105620797Y-94202168D01*
X105614901Y-94197548D01*
X105158511Y-93817194D01*
X105152904Y-93812227D01*
X104720298Y-93404997D01*
X104715002Y-93399701D01*
X104364836Y-93027715D01*
X104307769Y-92967092D01*
X104302805Y-92961488D01*
X104166971Y-92798500D01*
X103922448Y-92505094D01*
X103917831Y-92499202D01*
X103565700Y-92020642D01*
X103561459Y-92014497D01*
X103544192Y-91987791D01*
X103476192Y-91882616D01*
X103238876Y-91515564D01*
X103235001Y-91509154D01*
X102943143Y-90991676D01*
X102939662Y-90985044D01*
X102845282Y-90791207D01*
X102679568Y-90450864D01*
X102676499Y-90444045D01*
X102654326Y-90390515D01*
X102449134Y-89895135D01*
X102446482Y-89888141D01*
X102252679Y-89326521D01*
X102250454Y-89319382D01*
X102196087Y-89124359D01*
X102090905Y-88747053D01*
X102089116Y-88739790D01*
X102075345Y-88675640D01*
X101964423Y-88158909D01*
X101963074Y-88151545D01*
X101949555Y-88062723D01*
X101873679Y-87564189D01*
X101872777Y-87556755D01*
X101867728Y-87501189D01*
X101819007Y-86965044D01*
X101818558Y-86957612D01*
X101800557Y-86361886D01*
X101800500Y-86358141D01*
X101800500Y-48259994D01*
X105316844Y-48259994D01*
X105316844Y-48260005D01*
X105335434Y-48484359D01*
X105335436Y-48484371D01*
X105390703Y-48702614D01*
X105481140Y-48908792D01*
X105604276Y-49097265D01*
X105604284Y-49097276D01*
X105756756Y-49262902D01*
X105756760Y-49262906D01*
X105934424Y-49401189D01*
X105934429Y-49401191D01*
X105934431Y-49401193D01*
X105970930Y-49420946D01*
X106020520Y-49470165D01*
X106035628Y-49538382D01*
X106011457Y-49603937D01*
X105970930Y-49639054D01*
X105934431Y-49658806D01*
X105934422Y-49658812D01*
X105756761Y-49797092D01*
X105756756Y-49797097D01*
X105604284Y-49962723D01*
X105604276Y-49962734D01*
X105481140Y-50151207D01*
X105390703Y-50357385D01*
X105335436Y-50575628D01*
X105335434Y-50575640D01*
X105316844Y-50799994D01*
X105316844Y-50800005D01*
X105335434Y-51024359D01*
X105335436Y-51024371D01*
X105390703Y-51242614D01*
X105481140Y-51448792D01*
X105604276Y-51637265D01*
X105604284Y-51637276D01*
X105756756Y-51802902D01*
X105756760Y-51802906D01*
X105934424Y-51941189D01*
X105934429Y-51941191D01*
X105934431Y-51941193D01*
X105970930Y-51960946D01*
X106020520Y-52010165D01*
X106035628Y-52078382D01*
X106011457Y-52143937D01*
X105970930Y-52179054D01*
X105934431Y-52198806D01*
X105934422Y-52198812D01*
X105756761Y-52337092D01*
X105756756Y-52337097D01*
X105604284Y-52502723D01*
X105604276Y-52502734D01*
X105481140Y-52691207D01*
X105390703Y-52897385D01*
X105335436Y-53115628D01*
X105335434Y-53115640D01*
X105316844Y-53339994D01*
X105316844Y-53340005D01*
X105335434Y-53564359D01*
X105335436Y-53564371D01*
X105390703Y-53782614D01*
X105481140Y-53988792D01*
X105604276Y-54177265D01*
X105604284Y-54177276D01*
X105756756Y-54342902D01*
X105756760Y-54342906D01*
X105934424Y-54481189D01*
X105934429Y-54481191D01*
X105934431Y-54481193D01*
X105970930Y-54500946D01*
X106020520Y-54550165D01*
X106035628Y-54618382D01*
X106011457Y-54683937D01*
X105970930Y-54719054D01*
X105934431Y-54738806D01*
X105934422Y-54738812D01*
X105756761Y-54877092D01*
X105756756Y-54877097D01*
X105604284Y-55042723D01*
X105604276Y-55042734D01*
X105481140Y-55231207D01*
X105390703Y-55437385D01*
X105335436Y-55655628D01*
X105335434Y-55655640D01*
X105316844Y-55879994D01*
X105316844Y-55880005D01*
X105335434Y-56104359D01*
X105335436Y-56104371D01*
X105390703Y-56322614D01*
X105481140Y-56528792D01*
X105604276Y-56717265D01*
X105604284Y-56717276D01*
X105756756Y-56882902D01*
X105756760Y-56882906D01*
X105934424Y-57021189D01*
X105934429Y-57021191D01*
X105934431Y-57021193D01*
X105970930Y-57040946D01*
X106020520Y-57090165D01*
X106035628Y-57158382D01*
X106011457Y-57223937D01*
X105970930Y-57259054D01*
X105934431Y-57278806D01*
X105934422Y-57278812D01*
X105756761Y-57417092D01*
X105756756Y-57417097D01*
X105604284Y-57582723D01*
X105604276Y-57582734D01*
X105481140Y-57771207D01*
X105390703Y-57977385D01*
X105335436Y-58195628D01*
X105335434Y-58195640D01*
X105316844Y-58419994D01*
X105316844Y-58420005D01*
X105335434Y-58644359D01*
X105335436Y-58644371D01*
X105390703Y-58862614D01*
X105481140Y-59068792D01*
X105604276Y-59257265D01*
X105604284Y-59257276D01*
X105756756Y-59422902D01*
X105756761Y-59422907D01*
X105809448Y-59463915D01*
X105934424Y-59561189D01*
X105934429Y-59561191D01*
X105934431Y-59561193D01*
X105970930Y-59580946D01*
X106020520Y-59630165D01*
X106035628Y-59698382D01*
X106011457Y-59763937D01*
X105970930Y-59799054D01*
X105934431Y-59818806D01*
X105934422Y-59818812D01*
X105756761Y-59957092D01*
X105756756Y-59957097D01*
X105604284Y-60122723D01*
X105604276Y-60122734D01*
X105481140Y-60311207D01*
X105390703Y-60517385D01*
X105335436Y-60735628D01*
X105335434Y-60735640D01*
X105316844Y-60959994D01*
X105316844Y-60960005D01*
X105335434Y-61184359D01*
X105335436Y-61184371D01*
X105390703Y-61402614D01*
X105481140Y-61608792D01*
X105604276Y-61797265D01*
X105604284Y-61797276D01*
X105672238Y-61871092D01*
X105756760Y-61962906D01*
X105934424Y-62101189D01*
X105934429Y-62101191D01*
X105934431Y-62101193D01*
X105970930Y-62120946D01*
X106020520Y-62170165D01*
X106035628Y-62238382D01*
X106011457Y-62303937D01*
X105970930Y-62339054D01*
X105934431Y-62358806D01*
X105934422Y-62358812D01*
X105756761Y-62497092D01*
X105756756Y-62497097D01*
X105604284Y-62662723D01*
X105604276Y-62662734D01*
X105481140Y-62851207D01*
X105390703Y-63057385D01*
X105335436Y-63275628D01*
X105335434Y-63275640D01*
X105316844Y-63499994D01*
X105316844Y-63500005D01*
X105335434Y-63724359D01*
X105335436Y-63724371D01*
X105390703Y-63942614D01*
X105481140Y-64148792D01*
X105604276Y-64337265D01*
X105604284Y-64337276D01*
X105756756Y-64502902D01*
X105756760Y-64502906D01*
X105934424Y-64641189D01*
X105934429Y-64641191D01*
X105934431Y-64641193D01*
X105970930Y-64660946D01*
X106020520Y-64710165D01*
X106035628Y-64778382D01*
X106011457Y-64843937D01*
X105970930Y-64879054D01*
X105934431Y-64898806D01*
X105934422Y-64898812D01*
X105756761Y-65037092D01*
X105756756Y-65037097D01*
X105604284Y-65202723D01*
X105604276Y-65202734D01*
X105481140Y-65391207D01*
X105390703Y-65597385D01*
X105335436Y-65815628D01*
X105335434Y-65815640D01*
X105316844Y-66039994D01*
X105316844Y-66040005D01*
X105335434Y-66264359D01*
X105335436Y-66264371D01*
X105390703Y-66482614D01*
X105481140Y-66688792D01*
X105604276Y-66877265D01*
X105604284Y-66877276D01*
X105756756Y-67042902D01*
X105756761Y-67042907D01*
X105764113Y-67048629D01*
X105934424Y-67181189D01*
X105934429Y-67181191D01*
X105934431Y-67181193D01*
X105970930Y-67200946D01*
X106020520Y-67250165D01*
X106035628Y-67318382D01*
X106011457Y-67383937D01*
X105970930Y-67419054D01*
X105934431Y-67438806D01*
X105934422Y-67438812D01*
X105756761Y-67577092D01*
X105756756Y-67577097D01*
X105604284Y-67742723D01*
X105604276Y-67742734D01*
X105481140Y-67931207D01*
X105390703Y-68137385D01*
X105335436Y-68355628D01*
X105335434Y-68355640D01*
X105316844Y-68579994D01*
X105316844Y-68580005D01*
X105335434Y-68804359D01*
X105335436Y-68804371D01*
X105390703Y-69022614D01*
X105481140Y-69228792D01*
X105604276Y-69417265D01*
X105604284Y-69417276D01*
X105756756Y-69582902D01*
X105756760Y-69582906D01*
X105934424Y-69721189D01*
X105934429Y-69721191D01*
X105934431Y-69721193D01*
X105970930Y-69740946D01*
X106020520Y-69790165D01*
X106035628Y-69858382D01*
X106011457Y-69923937D01*
X105970930Y-69959054D01*
X105934431Y-69978806D01*
X105934422Y-69978812D01*
X105756761Y-70117092D01*
X105756756Y-70117097D01*
X105604284Y-70282723D01*
X105604276Y-70282734D01*
X105481140Y-70471207D01*
X105390703Y-70677385D01*
X105335436Y-70895628D01*
X105335434Y-70895640D01*
X105316844Y-71119994D01*
X105316844Y-71120005D01*
X105335434Y-71344359D01*
X105335436Y-71344371D01*
X105390703Y-71562614D01*
X105481140Y-71768792D01*
X105604276Y-71957265D01*
X105604284Y-71957276D01*
X105756756Y-72122902D01*
X105756760Y-72122906D01*
X105934424Y-72261189D01*
X105934429Y-72261191D01*
X105934431Y-72261193D01*
X105970930Y-72280946D01*
X106020520Y-72330165D01*
X106035628Y-72398382D01*
X106011457Y-72463937D01*
X105970930Y-72499054D01*
X105934431Y-72518806D01*
X105934422Y-72518812D01*
X105756761Y-72657092D01*
X105756756Y-72657097D01*
X105604284Y-72822723D01*
X105604276Y-72822734D01*
X105481140Y-73011207D01*
X105390703Y-73217385D01*
X105335436Y-73435628D01*
X105335434Y-73435640D01*
X105316844Y-73659994D01*
X105316844Y-73660005D01*
X105335434Y-73884359D01*
X105335436Y-73884371D01*
X105390703Y-74102614D01*
X105481140Y-74308792D01*
X105604276Y-74497265D01*
X105604284Y-74497276D01*
X105700623Y-74601926D01*
X105756760Y-74662906D01*
X105934424Y-74801189D01*
X105934429Y-74801191D01*
X105934431Y-74801193D01*
X105970930Y-74820946D01*
X106020520Y-74870165D01*
X106035628Y-74938382D01*
X106011457Y-75003937D01*
X105970930Y-75039054D01*
X105934431Y-75058806D01*
X105934422Y-75058812D01*
X105756761Y-75197092D01*
X105756756Y-75197097D01*
X105604284Y-75362723D01*
X105604276Y-75362734D01*
X105481140Y-75551207D01*
X105390703Y-75757385D01*
X105335436Y-75975628D01*
X105335434Y-75975640D01*
X105316844Y-76199994D01*
X105316844Y-76200005D01*
X105335434Y-76424359D01*
X105335436Y-76424371D01*
X105390703Y-76642614D01*
X105481140Y-76848792D01*
X105604276Y-77037265D01*
X105604284Y-77037276D01*
X105756756Y-77202902D01*
X105756761Y-77202907D01*
X105770217Y-77213380D01*
X105934424Y-77341189D01*
X105934429Y-77341191D01*
X105934431Y-77341193D01*
X105970930Y-77360946D01*
X106020520Y-77410165D01*
X106035628Y-77478382D01*
X106011457Y-77543937D01*
X105970930Y-77579054D01*
X105934431Y-77598806D01*
X105934422Y-77598812D01*
X105756761Y-77737092D01*
X105756756Y-77737097D01*
X105604284Y-77902723D01*
X105604276Y-77902734D01*
X105481140Y-78091207D01*
X105390703Y-78297385D01*
X105335436Y-78515628D01*
X105335434Y-78515640D01*
X105316844Y-78739994D01*
X105316844Y-78740005D01*
X105335434Y-78964359D01*
X105335436Y-78964371D01*
X105390703Y-79182614D01*
X105481140Y-79388792D01*
X105604276Y-79577265D01*
X105604284Y-79577276D01*
X105703499Y-79685050D01*
X105756760Y-79742906D01*
X105934424Y-79881189D01*
X105934429Y-79881191D01*
X105934431Y-79881193D01*
X105970930Y-79900946D01*
X106020520Y-79950165D01*
X106035628Y-80018382D01*
X106011457Y-80083937D01*
X105970930Y-80119054D01*
X105934431Y-80138806D01*
X105934422Y-80138812D01*
X105756761Y-80277092D01*
X105756756Y-80277097D01*
X105604284Y-80442723D01*
X105604276Y-80442734D01*
X105481140Y-80631207D01*
X105390703Y-80837385D01*
X105335436Y-81055628D01*
X105335434Y-81055640D01*
X105316844Y-81279994D01*
X105316844Y-81280005D01*
X105335434Y-81504359D01*
X105335436Y-81504371D01*
X105390703Y-81722614D01*
X105481140Y-81928792D01*
X105604276Y-82117265D01*
X105604284Y-82117276D01*
X105756756Y-82282902D01*
X105756760Y-82282906D01*
X105934424Y-82421189D01*
X105970930Y-82440945D01*
X105977695Y-82444606D01*
X106027286Y-82493825D01*
X106042394Y-82562042D01*
X106018224Y-82627597D01*
X105989802Y-82655236D01*
X105808922Y-82781890D01*
X105808920Y-82781891D01*
X105641891Y-82948920D01*
X105641886Y-82948926D01*
X105506400Y-83142420D01*
X105506399Y-83142422D01*
X105406570Y-83356507D01*
X105406567Y-83356513D01*
X105349364Y-83569999D01*
X105349364Y-83570000D01*
X106246988Y-83570000D01*
X106214075Y-83627007D01*
X106180000Y-83754174D01*
X106180000Y-83885826D01*
X106214075Y-84012993D01*
X106246988Y-84070000D01*
X105349364Y-84070000D01*
X105406567Y-84283486D01*
X105406570Y-84283492D01*
X105506399Y-84497578D01*
X105641894Y-84691082D01*
X105808917Y-84858105D01*
X105989802Y-84984763D01*
X106033427Y-85039340D01*
X106040619Y-85108839D01*
X106009097Y-85171193D01*
X105977697Y-85195392D01*
X105934427Y-85218809D01*
X105934422Y-85218812D01*
X105756761Y-85357092D01*
X105756756Y-85357097D01*
X105604284Y-85522723D01*
X105604276Y-85522734D01*
X105481140Y-85711207D01*
X105390703Y-85917385D01*
X105335436Y-86135628D01*
X105335434Y-86135640D01*
X105316844Y-86359994D01*
X105316844Y-86360005D01*
X105335434Y-86584359D01*
X105335436Y-86584371D01*
X105390703Y-86802614D01*
X105481140Y-87008792D01*
X105604276Y-87197265D01*
X105604284Y-87197276D01*
X105756756Y-87362902D01*
X105756760Y-87362906D01*
X105934424Y-87501189D01*
X105934429Y-87501191D01*
X105934431Y-87501193D01*
X105970930Y-87520946D01*
X106020520Y-87570165D01*
X106035628Y-87638382D01*
X106011457Y-87703937D01*
X105970930Y-87739054D01*
X105934431Y-87758806D01*
X105934422Y-87758812D01*
X105756761Y-87897092D01*
X105756756Y-87897097D01*
X105604284Y-88062723D01*
X105604276Y-88062734D01*
X105481140Y-88251207D01*
X105390703Y-88457385D01*
X105335436Y-88675628D01*
X105335434Y-88675640D01*
X105316844Y-88899994D01*
X105316844Y-88900005D01*
X105335434Y-89124359D01*
X105335436Y-89124371D01*
X105390703Y-89342614D01*
X105481140Y-89548792D01*
X105604276Y-89737265D01*
X105604284Y-89737276D01*
X105749489Y-89895008D01*
X105780412Y-89957662D01*
X105772552Y-90027088D01*
X105728405Y-90081244D01*
X105701596Y-90095172D01*
X105583794Y-90139111D01*
X105466739Y-90226739D01*
X105379111Y-90343795D01*
X105328011Y-90480795D01*
X105328011Y-90480797D01*
X105321500Y-90541345D01*
X105321500Y-92338654D01*
X105328011Y-92399202D01*
X105328011Y-92399204D01*
X105366756Y-92503079D01*
X105379111Y-92536204D01*
X105466739Y-92653261D01*
X105583796Y-92740889D01*
X105720799Y-92791989D01*
X105748050Y-92794918D01*
X105781345Y-92798499D01*
X105781362Y-92798500D01*
X107578638Y-92798500D01*
X107578654Y-92798499D01*
X107605692Y-92795591D01*
X107639201Y-92791989D01*
X107776204Y-92740889D01*
X107817467Y-92710000D01*
X116634491Y-92710000D01*
X116654508Y-93040929D01*
X116654508Y-93040934D01*
X116654509Y-93040935D01*
X116714271Y-93367043D01*
X116788510Y-93605288D01*
X116812904Y-93683570D01*
X116948970Y-93985897D01*
X116948976Y-93985907D01*
X117120483Y-94269617D01*
X117120488Y-94269624D01*
X117324959Y-94530612D01*
X117559387Y-94765040D01*
X117559391Y-94765043D01*
X117820373Y-94969510D01*
X117820375Y-94969511D01*
X117820382Y-94969516D01*
X117919584Y-95029485D01*
X118104098Y-95141027D01*
X118406429Y-95277096D01*
X118722957Y-95375729D01*
X119049065Y-95435491D01*
X119380000Y-95455509D01*
X119710935Y-95435491D01*
X120037043Y-95375729D01*
X120353571Y-95277096D01*
X120655902Y-95141027D01*
X120939627Y-94969510D01*
X121200609Y-94765043D01*
X121435043Y-94530609D01*
X121639510Y-94269627D01*
X121811027Y-93985902D01*
X121947096Y-93683571D01*
X122045729Y-93367043D01*
X122105491Y-93040935D01*
X122125509Y-92710000D01*
X122105491Y-92379065D01*
X122045729Y-92052957D01*
X121947096Y-91736429D01*
X121811027Y-91434098D01*
X121678965Y-91215640D01*
X121639516Y-91150382D01*
X121639511Y-91150375D01*
X121639510Y-91150373D01*
X121435043Y-90889391D01*
X121435040Y-90889387D01*
X121200612Y-90654959D01*
X120939624Y-90450488D01*
X120939617Y-90450483D01*
X120655907Y-90278976D01*
X120655897Y-90278970D01*
X120413775Y-90170000D01*
X120353571Y-90142904D01*
X120037043Y-90044271D01*
X119710935Y-89984509D01*
X119710934Y-89984508D01*
X119710929Y-89984508D01*
X119380000Y-89964491D01*
X119049070Y-89984508D01*
X118722956Y-90044271D01*
X118406429Y-90142904D01*
X118104102Y-90278970D01*
X118104092Y-90278976D01*
X117820382Y-90450483D01*
X117820375Y-90450488D01*
X117559387Y-90654959D01*
X117324959Y-90889387D01*
X117120488Y-91150375D01*
X117120483Y-91150382D01*
X116948976Y-91434092D01*
X116948970Y-91434102D01*
X116812904Y-91736429D01*
X116714271Y-92052956D01*
X116654508Y-92379070D01*
X116634491Y-92710000D01*
X107817467Y-92710000D01*
X107893261Y-92653261D01*
X107980889Y-92536204D01*
X108031989Y-92399201D01*
X108035591Y-92365692D01*
X108038499Y-92338654D01*
X108038500Y-92338637D01*
X108038500Y-90541362D01*
X108038499Y-90541345D01*
X108035157Y-90510270D01*
X108031989Y-90480799D01*
X108020683Y-90450488D01*
X107990849Y-90370500D01*
X107980889Y-90343796D01*
X107893261Y-90226739D01*
X107776204Y-90139111D01*
X107658404Y-90095172D01*
X107602471Y-90053300D01*
X107578055Y-89987835D01*
X107592908Y-89919562D01*
X107610504Y-89895014D01*
X107755722Y-89737268D01*
X107878860Y-89548791D01*
X107969296Y-89342616D01*
X108024564Y-89124368D01*
X108043156Y-88900000D01*
X108029880Y-88739790D01*
X108024565Y-88675640D01*
X108024563Y-88675628D01*
X107969296Y-88457385D01*
X107878859Y-88251207D01*
X107755723Y-88062734D01*
X107755715Y-88062723D01*
X107603243Y-87897097D01*
X107603238Y-87897092D01*
X107425577Y-87758812D01*
X107425578Y-87758812D01*
X107425576Y-87758811D01*
X107389070Y-87739055D01*
X107339479Y-87689836D01*
X107324371Y-87621619D01*
X107348541Y-87556064D01*
X107389070Y-87520945D01*
X107389084Y-87520936D01*
X107425576Y-87501189D01*
X107603240Y-87362906D01*
X107755722Y-87197268D01*
X107878860Y-87008791D01*
X107969296Y-86802616D01*
X108024564Y-86584368D01*
X108043156Y-86360000D01*
X108039851Y-86320118D01*
X108024565Y-86135640D01*
X108024563Y-86135628D01*
X107969296Y-85917385D01*
X107878859Y-85711207D01*
X107755723Y-85522734D01*
X107755715Y-85522723D01*
X107603243Y-85357097D01*
X107603238Y-85357092D01*
X107425577Y-85218812D01*
X107425577Y-85218811D01*
X107382303Y-85195393D01*
X107332713Y-85146173D01*
X107317605Y-85077957D01*
X107341775Y-85012401D01*
X107370198Y-84984763D01*
X107551079Y-84858108D01*
X107718105Y-84691082D01*
X107853600Y-84497578D01*
X107953429Y-84283492D01*
X107953432Y-84283486D01*
X108010636Y-84070000D01*
X107113012Y-84070000D01*
X107145925Y-84012993D01*
X107180000Y-83885826D01*
X107180000Y-83820000D01*
X124970620Y-83820000D01*
X124990091Y-84017699D01*
X125047760Y-84207808D01*
X125141401Y-84382998D01*
X125141405Y-84383005D01*
X125267431Y-84536568D01*
X125420994Y-84662594D01*
X125421001Y-84662598D01*
X125596191Y-84756239D01*
X125596193Y-84756239D01*
X125596196Y-84756241D01*
X125786299Y-84813908D01*
X125786298Y-84813908D01*
X125804024Y-84815653D01*
X125984000Y-84833380D01*
X126181701Y-84813908D01*
X126371804Y-84756241D01*
X126547004Y-84662595D01*
X126700568Y-84536568D01*
X126826595Y-84383004D01*
X126882782Y-84277884D01*
X126920239Y-84207808D01*
X126920239Y-84207807D01*
X126920241Y-84207804D01*
X126977908Y-84017701D01*
X126997380Y-83820000D01*
X126977908Y-83622299D01*
X126920241Y-83432196D01*
X126920239Y-83432193D01*
X126920239Y-83432191D01*
X126826598Y-83257001D01*
X126826594Y-83256994D01*
X126700570Y-83103433D01*
X126637834Y-83051946D01*
X126598500Y-82994200D01*
X126592500Y-82956094D01*
X126592500Y-82599410D01*
X126612185Y-82532371D01*
X126628815Y-82511733D01*
X127420444Y-81720103D01*
X127481765Y-81686620D01*
X127520272Y-81684383D01*
X127601041Y-81692339D01*
X127798742Y-81672867D01*
X127988845Y-81615200D01*
X128164045Y-81521554D01*
X128317609Y-81395527D01*
X128443636Y-81241963D01*
X128537282Y-81066763D01*
X128594949Y-80876660D01*
X128614421Y-80678959D01*
X128594949Y-80481258D01*
X128537282Y-80291155D01*
X128537280Y-80291152D01*
X128537280Y-80291150D01*
X128443639Y-80115960D01*
X128443635Y-80115953D01*
X128317609Y-79962390D01*
X128164046Y-79836364D01*
X128164039Y-79836360D01*
X127988849Y-79742719D01*
X127893793Y-79713884D01*
X127798742Y-79685051D01*
X127798740Y-79685050D01*
X127798742Y-79685050D01*
X127601041Y-79665579D01*
X127403341Y-79685050D01*
X127213232Y-79742719D01*
X127038042Y-79836360D01*
X127038035Y-79836364D01*
X126884472Y-79962390D01*
X126758446Y-80115953D01*
X126758442Y-80115960D01*
X126664801Y-80291150D01*
X126607132Y-80481259D01*
X126587661Y-80678959D01*
X126595615Y-80759721D01*
X126582596Y-80828367D01*
X126559893Y-80859556D01*
X125497080Y-81922370D01*
X125497076Y-81922376D01*
X125416967Y-82061126D01*
X125416968Y-82061126D01*
X125416968Y-82061127D01*
X125375500Y-82215889D01*
X125375500Y-82956094D01*
X125355815Y-83023133D01*
X125330166Y-83051946D01*
X125267429Y-83103433D01*
X125141405Y-83256994D01*
X125141401Y-83257001D01*
X125047760Y-83432191D01*
X124990091Y-83622300D01*
X124970620Y-83820000D01*
X107180000Y-83820000D01*
X107180000Y-83754174D01*
X107145925Y-83627007D01*
X107113012Y-83570000D01*
X108010636Y-83570000D01*
X108010635Y-83569999D01*
X107953432Y-83356513D01*
X107953429Y-83356507D01*
X107853600Y-83142422D01*
X107853599Y-83142420D01*
X107718113Y-82948926D01*
X107718108Y-82948920D01*
X107551082Y-82781894D01*
X107370197Y-82655236D01*
X107326572Y-82600659D01*
X107319380Y-82531160D01*
X107350902Y-82468806D01*
X107382300Y-82444608D01*
X107425576Y-82421189D01*
X107603240Y-82282906D01*
X107755722Y-82117268D01*
X107878860Y-81928791D01*
X107969296Y-81722616D01*
X108024564Y-81504368D01*
X108043156Y-81280000D01*
X108040004Y-81241964D01*
X108024565Y-81055640D01*
X108024563Y-81055628D01*
X107979242Y-80876660D01*
X107969296Y-80837384D01*
X107878860Y-80631209D01*
X107755722Y-80442732D01*
X107755719Y-80442729D01*
X107755715Y-80442723D01*
X107603243Y-80277097D01*
X107603238Y-80277092D01*
X107425577Y-80138812D01*
X107425578Y-80138812D01*
X107425576Y-80138811D01*
X107389070Y-80119055D01*
X107339479Y-80069836D01*
X107324371Y-80001619D01*
X107348541Y-79936064D01*
X107389070Y-79900945D01*
X107389084Y-79900936D01*
X107425576Y-79881189D01*
X107603240Y-79742906D01*
X107755722Y-79577268D01*
X107878860Y-79388791D01*
X107969296Y-79182616D01*
X108024564Y-78964368D01*
X108043156Y-78740000D01*
X108024564Y-78515632D01*
X107969296Y-78297384D01*
X107878860Y-78091209D01*
X107755722Y-77902732D01*
X107755719Y-77902729D01*
X107755715Y-77902723D01*
X107603243Y-77737097D01*
X107603238Y-77737092D01*
X107425577Y-77598812D01*
X107425578Y-77598812D01*
X107425576Y-77598811D01*
X107389070Y-77579055D01*
X107339479Y-77529836D01*
X107324371Y-77461619D01*
X107348541Y-77396064D01*
X107389070Y-77360945D01*
X107389084Y-77360936D01*
X107425576Y-77341189D01*
X107603240Y-77202906D01*
X107705952Y-77091332D01*
X107755715Y-77037276D01*
X107755716Y-77037274D01*
X107755722Y-77037268D01*
X107878860Y-76848791D01*
X107969296Y-76642616D01*
X108024564Y-76424368D01*
X108043156Y-76200000D01*
X108034656Y-76097425D01*
X108024565Y-75975640D01*
X108024563Y-75975628D01*
X107969296Y-75757385D01*
X107918838Y-75642352D01*
X107878860Y-75551209D01*
X107837684Y-75488185D01*
X107767563Y-75380856D01*
X107755722Y-75362732D01*
X107755719Y-75362729D01*
X107755715Y-75362723D01*
X107603243Y-75197097D01*
X107603238Y-75197092D01*
X107440143Y-75070149D01*
X107425576Y-75058811D01*
X107389070Y-75039055D01*
X107339479Y-74989836D01*
X107324371Y-74921619D01*
X107348541Y-74856064D01*
X107389070Y-74820945D01*
X107389084Y-74820936D01*
X107425576Y-74801189D01*
X107603240Y-74662906D01*
X107755722Y-74497268D01*
X107878860Y-74308791D01*
X107969296Y-74102616D01*
X108024564Y-73884368D01*
X108037190Y-73731996D01*
X108043156Y-73660005D01*
X108043156Y-73660000D01*
X108042513Y-73652244D01*
X108056592Y-73583808D01*
X108105435Y-73533847D01*
X108173536Y-73518224D01*
X108239272Y-73541899D01*
X108253769Y-73554318D01*
X111386373Y-76686922D01*
X111525127Y-76767032D01*
X111592682Y-76785133D01*
X111679889Y-76808500D01*
X111679890Y-76808500D01*
X111840110Y-76808500D01*
X116738095Y-76808500D01*
X116805134Y-76828185D01*
X116833948Y-76853835D01*
X116885431Y-76916568D01*
X117038994Y-77042594D01*
X117039001Y-77042598D01*
X117214191Y-77136239D01*
X117214193Y-77136239D01*
X117214196Y-77136241D01*
X117404299Y-77193908D01*
X117404298Y-77193908D01*
X117422024Y-77195653D01*
X117602000Y-77213380D01*
X117799701Y-77193908D01*
X117989804Y-77136241D01*
X118037394Y-77110804D01*
X118164998Y-77042598D01*
X118165004Y-77042595D01*
X118318568Y-76916568D01*
X118444595Y-76763004D01*
X118467379Y-76720378D01*
X118516340Y-76670533D01*
X118584478Y-76655071D01*
X118650158Y-76678901D01*
X118672591Y-76700164D01*
X118766007Y-76813992D01*
X118919570Y-76940018D01*
X118919577Y-76940022D01*
X119094767Y-77033663D01*
X119094769Y-77033663D01*
X119094772Y-77033665D01*
X119284875Y-77091332D01*
X119284874Y-77091332D01*
X119302600Y-77093077D01*
X119482576Y-77110804D01*
X119680277Y-77091332D01*
X119870380Y-77033665D01*
X120045580Y-76940019D01*
X120199144Y-76813992D01*
X120325171Y-76660428D01*
X120418817Y-76485228D01*
X120476484Y-76295125D01*
X120495956Y-76097424D01*
X120488000Y-76016658D01*
X120501018Y-75948016D01*
X120523719Y-75916828D01*
X120935730Y-75504819D01*
X120997053Y-75471334D01*
X121023411Y-75468500D01*
X130727624Y-75468500D01*
X130794663Y-75488185D01*
X130840418Y-75540989D01*
X130850362Y-75610147D01*
X130841180Y-75642308D01*
X130824516Y-75680298D01*
X130790703Y-75757385D01*
X130735436Y-75975628D01*
X130735434Y-75975640D01*
X130716844Y-76199994D01*
X130716844Y-76200005D01*
X130735434Y-76424359D01*
X130735436Y-76424371D01*
X130790703Y-76642614D01*
X130881140Y-76848792D01*
X131004276Y-77037265D01*
X131004284Y-77037276D01*
X131156756Y-77202902D01*
X131156761Y-77202907D01*
X131170217Y-77213380D01*
X131334424Y-77341189D01*
X131334429Y-77341191D01*
X131334431Y-77341193D01*
X131370930Y-77360946D01*
X131420520Y-77410165D01*
X131435628Y-77478382D01*
X131411457Y-77543937D01*
X131370930Y-77579054D01*
X131334431Y-77598806D01*
X131334422Y-77598812D01*
X131156761Y-77737092D01*
X131156756Y-77737097D01*
X131004284Y-77902723D01*
X131004276Y-77902734D01*
X130881140Y-78091207D01*
X130790703Y-78297385D01*
X130735436Y-78515628D01*
X130735434Y-78515640D01*
X130716844Y-78739994D01*
X130716844Y-78740005D01*
X130735434Y-78964359D01*
X130735436Y-78964371D01*
X130790703Y-79182614D01*
X130881140Y-79388792D01*
X131004276Y-79577265D01*
X131004284Y-79577276D01*
X131103499Y-79685050D01*
X131156760Y-79742906D01*
X131334424Y-79881189D01*
X131334429Y-79881191D01*
X131334431Y-79881193D01*
X131370930Y-79900946D01*
X131420520Y-79950165D01*
X131435628Y-80018382D01*
X131411457Y-80083937D01*
X131370930Y-80119054D01*
X131334431Y-80138806D01*
X131334422Y-80138812D01*
X131156761Y-80277092D01*
X131156756Y-80277097D01*
X131004284Y-80442723D01*
X131004276Y-80442734D01*
X130881140Y-80631207D01*
X130790703Y-80837385D01*
X130735436Y-81055628D01*
X130735434Y-81055640D01*
X130716844Y-81279994D01*
X130716844Y-81280005D01*
X130735434Y-81504359D01*
X130735436Y-81504371D01*
X130790703Y-81722614D01*
X130881140Y-81928792D01*
X131004276Y-82117265D01*
X131004284Y-82117276D01*
X131156756Y-82282902D01*
X131156760Y-82282906D01*
X131334424Y-82421189D01*
X131334429Y-82421191D01*
X131334431Y-82421193D01*
X131370930Y-82440946D01*
X131420520Y-82490165D01*
X131435628Y-82558382D01*
X131411457Y-82623937D01*
X131370930Y-82659054D01*
X131334431Y-82678806D01*
X131334422Y-82678812D01*
X131156761Y-82817092D01*
X131156756Y-82817097D01*
X131004284Y-82982723D01*
X131004276Y-82982734D01*
X130881140Y-83171207D01*
X130790703Y-83377385D01*
X130735436Y-83595628D01*
X130735434Y-83595640D01*
X130716844Y-83819994D01*
X130716844Y-83820005D01*
X130735434Y-84044359D01*
X130735436Y-84044371D01*
X130790703Y-84262614D01*
X130881140Y-84468792D01*
X131004276Y-84657265D01*
X131004284Y-84657276D01*
X131156756Y-84822902D01*
X131156761Y-84822907D01*
X131170217Y-84833380D01*
X131334424Y-84961189D01*
X131334429Y-84961191D01*
X131334431Y-84961193D01*
X131370930Y-84980946D01*
X131420520Y-85030165D01*
X131435628Y-85098382D01*
X131411457Y-85163937D01*
X131370930Y-85199054D01*
X131334431Y-85218806D01*
X131334422Y-85218812D01*
X131156761Y-85357092D01*
X131156756Y-85357097D01*
X131004284Y-85522723D01*
X131004276Y-85522734D01*
X130881140Y-85711207D01*
X130790703Y-85917385D01*
X130735436Y-86135628D01*
X130735434Y-86135640D01*
X130716844Y-86359994D01*
X130716844Y-86360005D01*
X130735434Y-86584359D01*
X130735436Y-86584371D01*
X130790703Y-86802614D01*
X130881140Y-87008792D01*
X131004276Y-87197265D01*
X131004284Y-87197276D01*
X131156756Y-87362902D01*
X131156760Y-87362906D01*
X131334424Y-87501189D01*
X131334429Y-87501191D01*
X131334431Y-87501193D01*
X131370930Y-87520946D01*
X131420520Y-87570165D01*
X131435628Y-87638382D01*
X131411457Y-87703937D01*
X131370930Y-87739054D01*
X131334431Y-87758806D01*
X131334422Y-87758812D01*
X131156761Y-87897092D01*
X131156756Y-87897097D01*
X131004284Y-88062723D01*
X131004276Y-88062734D01*
X130881140Y-88251207D01*
X130790703Y-88457385D01*
X130735436Y-88675628D01*
X130735434Y-88675640D01*
X130716844Y-88899994D01*
X130716844Y-88900005D01*
X130735434Y-89124359D01*
X130735436Y-89124371D01*
X130790703Y-89342614D01*
X130881140Y-89548792D01*
X131004276Y-89737265D01*
X131004284Y-89737276D01*
X131146432Y-89891687D01*
X131156760Y-89902906D01*
X131334424Y-90041189D01*
X131334429Y-90041191D01*
X131334431Y-90041193D01*
X131370930Y-90060946D01*
X131420520Y-90110165D01*
X131435628Y-90178382D01*
X131411457Y-90243937D01*
X131370930Y-90279054D01*
X131334431Y-90298806D01*
X131334422Y-90298812D01*
X131156761Y-90437092D01*
X131156756Y-90437097D01*
X131004284Y-90602723D01*
X131004276Y-90602734D01*
X130881140Y-90791207D01*
X130790703Y-90997385D01*
X130735436Y-91215628D01*
X130735434Y-91215640D01*
X130716844Y-91439994D01*
X130716844Y-91440005D01*
X130735434Y-91664359D01*
X130735436Y-91664371D01*
X130790703Y-91882614D01*
X130881140Y-92088792D01*
X131004276Y-92277265D01*
X131004284Y-92277276D01*
X131156756Y-92442902D01*
X131156760Y-92442906D01*
X131334424Y-92581189D01*
X131334425Y-92581189D01*
X131334427Y-92581191D01*
X131461135Y-92649761D01*
X131532426Y-92688342D01*
X131745365Y-92761444D01*
X131967431Y-92798500D01*
X132192569Y-92798500D01*
X132414635Y-92761444D01*
X132627574Y-92688342D01*
X132825576Y-92581189D01*
X133003240Y-92442906D01*
X133155722Y-92277268D01*
X133278860Y-92088791D01*
X133369296Y-91882616D01*
X133424564Y-91664368D01*
X133434849Y-91540250D01*
X133443156Y-91440005D01*
X133443156Y-91439994D01*
X133424565Y-91215640D01*
X133424563Y-91215628D01*
X133369296Y-90997385D01*
X133365359Y-90988410D01*
X133278860Y-90791209D01*
X133155722Y-90602732D01*
X133155719Y-90602729D01*
X133155715Y-90602723D01*
X133003243Y-90437097D01*
X133003238Y-90437092D01*
X132825577Y-90298812D01*
X132825578Y-90298812D01*
X132825576Y-90298811D01*
X132789070Y-90279055D01*
X132739479Y-90229836D01*
X132724371Y-90161619D01*
X132748541Y-90096064D01*
X132789070Y-90060945D01*
X132789084Y-90060936D01*
X132825576Y-90041189D01*
X133003240Y-89902906D01*
X133155722Y-89737268D01*
X133278860Y-89548791D01*
X133369296Y-89342616D01*
X133424564Y-89124368D01*
X133443156Y-88900000D01*
X133429880Y-88739790D01*
X133424565Y-88675640D01*
X133424563Y-88675628D01*
X133369296Y-88457385D01*
X133278859Y-88251207D01*
X133155723Y-88062734D01*
X133155715Y-88062723D01*
X133003243Y-87897097D01*
X133003238Y-87897092D01*
X132825577Y-87758812D01*
X132825578Y-87758812D01*
X132825576Y-87758811D01*
X132789070Y-87739055D01*
X132739479Y-87689836D01*
X132724371Y-87621619D01*
X132748541Y-87556064D01*
X132789070Y-87520945D01*
X132789084Y-87520936D01*
X132825576Y-87501189D01*
X133003240Y-87362906D01*
X133155722Y-87197268D01*
X133278860Y-87008791D01*
X133369296Y-86802616D01*
X133424564Y-86584368D01*
X133443156Y-86360000D01*
X133439851Y-86320118D01*
X133424565Y-86135640D01*
X133424563Y-86135628D01*
X133369296Y-85917385D01*
X133278859Y-85711207D01*
X133155723Y-85522734D01*
X133155715Y-85522723D01*
X133003243Y-85357097D01*
X133003238Y-85357092D01*
X132825577Y-85218812D01*
X132825578Y-85218812D01*
X132825576Y-85218811D01*
X132789070Y-85199055D01*
X132739479Y-85149836D01*
X132724371Y-85081619D01*
X132748541Y-85016064D01*
X132789070Y-84980945D01*
X132789084Y-84980936D01*
X132825576Y-84961189D01*
X133003240Y-84822906D01*
X133124594Y-84691082D01*
X133155715Y-84657276D01*
X133155716Y-84657274D01*
X133155722Y-84657268D01*
X133278860Y-84468791D01*
X133369296Y-84262616D01*
X133424564Y-84044368D01*
X133427164Y-84012993D01*
X133443156Y-83820005D01*
X133443156Y-83819994D01*
X133424565Y-83595640D01*
X133424563Y-83595628D01*
X133369296Y-83377385D01*
X133360138Y-83356507D01*
X133278860Y-83171209D01*
X133155722Y-82982732D01*
X133155719Y-82982729D01*
X133155715Y-82982723D01*
X133003243Y-82817097D01*
X133003238Y-82817092D01*
X132825577Y-82678812D01*
X132825578Y-82678812D01*
X132825576Y-82678811D01*
X132789070Y-82659055D01*
X132739479Y-82609836D01*
X132724371Y-82541619D01*
X132748541Y-82476064D01*
X132789070Y-82440945D01*
X132789084Y-82440936D01*
X132825576Y-82421189D01*
X133003240Y-82282906D01*
X133155722Y-82117268D01*
X133278860Y-81928791D01*
X133369296Y-81722616D01*
X133424564Y-81504368D01*
X133443156Y-81280000D01*
X133440004Y-81241964D01*
X133424565Y-81055640D01*
X133424563Y-81055628D01*
X133379242Y-80876660D01*
X133369296Y-80837384D01*
X133278860Y-80631209D01*
X133155722Y-80442732D01*
X133155719Y-80442729D01*
X133155715Y-80442723D01*
X133003243Y-80277097D01*
X133003238Y-80277092D01*
X132825577Y-80138812D01*
X132825578Y-80138812D01*
X132825576Y-80138811D01*
X132789070Y-80119055D01*
X132739479Y-80069836D01*
X132724371Y-80001619D01*
X132748541Y-79936064D01*
X132789070Y-79900945D01*
X132789084Y-79900936D01*
X132825576Y-79881189D01*
X133003240Y-79742906D01*
X133155722Y-79577268D01*
X133278860Y-79388791D01*
X133369296Y-79182616D01*
X133424564Y-78964368D01*
X133443156Y-78740000D01*
X133424564Y-78515632D01*
X133369296Y-78297384D01*
X133278860Y-78091209D01*
X133155722Y-77902732D01*
X133155719Y-77902729D01*
X133155715Y-77902723D01*
X133003243Y-77737097D01*
X133003238Y-77737092D01*
X132825577Y-77598812D01*
X132825578Y-77598812D01*
X132825576Y-77598811D01*
X132789070Y-77579055D01*
X132739479Y-77529836D01*
X132724371Y-77461619D01*
X132748541Y-77396064D01*
X132789070Y-77360945D01*
X132789084Y-77360936D01*
X132825576Y-77341189D01*
X133003240Y-77202906D01*
X133105952Y-77091332D01*
X133155715Y-77037276D01*
X133155716Y-77037274D01*
X133155722Y-77037268D01*
X133278860Y-76848791D01*
X133369296Y-76642616D01*
X133424564Y-76424368D01*
X133443156Y-76200000D01*
X133434656Y-76097425D01*
X133424565Y-75975640D01*
X133424563Y-75975628D01*
X133369296Y-75757385D01*
X133318838Y-75642352D01*
X133278860Y-75551209D01*
X133237684Y-75488185D01*
X133167563Y-75380856D01*
X133155722Y-75362732D01*
X133130445Y-75335274D01*
X133099523Y-75272619D01*
X133107383Y-75203193D01*
X133133991Y-75163613D01*
X133766922Y-74530684D01*
X133847032Y-74391929D01*
X133873548Y-74292968D01*
X133888500Y-74237168D01*
X133888500Y-67159889D01*
X133858688Y-67048628D01*
X133847032Y-67005127D01*
X133766921Y-66866372D01*
X133421919Y-66521370D01*
X133388434Y-66460047D01*
X133389395Y-66403248D01*
X133424561Y-66264380D01*
X133424563Y-66264371D01*
X133424564Y-66264368D01*
X133426666Y-66239001D01*
X133443156Y-66040005D01*
X133443156Y-66039994D01*
X133424565Y-65815640D01*
X133424563Y-65815628D01*
X133371301Y-65605302D01*
X133369296Y-65597384D01*
X133278860Y-65391209D01*
X133155722Y-65202732D01*
X133155719Y-65202729D01*
X133155715Y-65202723D01*
X133003243Y-65037097D01*
X133003238Y-65037092D01*
X132825577Y-64898812D01*
X132825578Y-64898812D01*
X132825576Y-64898811D01*
X132789070Y-64879055D01*
X132739479Y-64829836D01*
X132724371Y-64761619D01*
X132748541Y-64696064D01*
X132789070Y-64660945D01*
X132789084Y-64660936D01*
X132825576Y-64641189D01*
X133003240Y-64502906D01*
X133155722Y-64337268D01*
X133278860Y-64148791D01*
X133369296Y-63942616D01*
X133424564Y-63724368D01*
X133443156Y-63500000D01*
X133442513Y-63492244D01*
X133424565Y-63275640D01*
X133424563Y-63275628D01*
X133369296Y-63057385D01*
X133323689Y-62953411D01*
X133278860Y-62851209D01*
X133155722Y-62662732D01*
X133155719Y-62662729D01*
X133155715Y-62662723D01*
X133003243Y-62497097D01*
X133003238Y-62497092D01*
X132825577Y-62358812D01*
X132825578Y-62358812D01*
X132825576Y-62358811D01*
X132789070Y-62339055D01*
X132739479Y-62289836D01*
X132724371Y-62221619D01*
X132748541Y-62156064D01*
X132789070Y-62120945D01*
X132789084Y-62120936D01*
X132825576Y-62101189D01*
X133003240Y-61962906D01*
X133155722Y-61797268D01*
X133278860Y-61608791D01*
X133369296Y-61402616D01*
X133424564Y-61184368D01*
X133443156Y-60960000D01*
X133442513Y-60952244D01*
X133424565Y-60735640D01*
X133424563Y-60735628D01*
X133369296Y-60517385D01*
X133278859Y-60311207D01*
X133155723Y-60122734D01*
X133155715Y-60122723D01*
X133003243Y-59957097D01*
X133003238Y-59957092D01*
X132825577Y-59818812D01*
X132825578Y-59818812D01*
X132825576Y-59818811D01*
X132789070Y-59799055D01*
X132739479Y-59749836D01*
X132724371Y-59681619D01*
X132748541Y-59616064D01*
X132789070Y-59580945D01*
X132789084Y-59580936D01*
X132825576Y-59561189D01*
X133003240Y-59422906D01*
X133155722Y-59257268D01*
X133278860Y-59068791D01*
X133369296Y-58862616D01*
X133424564Y-58644368D01*
X133443156Y-58420000D01*
X133442513Y-58412244D01*
X133424565Y-58195640D01*
X133424563Y-58195628D01*
X133369296Y-57977385D01*
X133278859Y-57771207D01*
X133155723Y-57582734D01*
X133155715Y-57582723D01*
X133003243Y-57417097D01*
X133003238Y-57417092D01*
X132825577Y-57278812D01*
X132825578Y-57278812D01*
X132825576Y-57278811D01*
X132789070Y-57259055D01*
X132739479Y-57209836D01*
X132724371Y-57141619D01*
X132748541Y-57076064D01*
X132789070Y-57040945D01*
X132789084Y-57040936D01*
X132825576Y-57021189D01*
X133003240Y-56882906D01*
X133155722Y-56717268D01*
X133278860Y-56528791D01*
X133369296Y-56322616D01*
X133424564Y-56104368D01*
X133428057Y-56062216D01*
X133443156Y-55880005D01*
X133443156Y-55879994D01*
X133424565Y-55655640D01*
X133424563Y-55655628D01*
X133369296Y-55437385D01*
X133309697Y-55301512D01*
X133278860Y-55231209D01*
X133155722Y-55042732D01*
X133155719Y-55042729D01*
X133155715Y-55042723D01*
X133003243Y-54877097D01*
X133003238Y-54877092D01*
X132825577Y-54738812D01*
X132825578Y-54738812D01*
X132825576Y-54738811D01*
X132789070Y-54719055D01*
X132739479Y-54669836D01*
X132724371Y-54601619D01*
X132748541Y-54536064D01*
X132789070Y-54500945D01*
X132789084Y-54500936D01*
X132825576Y-54481189D01*
X133003240Y-54342906D01*
X133155722Y-54177268D01*
X133278860Y-53988791D01*
X133369296Y-53782616D01*
X133424564Y-53564368D01*
X133443156Y-53340000D01*
X133424564Y-53115632D01*
X133369296Y-52897384D01*
X133278860Y-52691209D01*
X133244082Y-52637978D01*
X133155723Y-52502734D01*
X133155715Y-52502723D01*
X133003243Y-52337097D01*
X133003238Y-52337092D01*
X132825577Y-52198812D01*
X132825578Y-52198812D01*
X132825576Y-52198811D01*
X132789070Y-52179055D01*
X132739479Y-52129836D01*
X132724371Y-52061619D01*
X132748541Y-51996064D01*
X132789070Y-51960945D01*
X132789084Y-51960936D01*
X132825576Y-51941189D01*
X133003240Y-51802906D01*
X133155722Y-51637268D01*
X133278860Y-51448791D01*
X133369296Y-51242616D01*
X133424564Y-51024368D01*
X133443156Y-50800000D01*
X133424564Y-50575632D01*
X133369296Y-50357384D01*
X133278860Y-50151209D01*
X133155722Y-49962732D01*
X133155719Y-49962729D01*
X133155715Y-49962723D01*
X133010510Y-49804991D01*
X132979587Y-49742337D01*
X132987447Y-49672911D01*
X133031594Y-49618755D01*
X133058405Y-49604827D01*
X133138584Y-49574920D01*
X133176204Y-49560889D01*
X133293261Y-49473261D01*
X133380889Y-49356204D01*
X133431989Y-49219201D01*
X133435591Y-49185692D01*
X133438499Y-49158654D01*
X133438500Y-49158637D01*
X133438500Y-47361362D01*
X133438499Y-47361345D01*
X133435157Y-47330270D01*
X133431989Y-47300799D01*
X133380889Y-47163796D01*
X133293261Y-47046739D01*
X133176204Y-46959111D01*
X133039203Y-46908011D01*
X132978654Y-46901500D01*
X132978638Y-46901500D01*
X131181362Y-46901500D01*
X131181345Y-46901500D01*
X131120797Y-46908011D01*
X131120795Y-46908011D01*
X130983795Y-46959111D01*
X130866739Y-47046739D01*
X130779111Y-47163795D01*
X130728011Y-47300795D01*
X130728011Y-47300797D01*
X130721500Y-47361345D01*
X130721500Y-49158654D01*
X130728011Y-49219202D01*
X130728011Y-49219204D01*
X130779111Y-49356204D01*
X130866739Y-49473261D01*
X130983796Y-49560889D01*
X131035737Y-49580262D01*
X131101595Y-49604827D01*
X131157528Y-49646699D01*
X131181944Y-49712163D01*
X131167092Y-49780436D01*
X131149490Y-49804991D01*
X131004279Y-49962730D01*
X131004276Y-49962734D01*
X130881140Y-50151207D01*
X130790703Y-50357385D01*
X130735436Y-50575628D01*
X130735434Y-50575640D01*
X130716844Y-50799994D01*
X130716844Y-50800005D01*
X130735434Y-51024359D01*
X130735436Y-51024371D01*
X130790703Y-51242614D01*
X130881140Y-51448792D01*
X131004276Y-51637265D01*
X131004284Y-51637276D01*
X131156756Y-51802902D01*
X131156760Y-51802906D01*
X131334424Y-51941189D01*
X131334429Y-51941191D01*
X131334431Y-51941193D01*
X131370930Y-51960946D01*
X131420520Y-52010165D01*
X131435628Y-52078382D01*
X131411457Y-52143937D01*
X131370930Y-52179054D01*
X131334431Y-52198806D01*
X131334422Y-52198812D01*
X131156761Y-52337092D01*
X131156756Y-52337097D01*
X131004284Y-52502723D01*
X131004276Y-52502734D01*
X130881140Y-52691207D01*
X130790703Y-52897385D01*
X130735436Y-53115628D01*
X130735434Y-53115640D01*
X130716844Y-53339994D01*
X130716844Y-53340005D01*
X130735434Y-53564359D01*
X130735436Y-53564371D01*
X130790703Y-53782614D01*
X130881140Y-53988792D01*
X131004276Y-54177265D01*
X131004284Y-54177276D01*
X131156756Y-54342902D01*
X131156760Y-54342906D01*
X131334424Y-54481189D01*
X131334429Y-54481191D01*
X131334431Y-54481193D01*
X131370930Y-54500946D01*
X131420520Y-54550165D01*
X131435628Y-54618382D01*
X131411457Y-54683937D01*
X131370930Y-54719054D01*
X131334431Y-54738806D01*
X131334422Y-54738812D01*
X131156761Y-54877092D01*
X131156756Y-54877097D01*
X131004284Y-55042723D01*
X131004276Y-55042734D01*
X130881140Y-55231207D01*
X130790703Y-55437385D01*
X130735436Y-55655628D01*
X130735434Y-55655640D01*
X130716844Y-55879994D01*
X130716844Y-55880005D01*
X130735434Y-56104359D01*
X130735436Y-56104371D01*
X130790703Y-56322614D01*
X130881140Y-56528792D01*
X131004276Y-56717265D01*
X131004284Y-56717276D01*
X131156756Y-56882902D01*
X131156760Y-56882906D01*
X131334424Y-57021189D01*
X131334429Y-57021191D01*
X131334431Y-57021193D01*
X131370930Y-57040946D01*
X131420520Y-57090165D01*
X131435628Y-57158382D01*
X131411457Y-57223937D01*
X131370930Y-57259054D01*
X131334431Y-57278806D01*
X131334422Y-57278812D01*
X131156761Y-57417092D01*
X131156756Y-57417097D01*
X131004284Y-57582723D01*
X131004276Y-57582734D01*
X130881140Y-57771207D01*
X130790703Y-57977385D01*
X130735436Y-58195628D01*
X130735434Y-58195640D01*
X130716844Y-58419994D01*
X130716844Y-58420005D01*
X130735434Y-58644359D01*
X130735436Y-58644371D01*
X130790703Y-58862614D01*
X130881140Y-59068792D01*
X131004276Y-59257265D01*
X131004284Y-59257276D01*
X131156756Y-59422902D01*
X131156761Y-59422907D01*
X131209448Y-59463915D01*
X131334424Y-59561189D01*
X131334429Y-59561191D01*
X131334431Y-59561193D01*
X131370930Y-59580946D01*
X131420520Y-59630165D01*
X131435628Y-59698382D01*
X131411457Y-59763937D01*
X131370930Y-59799054D01*
X131334431Y-59818806D01*
X131334422Y-59818812D01*
X131156761Y-59957092D01*
X131156756Y-59957097D01*
X131004284Y-60122723D01*
X131004276Y-60122734D01*
X130881140Y-60311207D01*
X130790703Y-60517385D01*
X130735436Y-60735628D01*
X130735434Y-60735640D01*
X130716844Y-60959994D01*
X130716844Y-60960005D01*
X130735434Y-61184359D01*
X130735436Y-61184371D01*
X130790703Y-61402614D01*
X130881140Y-61608792D01*
X131004276Y-61797265D01*
X131004284Y-61797276D01*
X131072238Y-61871092D01*
X131156760Y-61962906D01*
X131334424Y-62101189D01*
X131334429Y-62101191D01*
X131334431Y-62101193D01*
X131370930Y-62120946D01*
X131420520Y-62170165D01*
X131435628Y-62238382D01*
X131411457Y-62303937D01*
X131370930Y-62339054D01*
X131334431Y-62358806D01*
X131334422Y-62358812D01*
X131156761Y-62497092D01*
X131156756Y-62497097D01*
X131004284Y-62662723D01*
X131004276Y-62662734D01*
X130881140Y-62851207D01*
X130790703Y-63057385D01*
X130735436Y-63275628D01*
X130735434Y-63275640D01*
X130716844Y-63499994D01*
X130716844Y-63500005D01*
X130735434Y-63724359D01*
X130735436Y-63724371D01*
X130790703Y-63942614D01*
X130881140Y-64148792D01*
X131004276Y-64337265D01*
X131004284Y-64337276D01*
X131156756Y-64502902D01*
X131156760Y-64502906D01*
X131334424Y-64641189D01*
X131334429Y-64641191D01*
X131334431Y-64641193D01*
X131370930Y-64660946D01*
X131420520Y-64710165D01*
X131435628Y-64778382D01*
X131411457Y-64843937D01*
X131370930Y-64879054D01*
X131334431Y-64898806D01*
X131334422Y-64898812D01*
X131156761Y-65037092D01*
X131156756Y-65037097D01*
X131004284Y-65202723D01*
X131004276Y-65202734D01*
X130881140Y-65391207D01*
X130790703Y-65597385D01*
X130735436Y-65815628D01*
X130735434Y-65815640D01*
X130716844Y-66039994D01*
X130716844Y-66040005D01*
X130735434Y-66264359D01*
X130735436Y-66264371D01*
X130790703Y-66482614D01*
X130881140Y-66688792D01*
X131004276Y-66877265D01*
X131004284Y-66877276D01*
X131156756Y-67042902D01*
X131156761Y-67042907D01*
X131164113Y-67048629D01*
X131334424Y-67181189D01*
X131334429Y-67181191D01*
X131334431Y-67181193D01*
X131370930Y-67200946D01*
X131420520Y-67250165D01*
X131435628Y-67318382D01*
X131411457Y-67383937D01*
X131370930Y-67419054D01*
X131334431Y-67438806D01*
X131334422Y-67438812D01*
X131156761Y-67577092D01*
X131156756Y-67577097D01*
X131004284Y-67742723D01*
X131004276Y-67742734D01*
X130891519Y-67915322D01*
X130838373Y-67960678D01*
X130787711Y-67971500D01*
X123239411Y-67971500D01*
X123172372Y-67951815D01*
X123151730Y-67935181D01*
X123068839Y-67852290D01*
X123035354Y-67790967D01*
X123040338Y-67721275D01*
X123082210Y-67665342D01*
X123098062Y-67655253D01*
X123118004Y-67644595D01*
X123271568Y-67518568D01*
X123397595Y-67365004D01*
X123453782Y-67259884D01*
X123491239Y-67189808D01*
X123491239Y-67189807D01*
X123491241Y-67189804D01*
X123548908Y-66999701D01*
X123568380Y-66802000D01*
X123548908Y-66604299D01*
X123491241Y-66414196D01*
X123491239Y-66414193D01*
X123491239Y-66414191D01*
X123397598Y-66239001D01*
X123397594Y-66238994D01*
X123271568Y-66085431D01*
X123118005Y-65959405D01*
X123117998Y-65959401D01*
X122942808Y-65865760D01*
X122777557Y-65815632D01*
X122752701Y-65808092D01*
X122752699Y-65808091D01*
X122752701Y-65808091D01*
X122572725Y-65790365D01*
X122555000Y-65788620D01*
X122554999Y-65788620D01*
X122474235Y-65796574D01*
X122405589Y-65783555D01*
X122374401Y-65760852D01*
X121565940Y-64952391D01*
X121532455Y-64891068D01*
X121530218Y-64852559D01*
X121536380Y-64790000D01*
X121516908Y-64592299D01*
X121459241Y-64402196D01*
X121459239Y-64402193D01*
X121459239Y-64402191D01*
X121365598Y-64227001D01*
X121365594Y-64226994D01*
X121239568Y-64073431D01*
X121086005Y-63947405D01*
X121085998Y-63947401D01*
X120910808Y-63853760D01*
X120815752Y-63824925D01*
X120720701Y-63796092D01*
X120720699Y-63796091D01*
X120720701Y-63796091D01*
X120523000Y-63776620D01*
X120325300Y-63796091D01*
X120135191Y-63853760D01*
X119960001Y-63947401D01*
X119959994Y-63947405D01*
X119806431Y-64073431D01*
X119680405Y-64226994D01*
X119680401Y-64227001D01*
X119586760Y-64402191D01*
X119529091Y-64592300D01*
X119518114Y-64703759D01*
X119509620Y-64790000D01*
X119519574Y-64891068D01*
X119519996Y-64895346D01*
X119506977Y-64963992D01*
X119458912Y-65014702D01*
X119396593Y-65031500D01*
X117703905Y-65031500D01*
X117636866Y-65011815D01*
X117608052Y-64986165D01*
X117556568Y-64923431D01*
X117403005Y-64797405D01*
X117402998Y-64797401D01*
X117227808Y-64703760D01*
X117081499Y-64659378D01*
X117037701Y-64646092D01*
X117037699Y-64646091D01*
X117037701Y-64646091D01*
X116857725Y-64628365D01*
X116840000Y-64626620D01*
X116839999Y-64626620D01*
X116734653Y-64636995D01*
X116666007Y-64623976D01*
X116615297Y-64575911D01*
X116598500Y-64513592D01*
X116598500Y-62569891D01*
X116598500Y-62569889D01*
X116557032Y-62415128D01*
X116557032Y-62415127D01*
X116476921Y-62276372D01*
X108021919Y-53821370D01*
X107988434Y-53760047D01*
X107989395Y-53703248D01*
X108024561Y-53564380D01*
X108024563Y-53564371D01*
X108024564Y-53564368D01*
X108043156Y-53340000D01*
X108024564Y-53115632D01*
X107969296Y-52897384D01*
X107878860Y-52691209D01*
X107844082Y-52637978D01*
X107755723Y-52502734D01*
X107755715Y-52502723D01*
X107603243Y-52337097D01*
X107603238Y-52337092D01*
X107425577Y-52198812D01*
X107425578Y-52198812D01*
X107425576Y-52198811D01*
X107389070Y-52179055D01*
X107339479Y-52129836D01*
X107324371Y-52061619D01*
X107348541Y-51996064D01*
X107389070Y-51960945D01*
X107389084Y-51960936D01*
X107425576Y-51941189D01*
X107603240Y-51802906D01*
X107755722Y-51637268D01*
X107878860Y-51448791D01*
X107969296Y-51242616D01*
X108024564Y-51024368D01*
X108043156Y-50800000D01*
X108024564Y-50575632D01*
X107969296Y-50357384D01*
X107878860Y-50151209D01*
X107755722Y-49962732D01*
X107755719Y-49962729D01*
X107755715Y-49962723D01*
X107603243Y-49797097D01*
X107603238Y-49797092D01*
X107425577Y-49658812D01*
X107425578Y-49658812D01*
X107425576Y-49658811D01*
X107389070Y-49639055D01*
X107339479Y-49589836D01*
X107324371Y-49521619D01*
X107348541Y-49456064D01*
X107389070Y-49420945D01*
X107389084Y-49420936D01*
X107425576Y-49401189D01*
X107603240Y-49262906D01*
X107755722Y-49097268D01*
X107878860Y-48908791D01*
X107969296Y-48702616D01*
X108024564Y-48484368D01*
X108043156Y-48260000D01*
X108024564Y-48035632D01*
X107969296Y-47817384D01*
X107878860Y-47611209D01*
X107755722Y-47422732D01*
X107755719Y-47422729D01*
X107755715Y-47422723D01*
X107603243Y-47257097D01*
X107603238Y-47257092D01*
X107425577Y-47118812D01*
X107425572Y-47118808D01*
X107227580Y-47011661D01*
X107227577Y-47011659D01*
X107227574Y-47011658D01*
X107227571Y-47011657D01*
X107227569Y-47011656D01*
X107014637Y-46938556D01*
X106792569Y-46901500D01*
X106567431Y-46901500D01*
X106345362Y-46938556D01*
X106132430Y-47011656D01*
X106132419Y-47011661D01*
X105934427Y-47118808D01*
X105934422Y-47118812D01*
X105756761Y-47257092D01*
X105756756Y-47257097D01*
X105604284Y-47422723D01*
X105604276Y-47422734D01*
X105481140Y-47611207D01*
X105390703Y-47817385D01*
X105335436Y-48035628D01*
X105335434Y-48035640D01*
X105316844Y-48259994D01*
X101800500Y-48259994D01*
X101800500Y-44450000D01*
X117096620Y-44450000D01*
X117116091Y-44647699D01*
X117173760Y-44837808D01*
X117267401Y-45012998D01*
X117267405Y-45013005D01*
X117393431Y-45166568D01*
X117546994Y-45292594D01*
X117547001Y-45292598D01*
X117722191Y-45386239D01*
X117722193Y-45386239D01*
X117722196Y-45386241D01*
X117912299Y-45443908D01*
X117912298Y-45443908D01*
X117999654Y-45452512D01*
X118064441Y-45478673D01*
X118104800Y-45535708D01*
X118111500Y-45575915D01*
X118111500Y-59752398D01*
X118135843Y-59874777D01*
X118135845Y-59874785D01*
X118183598Y-59990072D01*
X118183603Y-59990081D01*
X118252928Y-60093832D01*
X118252931Y-60093836D01*
X120875682Y-62716586D01*
X120909167Y-62777909D01*
X120911404Y-62816420D01*
X120906620Y-62864998D01*
X120906620Y-62864999D01*
X120926091Y-63062699D01*
X120983760Y-63252808D01*
X121077401Y-63427998D01*
X121077405Y-63428005D01*
X121203431Y-63581568D01*
X121356994Y-63707594D01*
X121357001Y-63707598D01*
X121532191Y-63801239D01*
X121532193Y-63801239D01*
X121532196Y-63801241D01*
X121722299Y-63858908D01*
X121722298Y-63858908D01*
X121740024Y-63860653D01*
X121920000Y-63878380D01*
X122117701Y-63858908D01*
X122307804Y-63801241D01*
X122483004Y-63707595D01*
X122636568Y-63581568D01*
X122762595Y-63428004D01*
X122856241Y-63252804D01*
X122913908Y-63062701D01*
X122933380Y-62865000D01*
X122913908Y-62667299D01*
X122856241Y-62477196D01*
X122856239Y-62477193D01*
X122856239Y-62477191D01*
X122762598Y-62302001D01*
X122762594Y-62301994D01*
X122636568Y-62148431D01*
X122483005Y-62022405D01*
X122482998Y-62022401D01*
X122307808Y-61928760D01*
X122212752Y-61899925D01*
X122117701Y-61871092D01*
X122117699Y-61871091D01*
X122117701Y-61871091D01*
X121937725Y-61853365D01*
X121920000Y-61851620D01*
X121919999Y-61851620D01*
X121871420Y-61856404D01*
X121802774Y-61843384D01*
X121771586Y-61820682D01*
X119414819Y-59463915D01*
X119381334Y-59402592D01*
X119378500Y-59376234D01*
X119378500Y-45022605D01*
X119378499Y-45022601D01*
X119354156Y-44900222D01*
X119354155Y-44900215D01*
X119334943Y-44853833D01*
X119328305Y-44837808D01*
X119306404Y-44784932D01*
X119306403Y-44784931D01*
X119306401Y-44784925D01*
X119237072Y-44681167D01*
X119154315Y-44598410D01*
X119120832Y-44537090D01*
X119118595Y-44498579D01*
X119123380Y-44450000D01*
X120271620Y-44450000D01*
X120291091Y-44647699D01*
X120348760Y-44837808D01*
X120442401Y-45012998D01*
X120442405Y-45013005D01*
X120568431Y-45166568D01*
X120721994Y-45292594D01*
X120722001Y-45292598D01*
X120897191Y-45386239D01*
X120897193Y-45386239D01*
X120897196Y-45386241D01*
X121087299Y-45443908D01*
X121087298Y-45443908D01*
X121105024Y-45445653D01*
X121285000Y-45463380D01*
X121333577Y-45458595D01*
X121402223Y-45471613D01*
X121433413Y-45494317D01*
X128489393Y-52550297D01*
X128522878Y-52611620D01*
X128525712Y-52637978D01*
X128525712Y-54655824D01*
X128506027Y-54722863D01*
X128480378Y-54751676D01*
X128442641Y-54782645D01*
X128316617Y-54936206D01*
X128316613Y-54936213D01*
X128222972Y-55111403D01*
X128165303Y-55301512D01*
X128145832Y-55499212D01*
X128165303Y-55696911D01*
X128222972Y-55887020D01*
X128316613Y-56062210D01*
X128316617Y-56062217D01*
X128442643Y-56215780D01*
X128596206Y-56341806D01*
X128596213Y-56341810D01*
X128771403Y-56435451D01*
X128771405Y-56435451D01*
X128771408Y-56435453D01*
X128961511Y-56493120D01*
X128961510Y-56493120D01*
X128979236Y-56494865D01*
X129159212Y-56512592D01*
X129356913Y-56493120D01*
X129547016Y-56435453D01*
X129722216Y-56341807D01*
X129875780Y-56215780D01*
X130001807Y-56062216D01*
X130095453Y-55887016D01*
X130153120Y-55696913D01*
X130172592Y-55499212D01*
X130153120Y-55301511D01*
X130095453Y-55111408D01*
X130095451Y-55111405D01*
X130095451Y-55111403D01*
X130001810Y-54936213D01*
X130001806Y-54936206D01*
X129875782Y-54782645D01*
X129838046Y-54751676D01*
X129798712Y-54693930D01*
X129792712Y-54655824D01*
X129792712Y-52261817D01*
X129792711Y-52261813D01*
X129768368Y-52139434D01*
X129768367Y-52139427D01*
X129720612Y-52024137D01*
X129720611Y-52024136D01*
X129720608Y-52024130D01*
X129651284Y-51920380D01*
X129651283Y-51920379D01*
X129563045Y-51832141D01*
X122329317Y-44598413D01*
X122295832Y-44537090D01*
X122293595Y-44498577D01*
X122293595Y-44498576D01*
X122298380Y-44450000D01*
X122278908Y-44252299D01*
X122221241Y-44062196D01*
X122221239Y-44062193D01*
X122221239Y-44062191D01*
X122127598Y-43887001D01*
X122127594Y-43886994D01*
X122001568Y-43733431D01*
X121848005Y-43607405D01*
X121847998Y-43607401D01*
X121672808Y-43513760D01*
X121577752Y-43484925D01*
X121482701Y-43456092D01*
X121482699Y-43456091D01*
X121482701Y-43456091D01*
X121285000Y-43436620D01*
X121087300Y-43456091D01*
X120897191Y-43513760D01*
X120722001Y-43607401D01*
X120721994Y-43607405D01*
X120568431Y-43733431D01*
X120442405Y-43886994D01*
X120442401Y-43887001D01*
X120348760Y-44062191D01*
X120291091Y-44252300D01*
X120271620Y-44450000D01*
X119123380Y-44450000D01*
X119103908Y-44252299D01*
X119046241Y-44062196D01*
X119046239Y-44062193D01*
X119046239Y-44062191D01*
X118952598Y-43887001D01*
X118952594Y-43886994D01*
X118826568Y-43733431D01*
X118673005Y-43607405D01*
X118672998Y-43607401D01*
X118497808Y-43513760D01*
X118402752Y-43484925D01*
X118307701Y-43456092D01*
X118307699Y-43456091D01*
X118307701Y-43456091D01*
X118110000Y-43436620D01*
X117912300Y-43456091D01*
X117722191Y-43513760D01*
X117547001Y-43607401D01*
X117546994Y-43607405D01*
X117393431Y-43733431D01*
X117267405Y-43886994D01*
X117267401Y-43887001D01*
X117173760Y-44062191D01*
X117116091Y-44252300D01*
X117096620Y-44450000D01*
X101800500Y-44450000D01*
X101800500Y-25453084D01*
X110276500Y-25453084D01*
X110276500Y-25666915D01*
X110309951Y-25878117D01*
X110376026Y-26081480D01*
X110376027Y-26081483D01*
X110473106Y-26272009D01*
X110598794Y-26445004D01*
X110749996Y-26596206D01*
X110852344Y-26670566D01*
X110906182Y-26709682D01*
X110948847Y-26765012D01*
X110954826Y-26834626D01*
X110922220Y-26896421D01*
X110906182Y-26910318D01*
X110837297Y-26960365D01*
X110749996Y-27023794D01*
X110749994Y-27023796D01*
X110749993Y-27023796D01*
X110598796Y-27174993D01*
X110473106Y-27347990D01*
X110376027Y-27538516D01*
X110376026Y-27538519D01*
X110309951Y-27741882D01*
X110276500Y-27953084D01*
X110276500Y-28166916D01*
X110293225Y-28272516D01*
X110309951Y-28378117D01*
X110376026Y-28581480D01*
X110376027Y-28581483D01*
X110473106Y-28772009D01*
X110598794Y-28945004D01*
X110749996Y-29096206D01*
X110852344Y-29170566D01*
X110906182Y-29209682D01*
X110948847Y-29265012D01*
X110954826Y-29334626D01*
X110922220Y-29396421D01*
X110906182Y-29410318D01*
X110837297Y-29460365D01*
X110749996Y-29523794D01*
X110749994Y-29523796D01*
X110749993Y-29523796D01*
X110598796Y-29674993D01*
X110473106Y-29847990D01*
X110376027Y-30038516D01*
X110376026Y-30038519D01*
X110309951Y-30241882D01*
X110276500Y-30453084D01*
X110276500Y-30666916D01*
X110293225Y-30772516D01*
X110309951Y-30878117D01*
X110376026Y-31081480D01*
X110376027Y-31081483D01*
X110473106Y-31272009D01*
X110598794Y-31445004D01*
X110749996Y-31596206D01*
X110852344Y-31670566D01*
X110906182Y-31709682D01*
X110948847Y-31765012D01*
X110954826Y-31834626D01*
X110922220Y-31896421D01*
X110906182Y-31910318D01*
X110855333Y-31947262D01*
X110749996Y-32023794D01*
X110749994Y-32023796D01*
X110749993Y-32023796D01*
X110598796Y-32174993D01*
X110473106Y-32347990D01*
X110376027Y-32538516D01*
X110376026Y-32538519D01*
X110309951Y-32741882D01*
X110276500Y-32953084D01*
X110276500Y-33166916D01*
X110293225Y-33272516D01*
X110309951Y-33378117D01*
X110376026Y-33581480D01*
X110376027Y-33581483D01*
X110473106Y-33772009D01*
X110598794Y-33945004D01*
X110749996Y-34096206D01*
X110852344Y-34170566D01*
X110906182Y-34209682D01*
X110948847Y-34265012D01*
X110954826Y-34334626D01*
X110922220Y-34396421D01*
X110906182Y-34410318D01*
X110880506Y-34428973D01*
X110749996Y-34523794D01*
X110749994Y-34523796D01*
X110749993Y-34523796D01*
X110598796Y-34674993D01*
X110473106Y-34847990D01*
X110376027Y-35038516D01*
X110376026Y-35038519D01*
X110309951Y-35241882D01*
X110276500Y-35453084D01*
X110276500Y-35666916D01*
X110293225Y-35772516D01*
X110309951Y-35878117D01*
X110376026Y-36081480D01*
X110376027Y-36081483D01*
X110473106Y-36272009D01*
X110598794Y-36445004D01*
X110749996Y-36596206D01*
X110852344Y-36670566D01*
X110906182Y-36709682D01*
X110948847Y-36765012D01*
X110954826Y-36834626D01*
X110922220Y-36896421D01*
X110906182Y-36910318D01*
X110837297Y-36960365D01*
X110749996Y-37023794D01*
X110749994Y-37023796D01*
X110749993Y-37023796D01*
X110598796Y-37174993D01*
X110473106Y-37347990D01*
X110376027Y-37538516D01*
X110376026Y-37538519D01*
X110309951Y-37741882D01*
X110276500Y-37953084D01*
X110276500Y-38166916D01*
X110293225Y-38272516D01*
X110309951Y-38378117D01*
X110376026Y-38581480D01*
X110376027Y-38581483D01*
X110473106Y-38772009D01*
X110598794Y-38945004D01*
X110749996Y-39096206D01*
X110852344Y-39170566D01*
X110906182Y-39209682D01*
X110948847Y-39265012D01*
X110954826Y-39334626D01*
X110922220Y-39396421D01*
X110906182Y-39410318D01*
X110837297Y-39460365D01*
X110749996Y-39523794D01*
X110749994Y-39523796D01*
X110749993Y-39523796D01*
X110598796Y-39674993D01*
X110473106Y-39847990D01*
X110376027Y-40038516D01*
X110376026Y-40038519D01*
X110309951Y-40241882D01*
X110276500Y-40453084D01*
X110276500Y-40666916D01*
X110293225Y-40772516D01*
X110309951Y-40878117D01*
X110376026Y-41081480D01*
X110376027Y-41081483D01*
X110473106Y-41272009D01*
X110598794Y-41445004D01*
X110598796Y-41445006D01*
X110730893Y-41577103D01*
X110764378Y-41638426D01*
X110759394Y-41708118D01*
X110717522Y-41764051D01*
X110708309Y-41770322D01*
X110561351Y-41860967D01*
X110561347Y-41860970D01*
X110435971Y-41986346D01*
X110342886Y-42137259D01*
X110342884Y-42137264D01*
X110287113Y-42305572D01*
X110276500Y-42409447D01*
X110276500Y-43710537D01*
X110276501Y-43710553D01*
X110287113Y-43814427D01*
X110327465Y-43936203D01*
X110342885Y-43982738D01*
X110435970Y-44133652D01*
X110561348Y-44259030D01*
X110712262Y-44352115D01*
X110880574Y-44407887D01*
X110984455Y-44418500D01*
X112535544Y-44418499D01*
X112639426Y-44407887D01*
X112807738Y-44352115D01*
X112958652Y-44259030D01*
X113084030Y-44133652D01*
X113177115Y-43982738D01*
X113232887Y-43814426D01*
X113243500Y-43710545D01*
X113243499Y-42409456D01*
X113232887Y-42305574D01*
X113177115Y-42137262D01*
X113084030Y-41986348D01*
X112958652Y-41860970D01*
X112958648Y-41860967D01*
X112811690Y-41770322D01*
X112764965Y-41718374D01*
X112753744Y-41649412D01*
X112781587Y-41585330D01*
X112789084Y-41577125D01*
X112921206Y-41445004D01*
X113046894Y-41272009D01*
X113143972Y-41081483D01*
X113210049Y-40878116D01*
X113243500Y-40666916D01*
X113243500Y-40453084D01*
X113210049Y-40241884D01*
X113143972Y-40038517D01*
X113143972Y-40038516D01*
X113094507Y-39941438D01*
X113046894Y-39847991D01*
X112921206Y-39674996D01*
X112770004Y-39523794D01*
X112757895Y-39514996D01*
X112613818Y-39410318D01*
X112571152Y-39354988D01*
X112565173Y-39285375D01*
X112597779Y-39223580D01*
X112613818Y-39209682D01*
X112664200Y-39173076D01*
X112770004Y-39096206D01*
X112921206Y-38945004D01*
X113046894Y-38772009D01*
X113143972Y-38581483D01*
X113210049Y-38378116D01*
X113243500Y-38166916D01*
X113243500Y-37953084D01*
X113210049Y-37741884D01*
X113143972Y-37538517D01*
X113143972Y-37538516D01*
X113094507Y-37441438D01*
X113046894Y-37347991D01*
X112921206Y-37174996D01*
X112770004Y-37023794D01*
X112757895Y-37014996D01*
X112613818Y-36910318D01*
X112571152Y-36854988D01*
X112565173Y-36785375D01*
X112597779Y-36723580D01*
X112613818Y-36709682D01*
X112664200Y-36673076D01*
X112770004Y-36596206D01*
X112921206Y-36445004D01*
X113046894Y-36272009D01*
X113143972Y-36081483D01*
X113210049Y-35878116D01*
X113243500Y-35666916D01*
X113243500Y-35453084D01*
X113210049Y-35241884D01*
X113143972Y-35038517D01*
X113143972Y-35038516D01*
X113094507Y-34941438D01*
X113046894Y-34847991D01*
X112921206Y-34674996D01*
X112770004Y-34523794D01*
X112757895Y-34514996D01*
X112613818Y-34410318D01*
X112571152Y-34354988D01*
X112565173Y-34285375D01*
X112597779Y-34223580D01*
X112613818Y-34209682D01*
X112664200Y-34173076D01*
X112770004Y-34096206D01*
X112921206Y-33945004D01*
X113046894Y-33772009D01*
X113143972Y-33581483D01*
X113210049Y-33378116D01*
X113243500Y-33166916D01*
X113243500Y-32953084D01*
X113210049Y-32741884D01*
X113148315Y-32551884D01*
X113143973Y-32538519D01*
X113143972Y-32538516D01*
X113094507Y-32441438D01*
X113046894Y-32347991D01*
X112953501Y-32219447D01*
X116791500Y-32219447D01*
X116791500Y-33820537D01*
X116791501Y-33820553D01*
X116802113Y-33924427D01*
X116857884Y-34092735D01*
X116857886Y-34092740D01*
X116865456Y-34105012D01*
X116950970Y-34243652D01*
X117076348Y-34369030D01*
X117227262Y-34462115D01*
X117395574Y-34517887D01*
X117499455Y-34528500D01*
X118800544Y-34528499D01*
X118904426Y-34517887D01*
X119072738Y-34462115D01*
X119223652Y-34369030D01*
X119349030Y-34243652D01*
X119439679Y-34096687D01*
X119491624Y-34049966D01*
X119560587Y-34038743D01*
X119624669Y-34066587D01*
X119632896Y-34074106D01*
X119764996Y-34206206D01*
X119937991Y-34331894D01*
X120031438Y-34379507D01*
X120128516Y-34428972D01*
X120128519Y-34428973D01*
X120230200Y-34462010D01*
X120331884Y-34495049D01*
X120543084Y-34528500D01*
X120543085Y-34528500D01*
X120756915Y-34528500D01*
X120756916Y-34528500D01*
X120968116Y-34495049D01*
X121171483Y-34428972D01*
X121362009Y-34331894D01*
X121535004Y-34206206D01*
X121686206Y-34055004D01*
X121811894Y-33882009D01*
X121908972Y-33691483D01*
X121975049Y-33488116D01*
X122008500Y-33276916D01*
X122008500Y-32763084D01*
X121975049Y-32551884D01*
X121918720Y-32378519D01*
X121908973Y-32348519D01*
X121908972Y-32348516D01*
X121859507Y-32251438D01*
X121811894Y-32157991D01*
X121686206Y-31984996D01*
X121535004Y-31833794D01*
X121362009Y-31708106D01*
X121336264Y-31694988D01*
X121171483Y-31611027D01*
X121171480Y-31611026D01*
X120968117Y-31544951D01*
X120823923Y-31522113D01*
X120756916Y-31511500D01*
X120543084Y-31511500D01*
X120476077Y-31522113D01*
X120331882Y-31544951D01*
X120128519Y-31611026D01*
X120128516Y-31611027D01*
X119937990Y-31708106D01*
X119764997Y-31833793D01*
X119632896Y-31965894D01*
X119571573Y-31999378D01*
X119501881Y-31994394D01*
X119445948Y-31952522D01*
X119439684Y-31943320D01*
X119349030Y-31796348D01*
X119223652Y-31670970D01*
X119072738Y-31577885D01*
X119029568Y-31563580D01*
X118904427Y-31522113D01*
X118800545Y-31511500D01*
X117499462Y-31511500D01*
X117499446Y-31511501D01*
X117395572Y-31522113D01*
X117227264Y-31577884D01*
X117227259Y-31577886D01*
X117076346Y-31670971D01*
X116950971Y-31796346D01*
X116857886Y-31947259D01*
X116857884Y-31947264D01*
X116802113Y-32115572D01*
X116791500Y-32219447D01*
X112953501Y-32219447D01*
X112921206Y-32174996D01*
X112770004Y-32023794D01*
X112757895Y-32014996D01*
X112613818Y-31910318D01*
X112571152Y-31854988D01*
X112565173Y-31785375D01*
X112597779Y-31723580D01*
X112613818Y-31709682D01*
X112667100Y-31670970D01*
X112770004Y-31596206D01*
X112921206Y-31445004D01*
X113046894Y-31272009D01*
X113143972Y-31081483D01*
X113210049Y-30878116D01*
X113243500Y-30666916D01*
X113243500Y-30453084D01*
X113210049Y-30241884D01*
X113143972Y-30038517D01*
X113143972Y-30038516D01*
X113094507Y-29941438D01*
X113046894Y-29847991D01*
X112921206Y-29674996D01*
X112770004Y-29523794D01*
X112757895Y-29514996D01*
X112613818Y-29410318D01*
X112571152Y-29354988D01*
X112565173Y-29285375D01*
X112597779Y-29223580D01*
X112613818Y-29209682D01*
X112664200Y-29173076D01*
X112770004Y-29096206D01*
X112921206Y-28945004D01*
X113046894Y-28772009D01*
X113143972Y-28581483D01*
X113210049Y-28378116D01*
X113243500Y-28166916D01*
X113243500Y-27953084D01*
X113210049Y-27741884D01*
X113143972Y-27538517D01*
X113143972Y-27538516D01*
X113094507Y-27441438D01*
X113046894Y-27347991D01*
X112921206Y-27174996D01*
X112770004Y-27023794D01*
X112757895Y-27014996D01*
X112613818Y-26910318D01*
X112571152Y-26854988D01*
X112565173Y-26785375D01*
X112597779Y-26723580D01*
X112613818Y-26709682D01*
X112664200Y-26673076D01*
X112770004Y-26596206D01*
X112921206Y-26445004D01*
X113046894Y-26272009D01*
X113143972Y-26081483D01*
X113210049Y-25878116D01*
X113243500Y-25666916D01*
X113243500Y-25453084D01*
X113210049Y-25241884D01*
X113143972Y-25038517D01*
X113143972Y-25038516D01*
X113046893Y-24847990D01*
X112975298Y-24749447D01*
X125516502Y-24749447D01*
X125516502Y-26050537D01*
X125516503Y-26050553D01*
X125527115Y-26154426D01*
X125582887Y-26322738D01*
X125675972Y-26473652D01*
X125801350Y-26599030D01*
X125948312Y-26689677D01*
X125995035Y-26741624D01*
X126006258Y-26810587D01*
X125978414Y-26874669D01*
X125970896Y-26882896D01*
X125838795Y-27014997D01*
X125713108Y-27187990D01*
X125616029Y-27378516D01*
X125616028Y-27378519D01*
X125549953Y-27581882D01*
X125516502Y-27793084D01*
X125516502Y-28006915D01*
X125549953Y-28218117D01*
X125616028Y-28421480D01*
X125616029Y-28421483D01*
X125697553Y-28581480D01*
X125713108Y-28612009D01*
X125838796Y-28785004D01*
X125989998Y-28936206D01*
X126092346Y-29010566D01*
X126146184Y-29049682D01*
X126188849Y-29105012D01*
X126194828Y-29174626D01*
X126162222Y-29236421D01*
X126146184Y-29250318D01*
X126125960Y-29265012D01*
X125989998Y-29363794D01*
X125989996Y-29363796D01*
X125989995Y-29363796D01*
X125838798Y-29514993D01*
X125713108Y-29687990D01*
X125616029Y-29878516D01*
X125616028Y-29878519D01*
X125549953Y-30081882D01*
X125516502Y-30293084D01*
X125516502Y-30506915D01*
X125549953Y-30718117D01*
X125616028Y-30921480D01*
X125616029Y-30921483D01*
X125697553Y-31081480D01*
X125713108Y-31112009D01*
X125838796Y-31285004D01*
X125989998Y-31436206D01*
X126092346Y-31510566D01*
X126146184Y-31549682D01*
X126188849Y-31605012D01*
X126194828Y-31674626D01*
X126162222Y-31736421D01*
X126146184Y-31750318D01*
X126125960Y-31765012D01*
X125989998Y-31863794D01*
X125989996Y-31863796D01*
X125989995Y-31863796D01*
X125838798Y-32014993D01*
X125713108Y-32187990D01*
X125616029Y-32378516D01*
X125616028Y-32378519D01*
X125549953Y-32581882D01*
X125516502Y-32793084D01*
X125516502Y-33006915D01*
X125549953Y-33218117D01*
X125616028Y-33421480D01*
X125616029Y-33421483D01*
X125697553Y-33581480D01*
X125713108Y-33612009D01*
X125838796Y-33785004D01*
X125989998Y-33936206D01*
X126092346Y-34010566D01*
X126146184Y-34049682D01*
X126188849Y-34105012D01*
X126194828Y-34174626D01*
X126162222Y-34236421D01*
X126146184Y-34250318D01*
X126125960Y-34265012D01*
X125989998Y-34363794D01*
X125989996Y-34363796D01*
X125989995Y-34363796D01*
X125838798Y-34514993D01*
X125713108Y-34687990D01*
X125616029Y-34878516D01*
X125616028Y-34878519D01*
X125549953Y-35081882D01*
X125516502Y-35293084D01*
X125516502Y-35506915D01*
X125549953Y-35718117D01*
X125616028Y-35921480D01*
X125616029Y-35921483D01*
X125697553Y-36081480D01*
X125713108Y-36112009D01*
X125838796Y-36285004D01*
X125989998Y-36436206D01*
X126092346Y-36510566D01*
X126146184Y-36549682D01*
X126188849Y-36605012D01*
X126194828Y-36674626D01*
X126162222Y-36736421D01*
X126146184Y-36750318D01*
X126125960Y-36765012D01*
X125989998Y-36863794D01*
X125989996Y-36863796D01*
X125989995Y-36863796D01*
X125838798Y-37014993D01*
X125713108Y-37187990D01*
X125616029Y-37378516D01*
X125616028Y-37378519D01*
X125549953Y-37581882D01*
X125516502Y-37793084D01*
X125516502Y-38006915D01*
X125549953Y-38218117D01*
X125616028Y-38421480D01*
X125616029Y-38421483D01*
X125697553Y-38581480D01*
X125713108Y-38612009D01*
X125838796Y-38785004D01*
X125989998Y-38936206D01*
X126092346Y-39010566D01*
X126146184Y-39049682D01*
X126188849Y-39105012D01*
X126194828Y-39174626D01*
X126162222Y-39236421D01*
X126146184Y-39250318D01*
X126125960Y-39265012D01*
X125989998Y-39363794D01*
X125989996Y-39363796D01*
X125989995Y-39363796D01*
X125838798Y-39514993D01*
X125713108Y-39687990D01*
X125616029Y-39878516D01*
X125616028Y-39878519D01*
X125549953Y-40081882D01*
X125516502Y-40293084D01*
X125516502Y-40506915D01*
X125549953Y-40718117D01*
X125616028Y-40921480D01*
X125616029Y-40921483D01*
X125697553Y-41081480D01*
X125713108Y-41112009D01*
X125838796Y-41285004D01*
X125989998Y-41436206D01*
X126092346Y-41510566D01*
X126146184Y-41549682D01*
X126188849Y-41605012D01*
X126194828Y-41674626D01*
X126162222Y-41736421D01*
X126146184Y-41750318D01*
X126118651Y-41770322D01*
X125989998Y-41863794D01*
X125989996Y-41863796D01*
X125989995Y-41863796D01*
X125838798Y-42014993D01*
X125713108Y-42187990D01*
X125616029Y-42378516D01*
X125616028Y-42378519D01*
X125549953Y-42581882D01*
X125516502Y-42793084D01*
X125516502Y-43006915D01*
X125549953Y-43218117D01*
X125616028Y-43421480D01*
X125616029Y-43421483D01*
X125710760Y-43607401D01*
X125713108Y-43612009D01*
X125838796Y-43785004D01*
X125989998Y-43936206D01*
X126162993Y-44061894D01*
X126256440Y-44109507D01*
X126353518Y-44158972D01*
X126353521Y-44158973D01*
X126455202Y-44192010D01*
X126556886Y-44225049D01*
X126768086Y-44258500D01*
X126768087Y-44258500D01*
X127231917Y-44258500D01*
X127231918Y-44258500D01*
X127443118Y-44225049D01*
X127646485Y-44158972D01*
X127837011Y-44061894D01*
X128010006Y-43936206D01*
X128161208Y-43785004D01*
X128286896Y-43612009D01*
X128383974Y-43421483D01*
X128450051Y-43218116D01*
X128483502Y-43006916D01*
X128483502Y-42793084D01*
X128450051Y-42581884D01*
X128417012Y-42480200D01*
X128383975Y-42378519D01*
X128383974Y-42378516D01*
X128286895Y-42187990D01*
X128161208Y-42014996D01*
X128010006Y-41863794D01*
X127881353Y-41770322D01*
X127853820Y-41750318D01*
X127811154Y-41694988D01*
X127805175Y-41625375D01*
X127837781Y-41563580D01*
X127853820Y-41549682D01*
X127904202Y-41513076D01*
X128010006Y-41436206D01*
X128161208Y-41285004D01*
X128286896Y-41112009D01*
X128383974Y-40921483D01*
X128450051Y-40718116D01*
X128483502Y-40506916D01*
X128483502Y-40293084D01*
X128450051Y-40081884D01*
X128383974Y-39878517D01*
X128383974Y-39878516D01*
X128286895Y-39687990D01*
X128161208Y-39514996D01*
X128010006Y-39363794D01*
X127935965Y-39310000D01*
X127853820Y-39250318D01*
X127811154Y-39194988D01*
X127805175Y-39125375D01*
X127837781Y-39063580D01*
X127853820Y-39049682D01*
X127904202Y-39013076D01*
X128010006Y-38936206D01*
X128161208Y-38785004D01*
X128286896Y-38612009D01*
X128383974Y-38421483D01*
X128450051Y-38218116D01*
X128483502Y-38006916D01*
X128483502Y-37793084D01*
X128450051Y-37581884D01*
X128383974Y-37378517D01*
X128383974Y-37378516D01*
X128286895Y-37187990D01*
X128161208Y-37014996D01*
X128010006Y-36863794D01*
X127935965Y-36810000D01*
X127853820Y-36750318D01*
X127811154Y-36694988D01*
X127805175Y-36625375D01*
X127837781Y-36563580D01*
X127853820Y-36549682D01*
X127904202Y-36513076D01*
X128010006Y-36436206D01*
X128161208Y-36285004D01*
X128286896Y-36112009D01*
X128383974Y-35921483D01*
X128450051Y-35718116D01*
X128483502Y-35506916D01*
X128483502Y-35293084D01*
X128450051Y-35081884D01*
X128383974Y-34878517D01*
X128383974Y-34878516D01*
X128286895Y-34687990D01*
X128161208Y-34514996D01*
X128010006Y-34363794D01*
X127969860Y-34334626D01*
X127853820Y-34250318D01*
X127811154Y-34194988D01*
X127805175Y-34125375D01*
X127837781Y-34063580D01*
X127853820Y-34049682D01*
X127904202Y-34013076D01*
X128010006Y-33936206D01*
X128161208Y-33785004D01*
X128286896Y-33612009D01*
X128383974Y-33421483D01*
X128450051Y-33218116D01*
X128483502Y-33006916D01*
X128483502Y-32793084D01*
X128450051Y-32581884D01*
X128383974Y-32378517D01*
X128383974Y-32378516D01*
X128334509Y-32281438D01*
X128286896Y-32187991D01*
X128161208Y-32014996D01*
X128010006Y-31863794D01*
X127968717Y-31833796D01*
X127853820Y-31750318D01*
X127811154Y-31694988D01*
X127805175Y-31625375D01*
X127837781Y-31563580D01*
X127853820Y-31549682D01*
X127906371Y-31511501D01*
X128010006Y-31436206D01*
X128161208Y-31285004D01*
X128286896Y-31112009D01*
X128383974Y-30921483D01*
X128450051Y-30718116D01*
X128483502Y-30506916D01*
X128483502Y-30293084D01*
X128450051Y-30081884D01*
X128383974Y-29878517D01*
X128383974Y-29878516D01*
X128286895Y-29687990D01*
X128161208Y-29514996D01*
X128010006Y-29363794D01*
X127935965Y-29310000D01*
X127853820Y-29250318D01*
X127811154Y-29194988D01*
X127805175Y-29125375D01*
X127837781Y-29063580D01*
X127853820Y-29049682D01*
X127904202Y-29013076D01*
X128010006Y-28936206D01*
X128161208Y-28785004D01*
X128286896Y-28612009D01*
X128383974Y-28421483D01*
X128450051Y-28218116D01*
X128483502Y-28006916D01*
X128483502Y-27793084D01*
X128450051Y-27581884D01*
X128383974Y-27378517D01*
X128383974Y-27378516D01*
X128286895Y-27187990D01*
X128161208Y-27014996D01*
X128029108Y-26882896D01*
X127995623Y-26821573D01*
X128000607Y-26751881D01*
X128042479Y-26695948D01*
X128051670Y-26689690D01*
X128198654Y-26599030D01*
X128324032Y-26473652D01*
X128417117Y-26322738D01*
X128472889Y-26154426D01*
X128483502Y-26050545D01*
X128483501Y-24749456D01*
X128472889Y-24645574D01*
X128417117Y-24477262D01*
X128324032Y-24326348D01*
X128198654Y-24200970D01*
X128047740Y-24107885D01*
X128047737Y-24107884D01*
X127879429Y-24052113D01*
X127775547Y-24041500D01*
X126224464Y-24041500D01*
X126224448Y-24041501D01*
X126120574Y-24052113D01*
X125952266Y-24107884D01*
X125952261Y-24107886D01*
X125801348Y-24200971D01*
X125675973Y-24326346D01*
X125582888Y-24477259D01*
X125582886Y-24477264D01*
X125527115Y-24645572D01*
X125516502Y-24749447D01*
X112975298Y-24749447D01*
X112921206Y-24674996D01*
X112770004Y-24523794D01*
X112597009Y-24398106D01*
X112406483Y-24301027D01*
X112406480Y-24301026D01*
X112203117Y-24234951D01*
X112097516Y-24218225D01*
X111991916Y-24201500D01*
X111528084Y-24201500D01*
X111457684Y-24212650D01*
X111316882Y-24234951D01*
X111113519Y-24301026D01*
X111113516Y-24301027D01*
X110922990Y-24398106D01*
X110749993Y-24523796D01*
X110598796Y-24674993D01*
X110473106Y-24847990D01*
X110376027Y-25038516D01*
X110376026Y-25038519D01*
X110309951Y-25241882D01*
X110276500Y-25453084D01*
X101800500Y-25453084D01*
X101800500Y-19374500D01*
X101820185Y-19307461D01*
X101872989Y-19261706D01*
X101924500Y-19250500D01*
X136835500Y-19250500D01*
X136902539Y-19270185D01*
G37*
G04 #@! TD.AperFunction*
M02*
