G04 #@! TF.GenerationSoftware,KiCad,Pcbnew,8.0.8*
G04 #@! TF.CreationDate,2025-03-16T16:25:50-04:00*
G04 #@! TF.ProjectId,Combined_PCB,436f6d62-696e-4656-945f-5043422e6b69,1*
G04 #@! TF.SameCoordinates,Original*
G04 #@! TF.FileFunction,Legend,Top*
G04 #@! TF.FilePolarity,Positive*
%FSLAX46Y46*%
G04 Gerber Fmt 4.6, Leading zero omitted, Abs format (unit mm)*
G04 Created by KiCad (PCBNEW 8.0.8) date 2025-03-16 16:25:50*
%MOMM*%
%LPD*%
G01*
G04 APERTURE LIST*
G04 Aperture macros list*
%AMRoundRect*
0 Rectangle with rounded corners*
0 $1 Rounding radius*
0 $2 $3 $4 $5 $6 $7 $8 $9 X,Y pos of 4 corners*
0 Add a 4 corners polygon primitive as box body*
4,1,4,$2,$3,$4,$5,$6,$7,$8,$9,$2,$3,0*
0 Add four circle primitives for the rounded corners*
1,1,$1+$1,$2,$3*
1,1,$1+$1,$4,$5*
1,1,$1+$1,$6,$7*
1,1,$1+$1,$8,$9*
0 Add four rect primitives between the rounded corners*
20,1,$1+$1,$2,$3,$4,$5,0*
20,1,$1+$1,$4,$5,$6,$7,0*
20,1,$1+$1,$6,$7,$8,$9,0*
20,1,$1+$1,$8,$9,$2,$3,0*%
G04 Aperture macros list end*
%ADD10C,0.150000*%
%ADD11C,0.152400*%
%ADD12C,0.120000*%
%ADD13C,0.127000*%
%ADD14C,0.200000*%
%ADD15RoundRect,0.038000X0.099600X-0.352400X0.099600X0.352400X-0.099600X0.352400X-0.099600X-0.352400X0*%
%ADD16RoundRect,0.269000X0.494000X-0.269000X0.494000X0.269000X-0.494000X0.269000X-0.494000X-0.269000X0*%
%ADD17RoundRect,0.102000X0.230000X-0.445000X0.230000X0.445000X-0.230000X0.445000X-0.230000X-0.445000X0*%
%ADD18RoundRect,0.269000X0.269000X0.494000X-0.269000X0.494000X-0.269000X-0.494000X0.269000X-0.494000X0*%
%ADD19RoundRect,0.237750X0.400250X-0.237750X0.400250X0.237750X-0.400250X0.237750X-0.400250X-0.237750X0*%
%ADD20RoundRect,0.038000X0.200000X-0.450000X0.200000X0.450000X-0.200000X0.450000X-0.200000X-0.450000X0*%
%ADD21RoundRect,0.038000X-0.099600X0.352400X-0.099600X-0.352400X0.099600X-0.352400X0.099600X0.352400X0*%
%ADD22C,2.576000*%
%ADD23RoundRect,0.268536X-0.281964X-0.469464X0.281964X-0.469464X0.281964X0.469464X-0.281964X0.469464X0*%
%ADD24RoundRect,0.268536X0.469464X-0.281964X0.469464X0.281964X-0.469464X0.281964X-0.469464X-0.281964X0*%
%ADD25RoundRect,0.269000X-0.269000X-0.494000X0.269000X-0.494000X0.269000X0.494000X-0.269000X0.494000X0*%
%ADD26RoundRect,0.268536X-0.469464X0.281964X-0.469464X-0.281964X0.469464X-0.281964X0.469464X0.281964X0*%
%ADD27RoundRect,0.060500X-0.181500X0.821500X-0.181500X-0.821500X0.181500X-0.821500X0.181500X0.821500X0*%
%ADD28RoundRect,0.060500X-0.821500X0.181500X-0.821500X-0.181500X0.821500X-0.181500X0.821500X0.181500X0*%
%ADD29RoundRect,0.038000X0.660400X0.279400X-0.660400X0.279400X-0.660400X-0.279400X0.660400X-0.279400X0*%
%ADD30RoundRect,0.038000X-0.850000X-0.850000X0.850000X-0.850000X0.850000X0.850000X-0.850000X0.850000X0*%
%ADD31O,1.776000X1.776000*%
%ADD32RoundRect,0.261177X-0.626823X-0.776823X0.626823X-0.776823X0.626823X0.776823X-0.626823X0.776823X0*%
%ADD33O,1.776000X2.076000*%
%ADD34RoundRect,0.038000X0.850000X0.850000X-0.850000X0.850000X-0.850000X-0.850000X0.850000X-0.850000X0*%
%ADD35RoundRect,0.261177X-0.751823X0.626823X-0.751823X-0.626823X0.751823X-0.626823X0.751823X0.626823X0*%
%ADD36O,2.026000X1.776000*%
%ADD37RoundRect,0.261177X0.751823X-0.626823X0.751823X0.626823X-0.751823X0.626823X-0.751823X-0.626823X0*%
G04 APERTURE END LIST*
D10*
X132931819Y-29971904D02*
X133741342Y-29971904D01*
X133741342Y-29971904D02*
X133836580Y-29924285D01*
X133836580Y-29924285D02*
X133884200Y-29876666D01*
X133884200Y-29876666D02*
X133931819Y-29781428D01*
X133931819Y-29781428D02*
X133931819Y-29590952D01*
X133931819Y-29590952D02*
X133884200Y-29495714D01*
X133884200Y-29495714D02*
X133836580Y-29448095D01*
X133836580Y-29448095D02*
X133741342Y-29400476D01*
X133741342Y-29400476D02*
X132931819Y-29400476D01*
X133027057Y-28971904D02*
X132979438Y-28924285D01*
X132979438Y-28924285D02*
X132931819Y-28829047D01*
X132931819Y-28829047D02*
X132931819Y-28590952D01*
X132931819Y-28590952D02*
X132979438Y-28495714D01*
X132979438Y-28495714D02*
X133027057Y-28448095D01*
X133027057Y-28448095D02*
X133122295Y-28400476D01*
X133122295Y-28400476D02*
X133217533Y-28400476D01*
X133217533Y-28400476D02*
X133360390Y-28448095D01*
X133360390Y-28448095D02*
X133931819Y-29019523D01*
X133931819Y-29019523D02*
X133931819Y-28400476D01*
X112387142Y-90783580D02*
X112339523Y-90831200D01*
X112339523Y-90831200D02*
X112196666Y-90878819D01*
X112196666Y-90878819D02*
X112101428Y-90878819D01*
X112101428Y-90878819D02*
X111958571Y-90831200D01*
X111958571Y-90831200D02*
X111863333Y-90735961D01*
X111863333Y-90735961D02*
X111815714Y-90640723D01*
X111815714Y-90640723D02*
X111768095Y-90450247D01*
X111768095Y-90450247D02*
X111768095Y-90307390D01*
X111768095Y-90307390D02*
X111815714Y-90116914D01*
X111815714Y-90116914D02*
X111863333Y-90021676D01*
X111863333Y-90021676D02*
X111958571Y-89926438D01*
X111958571Y-89926438D02*
X112101428Y-89878819D01*
X112101428Y-89878819D02*
X112196666Y-89878819D01*
X112196666Y-89878819D02*
X112339523Y-89926438D01*
X112339523Y-89926438D02*
X112387142Y-89974057D01*
X113339523Y-90878819D02*
X112768095Y-90878819D01*
X113053809Y-90878819D02*
X113053809Y-89878819D01*
X113053809Y-89878819D02*
X112958571Y-90021676D01*
X112958571Y-90021676D02*
X112863333Y-90116914D01*
X112863333Y-90116914D02*
X112768095Y-90164533D01*
X113815714Y-90878819D02*
X114006190Y-90878819D01*
X114006190Y-90878819D02*
X114101428Y-90831200D01*
X114101428Y-90831200D02*
X114149047Y-90783580D01*
X114149047Y-90783580D02*
X114244285Y-90640723D01*
X114244285Y-90640723D02*
X114291904Y-90450247D01*
X114291904Y-90450247D02*
X114291904Y-90069295D01*
X114291904Y-90069295D02*
X114244285Y-89974057D01*
X114244285Y-89974057D02*
X114196666Y-89926438D01*
X114196666Y-89926438D02*
X114101428Y-89878819D01*
X114101428Y-89878819D02*
X113910952Y-89878819D01*
X113910952Y-89878819D02*
X113815714Y-89926438D01*
X113815714Y-89926438D02*
X113768095Y-89974057D01*
X113768095Y-89974057D02*
X113720476Y-90069295D01*
X113720476Y-90069295D02*
X113720476Y-90307390D01*
X113720476Y-90307390D02*
X113768095Y-90402628D01*
X113768095Y-90402628D02*
X113815714Y-90450247D01*
X113815714Y-90450247D02*
X113910952Y-90497866D01*
X113910952Y-90497866D02*
X114101428Y-90497866D01*
X114101428Y-90497866D02*
X114196666Y-90450247D01*
X114196666Y-90450247D02*
X114244285Y-90402628D01*
X114244285Y-90402628D02*
X114291904Y-90307390D01*
X123023333Y-90878819D02*
X122547143Y-90878819D01*
X122547143Y-90878819D02*
X122547143Y-89878819D01*
X123880476Y-90878819D02*
X123309048Y-90878819D01*
X123594762Y-90878819D02*
X123594762Y-89878819D01*
X123594762Y-89878819D02*
X123499524Y-90021676D01*
X123499524Y-90021676D02*
X123404286Y-90116914D01*
X123404286Y-90116914D02*
X123309048Y-90164533D01*
X121229523Y-46809819D02*
X120896190Y-46333628D01*
X120658095Y-46809819D02*
X120658095Y-45809819D01*
X120658095Y-45809819D02*
X121039047Y-45809819D01*
X121039047Y-45809819D02*
X121134285Y-45857438D01*
X121134285Y-45857438D02*
X121181904Y-45905057D01*
X121181904Y-45905057D02*
X121229523Y-46000295D01*
X121229523Y-46000295D02*
X121229523Y-46143152D01*
X121229523Y-46143152D02*
X121181904Y-46238390D01*
X121181904Y-46238390D02*
X121134285Y-46286009D01*
X121134285Y-46286009D02*
X121039047Y-46333628D01*
X121039047Y-46333628D02*
X120658095Y-46333628D01*
X121658095Y-46809819D02*
X121658095Y-45809819D01*
X121658095Y-45809819D02*
X122229523Y-46809819D01*
X122229523Y-46809819D02*
X122229523Y-45809819D01*
X122658095Y-45905057D02*
X122705714Y-45857438D01*
X122705714Y-45857438D02*
X122800952Y-45809819D01*
X122800952Y-45809819D02*
X123039047Y-45809819D01*
X123039047Y-45809819D02*
X123134285Y-45857438D01*
X123134285Y-45857438D02*
X123181904Y-45905057D01*
X123181904Y-45905057D02*
X123229523Y-46000295D01*
X123229523Y-46000295D02*
X123229523Y-46095533D01*
X123229523Y-46095533D02*
X123181904Y-46238390D01*
X123181904Y-46238390D02*
X122610476Y-46809819D01*
X122610476Y-46809819D02*
X123229523Y-46809819D01*
X105828180Y-38567694D02*
X105018657Y-38567694D01*
X105018657Y-38567694D02*
X104923419Y-38615313D01*
X104923419Y-38615313D02*
X104875800Y-38662932D01*
X104875800Y-38662932D02*
X104828180Y-38758170D01*
X104828180Y-38758170D02*
X104828180Y-38948646D01*
X104828180Y-38948646D02*
X104875800Y-39043884D01*
X104875800Y-39043884D02*
X104923419Y-39091503D01*
X104923419Y-39091503D02*
X105018657Y-39139122D01*
X105018657Y-39139122D02*
X105828180Y-39139122D01*
X105494847Y-40043884D02*
X104828180Y-40043884D01*
X105875800Y-39805789D02*
X105161514Y-39567694D01*
X105161514Y-39567694D02*
X105161514Y-40186741D01*
X118618095Y-25616819D02*
X118618095Y-26426342D01*
X118618095Y-26426342D02*
X118665714Y-26521580D01*
X118665714Y-26521580D02*
X118713333Y-26569200D01*
X118713333Y-26569200D02*
X118808571Y-26616819D01*
X118808571Y-26616819D02*
X118999047Y-26616819D01*
X118999047Y-26616819D02*
X119094285Y-26569200D01*
X119094285Y-26569200D02*
X119141904Y-26521580D01*
X119141904Y-26521580D02*
X119189523Y-26426342D01*
X119189523Y-26426342D02*
X119189523Y-25616819D01*
X120141904Y-25616819D02*
X119665714Y-25616819D01*
X119665714Y-25616819D02*
X119618095Y-26093009D01*
X119618095Y-26093009D02*
X119665714Y-26045390D01*
X119665714Y-26045390D02*
X119760952Y-25997771D01*
X119760952Y-25997771D02*
X119999047Y-25997771D01*
X119999047Y-25997771D02*
X120094285Y-26045390D01*
X120094285Y-26045390D02*
X120141904Y-26093009D01*
X120141904Y-26093009D02*
X120189523Y-26188247D01*
X120189523Y-26188247D02*
X120189523Y-26426342D01*
X120189523Y-26426342D02*
X120141904Y-26521580D01*
X120141904Y-26521580D02*
X120094285Y-26569200D01*
X120094285Y-26569200D02*
X119999047Y-26616819D01*
X119999047Y-26616819D02*
X119760952Y-26616819D01*
X119760952Y-26616819D02*
X119665714Y-26569200D01*
X119665714Y-26569200D02*
X119618095Y-26521580D01*
X125087142Y-90783580D02*
X125039523Y-90831200D01*
X125039523Y-90831200D02*
X124896666Y-90878819D01*
X124896666Y-90878819D02*
X124801428Y-90878819D01*
X124801428Y-90878819D02*
X124658571Y-90831200D01*
X124658571Y-90831200D02*
X124563333Y-90735961D01*
X124563333Y-90735961D02*
X124515714Y-90640723D01*
X124515714Y-90640723D02*
X124468095Y-90450247D01*
X124468095Y-90450247D02*
X124468095Y-90307390D01*
X124468095Y-90307390D02*
X124515714Y-90116914D01*
X124515714Y-90116914D02*
X124563333Y-90021676D01*
X124563333Y-90021676D02*
X124658571Y-89926438D01*
X124658571Y-89926438D02*
X124801428Y-89878819D01*
X124801428Y-89878819D02*
X124896666Y-89878819D01*
X124896666Y-89878819D02*
X125039523Y-89926438D01*
X125039523Y-89926438D02*
X125087142Y-89974057D01*
X126039523Y-90878819D02*
X125468095Y-90878819D01*
X125753809Y-90878819D02*
X125753809Y-89878819D01*
X125753809Y-89878819D02*
X125658571Y-90021676D01*
X125658571Y-90021676D02*
X125563333Y-90116914D01*
X125563333Y-90116914D02*
X125468095Y-90164533D01*
X126610952Y-90307390D02*
X126515714Y-90259771D01*
X126515714Y-90259771D02*
X126468095Y-90212152D01*
X126468095Y-90212152D02*
X126420476Y-90116914D01*
X126420476Y-90116914D02*
X126420476Y-90069295D01*
X126420476Y-90069295D02*
X126468095Y-89974057D01*
X126468095Y-89974057D02*
X126515714Y-89926438D01*
X126515714Y-89926438D02*
X126610952Y-89878819D01*
X126610952Y-89878819D02*
X126801428Y-89878819D01*
X126801428Y-89878819D02*
X126896666Y-89926438D01*
X126896666Y-89926438D02*
X126944285Y-89974057D01*
X126944285Y-89974057D02*
X126991904Y-90069295D01*
X126991904Y-90069295D02*
X126991904Y-90116914D01*
X126991904Y-90116914D02*
X126944285Y-90212152D01*
X126944285Y-90212152D02*
X126896666Y-90259771D01*
X126896666Y-90259771D02*
X126801428Y-90307390D01*
X126801428Y-90307390D02*
X126610952Y-90307390D01*
X126610952Y-90307390D02*
X126515714Y-90355009D01*
X126515714Y-90355009D02*
X126468095Y-90402628D01*
X126468095Y-90402628D02*
X126420476Y-90497866D01*
X126420476Y-90497866D02*
X126420476Y-90688342D01*
X126420476Y-90688342D02*
X126468095Y-90783580D01*
X126468095Y-90783580D02*
X126515714Y-90831200D01*
X126515714Y-90831200D02*
X126610952Y-90878819D01*
X126610952Y-90878819D02*
X126801428Y-90878819D01*
X126801428Y-90878819D02*
X126896666Y-90831200D01*
X126896666Y-90831200D02*
X126944285Y-90783580D01*
X126944285Y-90783580D02*
X126991904Y-90688342D01*
X126991904Y-90688342D02*
X126991904Y-90497866D01*
X126991904Y-90497866D02*
X126944285Y-90402628D01*
X126944285Y-90402628D02*
X126896666Y-90355009D01*
X126896666Y-90355009D02*
X126801428Y-90307390D01*
X122221666Y-73368819D02*
X122221666Y-74083104D01*
X122221666Y-74083104D02*
X122174047Y-74225961D01*
X122174047Y-74225961D02*
X122078809Y-74321200D01*
X122078809Y-74321200D02*
X121935952Y-74368819D01*
X121935952Y-74368819D02*
X121840714Y-74368819D01*
X123126428Y-73702152D02*
X123126428Y-74368819D01*
X122888333Y-73321200D02*
X122650238Y-74035485D01*
X122650238Y-74035485D02*
X123269285Y-74035485D01*
X114754819Y-83986666D02*
X114278628Y-84319999D01*
X114754819Y-84558094D02*
X113754819Y-84558094D01*
X113754819Y-84558094D02*
X113754819Y-84177142D01*
X113754819Y-84177142D02*
X113802438Y-84081904D01*
X113802438Y-84081904D02*
X113850057Y-84034285D01*
X113850057Y-84034285D02*
X113945295Y-83986666D01*
X113945295Y-83986666D02*
X114088152Y-83986666D01*
X114088152Y-83986666D02*
X114183390Y-84034285D01*
X114183390Y-84034285D02*
X114231009Y-84081904D01*
X114231009Y-84081904D02*
X114278628Y-84177142D01*
X114278628Y-84177142D02*
X114278628Y-84558094D01*
X113754819Y-83653332D02*
X113754819Y-83034285D01*
X113754819Y-83034285D02*
X114135771Y-83367618D01*
X114135771Y-83367618D02*
X114135771Y-83224761D01*
X114135771Y-83224761D02*
X114183390Y-83129523D01*
X114183390Y-83129523D02*
X114231009Y-83081904D01*
X114231009Y-83081904D02*
X114326247Y-83034285D01*
X114326247Y-83034285D02*
X114564342Y-83034285D01*
X114564342Y-83034285D02*
X114659580Y-83081904D01*
X114659580Y-83081904D02*
X114707200Y-83129523D01*
X114707200Y-83129523D02*
X114754819Y-83224761D01*
X114754819Y-83224761D02*
X114754819Y-83510475D01*
X114754819Y-83510475D02*
X114707200Y-83605713D01*
X114707200Y-83605713D02*
X114659580Y-83653332D01*
X111069523Y-46809819D02*
X110736190Y-46333628D01*
X110498095Y-46809819D02*
X110498095Y-45809819D01*
X110498095Y-45809819D02*
X110879047Y-45809819D01*
X110879047Y-45809819D02*
X110974285Y-45857438D01*
X110974285Y-45857438D02*
X111021904Y-45905057D01*
X111021904Y-45905057D02*
X111069523Y-46000295D01*
X111069523Y-46000295D02*
X111069523Y-46143152D01*
X111069523Y-46143152D02*
X111021904Y-46238390D01*
X111021904Y-46238390D02*
X110974285Y-46286009D01*
X110974285Y-46286009D02*
X110879047Y-46333628D01*
X110879047Y-46333628D02*
X110498095Y-46333628D01*
X111498095Y-46809819D02*
X111498095Y-45809819D01*
X111498095Y-45809819D02*
X112069523Y-46809819D01*
X112069523Y-46809819D02*
X112069523Y-45809819D01*
X112974285Y-46143152D02*
X112974285Y-46809819D01*
X112736190Y-45762200D02*
X112498095Y-46476485D01*
X112498095Y-46476485D02*
X113117142Y-46476485D01*
X126666666Y-73368819D02*
X126666666Y-74083104D01*
X126666666Y-74083104D02*
X126619047Y-74225961D01*
X126619047Y-74225961D02*
X126523809Y-74321200D01*
X126523809Y-74321200D02*
X126380952Y-74368819D01*
X126380952Y-74368819D02*
X126285714Y-74368819D01*
X127619047Y-73368819D02*
X127142857Y-73368819D01*
X127142857Y-73368819D02*
X127095238Y-73845009D01*
X127095238Y-73845009D02*
X127142857Y-73797390D01*
X127142857Y-73797390D02*
X127238095Y-73749771D01*
X127238095Y-73749771D02*
X127476190Y-73749771D01*
X127476190Y-73749771D02*
X127571428Y-73797390D01*
X127571428Y-73797390D02*
X127619047Y-73845009D01*
X127619047Y-73845009D02*
X127666666Y-73940247D01*
X127666666Y-73940247D02*
X127666666Y-74178342D01*
X127666666Y-74178342D02*
X127619047Y-74273580D01*
X127619047Y-74273580D02*
X127571428Y-74321200D01*
X127571428Y-74321200D02*
X127476190Y-74368819D01*
X127476190Y-74368819D02*
X127238095Y-74368819D01*
X127238095Y-74368819D02*
X127142857Y-74321200D01*
X127142857Y-74321200D02*
X127095238Y-74273580D01*
X120737333Y-81131580D02*
X120689714Y-81179200D01*
X120689714Y-81179200D02*
X120546857Y-81226819D01*
X120546857Y-81226819D02*
X120451619Y-81226819D01*
X120451619Y-81226819D02*
X120308762Y-81179200D01*
X120308762Y-81179200D02*
X120213524Y-81083961D01*
X120213524Y-81083961D02*
X120165905Y-80988723D01*
X120165905Y-80988723D02*
X120118286Y-80798247D01*
X120118286Y-80798247D02*
X120118286Y-80655390D01*
X120118286Y-80655390D02*
X120165905Y-80464914D01*
X120165905Y-80464914D02*
X120213524Y-80369676D01*
X120213524Y-80369676D02*
X120308762Y-80274438D01*
X120308762Y-80274438D02*
X120451619Y-80226819D01*
X120451619Y-80226819D02*
X120546857Y-80226819D01*
X120546857Y-80226819D02*
X120689714Y-80274438D01*
X120689714Y-80274438D02*
X120737333Y-80322057D01*
X121070667Y-80226819D02*
X121737333Y-80226819D01*
X121737333Y-80226819D02*
X121308762Y-81226819D01*
X115657333Y-90878819D02*
X115324000Y-90402628D01*
X115085905Y-90878819D02*
X115085905Y-89878819D01*
X115085905Y-89878819D02*
X115466857Y-89878819D01*
X115466857Y-89878819D02*
X115562095Y-89926438D01*
X115562095Y-89926438D02*
X115609714Y-89974057D01*
X115609714Y-89974057D02*
X115657333Y-90069295D01*
X115657333Y-90069295D02*
X115657333Y-90212152D01*
X115657333Y-90212152D02*
X115609714Y-90307390D01*
X115609714Y-90307390D02*
X115562095Y-90355009D01*
X115562095Y-90355009D02*
X115466857Y-90402628D01*
X115466857Y-90402628D02*
X115085905Y-90402628D01*
X116514476Y-90212152D02*
X116514476Y-90878819D01*
X116276381Y-89831200D02*
X116038286Y-90545485D01*
X116038286Y-90545485D02*
X116657333Y-90545485D01*
X126309523Y-46809819D02*
X125976190Y-46333628D01*
X125738095Y-46809819D02*
X125738095Y-45809819D01*
X125738095Y-45809819D02*
X126119047Y-45809819D01*
X126119047Y-45809819D02*
X126214285Y-45857438D01*
X126214285Y-45857438D02*
X126261904Y-45905057D01*
X126261904Y-45905057D02*
X126309523Y-46000295D01*
X126309523Y-46000295D02*
X126309523Y-46143152D01*
X126309523Y-46143152D02*
X126261904Y-46238390D01*
X126261904Y-46238390D02*
X126214285Y-46286009D01*
X126214285Y-46286009D02*
X126119047Y-46333628D01*
X126119047Y-46333628D02*
X125738095Y-46333628D01*
X126738095Y-46809819D02*
X126738095Y-45809819D01*
X126738095Y-45809819D02*
X127309523Y-46809819D01*
X127309523Y-46809819D02*
X127309523Y-45809819D01*
X128309523Y-46809819D02*
X127738095Y-46809819D01*
X128023809Y-46809819D02*
X128023809Y-45809819D01*
X128023809Y-45809819D02*
X127928571Y-45952676D01*
X127928571Y-45952676D02*
X127833333Y-46047914D01*
X127833333Y-46047914D02*
X127738095Y-46095533D01*
X109339142Y-77194580D02*
X109291523Y-77242200D01*
X109291523Y-77242200D02*
X109148666Y-77289819D01*
X109148666Y-77289819D02*
X109053428Y-77289819D01*
X109053428Y-77289819D02*
X108910571Y-77242200D01*
X108910571Y-77242200D02*
X108815333Y-77146961D01*
X108815333Y-77146961D02*
X108767714Y-77051723D01*
X108767714Y-77051723D02*
X108720095Y-76861247D01*
X108720095Y-76861247D02*
X108720095Y-76718390D01*
X108720095Y-76718390D02*
X108767714Y-76527914D01*
X108767714Y-76527914D02*
X108815333Y-76432676D01*
X108815333Y-76432676D02*
X108910571Y-76337438D01*
X108910571Y-76337438D02*
X109053428Y-76289819D01*
X109053428Y-76289819D02*
X109148666Y-76289819D01*
X109148666Y-76289819D02*
X109291523Y-76337438D01*
X109291523Y-76337438D02*
X109339142Y-76385057D01*
X110291523Y-77289819D02*
X109720095Y-77289819D01*
X110005809Y-77289819D02*
X110005809Y-76289819D01*
X110005809Y-76289819D02*
X109910571Y-76432676D01*
X109910571Y-76432676D02*
X109815333Y-76527914D01*
X109815333Y-76527914D02*
X109720095Y-76575533D01*
X110624857Y-76289819D02*
X111243904Y-76289819D01*
X111243904Y-76289819D02*
X110910571Y-76670771D01*
X110910571Y-76670771D02*
X111053428Y-76670771D01*
X111053428Y-76670771D02*
X111148666Y-76718390D01*
X111148666Y-76718390D02*
X111196285Y-76766009D01*
X111196285Y-76766009D02*
X111243904Y-76861247D01*
X111243904Y-76861247D02*
X111243904Y-77099342D01*
X111243904Y-77099342D02*
X111196285Y-77194580D01*
X111196285Y-77194580D02*
X111148666Y-77242200D01*
X111148666Y-77242200D02*
X111053428Y-77289819D01*
X111053428Y-77289819D02*
X110767714Y-77289819D01*
X110767714Y-77289819D02*
X110672476Y-77242200D01*
X110672476Y-77242200D02*
X110624857Y-77194580D01*
X109466142Y-74654580D02*
X109418523Y-74702200D01*
X109418523Y-74702200D02*
X109275666Y-74749819D01*
X109275666Y-74749819D02*
X109180428Y-74749819D01*
X109180428Y-74749819D02*
X109037571Y-74702200D01*
X109037571Y-74702200D02*
X108942333Y-74606961D01*
X108942333Y-74606961D02*
X108894714Y-74511723D01*
X108894714Y-74511723D02*
X108847095Y-74321247D01*
X108847095Y-74321247D02*
X108847095Y-74178390D01*
X108847095Y-74178390D02*
X108894714Y-73987914D01*
X108894714Y-73987914D02*
X108942333Y-73892676D01*
X108942333Y-73892676D02*
X109037571Y-73797438D01*
X109037571Y-73797438D02*
X109180428Y-73749819D01*
X109180428Y-73749819D02*
X109275666Y-73749819D01*
X109275666Y-73749819D02*
X109418523Y-73797438D01*
X109418523Y-73797438D02*
X109466142Y-73845057D01*
X110418523Y-74749819D02*
X109847095Y-74749819D01*
X110132809Y-74749819D02*
X110132809Y-73749819D01*
X110132809Y-73749819D02*
X110037571Y-73892676D01*
X110037571Y-73892676D02*
X109942333Y-73987914D01*
X109942333Y-73987914D02*
X109847095Y-74035533D01*
X111323285Y-73749819D02*
X110847095Y-73749819D01*
X110847095Y-73749819D02*
X110799476Y-74226009D01*
X110799476Y-74226009D02*
X110847095Y-74178390D01*
X110847095Y-74178390D02*
X110942333Y-74130771D01*
X110942333Y-74130771D02*
X111180428Y-74130771D01*
X111180428Y-74130771D02*
X111275666Y-74178390D01*
X111275666Y-74178390D02*
X111323285Y-74226009D01*
X111323285Y-74226009D02*
X111370904Y-74321247D01*
X111370904Y-74321247D02*
X111370904Y-74559342D01*
X111370904Y-74559342D02*
X111323285Y-74654580D01*
X111323285Y-74654580D02*
X111275666Y-74702200D01*
X111275666Y-74702200D02*
X111180428Y-74749819D01*
X111180428Y-74749819D02*
X110942333Y-74749819D01*
X110942333Y-74749819D02*
X110847095Y-74702200D01*
X110847095Y-74702200D02*
X110799476Y-74654580D01*
X118618095Y-65494819D02*
X118618095Y-66304342D01*
X118618095Y-66304342D02*
X118665714Y-66399580D01*
X118665714Y-66399580D02*
X118713333Y-66447200D01*
X118713333Y-66447200D02*
X118808571Y-66494819D01*
X118808571Y-66494819D02*
X118999047Y-66494819D01*
X118999047Y-66494819D02*
X119094285Y-66447200D01*
X119094285Y-66447200D02*
X119141904Y-66399580D01*
X119141904Y-66399580D02*
X119189523Y-66304342D01*
X119189523Y-66304342D02*
X119189523Y-65494819D01*
X120094285Y-65494819D02*
X119903809Y-65494819D01*
X119903809Y-65494819D02*
X119808571Y-65542438D01*
X119808571Y-65542438D02*
X119760952Y-65590057D01*
X119760952Y-65590057D02*
X119665714Y-65732914D01*
X119665714Y-65732914D02*
X119618095Y-65923390D01*
X119618095Y-65923390D02*
X119618095Y-66304342D01*
X119618095Y-66304342D02*
X119665714Y-66399580D01*
X119665714Y-66399580D02*
X119713333Y-66447200D01*
X119713333Y-66447200D02*
X119808571Y-66494819D01*
X119808571Y-66494819D02*
X119999047Y-66494819D01*
X119999047Y-66494819D02*
X120094285Y-66447200D01*
X120094285Y-66447200D02*
X120141904Y-66399580D01*
X120141904Y-66399580D02*
X120189523Y-66304342D01*
X120189523Y-66304342D02*
X120189523Y-66066247D01*
X120189523Y-66066247D02*
X120141904Y-65971009D01*
X120141904Y-65971009D02*
X120094285Y-65923390D01*
X120094285Y-65923390D02*
X119999047Y-65875771D01*
X119999047Y-65875771D02*
X119808571Y-65875771D01*
X119808571Y-65875771D02*
X119713333Y-65923390D01*
X119713333Y-65923390D02*
X119665714Y-65971009D01*
X119665714Y-65971009D02*
X119618095Y-66066247D01*
X117234819Y-38790476D02*
X116758628Y-39123809D01*
X117234819Y-39361904D02*
X116234819Y-39361904D01*
X116234819Y-39361904D02*
X116234819Y-38980952D01*
X116234819Y-38980952D02*
X116282438Y-38885714D01*
X116282438Y-38885714D02*
X116330057Y-38838095D01*
X116330057Y-38838095D02*
X116425295Y-38790476D01*
X116425295Y-38790476D02*
X116568152Y-38790476D01*
X116568152Y-38790476D02*
X116663390Y-38838095D01*
X116663390Y-38838095D02*
X116711009Y-38885714D01*
X116711009Y-38885714D02*
X116758628Y-38980952D01*
X116758628Y-38980952D02*
X116758628Y-39361904D01*
X117234819Y-38361904D02*
X116234819Y-38361904D01*
X116234819Y-38361904D02*
X117234819Y-37790476D01*
X117234819Y-37790476D02*
X116234819Y-37790476D01*
X116234819Y-36838095D02*
X116234819Y-37314285D01*
X116234819Y-37314285D02*
X116711009Y-37361904D01*
X116711009Y-37361904D02*
X116663390Y-37314285D01*
X116663390Y-37314285D02*
X116615771Y-37219047D01*
X116615771Y-37219047D02*
X116615771Y-36980952D01*
X116615771Y-36980952D02*
X116663390Y-36885714D01*
X116663390Y-36885714D02*
X116711009Y-36838095D01*
X116711009Y-36838095D02*
X116806247Y-36790476D01*
X116806247Y-36790476D02*
X117044342Y-36790476D01*
X117044342Y-36790476D02*
X117139580Y-36838095D01*
X117139580Y-36838095D02*
X117187200Y-36885714D01*
X117187200Y-36885714D02*
X117234819Y-36980952D01*
X117234819Y-36980952D02*
X117234819Y-37219047D01*
X117234819Y-37219047D02*
X117187200Y-37314285D01*
X117187200Y-37314285D02*
X117139580Y-37361904D01*
X116149523Y-46809819D02*
X115816190Y-46333628D01*
X115578095Y-46809819D02*
X115578095Y-45809819D01*
X115578095Y-45809819D02*
X115959047Y-45809819D01*
X115959047Y-45809819D02*
X116054285Y-45857438D01*
X116054285Y-45857438D02*
X116101904Y-45905057D01*
X116101904Y-45905057D02*
X116149523Y-46000295D01*
X116149523Y-46000295D02*
X116149523Y-46143152D01*
X116149523Y-46143152D02*
X116101904Y-46238390D01*
X116101904Y-46238390D02*
X116054285Y-46286009D01*
X116054285Y-46286009D02*
X115959047Y-46333628D01*
X115959047Y-46333628D02*
X115578095Y-46333628D01*
X116578095Y-46809819D02*
X116578095Y-45809819D01*
X116578095Y-45809819D02*
X117149523Y-46809819D01*
X117149523Y-46809819D02*
X117149523Y-45809819D01*
X117530476Y-45809819D02*
X118149523Y-45809819D01*
X118149523Y-45809819D02*
X117816190Y-46190771D01*
X117816190Y-46190771D02*
X117959047Y-46190771D01*
X117959047Y-46190771D02*
X118054285Y-46238390D01*
X118054285Y-46238390D02*
X118101904Y-46286009D01*
X118101904Y-46286009D02*
X118149523Y-46381247D01*
X118149523Y-46381247D02*
X118149523Y-46619342D01*
X118149523Y-46619342D02*
X118101904Y-46714580D01*
X118101904Y-46714580D02*
X118054285Y-46762200D01*
X118054285Y-46762200D02*
X117959047Y-46809819D01*
X117959047Y-46809819D02*
X117673333Y-46809819D01*
X117673333Y-46809819D02*
X117578095Y-46762200D01*
X117578095Y-46762200D02*
X117530476Y-46714580D01*
X132931819Y-39918305D02*
X133741342Y-39918305D01*
X133741342Y-39918305D02*
X133836580Y-39870686D01*
X133836580Y-39870686D02*
X133884200Y-39823067D01*
X133884200Y-39823067D02*
X133931819Y-39727829D01*
X133931819Y-39727829D02*
X133931819Y-39537353D01*
X133931819Y-39537353D02*
X133884200Y-39442115D01*
X133884200Y-39442115D02*
X133836580Y-39394496D01*
X133836580Y-39394496D02*
X133741342Y-39346877D01*
X133741342Y-39346877D02*
X132931819Y-39346877D01*
X133931819Y-38346877D02*
X133931819Y-38918305D01*
X133931819Y-38632591D02*
X132931819Y-38632591D01*
X132931819Y-38632591D02*
X133074676Y-38727829D01*
X133074676Y-38727829D02*
X133169914Y-38823067D01*
X133169914Y-38823067D02*
X133217533Y-38918305D01*
X120737333Y-78591580D02*
X120689714Y-78639200D01*
X120689714Y-78639200D02*
X120546857Y-78686819D01*
X120546857Y-78686819D02*
X120451619Y-78686819D01*
X120451619Y-78686819D02*
X120308762Y-78639200D01*
X120308762Y-78639200D02*
X120213524Y-78543961D01*
X120213524Y-78543961D02*
X120165905Y-78448723D01*
X120165905Y-78448723D02*
X120118286Y-78258247D01*
X120118286Y-78258247D02*
X120118286Y-78115390D01*
X120118286Y-78115390D02*
X120165905Y-77924914D01*
X120165905Y-77924914D02*
X120213524Y-77829676D01*
X120213524Y-77829676D02*
X120308762Y-77734438D01*
X120308762Y-77734438D02*
X120451619Y-77686819D01*
X120451619Y-77686819D02*
X120546857Y-77686819D01*
X120546857Y-77686819D02*
X120689714Y-77734438D01*
X120689714Y-77734438D02*
X120737333Y-77782057D01*
X121594476Y-77686819D02*
X121404000Y-77686819D01*
X121404000Y-77686819D02*
X121308762Y-77734438D01*
X121308762Y-77734438D02*
X121261143Y-77782057D01*
X121261143Y-77782057D02*
X121165905Y-77924914D01*
X121165905Y-77924914D02*
X121118286Y-78115390D01*
X121118286Y-78115390D02*
X121118286Y-78496342D01*
X121118286Y-78496342D02*
X121165905Y-78591580D01*
X121165905Y-78591580D02*
X121213524Y-78639200D01*
X121213524Y-78639200D02*
X121308762Y-78686819D01*
X121308762Y-78686819D02*
X121499238Y-78686819D01*
X121499238Y-78686819D02*
X121594476Y-78639200D01*
X121594476Y-78639200D02*
X121642095Y-78591580D01*
X121642095Y-78591580D02*
X121689714Y-78496342D01*
X121689714Y-78496342D02*
X121689714Y-78258247D01*
X121689714Y-78258247D02*
X121642095Y-78163009D01*
X121642095Y-78163009D02*
X121594476Y-78115390D01*
X121594476Y-78115390D02*
X121499238Y-78067771D01*
X121499238Y-78067771D02*
X121308762Y-78067771D01*
X121308762Y-78067771D02*
X121213524Y-78115390D01*
X121213524Y-78115390D02*
X121165905Y-78163009D01*
X121165905Y-78163009D02*
X121118286Y-78258247D01*
X118872095Y-84290819D02*
X118872095Y-85100342D01*
X118872095Y-85100342D02*
X118919714Y-85195580D01*
X118919714Y-85195580D02*
X118967333Y-85243200D01*
X118967333Y-85243200D02*
X119062571Y-85290819D01*
X119062571Y-85290819D02*
X119253047Y-85290819D01*
X119253047Y-85290819D02*
X119348285Y-85243200D01*
X119348285Y-85243200D02*
X119395904Y-85195580D01*
X119395904Y-85195580D02*
X119443523Y-85100342D01*
X119443523Y-85100342D02*
X119443523Y-84290819D01*
X119824476Y-84290819D02*
X120491142Y-84290819D01*
X120491142Y-84290819D02*
X120062571Y-85290819D01*
X105828180Y-28534694D02*
X105018657Y-28534694D01*
X105018657Y-28534694D02*
X104923419Y-28582313D01*
X104923419Y-28582313D02*
X104875800Y-28629932D01*
X104875800Y-28629932D02*
X104828180Y-28725170D01*
X104828180Y-28725170D02*
X104828180Y-28915646D01*
X104828180Y-28915646D02*
X104875800Y-29010884D01*
X104875800Y-29010884D02*
X104923419Y-29058503D01*
X104923419Y-29058503D02*
X105018657Y-29106122D01*
X105018657Y-29106122D02*
X105828180Y-29106122D01*
X105828180Y-29487075D02*
X105828180Y-30106122D01*
X105828180Y-30106122D02*
X105447228Y-29772789D01*
X105447228Y-29772789D02*
X105447228Y-29915646D01*
X105447228Y-29915646D02*
X105399609Y-30010884D01*
X105399609Y-30010884D02*
X105351990Y-30058503D01*
X105351990Y-30058503D02*
X105256752Y-30106122D01*
X105256752Y-30106122D02*
X105018657Y-30106122D01*
X105018657Y-30106122D02*
X104923419Y-30058503D01*
X104923419Y-30058503D02*
X104875800Y-30010884D01*
X104875800Y-30010884D02*
X104828180Y-29915646D01*
X104828180Y-29915646D02*
X104828180Y-29629932D01*
X104828180Y-29629932D02*
X104875800Y-29534694D01*
X104875800Y-29534694D02*
X104923419Y-29487075D01*
D11*
X130332999Y-28433000D02*
X130332999Y-29987000D01*
X132286999Y-29987000D02*
X132286999Y-28433000D01*
X130883828Y-30697541D02*
G75*
G02*
X130736170Y-30697541I-73829J-18859D01*
G01*
D12*
X112389000Y-87693752D02*
X112389000Y-87171248D01*
X113859000Y-87693752D02*
X113859000Y-87171248D01*
D13*
X109980000Y-52870000D02*
X109980000Y-51270000D01*
X113540000Y-52870000D02*
X113540000Y-51270000D01*
D14*
X110660000Y-53945000D02*
G75*
G02*
X110460000Y-53945000I-100000J0D01*
G01*
X110460000Y-53945000D02*
G75*
G02*
X110660000Y-53945000I100000J0D01*
G01*
D12*
X110697504Y-67845000D02*
X110175000Y-67845000D01*
X110697504Y-69315000D02*
X110175000Y-69315000D01*
X122630000Y-87681622D02*
X122630000Y-86882378D01*
X123750000Y-87681622D02*
X123750000Y-86882378D01*
X120200000Y-48280000D02*
X120200000Y-49080000D01*
X123640000Y-48280000D02*
X123640000Y-49080000D01*
D11*
X106473001Y-38552599D02*
X106473001Y-40106599D01*
X108427001Y-40106599D02*
X108427001Y-38552599D01*
X107876172Y-37842058D02*
G75*
G02*
X108023830Y-37842058I73829J18859D01*
G01*
X118403000Y-27630599D02*
X118403000Y-29184599D01*
X120357000Y-29184599D02*
X120357000Y-27630599D01*
X118953829Y-29895140D02*
G75*
G02*
X118806171Y-29895140I-73829J-18859D01*
G01*
D12*
X125089000Y-87543252D02*
X125089000Y-87020748D01*
X126559000Y-87543252D02*
X126559000Y-87020748D01*
X124005000Y-76200000D02*
G75*
G02*
X121105000Y-76200000I-1450000J0D01*
G01*
X121105000Y-76200000D02*
G75*
G02*
X124005000Y-76200000I1450000J0D01*
G01*
X128042936Y-65940000D02*
X128497064Y-65940000D01*
X128042936Y-67410000D02*
X128497064Y-67410000D01*
X110751252Y-65559000D02*
X110228748Y-65559000D01*
X110751252Y-67029000D02*
X110228748Y-67029000D01*
X115089000Y-84047064D02*
X115089000Y-83592936D01*
X116559000Y-84047064D02*
X116559000Y-83592936D01*
X110040000Y-48280000D02*
X110040000Y-49080000D01*
X113480000Y-48280000D02*
X113480000Y-49080000D01*
X128450000Y-76200000D02*
G75*
G02*
X125550000Y-76200000I-1450000J0D01*
G01*
X125550000Y-76200000D02*
G75*
G02*
X128450000Y-76200000I1450000J0D01*
G01*
X117655748Y-80037000D02*
X118178252Y-80037000D01*
X117655748Y-81507000D02*
X118178252Y-81507000D01*
D13*
X125220000Y-52870000D02*
X125220000Y-51270000D01*
X128780000Y-52870000D02*
X128780000Y-51270000D01*
D14*
X125900000Y-53945000D02*
G75*
G02*
X125700000Y-53945000I-100000J0D01*
G01*
X125700000Y-53945000D02*
G75*
G02*
X125900000Y-53945000I100000J0D01*
G01*
D12*
X115089000Y-87205436D02*
X115089000Y-87659564D01*
X116559000Y-87205436D02*
X116559000Y-87659564D01*
D13*
X117600000Y-42710000D02*
X117600000Y-41110000D01*
X121160000Y-42710000D02*
X121160000Y-41110000D01*
D14*
X118280000Y-43785000D02*
G75*
G02*
X118080000Y-43785000I-100000J0D01*
G01*
X118080000Y-43785000D02*
G75*
G02*
X118280000Y-43785000I100000J0D01*
G01*
D12*
X128008748Y-63908000D02*
X128531252Y-63908000D01*
X128008748Y-65378000D02*
X128531252Y-65378000D01*
X125280000Y-48280000D02*
X125280000Y-49080000D01*
X128720000Y-48280000D02*
X128720000Y-49080000D01*
X110751252Y-60225000D02*
X110228748Y-60225000D01*
X110751252Y-61695000D02*
X110228748Y-61695000D01*
X113484252Y-76100000D02*
X112961748Y-76100000D01*
X113484252Y-77570000D02*
X112961748Y-77570000D01*
D13*
X120140000Y-52870000D02*
X120140000Y-51270000D01*
X123700000Y-52870000D02*
X123700000Y-51270000D01*
D14*
X120820000Y-53945000D02*
G75*
G02*
X120620000Y-53945000I-100000J0D01*
G01*
X120620000Y-53945000D02*
G75*
G02*
X120820000Y-53945000I100000J0D01*
G01*
D12*
X113484252Y-73560000D02*
X112961748Y-73560000D01*
X113484252Y-75030000D02*
X112961748Y-75030000D01*
X110751252Y-70385000D02*
X110228748Y-70385000D01*
X110751252Y-71855000D02*
X110228748Y-71855000D01*
D13*
X114380000Y-61040000D02*
X114380000Y-61830000D01*
X114380000Y-61040000D02*
X115170000Y-61040000D01*
X114380000Y-71040000D02*
X114380000Y-70250000D01*
X114380000Y-71040000D02*
X115170000Y-71040000D01*
X124380000Y-61040000D02*
X123590000Y-61040000D01*
X124380000Y-61040000D02*
X124380000Y-61830000D01*
X124380000Y-71040000D02*
X123590000Y-71040000D01*
X124380000Y-71040000D02*
X124380000Y-70250000D01*
D14*
X123230000Y-58600000D02*
G75*
G02*
X123030000Y-58600000I-100000J0D01*
G01*
X123030000Y-58600000D02*
G75*
G02*
X123230000Y-58600000I100000J0D01*
G01*
D12*
X117660000Y-37700000D02*
X117660000Y-38500000D01*
X121100000Y-37700000D02*
X121100000Y-38500000D01*
D13*
X115060000Y-52870000D02*
X115060000Y-51270000D01*
X118620000Y-52870000D02*
X118620000Y-51270000D01*
D14*
X115740000Y-53945000D02*
G75*
G02*
X115540000Y-53945000I-100000J0D01*
G01*
X115540000Y-53945000D02*
G75*
G02*
X115740000Y-53945000I100000J0D01*
G01*
D12*
X115120000Y-48280000D02*
X115120000Y-49080000D01*
X118560000Y-48280000D02*
X118560000Y-49080000D01*
X110751252Y-62765000D02*
X110228748Y-62765000D01*
X110751252Y-64235000D02*
X110228748Y-64235000D01*
D11*
X130332999Y-38379401D02*
X130332999Y-39933401D01*
X132286999Y-39933401D02*
X132286999Y-38379401D01*
X130883828Y-40643942D02*
G75*
G02*
X130736170Y-40643942I-73829J-18859D01*
G01*
D12*
X128531252Y-61876000D02*
X128008748Y-61876000D01*
X128531252Y-63346000D02*
X128008748Y-63346000D01*
X117655748Y-77497000D02*
X118178252Y-77497000D01*
X117655748Y-78967000D02*
X118178252Y-78967000D01*
X128531252Y-59717000D02*
X128008748Y-59717000D01*
X128531252Y-61187000D02*
X128008748Y-61187000D01*
X128042936Y-57685000D02*
X128497064Y-57685000D01*
X128042936Y-59155000D02*
X128497064Y-59155000D01*
D11*
X118445300Y-89085400D02*
X120502700Y-89085400D01*
X120502700Y-85732600D02*
X118445300Y-85732600D01*
X106473001Y-28519599D02*
X106473001Y-30073599D01*
X108427001Y-30073599D02*
X108427001Y-28519599D01*
X107876172Y-27809058D02*
G75*
G02*
X108023830Y-27809058I73829J18859D01*
G01*
%LPC*%
D15*
X130810000Y-30012401D03*
X131309999Y-30012401D03*
X131809998Y-30012401D03*
X131809998Y-28407599D03*
X131309999Y-28407599D03*
X130810000Y-28407599D03*
D16*
X113124000Y-88382500D03*
X113124000Y-86482500D03*
D17*
X110620000Y-52895000D03*
X111380000Y-52895000D03*
X112140000Y-52895000D03*
X112900000Y-52895000D03*
X112900000Y-51245000D03*
X112140000Y-51245000D03*
X111380000Y-51245000D03*
X110620000Y-51245000D03*
D18*
X111386252Y-68580000D03*
X109486252Y-68580000D03*
D19*
X123190000Y-88344500D03*
X123190000Y-86219500D03*
D20*
X120720000Y-49530000D03*
X121520000Y-49530000D03*
X122320000Y-49530000D03*
X123120000Y-49530000D03*
X123120000Y-47830000D03*
X122320000Y-47830000D03*
X121520000Y-47830000D03*
X120720000Y-47830000D03*
D21*
X107950000Y-38527198D03*
X107450001Y-38527198D03*
X106950002Y-38527198D03*
X106950002Y-40132000D03*
X107450001Y-40132000D03*
X107950000Y-40132000D03*
D15*
X118880001Y-29210000D03*
X119380000Y-29210000D03*
X119879999Y-29210000D03*
X119879999Y-27605198D03*
X119380000Y-27605198D03*
X118880001Y-27605198D03*
D16*
X125824000Y-88232000D03*
X125824000Y-86332000D03*
D22*
X122555000Y-76200000D03*
D23*
X127357500Y-66675000D03*
X129182500Y-66675000D03*
D18*
X111440000Y-66294000D03*
X109540000Y-66294000D03*
D24*
X115824000Y-84732500D03*
X115824000Y-82907500D03*
D20*
X110560000Y-49530000D03*
X111360000Y-49530000D03*
X112160000Y-49530000D03*
X112960000Y-49530000D03*
X112960000Y-47830000D03*
X112160000Y-47830000D03*
X111360000Y-47830000D03*
X110560000Y-47830000D03*
D22*
X127000000Y-76200000D03*
D25*
X116967000Y-80772000D03*
X118867000Y-80772000D03*
D17*
X125860000Y-52895000D03*
X126620000Y-52895000D03*
X127380000Y-52895000D03*
X128140000Y-52895000D03*
X128140000Y-51245000D03*
X127380000Y-51245000D03*
X126620000Y-51245000D03*
X125860000Y-51245000D03*
D26*
X115824000Y-86520000D03*
X115824000Y-88345000D03*
D17*
X118240000Y-42735000D03*
X119000000Y-42735000D03*
X119760000Y-42735000D03*
X120520000Y-42735000D03*
X120520000Y-41085000D03*
X119760000Y-41085000D03*
X119000000Y-41085000D03*
X118240000Y-41085000D03*
D25*
X127320000Y-64643000D03*
X129220000Y-64643000D03*
D20*
X125800000Y-49530000D03*
X126600000Y-49530000D03*
X127400000Y-49530000D03*
X128200000Y-49530000D03*
X128200000Y-47830000D03*
X127400000Y-47830000D03*
X126600000Y-47830000D03*
X125800000Y-47830000D03*
D18*
X111440000Y-60960000D03*
X109540000Y-60960000D03*
X114173000Y-76835000D03*
X112273000Y-76835000D03*
D17*
X120780000Y-52895000D03*
X121540000Y-52895000D03*
X122300000Y-52895000D03*
X123060000Y-52895000D03*
X123060000Y-51245000D03*
X122300000Y-51245000D03*
X121540000Y-51245000D03*
X120780000Y-51245000D03*
D18*
X114173000Y-74295000D03*
X112273000Y-74295000D03*
X111440000Y-71120000D03*
X109540000Y-71120000D03*
D27*
X123130000Y-60360000D03*
X122630000Y-60360000D03*
X122130000Y-60360000D03*
X121630000Y-60360000D03*
X121130000Y-60360000D03*
X120630000Y-60360000D03*
X120130000Y-60360000D03*
X119630000Y-60360000D03*
X119130000Y-60360000D03*
X118630000Y-60360000D03*
X118130000Y-60360000D03*
X117630000Y-60360000D03*
X117130000Y-60360000D03*
X116630000Y-60360000D03*
X116130000Y-60360000D03*
X115630000Y-60360000D03*
D28*
X113700000Y-62290000D03*
X113700000Y-62790000D03*
X113700000Y-63290000D03*
X113700000Y-63790000D03*
X113700000Y-64290000D03*
X113700000Y-64790000D03*
X113700000Y-65290000D03*
X113700000Y-65790000D03*
X113700000Y-66290000D03*
X113700000Y-66790000D03*
X113700000Y-67290000D03*
X113700000Y-67790000D03*
X113700000Y-68290000D03*
X113700000Y-68790000D03*
X113700000Y-69290000D03*
X113700000Y-69790000D03*
D27*
X115630000Y-71720000D03*
X116130000Y-71720000D03*
X116630000Y-71720000D03*
X117130000Y-71720000D03*
X117630000Y-71720000D03*
X118130000Y-71720000D03*
X118630000Y-71720000D03*
X119130000Y-71720000D03*
X119630000Y-71720000D03*
X120130000Y-71720000D03*
X120630000Y-71720000D03*
X121130000Y-71720000D03*
X121630000Y-71720000D03*
X122130000Y-71720000D03*
X122630000Y-71720000D03*
X123130000Y-71720000D03*
D28*
X125060000Y-69790000D03*
X125060000Y-69290000D03*
X125060000Y-68790000D03*
X125060000Y-68290000D03*
X125060000Y-67790000D03*
X125060000Y-67290000D03*
X125060000Y-66790000D03*
X125060000Y-66290000D03*
X125060000Y-65790000D03*
X125060000Y-65290000D03*
X125060000Y-64790000D03*
X125060000Y-64290000D03*
X125060000Y-63790000D03*
X125060000Y-63290000D03*
X125060000Y-62790000D03*
X125060000Y-62290000D03*
D20*
X118180000Y-38950000D03*
X118980000Y-38950000D03*
X119780000Y-38950000D03*
X120580000Y-38950000D03*
X120580000Y-37250000D03*
X119780000Y-37250000D03*
X118980000Y-37250000D03*
X118180000Y-37250000D03*
D17*
X115700000Y-52895000D03*
X116460000Y-52895000D03*
X117220000Y-52895000D03*
X117980000Y-52895000D03*
X117980000Y-51245000D03*
X117220000Y-51245000D03*
X116460000Y-51245000D03*
X115700000Y-51245000D03*
D20*
X115640000Y-49530000D03*
X116440000Y-49530000D03*
X117240000Y-49530000D03*
X118040000Y-49530000D03*
X118040000Y-47830000D03*
X117240000Y-47830000D03*
X116440000Y-47830000D03*
X115640000Y-47830000D03*
D18*
X111440000Y-63500000D03*
X109540000Y-63500000D03*
D15*
X130810000Y-39958802D03*
X131309999Y-39958802D03*
X131809998Y-39958802D03*
X131809998Y-38354000D03*
X131309999Y-38354000D03*
X130810000Y-38354000D03*
D18*
X129220000Y-62611000D03*
X127320000Y-62611000D03*
D25*
X116967000Y-78232000D03*
X118867000Y-78232000D03*
D18*
X129220000Y-60452000D03*
X127320000Y-60452000D03*
D23*
X127357500Y-58420000D03*
X129182500Y-58420000D03*
D29*
X120769400Y-88359001D03*
X120769400Y-87409000D03*
X120769400Y-86458999D03*
X118178600Y-86458999D03*
X118178600Y-87409000D03*
X118178600Y-88359001D03*
D21*
X107950000Y-28494198D03*
X107450001Y-28494198D03*
X106950002Y-28494198D03*
X106950002Y-30099000D03*
X107450001Y-30099000D03*
X107950000Y-30099000D03*
D30*
X106680000Y-91440000D03*
D31*
X106680000Y-88900000D03*
X106680000Y-86360000D03*
X106680000Y-83820000D03*
X106680000Y-81280000D03*
X106680000Y-78740000D03*
X106680000Y-76200000D03*
X106680000Y-73660000D03*
X106680000Y-71120000D03*
X106680000Y-68580000D03*
X106680000Y-66040000D03*
X106680000Y-63500000D03*
X106680000Y-60960000D03*
X106680000Y-58420000D03*
X106680000Y-55880000D03*
X106680000Y-53340000D03*
X106680000Y-50800000D03*
X106680000Y-48260000D03*
D32*
X118150000Y-33020000D03*
D33*
X120650000Y-33020000D03*
D34*
X132080000Y-48260000D03*
D31*
X132080000Y-50800000D03*
X132080000Y-53340000D03*
X132080000Y-55880000D03*
X132080000Y-58420000D03*
X132080000Y-60960000D03*
X132080000Y-63500000D03*
X132080000Y-66040000D03*
X132080000Y-68580000D03*
X132080000Y-71120000D03*
X132080000Y-73660000D03*
X132080000Y-76200000D03*
X132080000Y-78740000D03*
X132080000Y-81280000D03*
X132080000Y-83820000D03*
X132080000Y-86360000D03*
X132080000Y-88900000D03*
X132080000Y-91440000D03*
D35*
X127000002Y-25400000D03*
D36*
X127000002Y-27900000D03*
X127000002Y-30400000D03*
X127000002Y-32900000D03*
X127000002Y-35400000D03*
X127000002Y-37900000D03*
X127000002Y-40400000D03*
X127000002Y-42900000D03*
D37*
X111760000Y-43060000D03*
D36*
X111760000Y-40560000D03*
X111760000Y-38060000D03*
X111760000Y-35560000D03*
X111760000Y-33060000D03*
X111760000Y-30560000D03*
X111760000Y-28060000D03*
X111760000Y-25560000D03*
%LPD*%
M02*
