G04 #@! TF.GenerationSoftware,KiCad,Pcbnew,8.0.8*
G04 #@! TF.CreationDate,2025-03-16T16:25:49-04:00*
G04 #@! TF.ProjectId,Combined_PCB,436f6d62-696e-4656-945f-5043422e6b69,1*
G04 #@! TF.SameCoordinates,Original*
G04 #@! TF.FileFunction,Copper,L1,Top*
G04 #@! TF.FilePolarity,Positive*
%FSLAX46Y46*%
G04 Gerber Fmt 4.6, Leading zero omitted, Abs format (unit mm)*
G04 Created by KiCad (PCBNEW 8.0.8) date 2025-03-16 16:25:49*
%MOMM*%
%LPD*%
G01*
G04 APERTURE LIST*
G04 Aperture macros list*
%AMRoundRect*
0 Rectangle with rounded corners*
0 $1 Rounding radius*
0 $2 $3 $4 $5 $6 $7 $8 $9 X,Y pos of 4 corners*
0 Add a 4 corners polygon primitive as box body*
4,1,4,$2,$3,$4,$5,$6,$7,$8,$9,$2,$3,0*
0 Add four circle primitives for the rounded corners*
1,1,$1+$1,$2,$3*
1,1,$1+$1,$4,$5*
1,1,$1+$1,$6,$7*
1,1,$1+$1,$8,$9*
0 Add four rect primitives between the rounded corners*
20,1,$1+$1,$2,$3,$4,$5,0*
20,1,$1+$1,$4,$5,$6,$7,0*
20,1,$1+$1,$6,$7,$8,$9,0*
20,1,$1+$1,$8,$9,$2,$3,0*%
G04 Aperture macros list end*
G04 #@! TA.AperFunction,SMDPad,CuDef*
%ADD10R,0.199200X0.704800*%
G04 #@! TD*
G04 #@! TA.AperFunction,SMDPad,CuDef*
%ADD11RoundRect,0.250000X0.475000X-0.250000X0.475000X0.250000X-0.475000X0.250000X-0.475000X-0.250000X0*%
G04 #@! TD*
G04 #@! TA.AperFunction,SMDPad,CuDef*
%ADD12R,0.460000X0.890000*%
G04 #@! TD*
G04 #@! TA.AperFunction,SMDPad,CuDef*
%ADD13RoundRect,0.250000X0.250000X0.475000X-0.250000X0.475000X-0.250000X-0.475000X0.250000X-0.475000X0*%
G04 #@! TD*
G04 #@! TA.AperFunction,SMDPad,CuDef*
%ADD14RoundRect,0.218750X0.381250X-0.218750X0.381250X0.218750X-0.381250X0.218750X-0.381250X-0.218750X0*%
G04 #@! TD*
G04 #@! TA.AperFunction,SMDPad,CuDef*
%ADD15R,0.400000X0.900000*%
G04 #@! TD*
G04 #@! TA.AperFunction,SMDPad,CuDef*
%ADD16C,2.500000*%
G04 #@! TD*
G04 #@! TA.AperFunction,SMDPad,CuDef*
%ADD17RoundRect,0.250000X-0.262500X-0.450000X0.262500X-0.450000X0.262500X0.450000X-0.262500X0.450000X0*%
G04 #@! TD*
G04 #@! TA.AperFunction,SMDPad,CuDef*
%ADD18RoundRect,0.250000X0.450000X-0.262500X0.450000X0.262500X-0.450000X0.262500X-0.450000X-0.262500X0*%
G04 #@! TD*
G04 #@! TA.AperFunction,SMDPad,CuDef*
%ADD19RoundRect,0.250000X-0.250000X-0.475000X0.250000X-0.475000X0.250000X0.475000X-0.250000X0.475000X0*%
G04 #@! TD*
G04 #@! TA.AperFunction,SMDPad,CuDef*
%ADD20RoundRect,0.250000X-0.450000X0.262500X-0.450000X-0.262500X0.450000X-0.262500X0.450000X0.262500X0*%
G04 #@! TD*
G04 #@! TA.AperFunction,SMDPad,CuDef*
%ADD21RoundRect,0.035000X-0.105000X0.745000X-0.105000X-0.745000X0.105000X-0.745000X0.105000X0.745000X0*%
G04 #@! TD*
G04 #@! TA.AperFunction,SMDPad,CuDef*
%ADD22RoundRect,0.035000X-0.745000X0.105000X-0.745000X-0.105000X0.745000X-0.105000X0.745000X0.105000X0*%
G04 #@! TD*
G04 #@! TA.AperFunction,SMDPad,CuDef*
%ADD23R,1.320800X0.558800*%
G04 #@! TD*
G04 #@! TA.AperFunction,ComponentPad*
%ADD24R,1.700000X1.700000*%
G04 #@! TD*
G04 #@! TA.AperFunction,ComponentPad*
%ADD25O,1.700000X1.700000*%
G04 #@! TD*
G04 #@! TA.AperFunction,ComponentPad*
%ADD26RoundRect,0.250000X-0.600000X-0.750000X0.600000X-0.750000X0.600000X0.750000X-0.600000X0.750000X0*%
G04 #@! TD*
G04 #@! TA.AperFunction,ComponentPad*
%ADD27O,1.700000X2.000000*%
G04 #@! TD*
G04 #@! TA.AperFunction,ComponentPad*
%ADD28RoundRect,0.250000X-0.725000X0.600000X-0.725000X-0.600000X0.725000X-0.600000X0.725000X0.600000X0*%
G04 #@! TD*
G04 #@! TA.AperFunction,ComponentPad*
%ADD29O,1.950000X1.700000*%
G04 #@! TD*
G04 #@! TA.AperFunction,ComponentPad*
%ADD30RoundRect,0.250000X0.725000X-0.600000X0.725000X0.600000X-0.725000X0.600000X-0.725000X-0.600000X0*%
G04 #@! TD*
G04 #@! TA.AperFunction,ViaPad*
%ADD31C,1.000000*%
G04 #@! TD*
G04 #@! TA.AperFunction,Conductor*
%ADD32C,0.250000*%
G04 #@! TD*
G04 #@! TA.AperFunction,Conductor*
%ADD33C,0.200000*%
G04 #@! TD*
G04 #@! TA.AperFunction,Conductor*
%ADD34C,0.152400*%
G04 #@! TD*
G04 APERTURE END LIST*
D10*
X130810000Y-30012401D03*
X131309999Y-30012401D03*
X131809998Y-30012401D03*
X131809998Y-28407599D03*
X131309999Y-28407599D03*
X130810000Y-28407599D03*
D11*
X113124000Y-88382500D03*
X113124000Y-86482500D03*
D12*
X110620000Y-52895000D03*
X111380000Y-52895000D03*
X112140000Y-52895000D03*
X112900000Y-52895000D03*
X112900000Y-51245000D03*
X112140000Y-51245000D03*
X111380000Y-51245000D03*
X110620000Y-51245000D03*
D13*
X111386252Y-68580000D03*
X109486252Y-68580000D03*
D14*
X123190000Y-88344500D03*
X123190000Y-86219500D03*
D15*
X120720000Y-49530000D03*
X121520000Y-49530000D03*
X122320000Y-49530000D03*
X123120000Y-49530000D03*
X123120000Y-47830000D03*
X122320000Y-47830000D03*
X121520000Y-47830000D03*
X120720000Y-47830000D03*
D10*
X107950000Y-38527198D03*
X107450001Y-38527198D03*
X106950002Y-38527198D03*
X106950002Y-40132000D03*
X107450001Y-40132000D03*
X107950000Y-40132000D03*
X118880001Y-29210000D03*
X119380000Y-29210000D03*
X119879999Y-29210000D03*
X119879999Y-27605198D03*
X119380000Y-27605198D03*
X118880001Y-27605198D03*
D11*
X125824000Y-88232000D03*
X125824000Y-86332000D03*
D16*
X122555000Y-76200000D03*
D17*
X127357500Y-66675000D03*
X129182500Y-66675000D03*
D13*
X111440000Y-66294000D03*
X109540000Y-66294000D03*
D18*
X115824000Y-84732500D03*
X115824000Y-82907500D03*
D15*
X110560000Y-49530000D03*
X111360000Y-49530000D03*
X112160000Y-49530000D03*
X112960000Y-49530000D03*
X112960000Y-47830000D03*
X112160000Y-47830000D03*
X111360000Y-47830000D03*
X110560000Y-47830000D03*
D16*
X127000000Y-76200000D03*
D19*
X116967000Y-80772000D03*
X118867000Y-80772000D03*
D12*
X125860000Y-52895000D03*
X126620000Y-52895000D03*
X127380000Y-52895000D03*
X128140000Y-52895000D03*
X128140000Y-51245000D03*
X127380000Y-51245000D03*
X126620000Y-51245000D03*
X125860000Y-51245000D03*
D20*
X115824000Y-86520000D03*
X115824000Y-88345000D03*
D12*
X118240000Y-42735000D03*
X119000000Y-42735000D03*
X119760000Y-42735000D03*
X120520000Y-42735000D03*
X120520000Y-41085000D03*
X119760000Y-41085000D03*
X119000000Y-41085000D03*
X118240000Y-41085000D03*
D19*
X127320000Y-64643000D03*
X129220000Y-64643000D03*
D15*
X125800000Y-49530000D03*
X126600000Y-49530000D03*
X127400000Y-49530000D03*
X128200000Y-49530000D03*
X128200000Y-47830000D03*
X127400000Y-47830000D03*
X126600000Y-47830000D03*
X125800000Y-47830000D03*
D13*
X111440000Y-60960000D03*
X109540000Y-60960000D03*
X114173000Y-76835000D03*
X112273000Y-76835000D03*
D12*
X120780000Y-52895000D03*
X121540000Y-52895000D03*
X122300000Y-52895000D03*
X123060000Y-52895000D03*
X123060000Y-51245000D03*
X122300000Y-51245000D03*
X121540000Y-51245000D03*
X120780000Y-51245000D03*
D13*
X114173000Y-74295000D03*
X112273000Y-74295000D03*
X111440000Y-71120000D03*
X109540000Y-71120000D03*
D21*
X123130000Y-60360000D03*
X122630000Y-60360000D03*
X122130000Y-60360000D03*
X121630000Y-60360000D03*
X121130000Y-60360000D03*
X120630000Y-60360000D03*
X120130000Y-60360000D03*
X119630000Y-60360000D03*
X119130000Y-60360000D03*
X118630000Y-60360000D03*
X118130000Y-60360000D03*
X117630000Y-60360000D03*
X117130000Y-60360000D03*
X116630000Y-60360000D03*
X116130000Y-60360000D03*
X115630000Y-60360000D03*
D22*
X113700000Y-62290000D03*
X113700000Y-62790000D03*
X113700000Y-63290000D03*
X113700000Y-63790000D03*
X113700000Y-64290000D03*
X113700000Y-64790000D03*
X113700000Y-65290000D03*
X113700000Y-65790000D03*
X113700000Y-66290000D03*
X113700000Y-66790000D03*
X113700000Y-67290000D03*
X113700000Y-67790000D03*
X113700000Y-68290000D03*
X113700000Y-68790000D03*
X113700000Y-69290000D03*
X113700000Y-69790000D03*
D21*
X115630000Y-71720000D03*
X116130000Y-71720000D03*
X116630000Y-71720000D03*
X117130000Y-71720000D03*
X117630000Y-71720000D03*
X118130000Y-71720000D03*
X118630000Y-71720000D03*
X119130000Y-71720000D03*
X119630000Y-71720000D03*
X120130000Y-71720000D03*
X120630000Y-71720000D03*
X121130000Y-71720000D03*
X121630000Y-71720000D03*
X122130000Y-71720000D03*
X122630000Y-71720000D03*
X123130000Y-71720000D03*
D22*
X125060000Y-69790000D03*
X125060000Y-69290000D03*
X125060000Y-68790000D03*
X125060000Y-68290000D03*
X125060000Y-67790000D03*
X125060000Y-67290000D03*
X125060000Y-66790000D03*
X125060000Y-66290000D03*
X125060000Y-65790000D03*
X125060000Y-65290000D03*
X125060000Y-64790000D03*
X125060000Y-64290000D03*
X125060000Y-63790000D03*
X125060000Y-63290000D03*
X125060000Y-62790000D03*
X125060000Y-62290000D03*
D15*
X118180000Y-38950000D03*
X118980000Y-38950000D03*
X119780000Y-38950000D03*
X120580000Y-38950000D03*
X120580000Y-37250000D03*
X119780000Y-37250000D03*
X118980000Y-37250000D03*
X118180000Y-37250000D03*
D12*
X115700000Y-52895000D03*
X116460000Y-52895000D03*
X117220000Y-52895000D03*
X117980000Y-52895000D03*
X117980000Y-51245000D03*
X117220000Y-51245000D03*
X116460000Y-51245000D03*
X115700000Y-51245000D03*
D15*
X115640000Y-49530000D03*
X116440000Y-49530000D03*
X117240000Y-49530000D03*
X118040000Y-49530000D03*
X118040000Y-47830000D03*
X117240000Y-47830000D03*
X116440000Y-47830000D03*
X115640000Y-47830000D03*
D13*
X111440000Y-63500000D03*
X109540000Y-63500000D03*
D10*
X130810000Y-39958802D03*
X131309999Y-39958802D03*
X131809998Y-39958802D03*
X131809998Y-38354000D03*
X131309999Y-38354000D03*
X130810000Y-38354000D03*
D13*
X129220000Y-62611000D03*
X127320000Y-62611000D03*
D19*
X116967000Y-78232000D03*
X118867000Y-78232000D03*
D13*
X129220000Y-60452000D03*
X127320000Y-60452000D03*
D17*
X127357500Y-58420000D03*
X129182500Y-58420000D03*
D23*
X120769400Y-88359001D03*
X120769400Y-87409000D03*
X120769400Y-86458999D03*
X118178600Y-86458999D03*
X118178600Y-87409000D03*
X118178600Y-88359001D03*
D10*
X107950000Y-28494198D03*
X107450001Y-28494198D03*
X106950002Y-28494198D03*
X106950002Y-30099000D03*
X107450001Y-30099000D03*
X107950000Y-30099000D03*
D24*
X106680000Y-91440000D03*
D25*
X106680000Y-88900000D03*
X106680000Y-86360000D03*
X106680000Y-83820000D03*
X106680000Y-81280000D03*
X106680000Y-78740000D03*
X106680000Y-76200000D03*
X106680000Y-73660000D03*
X106680000Y-71120000D03*
X106680000Y-68580000D03*
X106680000Y-66040000D03*
X106680000Y-63500000D03*
X106680000Y-60960000D03*
X106680000Y-58420000D03*
X106680000Y-55880000D03*
X106680000Y-53340000D03*
X106680000Y-50800000D03*
X106680000Y-48260000D03*
D26*
X118150000Y-33020000D03*
D27*
X120650000Y-33020000D03*
D24*
X132080000Y-48260000D03*
D25*
X132080000Y-50800000D03*
X132080000Y-53340000D03*
X132080000Y-55880000D03*
X132080000Y-58420000D03*
X132080000Y-60960000D03*
X132080000Y-63500000D03*
X132080000Y-66040000D03*
X132080000Y-68580000D03*
X132080000Y-71120000D03*
X132080000Y-73660000D03*
X132080000Y-76200000D03*
X132080000Y-78740000D03*
X132080000Y-81280000D03*
X132080000Y-83820000D03*
X132080000Y-86360000D03*
X132080000Y-88900000D03*
X132080000Y-91440000D03*
D28*
X127000002Y-25400000D03*
D29*
X127000002Y-27900000D03*
X127000002Y-30400000D03*
X127000002Y-32900000D03*
X127000002Y-35400000D03*
X127000002Y-37900000D03*
X127000002Y-40400000D03*
X127000002Y-42900000D03*
D30*
X111760000Y-43060000D03*
D29*
X111760000Y-40560000D03*
X111760000Y-38060000D03*
X111760000Y-35560000D03*
X111760000Y-33060000D03*
X111760000Y-30560000D03*
X111760000Y-28060000D03*
X111760000Y-25560000D03*
D31*
X116078000Y-69342000D03*
X118110000Y-84201000D03*
X115443000Y-79502000D03*
X126238000Y-54610000D03*
X128905000Y-69850000D03*
X132080000Y-44450000D03*
X125222000Y-60452000D03*
X123190000Y-81915000D03*
X121920000Y-54610000D03*
X119380000Y-24511000D03*
X112395000Y-54610000D03*
X116840000Y-54610000D03*
X116713000Y-40386000D03*
X117475000Y-69342000D03*
X106680000Y-44450000D03*
X127000000Y-92710000D03*
X113030000Y-92710000D03*
X121285000Y-44450000D03*
X129159212Y-55499212D03*
X118110000Y-44450000D03*
X121920000Y-62865000D03*
X127601041Y-80678959D03*
X125984000Y-83820000D03*
X122555000Y-66802000D03*
X120523000Y-64790000D03*
X118745000Y-68795000D03*
X118110000Y-74295000D03*
X121252397Y-69212478D03*
X122498678Y-69308870D03*
X120002397Y-69215026D03*
X117602000Y-76200000D03*
X119482576Y-76097424D03*
X116840000Y-65640000D03*
X120650000Y-73660000D03*
D32*
X116078000Y-69723000D02*
X116078000Y-69342000D01*
X116713000Y-70358000D02*
X116078000Y-69723000D01*
X117628088Y-70358000D02*
X116713000Y-70358000D01*
X118130000Y-70859912D02*
X117628088Y-70358000D01*
X118130000Y-71720000D02*
X118130000Y-70859912D01*
X115233000Y-70407041D02*
X115233000Y-67247000D01*
X115420979Y-70595020D02*
X115233000Y-70407041D01*
X116130000Y-70859912D02*
X115865108Y-70595020D01*
X115233000Y-67247000D02*
X116840000Y-65640000D01*
X116130000Y-71720000D02*
X116130000Y-70859912D01*
X115865108Y-70595020D02*
X115420979Y-70595020D01*
D33*
X114808000Y-66802000D02*
X115316000Y-66294000D01*
X114808000Y-70231000D02*
X114808000Y-66802000D01*
X115316000Y-66294000D02*
X115316000Y-64790000D01*
X114199000Y-70840000D02*
X114808000Y-70231000D01*
X118630000Y-73775000D02*
X118630000Y-71720000D01*
X118110000Y-74295000D02*
X118630000Y-73775000D01*
D34*
X125860000Y-51245000D02*
X125860000Y-49590000D01*
X124629802Y-52092798D02*
X125477600Y-51245000D01*
X125477600Y-51245000D02*
X125860000Y-51245000D01*
X121630000Y-60360000D02*
X121630000Y-58578160D01*
X121630000Y-58578160D02*
X124629802Y-55578358D01*
X125860000Y-49590000D02*
X125800000Y-49530000D01*
X124629802Y-55578358D02*
X124629802Y-52092798D01*
D33*
X120769400Y-87409000D02*
X125001000Y-87409000D01*
X131309999Y-39958802D02*
X131309999Y-39306801D01*
X113700000Y-69790000D02*
X113700000Y-70323000D01*
X114595444Y-66290000D02*
X113700000Y-66290000D01*
X114595444Y-65290000D02*
X114830000Y-65524556D01*
X131309999Y-30012401D02*
X131309999Y-29360400D01*
X113700000Y-70323000D02*
X113411000Y-70612000D01*
X122075000Y-64290000D02*
X121920000Y-64135000D01*
X107386200Y-29210000D02*
X106045000Y-29210000D01*
X125060000Y-68790000D02*
X123400000Y-68790000D01*
X107450001Y-29146199D02*
X107386200Y-29210000D01*
X112570000Y-63024556D02*
X112804556Y-62790000D01*
X125060000Y-64290000D02*
X122075000Y-64290000D01*
X112570000Y-65055444D02*
X112570000Y-64024556D01*
X125060000Y-67790000D02*
X123345000Y-67790000D01*
X107450001Y-28494198D02*
X107450001Y-29146199D01*
X119380000Y-29210000D02*
X119380000Y-28557999D01*
X120582600Y-28507600D02*
X118177400Y-28507600D01*
X107450001Y-39179199D02*
X107450001Y-38527198D01*
X125060000Y-69790000D02*
X125060000Y-70450000D01*
X114830000Y-65524556D02*
X114830000Y-66055444D01*
X131309999Y-39306801D02*
X131360398Y-39256402D01*
X113700000Y-65290000D02*
X114595444Y-65290000D01*
X125060000Y-65790000D02*
X123063000Y-65790000D01*
X113700000Y-63790000D02*
X112804556Y-63790000D01*
X114830000Y-66055444D02*
X114595444Y-66290000D01*
X113700000Y-65290000D02*
X112804556Y-65290000D01*
X112570000Y-64024556D02*
X112804556Y-63790000D01*
X107259200Y-39370000D02*
X107450001Y-39179199D01*
X131460399Y-29210000D02*
X132715000Y-29210000D01*
X125001000Y-87409000D02*
X125824000Y-88232000D01*
X119380000Y-28557999D02*
X119430399Y-28507600D01*
X125060000Y-70450000D02*
X125095000Y-70485000D01*
X125060000Y-69790000D02*
X127635000Y-69790000D01*
X125060000Y-62290000D02*
X125060000Y-60995000D01*
X112804556Y-65290000D02*
X112570000Y-65055444D01*
X112804556Y-63790000D02*
X112570000Y-63555444D01*
X115630000Y-71720000D02*
X115630000Y-73085000D01*
X112570000Y-63555444D02*
X112570000Y-63024556D01*
X125060000Y-65790000D02*
X125060000Y-65290000D01*
X113700000Y-69790000D02*
X113700000Y-69290000D01*
X131309999Y-29360400D02*
X131460399Y-29210000D01*
X112804556Y-62790000D02*
X113700000Y-62790000D01*
X113700000Y-62790000D02*
X113700000Y-62290000D01*
X131360398Y-39256402D02*
X132601402Y-39256402D01*
X107259200Y-39370000D02*
X106045000Y-39370000D01*
D34*
X126620000Y-51815000D02*
X126365000Y-52070000D01*
X125095000Y-52332600D02*
X125095000Y-55880000D01*
X125095000Y-55880000D02*
X122130000Y-58845000D01*
X122130000Y-58845000D02*
X122130000Y-60360000D01*
X126620000Y-51245000D02*
X126620000Y-51815000D01*
X126365000Y-52070000D02*
X125357600Y-52070000D01*
X126620000Y-49550000D02*
X126600000Y-49530000D01*
X125357600Y-52070000D02*
X125095000Y-52332600D01*
X126620000Y-51245000D02*
X126620000Y-49550000D01*
X123130000Y-60360000D02*
X129098601Y-54391399D01*
X128140000Y-49590000D02*
X128200000Y-49530000D01*
X128140000Y-51245000D02*
X128140000Y-49590000D01*
X129098601Y-54391399D02*
X129098601Y-51821201D01*
X128522400Y-51245000D02*
X128140000Y-51245000D01*
X129098601Y-51821201D02*
X128522400Y-51245000D01*
X128696200Y-52123800D02*
X128696200Y-53548800D01*
X122630000Y-59498214D02*
X122630000Y-60360000D01*
X122874414Y-59253800D02*
X122630000Y-59498214D01*
X127400000Y-50400000D02*
X127400000Y-49530000D01*
X127380000Y-51815000D02*
X127635000Y-52070000D01*
X128642400Y-52070000D02*
X128696200Y-52123800D01*
X127380000Y-51245000D02*
X127380000Y-51815000D01*
X127380000Y-50420000D02*
X127400000Y-50400000D01*
X127380000Y-51245000D02*
X127380000Y-50420000D01*
X128696200Y-53548800D02*
X122991200Y-59253800D01*
X127635000Y-52070000D02*
X128642400Y-52070000D01*
X122991200Y-59253800D02*
X122874414Y-59253800D01*
X120397600Y-51245000D02*
X120780000Y-51245000D01*
X120780000Y-49590000D02*
X120720000Y-49530000D01*
X119630000Y-52012600D02*
X120397600Y-51245000D01*
X119630000Y-60360000D02*
X119630000Y-52012600D01*
X120780000Y-51245000D02*
X120780000Y-49590000D01*
X124227401Y-55411679D02*
X121130000Y-58509080D01*
X123060000Y-49590000D02*
X123120000Y-49530000D01*
X124227401Y-52030001D02*
X124227401Y-55411679D01*
X121130000Y-58509080D02*
X121130000Y-60360000D01*
X123060000Y-51245000D02*
X123060000Y-49590000D01*
X123060000Y-51245000D02*
X123442400Y-51245000D01*
X123442400Y-51245000D02*
X124227401Y-52030001D01*
X121540000Y-49550000D02*
X121520000Y-49530000D01*
X121231200Y-52123800D02*
X120223800Y-52123800D01*
X120223800Y-52123800D02*
X120130000Y-52217600D01*
X121540000Y-51245000D02*
X121540000Y-49550000D01*
X121540000Y-51815000D02*
X121231200Y-52123800D01*
X120130000Y-52217600D02*
X120130000Y-60360000D01*
X121540000Y-51245000D02*
X121540000Y-51815000D01*
X123825000Y-55245000D02*
X120630000Y-58440000D01*
X122300000Y-49550000D02*
X122320000Y-49530000D01*
X123616200Y-52123800D02*
X123825000Y-52332600D01*
X122300000Y-51842400D02*
X122581400Y-52123800D01*
X122300000Y-51245000D02*
X122300000Y-49550000D01*
X120630000Y-58440000D02*
X120630000Y-60360000D01*
X122300000Y-51245000D02*
X122300000Y-51842400D01*
X122581400Y-52123800D02*
X123616200Y-52123800D01*
X123825000Y-52332600D02*
X123825000Y-55245000D01*
X117980000Y-49590000D02*
X118040000Y-49530000D01*
X118362400Y-51245000D02*
X117980000Y-51245000D01*
X117980000Y-51245000D02*
X117980000Y-49590000D01*
X119130000Y-60360000D02*
X119130000Y-52012600D01*
X119130000Y-52012600D02*
X118362400Y-51245000D01*
X117630000Y-58706840D02*
X117630000Y-60360000D01*
X115700000Y-51245000D02*
X115317600Y-51245000D01*
X115700000Y-51245000D02*
X115700000Y-49590000D01*
X114469801Y-52092799D02*
X114469801Y-55546641D01*
X115700000Y-49590000D02*
X115640000Y-49530000D01*
X114469801Y-55546641D02*
X117630000Y-58706840D01*
X115317600Y-51245000D02*
X114469801Y-52092799D01*
X117220000Y-49550000D02*
X117240000Y-49530000D01*
X118630000Y-52217600D02*
X118630000Y-60360000D01*
X117220000Y-51245000D02*
X117220000Y-51815000D01*
X118536200Y-52123800D02*
X118630000Y-52217600D01*
X117220000Y-51815000D02*
X117528800Y-52123800D01*
X117528800Y-52123800D02*
X118536200Y-52123800D01*
X117220000Y-51245000D02*
X117220000Y-49550000D01*
X116440000Y-50398800D02*
X116440000Y-49530000D01*
X114935000Y-52332600D02*
X115197600Y-52070000D01*
X114935000Y-55245000D02*
X114935000Y-52332600D01*
X116460000Y-50418800D02*
X116440000Y-50398800D01*
X116205000Y-52070000D02*
X116460000Y-51815000D01*
X118130000Y-58440000D02*
X114935000Y-55245000D01*
X118130000Y-60360000D02*
X118130000Y-58440000D01*
X115197600Y-52070000D02*
X116205000Y-52070000D01*
X116460000Y-51245000D02*
X116460000Y-50418800D01*
X116460000Y-51815000D02*
X116460000Y-51245000D01*
X110620000Y-49590000D02*
X110560000Y-49530000D01*
X115630000Y-60360000D02*
X109661400Y-54391400D01*
X110620000Y-51245000D02*
X110620000Y-49590000D01*
X109661400Y-54391400D02*
X109661400Y-51628600D01*
X109661400Y-51628600D02*
X110045000Y-51245000D01*
X110045000Y-51245000D02*
X110620000Y-51245000D01*
X115768800Y-59253800D02*
X115885586Y-59253800D01*
X111068600Y-52123800D02*
X110063800Y-52123800D01*
X110063800Y-53548800D02*
X115768800Y-59253800D01*
X111380000Y-51245000D02*
X111380000Y-49550000D01*
X115885586Y-59253800D02*
X116130000Y-59498214D01*
X110063800Y-52123800D02*
X110063800Y-53548800D01*
X111380000Y-49550000D02*
X111360000Y-49530000D01*
X111380000Y-51245000D02*
X111380000Y-51812400D01*
X111380000Y-51812400D02*
X111068600Y-52123800D01*
X116130000Y-59498214D02*
X116130000Y-60360000D01*
X114067401Y-55713321D02*
X117130000Y-58775920D01*
X114067401Y-52165921D02*
X114067401Y-55713321D01*
X112900000Y-51245000D02*
X113146480Y-51245000D01*
X117130000Y-58775920D02*
X117130000Y-60360000D01*
X113146480Y-51245000D02*
X114067401Y-52165921D01*
X112900000Y-49590000D02*
X112960000Y-49530000D01*
X112900000Y-51245000D02*
X112900000Y-49590000D01*
X113665000Y-55880000D02*
X116630000Y-58845000D01*
X116630000Y-58845000D02*
X116630000Y-60360000D01*
X112448800Y-52123800D02*
X113456200Y-52123800D01*
X112343800Y-51383800D02*
X112343800Y-50800000D01*
X112140000Y-51245000D02*
X112140000Y-51815000D01*
X112140000Y-51245000D02*
X112205000Y-51245000D01*
X113665000Y-52332600D02*
X113665000Y-55880000D01*
X112140000Y-51815000D02*
X112448800Y-52123800D01*
X112140000Y-49550000D02*
X112160000Y-49530000D01*
X112140000Y-51245000D02*
X112140000Y-49550000D01*
X113456200Y-52123800D02*
X113665000Y-52332600D01*
X112205000Y-51245000D02*
X112343800Y-51383800D01*
D32*
X120520000Y-39010000D02*
X120580000Y-38950000D01*
X121285000Y-41850000D02*
X121285000Y-44450000D01*
X129182500Y-60414500D02*
X129220000Y-60452000D01*
X129182500Y-55522500D02*
X129182500Y-58420000D01*
X129182500Y-60922500D02*
X129220000Y-60960000D01*
X129182500Y-58420000D02*
X129182500Y-60414500D01*
X120520000Y-41085000D02*
X120520000Y-39010000D01*
X120520000Y-41085000D02*
X121285000Y-41850000D01*
X129159212Y-55499212D02*
X129182500Y-55522500D01*
X119760000Y-41085000D02*
X119760000Y-38970000D01*
X118110000Y-43815000D02*
X118110000Y-44450000D01*
X117475000Y-42075000D02*
X117475000Y-43180000D01*
X117475000Y-43180000D02*
X118110000Y-43815000D01*
D33*
X125060000Y-63790000D02*
X122845000Y-63790000D01*
X122845000Y-63790000D02*
X121920000Y-62865000D01*
D32*
X119760000Y-41085000D02*
X119760000Y-41655000D01*
X119760000Y-38970000D02*
X119780000Y-38950000D01*
X117635000Y-41915000D02*
X117475000Y-42075000D01*
X119500000Y-41915000D02*
X117635000Y-41915000D01*
X119760000Y-41655000D02*
X119500000Y-41915000D01*
X119000000Y-41085000D02*
X119000000Y-38970000D01*
X119000000Y-38970000D02*
X118980000Y-38950000D01*
D33*
X119474000Y-86893999D02*
X119474000Y-87924001D01*
X117305101Y-89232500D02*
X107012500Y-89232500D01*
X125217000Y-86332000D02*
X125104500Y-86219500D01*
X119474000Y-87924001D02*
X119039000Y-88359001D01*
X125824000Y-83980000D02*
X125824000Y-86332000D01*
X120769400Y-86458999D02*
X119909000Y-86458999D01*
X129182500Y-67375000D02*
X129182500Y-66675000D01*
X107012500Y-89232500D02*
X106680000Y-88900000D01*
X125060000Y-69290000D02*
X127267500Y-69290000D01*
X123130000Y-71720000D02*
X124714000Y-73304000D01*
X124714000Y-78357604D02*
X127318198Y-80961802D01*
X120769400Y-86458999D02*
X120769400Y-84574400D01*
X125060000Y-69290000D02*
X124164556Y-69290000D01*
X127267500Y-69290000D02*
X129182500Y-67375000D01*
X124164556Y-69290000D02*
X123130000Y-70324556D01*
X116967000Y-80772000D02*
X116967000Y-78232000D01*
X118178600Y-88359001D02*
X117305101Y-89232500D01*
X123190000Y-86219500D02*
X121008899Y-86219500D01*
X119909000Y-86458999D02*
X119474000Y-86893999D01*
X125984000Y-83820000D02*
X125824000Y-83980000D01*
X116967000Y-78232000D02*
X116630000Y-77895000D01*
X121008899Y-86219500D02*
X120769400Y-86458999D01*
X125104500Y-86219500D02*
X123190000Y-86219500D01*
X127318198Y-80961802D02*
X127601041Y-80678959D01*
X116630000Y-77895000D02*
X116630000Y-71720000D01*
X123130000Y-70324556D02*
X123130000Y-71720000D01*
X124714000Y-73304000D02*
X124714000Y-78357604D01*
X125824000Y-86332000D02*
X125217000Y-86332000D01*
X119039000Y-88359001D02*
X118178600Y-88359001D01*
X120769400Y-84574400D02*
X116967000Y-80772000D01*
X111440000Y-60960000D02*
X111440000Y-63500000D01*
X113700000Y-65790000D02*
X112668160Y-65790000D01*
X111440000Y-64561840D02*
X111440000Y-63500000D01*
X112668160Y-65790000D02*
X111440000Y-64561840D01*
X111386252Y-68580000D02*
X112176252Y-67790000D01*
X112176252Y-67790000D02*
X113700000Y-67790000D01*
X126190000Y-61582000D02*
X126190000Y-62555444D01*
X127357500Y-60414500D02*
X127320000Y-60452000D01*
X126190000Y-62555444D02*
X125955444Y-62790000D01*
X127320000Y-60452000D02*
X126190000Y-61582000D01*
D32*
X127357500Y-60922500D02*
X127320000Y-60960000D01*
D33*
X125060000Y-62790000D02*
X125060000Y-63290000D01*
X127357500Y-58420000D02*
X127357500Y-60414500D01*
X125955444Y-62790000D02*
X125060000Y-62790000D01*
X111440000Y-70154556D02*
X112804556Y-68790000D01*
X111440000Y-71120000D02*
X111440000Y-70154556D01*
X112804556Y-68790000D02*
X113700000Y-68790000D01*
X125060000Y-64790000D02*
X120523000Y-64790000D01*
X115316000Y-64790000D02*
X113700000Y-64790000D01*
X123825000Y-66629556D02*
X123825000Y-66802000D01*
X114199000Y-86720000D02*
X115824000Y-88345000D01*
X114830000Y-64055444D02*
X114595444Y-64290000D01*
X113700000Y-64290000D02*
X113700000Y-64790000D01*
X123825000Y-66950444D02*
X124164556Y-67290000D01*
X115824000Y-88345000D02*
X116760000Y-87409000D01*
X114830000Y-63524556D02*
X114830000Y-64055444D01*
X123825000Y-66802000D02*
X123825000Y-66950444D01*
X124164556Y-66290000D02*
X123825000Y-66629556D01*
X124164556Y-66290000D02*
X125060000Y-66290000D01*
X113700000Y-63290000D02*
X114595444Y-63290000D01*
X115824000Y-88345000D02*
X113161500Y-88345000D01*
X113161500Y-88345000D02*
X113124000Y-88382500D01*
X114595444Y-63290000D02*
X114830000Y-63524556D01*
X116760000Y-87409000D02*
X118178600Y-87409000D01*
X114199000Y-70840000D02*
X114199000Y-86720000D01*
X114595444Y-64290000D02*
X113700000Y-64290000D01*
X123825000Y-66802000D02*
X122555000Y-66802000D01*
X120523000Y-64790000D02*
X115316000Y-64790000D01*
X124164556Y-67290000D02*
X125060000Y-67290000D01*
X126495000Y-65468000D02*
X127320000Y-64643000D01*
X125060000Y-66790000D02*
X126123000Y-66790000D01*
X126123000Y-66790000D02*
X126495000Y-66418000D01*
X126495000Y-66418000D02*
X126495000Y-65468000D01*
X127320000Y-62611000D02*
X127320000Y-64643000D01*
X112190000Y-66790000D02*
X113700000Y-66790000D01*
X111440000Y-66040000D02*
X112190000Y-66790000D01*
D34*
X123556318Y-33843684D02*
X127000002Y-30400000D01*
X130810000Y-30012401D02*
X127387601Y-30012401D01*
X122320000Y-47830000D02*
X122320000Y-47322636D01*
X123556318Y-46086318D02*
X123556318Y-33843684D01*
X127387601Y-30012401D02*
X127000002Y-30400000D01*
X122320000Y-47322636D02*
X123556318Y-46086318D01*
X129526800Y-32900000D02*
X127000002Y-32900000D01*
X131809998Y-30012401D02*
X131809998Y-30616802D01*
X123120000Y-47830000D02*
X123120000Y-47091716D01*
X123120000Y-47091716D02*
X124417198Y-45794518D01*
X124417198Y-45794518D02*
X124417198Y-35482804D01*
X124417198Y-35482804D02*
X127000002Y-32900000D01*
X131809998Y-30616802D02*
X129526800Y-32900000D01*
X125222000Y-39678002D02*
X127000002Y-37900000D01*
X126600000Y-47830000D02*
X126600000Y-46839160D01*
X126600000Y-46839160D02*
X125222000Y-45461160D01*
X127454002Y-38354000D02*
X127000002Y-37900000D01*
X130810000Y-38354000D02*
X127454002Y-38354000D01*
X125222000Y-45461160D02*
X125222000Y-39678002D01*
X130810000Y-39958802D02*
X127441200Y-39958802D01*
X127400000Y-47830000D02*
X127400000Y-47070080D01*
X127400000Y-47070080D02*
X125698802Y-45368882D01*
X125698802Y-45368882D02*
X125698802Y-41701200D01*
X125698802Y-41701200D02*
X127000002Y-40400000D01*
X127441200Y-39958802D02*
X127000002Y-40400000D01*
X131809998Y-37749599D02*
X129460399Y-35400000D01*
X124819599Y-45627839D02*
X124819599Y-37580403D01*
X125800000Y-46608240D02*
X124819599Y-45627839D01*
X129460399Y-35400000D02*
X127000002Y-35400000D01*
X131809998Y-38354000D02*
X131809998Y-37749599D01*
X125800000Y-47830000D02*
X125800000Y-46608240D01*
X124819599Y-37580403D02*
X127000002Y-35400000D01*
X121520000Y-47517000D02*
X123063000Y-45974000D01*
X123063000Y-45974000D02*
X123099556Y-45974000D01*
X130810000Y-28407599D02*
X127507601Y-28407599D01*
X123099556Y-45974000D02*
X123099556Y-31800446D01*
X121520000Y-47830000D02*
X121520000Y-47517000D01*
X127507601Y-28407599D02*
X127000002Y-27900000D01*
X123099556Y-31800446D02*
X127000002Y-27900000D01*
X127000000Y-45720000D02*
X127000000Y-46101000D01*
X127000002Y-45719998D02*
X127000000Y-45720000D01*
X127000000Y-46101000D02*
X128200000Y-47301000D01*
X128200000Y-47301000D02*
X128200000Y-47830000D01*
X131809998Y-39958802D02*
X131809998Y-40563203D01*
X127000002Y-42900000D02*
X127000002Y-45719998D01*
X131809998Y-40563203D02*
X129473201Y-42900000D01*
X129473201Y-42900000D02*
X127000002Y-42900000D01*
X131809998Y-27803198D02*
X129406800Y-25400000D01*
X122697156Y-45250444D02*
X122697156Y-29702846D01*
X120720000Y-47830000D02*
X120720000Y-47227600D01*
X131809998Y-28407599D02*
X131809998Y-27803198D01*
X122697156Y-29702846D02*
X127000002Y-25400000D01*
X120720000Y-47227600D02*
X122697156Y-45250444D01*
X129406800Y-25400000D02*
X127000002Y-25400000D01*
D32*
X118150000Y-33020000D02*
X118150000Y-29940001D01*
X119780000Y-34650000D02*
X118150000Y-33020000D01*
X118150000Y-29940001D02*
X118880001Y-29210000D01*
X119780000Y-37250000D02*
X119780000Y-34650000D01*
X120580000Y-33090000D02*
X120650000Y-33020000D01*
X120650000Y-33020000D02*
X120650000Y-29980001D01*
X120650000Y-29980001D02*
X119879999Y-29210000D01*
X120580000Y-37250000D02*
X120580000Y-33090000D01*
D34*
X109279799Y-25560000D02*
X111760000Y-25560000D01*
X106950002Y-28494198D02*
X106950002Y-27889797D01*
X118040000Y-47830000D02*
X118040000Y-47458520D01*
X106950002Y-27889797D02*
X109279799Y-25560000D01*
X115507201Y-44925721D02*
X115507201Y-29307201D01*
X118040000Y-47458520D02*
X115507201Y-44925721D01*
X115507201Y-29307201D02*
X111760000Y-25560000D01*
X107950000Y-40132000D02*
X111332000Y-40132000D01*
X111332000Y-40132000D02*
X111760000Y-40560000D01*
X111360000Y-47227600D02*
X113061200Y-45526400D01*
X111360000Y-47830000D02*
X111360000Y-47227600D01*
X113061200Y-41861200D02*
X111760000Y-40560000D01*
X113061200Y-45526400D02*
X113061200Y-41861200D01*
X109273601Y-43060000D02*
X111760000Y-43060000D01*
X110560000Y-47227600D02*
X111760000Y-46027600D01*
X106950002Y-40132000D02*
X106950002Y-40736401D01*
X111760000Y-46027600D02*
X111760000Y-43060000D01*
X106950002Y-40736401D02*
X109273601Y-43060000D01*
X110560000Y-47830000D02*
X110560000Y-47227600D01*
X106950002Y-38527198D02*
X106950002Y-37922797D01*
X113866002Y-37666002D02*
X111760000Y-35560000D01*
X113866002Y-46153998D02*
X113866002Y-37666002D01*
X112960000Y-47060000D02*
X113866002Y-46153998D01*
X112960000Y-47830000D02*
X112960000Y-47060000D01*
X109312799Y-35560000D02*
X111760000Y-35560000D01*
X106950002Y-37922797D02*
X109312799Y-35560000D01*
X111325802Y-28494198D02*
X111760000Y-28060000D01*
X115104801Y-45084999D02*
X115104801Y-31404801D01*
X115104801Y-31404801D02*
X111760000Y-28060000D01*
X107950000Y-28494198D02*
X111325802Y-28494198D01*
X115104800Y-45085000D02*
X115104801Y-45084999D01*
X117240000Y-47227600D02*
X117240000Y-47830000D01*
X115104800Y-45092400D02*
X115104800Y-45085000D01*
X115104800Y-45092400D02*
X117240000Y-47227600D01*
X109306601Y-33060000D02*
X111760000Y-33060000D01*
X115640000Y-47830000D02*
X115640000Y-47227600D01*
X115640000Y-47227600D02*
X114300000Y-45887600D01*
X106950002Y-30703401D02*
X109306601Y-33060000D01*
X114300000Y-35600000D02*
X111760000Y-33060000D01*
X106950002Y-30099000D02*
X106950002Y-30703401D01*
X114300000Y-45887600D02*
X114300000Y-35600000D01*
X112160000Y-47227600D02*
X113463601Y-45923999D01*
X113463601Y-45923999D02*
X113463601Y-39763601D01*
X112160000Y-47830000D02*
X112160000Y-47227600D01*
X107950000Y-38527198D02*
X111292802Y-38527198D01*
X111292802Y-38527198D02*
X111760000Y-38060000D01*
X113463601Y-39763601D02*
X111760000Y-38060000D01*
X116440000Y-47830000D02*
X116440000Y-47458520D01*
X107950000Y-30099000D02*
X111299000Y-30099000D01*
X111299000Y-30099000D02*
X111760000Y-30560000D01*
X114702400Y-33502400D02*
X111760000Y-30560000D01*
X116440000Y-47458520D02*
X114702400Y-45720920D01*
X114702400Y-45720920D02*
X114702400Y-33502400D01*
D33*
X119630000Y-75042766D02*
X119630000Y-71720000D01*
X122555000Y-76200000D02*
X120787234Y-76200000D01*
X120787234Y-76200000D02*
X119630000Y-75042766D01*
X120130000Y-71720000D02*
X120130000Y-70544711D01*
X120130000Y-70544711D02*
X118745000Y-69159711D01*
X118745000Y-69159711D02*
X118745000Y-68795000D01*
X121252397Y-69212478D02*
X121252397Y-69817397D01*
X121630000Y-70195000D02*
X121630000Y-71720000D01*
X121252397Y-69817397D02*
X121630000Y-70195000D01*
X122130000Y-69677548D02*
X122130000Y-71720000D01*
X122498678Y-69308870D02*
X122130000Y-69677548D01*
X121130000Y-70342629D02*
X121130000Y-71720000D01*
X120002397Y-69215026D02*
X121130000Y-70342629D01*
X117130000Y-71720000D02*
X117130000Y-75728000D01*
X117130000Y-75728000D02*
X117602000Y-76200000D01*
X119130000Y-75744848D02*
X119482576Y-76097424D01*
X119130000Y-71720000D02*
X119130000Y-75744848D01*
X124155000Y-75085000D02*
X122630000Y-73560000D01*
X122630000Y-73560000D02*
X122630000Y-71720000D01*
X124155000Y-78435000D02*
X124155000Y-75085000D01*
X132080000Y-86360000D02*
X124155000Y-78435000D01*
X120630000Y-73640000D02*
X120630000Y-71720000D01*
X120650000Y-73660000D02*
X120630000Y-73640000D01*
X123190000Y-88344500D02*
X120783901Y-88344500D01*
X120783901Y-88344500D02*
X120769400Y-88359001D01*
X123219002Y-88420002D02*
X123444000Y-88645000D01*
X125060000Y-68290000D02*
X126442500Y-68290000D01*
X127357500Y-67375000D02*
X127357500Y-66675000D01*
X126442500Y-68290000D02*
X127357500Y-67375000D01*
X115885001Y-86458999D02*
X115824000Y-86520000D01*
X115824000Y-86520000D02*
X115824000Y-84732500D01*
X118178600Y-86458999D02*
X115885001Y-86458999D01*
G04 #@! TA.AperFunction,Conductor*
G36*
X122192518Y-86847685D02*
G01*
X122231018Y-86886904D01*
X122234400Y-86892387D01*
X122354613Y-87012600D01*
X122499308Y-87101849D01*
X122660686Y-87155324D01*
X122693153Y-87158641D01*
X122693163Y-87158642D01*
X122757855Y-87185038D01*
X122798006Y-87242219D01*
X122800870Y-87312030D01*
X122765536Y-87372306D01*
X122703223Y-87403912D01*
X122693164Y-87405358D01*
X122660684Y-87408676D01*
X122499310Y-87462150D01*
X122499305Y-87462152D01*
X122354611Y-87551401D01*
X122234399Y-87671613D01*
X122231018Y-87677096D01*
X122179070Y-87723821D01*
X122125479Y-87736000D01*
X122053800Y-87736000D01*
X121986761Y-87716315D01*
X121967430Y-87694007D01*
X121966119Y-87695319D01*
X121929800Y-87659000D01*
X121757735Y-87659000D01*
X121690696Y-87639315D01*
X121683423Y-87634266D01*
X121676004Y-87628712D01*
X121539003Y-87577612D01*
X121478454Y-87571101D01*
X121478438Y-87571101D01*
X120893400Y-87571101D01*
X120826361Y-87551416D01*
X120780606Y-87498612D01*
X120769400Y-87447101D01*
X120769400Y-87370899D01*
X120789085Y-87303860D01*
X120841889Y-87258105D01*
X120893400Y-87246899D01*
X121478438Y-87246899D01*
X121478454Y-87246898D01*
X121505492Y-87243990D01*
X121539001Y-87240388D01*
X121676004Y-87189288D01*
X121683423Y-87183733D01*
X121748886Y-87159316D01*
X121757735Y-87159000D01*
X121929800Y-87159000D01*
X121929800Y-87081772D01*
X121929799Y-87081755D01*
X121923398Y-87022225D01*
X121913368Y-86995333D01*
X121908384Y-86925641D01*
X121941869Y-86864318D01*
X122003193Y-86830834D01*
X122029550Y-86828000D01*
X122125479Y-86828000D01*
X122192518Y-86847685D01*
G37*
G04 #@! TD.AperFunction*
G04 #@! TA.AperFunction,Conductor*
G36*
X115012703Y-72662628D02*
G01*
X115046855Y-72710852D01*
X115054277Y-72729674D01*
X115054278Y-72729676D01*
X115143140Y-72846859D01*
X115260323Y-72935721D01*
X115397142Y-72989675D01*
X115397141Y-72989675D01*
X115483116Y-73000000D01*
X115490000Y-73000000D01*
X115490000Y-72991050D01*
X115509685Y-72924011D01*
X115562489Y-72878256D01*
X115631647Y-72868312D01*
X115688925Y-72892246D01*
X115720925Y-72916512D01*
X115762448Y-72972704D01*
X115766700Y-72996700D01*
X115770000Y-73000000D01*
X115776883Y-73000000D01*
X115840256Y-72992389D01*
X115886809Y-72998386D01*
X115887397Y-72996062D01*
X115895102Y-72998009D01*
X115895104Y-72998009D01*
X115895109Y-72998011D01*
X115912286Y-73000073D01*
X115976497Y-73027608D01*
X116015631Y-73085490D01*
X116021500Y-73123188D01*
X116021500Y-77424468D01*
X116015206Y-77463470D01*
X116013043Y-77470000D01*
X115969113Y-77602572D01*
X115958500Y-77706447D01*
X115958500Y-78757537D01*
X115958501Y-78757553D01*
X115968936Y-78859690D01*
X115969113Y-78861426D01*
X116024885Y-79029738D01*
X116117970Y-79180652D01*
X116243348Y-79306030D01*
X116299598Y-79340725D01*
X116346321Y-79392672D01*
X116358500Y-79446263D01*
X116358500Y-79557736D01*
X116338815Y-79624775D01*
X116299598Y-79663274D01*
X116243348Y-79697969D01*
X116117971Y-79823346D01*
X116024886Y-79974259D01*
X116024884Y-79974264D01*
X115969113Y-80142572D01*
X115958500Y-80246447D01*
X115958500Y-81297537D01*
X115958501Y-81297553D01*
X115969113Y-81401427D01*
X116024884Y-81569735D01*
X116024886Y-81569740D01*
X116116237Y-81717842D01*
X116134677Y-81785234D01*
X116113755Y-81851898D01*
X116098380Y-81870620D01*
X116074000Y-81895000D01*
X116074000Y-82657500D01*
X117023999Y-82657500D01*
X117023999Y-82595028D01*
X117023998Y-82595013D01*
X117013505Y-82492302D01*
X116958358Y-82325880D01*
X116958356Y-82325875D01*
X116877382Y-82194596D01*
X116858942Y-82127203D01*
X116879865Y-82060540D01*
X116933506Y-82015770D01*
X116982918Y-82005499D01*
X117267544Y-82005499D01*
X117274618Y-82004776D01*
X117343310Y-82017544D01*
X117374904Y-82040453D01*
X120124581Y-84790130D01*
X120158066Y-84851453D01*
X120160900Y-84877811D01*
X120160900Y-85548906D01*
X120141215Y-85615945D01*
X120088411Y-85661700D01*
X120050157Y-85672195D01*
X119999797Y-85677610D01*
X119999795Y-85677610D01*
X119862795Y-85728710D01*
X119745738Y-85816339D01*
X119745733Y-85816344D01*
X119715778Y-85856359D01*
X119678512Y-85889435D01*
X119535376Y-85972075D01*
X119535369Y-85972080D01*
X119503518Y-86003931D01*
X119442194Y-86037416D01*
X119372503Y-86032430D01*
X119316570Y-85990558D01*
X119299657Y-85959583D01*
X119289889Y-85933395D01*
X119258876Y-85891967D01*
X119202261Y-85816338D01*
X119085204Y-85728710D01*
X118948203Y-85677610D01*
X118887654Y-85671099D01*
X118887638Y-85671099D01*
X117469562Y-85671099D01*
X117469545Y-85671099D01*
X117408997Y-85677610D01*
X117408995Y-85677610D01*
X117271995Y-85728710D01*
X117224648Y-85764154D01*
X117154939Y-85816338D01*
X117154937Y-85816339D01*
X117147840Y-85821653D01*
X117146554Y-85819936D01*
X117095774Y-85847665D01*
X117069416Y-85850499D01*
X116983347Y-85850499D01*
X116916308Y-85830814D01*
X116877807Y-85791593D01*
X116873030Y-85783848D01*
X116803113Y-85713931D01*
X116769628Y-85652608D01*
X116774612Y-85582916D01*
X116803113Y-85538569D01*
X116818959Y-85522723D01*
X116873030Y-85468652D01*
X116966115Y-85317738D01*
X117021887Y-85149426D01*
X117032500Y-85045545D01*
X117032499Y-84419456D01*
X117021887Y-84315574D01*
X116966115Y-84147262D01*
X116873030Y-83996348D01*
X116778352Y-83901670D01*
X116744867Y-83840347D01*
X116749851Y-83770655D01*
X116778352Y-83726307D01*
X116866317Y-83638342D01*
X116958356Y-83489124D01*
X116958358Y-83489119D01*
X117013505Y-83322697D01*
X117013506Y-83322690D01*
X117023999Y-83219986D01*
X117024000Y-83219973D01*
X117024000Y-83157500D01*
X115948000Y-83157500D01*
X115880961Y-83137815D01*
X115835206Y-83085011D01*
X115824000Y-83033500D01*
X115824000Y-82907500D01*
X115698000Y-82907500D01*
X115630961Y-82887815D01*
X115585206Y-82835011D01*
X115574000Y-82783500D01*
X115574000Y-81895000D01*
X115324029Y-81895000D01*
X115324012Y-81895001D01*
X115221302Y-81905494D01*
X115054880Y-81960641D01*
X115054871Y-81960645D01*
X114996596Y-81996590D01*
X114929204Y-82015030D01*
X114862540Y-81994107D01*
X114817771Y-81940465D01*
X114807500Y-81891051D01*
X114807500Y-78033226D01*
X114827185Y-77966187D01*
X114866404Y-77927687D01*
X114867255Y-77927162D01*
X114896652Y-77909030D01*
X115022030Y-77783652D01*
X115115115Y-77632738D01*
X115170887Y-77464426D01*
X115181500Y-77360545D01*
X115181499Y-76309456D01*
X115170887Y-76205574D01*
X115115115Y-76037262D01*
X115022030Y-75886348D01*
X114896652Y-75760970D01*
X114896651Y-75760969D01*
X114866402Y-75742311D01*
X114819678Y-75690362D01*
X114807500Y-75636773D01*
X114807500Y-75493226D01*
X114827185Y-75426187D01*
X114866404Y-75387687D01*
X114873416Y-75383362D01*
X114896652Y-75369030D01*
X115022030Y-75243652D01*
X115115115Y-75092738D01*
X115170887Y-74924426D01*
X115181500Y-74820545D01*
X115181499Y-73769456D01*
X115170887Y-73665574D01*
X115115115Y-73497262D01*
X115022030Y-73346348D01*
X114896652Y-73220970D01*
X114896651Y-73220969D01*
X114866402Y-73202311D01*
X114819678Y-73150362D01*
X114807500Y-73096773D01*
X114807500Y-72756341D01*
X114827185Y-72689302D01*
X114879989Y-72643547D01*
X114949147Y-72633603D01*
X115012703Y-72662628D01*
G37*
G04 #@! TD.AperFunction*
G04 #@! TA.AperFunction,Conductor*
G36*
X119726134Y-65418185D02*
G01*
X119754948Y-65443835D01*
X119806431Y-65506568D01*
X119959994Y-65632594D01*
X119960001Y-65632598D01*
X120135191Y-65726239D01*
X120135193Y-65726239D01*
X120135196Y-65726241D01*
X120325299Y-65783908D01*
X120325298Y-65783908D01*
X120343024Y-65785653D01*
X120523000Y-65803380D01*
X120720701Y-65783908D01*
X120910804Y-65726241D01*
X120916928Y-65722968D01*
X121059989Y-65646500D01*
X121086004Y-65632595D01*
X121239568Y-65506568D01*
X121291052Y-65443835D01*
X121348797Y-65404501D01*
X121386905Y-65398500D01*
X123665391Y-65398500D01*
X123732430Y-65418185D01*
X123778185Y-65470989D01*
X123788507Y-65507719D01*
X123790608Y-65525219D01*
X123790608Y-65554784D01*
X123780000Y-65643122D01*
X123780000Y-65654720D01*
X123807807Y-65705645D01*
X123802823Y-65775337D01*
X123774322Y-65819684D01*
X123475141Y-66118865D01*
X123413818Y-66152350D01*
X123344126Y-66147366D01*
X123291607Y-66109849D01*
X123271568Y-66085431D01*
X123118005Y-65959405D01*
X123117998Y-65959401D01*
X122942808Y-65865760D01*
X122838052Y-65833983D01*
X122752701Y-65808092D01*
X122752699Y-65808091D01*
X122752701Y-65808091D01*
X122555000Y-65788620D01*
X122357300Y-65808091D01*
X122167191Y-65865760D01*
X121992001Y-65959401D01*
X121991994Y-65959405D01*
X121838431Y-66085431D01*
X121712405Y-66238994D01*
X121712401Y-66239001D01*
X121618760Y-66414191D01*
X121561091Y-66604300D01*
X121541620Y-66802000D01*
X121561091Y-66999699D01*
X121618760Y-67189808D01*
X121712401Y-67364998D01*
X121712405Y-67365005D01*
X121838431Y-67518568D01*
X121991994Y-67644594D01*
X121992001Y-67644598D01*
X122167191Y-67738239D01*
X122167193Y-67738239D01*
X122167196Y-67738241D01*
X122357299Y-67795908D01*
X122357298Y-67795908D01*
X122375024Y-67797653D01*
X122555000Y-67815380D01*
X122752701Y-67795908D01*
X122942804Y-67738241D01*
X123118004Y-67644595D01*
X123271568Y-67518568D01*
X123302424Y-67480968D01*
X123360169Y-67441634D01*
X123430013Y-67439763D01*
X123485959Y-67471952D01*
X123774322Y-67760315D01*
X123807807Y-67821638D01*
X123802823Y-67891330D01*
X123780000Y-67926843D01*
X123780000Y-67936877D01*
X123787611Y-68000259D01*
X123781619Y-68046817D01*
X123783936Y-68047403D01*
X123781989Y-68055102D01*
X123779188Y-68078431D01*
X123771500Y-68142450D01*
X123771500Y-68142456D01*
X123771500Y-68437550D01*
X123781988Y-68524887D01*
X123783938Y-68532600D01*
X123781619Y-68533186D01*
X123787611Y-68579739D01*
X123780000Y-68643122D01*
X123780000Y-68654720D01*
X123807807Y-68705645D01*
X123802823Y-68775337D01*
X123774322Y-68819684D01*
X123635858Y-68958148D01*
X123574535Y-68991633D01*
X123504843Y-68986649D01*
X123448910Y-68944777D01*
X123438309Y-68926160D01*
X123437791Y-68926438D01*
X123341276Y-68745871D01*
X123341272Y-68745864D01*
X123215246Y-68592301D01*
X123061683Y-68466275D01*
X123061676Y-68466271D01*
X122886486Y-68372630D01*
X122765867Y-68336041D01*
X122696379Y-68314962D01*
X122696377Y-68314961D01*
X122696379Y-68314961D01*
X122498678Y-68295490D01*
X122300978Y-68314961D01*
X122110870Y-68372630D01*
X122007036Y-68428130D01*
X121938633Y-68442371D01*
X121873390Y-68417370D01*
X121869920Y-68414625D01*
X121815401Y-68369883D01*
X121815399Y-68369881D01*
X121640205Y-68276238D01*
X121494374Y-68232001D01*
X121450098Y-68218570D01*
X121450096Y-68218569D01*
X121450098Y-68218569D01*
X121252397Y-68199098D01*
X121054697Y-68218569D01*
X120864588Y-68276238D01*
X120684021Y-68372754D01*
X120682739Y-68370356D01*
X120627217Y-68387707D01*
X120566622Y-68373083D01*
X120390205Y-68278786D01*
X120295149Y-68249951D01*
X120200098Y-68221118D01*
X120200096Y-68221117D01*
X120200098Y-68221117D01*
X120002397Y-68201646D01*
X119804697Y-68221117D01*
X119703007Y-68251965D01*
X119633140Y-68252588D01*
X119574027Y-68215340D01*
X119571159Y-68211969D01*
X119461568Y-68078431D01*
X119308005Y-67952405D01*
X119307998Y-67952401D01*
X119132808Y-67858760D01*
X118989799Y-67815379D01*
X118942701Y-67801092D01*
X118942699Y-67801091D01*
X118942701Y-67801091D01*
X118745000Y-67781620D01*
X118547300Y-67801091D01*
X118357191Y-67858760D01*
X118182001Y-67952401D01*
X118181994Y-67952405D01*
X118028431Y-68078431D01*
X117902405Y-68231994D01*
X117902401Y-68232001D01*
X117808760Y-68407191D01*
X117751091Y-68597300D01*
X117731620Y-68795000D01*
X117751091Y-68992699D01*
X117808760Y-69182808D01*
X117902401Y-69357998D01*
X117902405Y-69358005D01*
X118028431Y-69511568D01*
X118181994Y-69637594D01*
X118182001Y-69637598D01*
X118357191Y-69731239D01*
X118357193Y-69731239D01*
X118357196Y-69731241D01*
X118469274Y-69765239D01*
X118520958Y-69796218D01*
X118954373Y-70229633D01*
X118987858Y-70290956D01*
X118982874Y-70360648D01*
X118941002Y-70416581D01*
X118875538Y-70440998D01*
X118851909Y-70440430D01*
X118777550Y-70431500D01*
X118777543Y-70431500D01*
X118648855Y-70431500D01*
X118581816Y-70411815D01*
X118561174Y-70395181D01*
X118031924Y-69865931D01*
X118031920Y-69865928D01*
X117928169Y-69796603D01*
X117928160Y-69796598D01*
X117812873Y-69748845D01*
X117812865Y-69748843D01*
X117690486Y-69724500D01*
X117690482Y-69724500D01*
X117183045Y-69724500D01*
X117116006Y-69704815D01*
X117070251Y-69652011D01*
X117060307Y-69582853D01*
X117064384Y-69564506D01*
X117071908Y-69539701D01*
X117078772Y-69470008D01*
X117091380Y-69342000D01*
X117071908Y-69144299D01*
X117014241Y-68954196D01*
X117014239Y-68954193D01*
X117014239Y-68954191D01*
X116920598Y-68779001D01*
X116920594Y-68778994D01*
X116794568Y-68625431D01*
X116641005Y-68499405D01*
X116640998Y-68499401D01*
X116465808Y-68405760D01*
X116300557Y-68355632D01*
X116275701Y-68348092D01*
X116275699Y-68348091D01*
X116275701Y-68348091D01*
X116078000Y-68328620D01*
X116002654Y-68336041D01*
X115934008Y-68323022D01*
X115883298Y-68274957D01*
X115866500Y-68212638D01*
X115866500Y-67560765D01*
X115886185Y-67493726D01*
X115902815Y-67473088D01*
X116691588Y-66684314D01*
X116752909Y-66650831D01*
X116791416Y-66648594D01*
X116840000Y-66653380D01*
X117037701Y-66633908D01*
X117227804Y-66576241D01*
X117403004Y-66482595D01*
X117556568Y-66356568D01*
X117682595Y-66203004D01*
X117767584Y-66044000D01*
X117776239Y-66027808D01*
X117776239Y-66027807D01*
X117776241Y-66027804D01*
X117833908Y-65837701D01*
X117853380Y-65640000D01*
X117843004Y-65534653D01*
X117856023Y-65466008D01*
X117904088Y-65415298D01*
X117966407Y-65398500D01*
X119659095Y-65398500D01*
X119726134Y-65418185D01*
G37*
G04 #@! TD.AperFunction*
G04 #@! TA.AperFunction,Conductor*
G36*
X126255834Y-58163569D02*
G01*
X126311767Y-58205441D01*
X126336184Y-58270905D01*
X126336500Y-58279751D01*
X126336500Y-58920537D01*
X126336501Y-58920553D01*
X126347113Y-59024427D01*
X126402884Y-59192735D01*
X126402886Y-59192740D01*
X126495884Y-59343513D01*
X126514324Y-59410906D01*
X126493401Y-59477569D01*
X126478030Y-59496288D01*
X126470970Y-59503348D01*
X126377886Y-59654259D01*
X126377884Y-59654264D01*
X126322113Y-59822572D01*
X126311500Y-59926447D01*
X126311500Y-60548588D01*
X126291815Y-60615627D01*
X126275181Y-60636269D01*
X125703080Y-61208370D01*
X125703078Y-61208373D01*
X125679198Y-61249735D01*
X125622968Y-61347127D01*
X125611986Y-61388113D01*
X125608100Y-61402616D01*
X125581500Y-61501889D01*
X125581500Y-61526000D01*
X125561815Y-61593039D01*
X125509011Y-61638794D01*
X125457500Y-61650000D01*
X125200000Y-61650000D01*
X125200000Y-62017500D01*
X125180315Y-62084539D01*
X125127511Y-62130294D01*
X125076000Y-62141500D01*
X125044000Y-62141500D01*
X124976961Y-62121815D01*
X124931206Y-62069011D01*
X124920000Y-62017500D01*
X124920000Y-61650000D01*
X124273116Y-61650000D01*
X124187141Y-61660324D01*
X124050323Y-61714278D01*
X123933140Y-61803140D01*
X123844278Y-61920323D01*
X123790324Y-62057141D01*
X123780000Y-62143115D01*
X123780000Y-62150000D01*
X123788950Y-62150000D01*
X123855989Y-62169685D01*
X123901744Y-62222489D01*
X123911688Y-62291647D01*
X123887754Y-62348925D01*
X123863488Y-62380925D01*
X123807296Y-62422448D01*
X123783299Y-62426700D01*
X123780000Y-62430000D01*
X123780000Y-62436877D01*
X123787611Y-62500259D01*
X123781619Y-62546817D01*
X123783936Y-62547403D01*
X123781989Y-62555102D01*
X123776746Y-62598764D01*
X123771500Y-62642450D01*
X123771500Y-62642456D01*
X123771500Y-62937550D01*
X123782028Y-63025215D01*
X123782028Y-63054788D01*
X123781989Y-63055107D01*
X123781989Y-63055109D01*
X123779926Y-63072288D01*
X123752387Y-63136501D01*
X123694503Y-63175633D01*
X123656811Y-63181500D01*
X123148411Y-63181500D01*
X123081372Y-63161815D01*
X123060730Y-63145181D01*
X122961146Y-63045597D01*
X122927661Y-62984274D01*
X122925424Y-62945767D01*
X122933380Y-62865000D01*
X122913908Y-62667299D01*
X122856241Y-62477196D01*
X122856239Y-62477193D01*
X122856239Y-62477191D01*
X122762598Y-62302001D01*
X122762594Y-62301994D01*
X122636568Y-62148431D01*
X122483005Y-62022405D01*
X122482998Y-62022401D01*
X122307808Y-61928760D01*
X122205340Y-61897677D01*
X122183858Y-61891160D01*
X122125420Y-61852863D01*
X122096964Y-61789051D01*
X122107524Y-61719984D01*
X122153748Y-61667590D01*
X122219854Y-61648500D01*
X122277550Y-61648500D01*
X122364891Y-61638011D01*
X122364891Y-61638010D01*
X122365215Y-61637972D01*
X122394785Y-61637972D01*
X122395108Y-61638010D01*
X122395109Y-61638011D01*
X122482450Y-61648500D01*
X122777550Y-61648500D01*
X122864891Y-61638011D01*
X122864891Y-61638010D01*
X122865215Y-61637972D01*
X122894785Y-61637972D01*
X122895108Y-61638010D01*
X122895109Y-61638011D01*
X122982450Y-61648500D01*
X123277550Y-61648500D01*
X123364891Y-61638011D01*
X123503879Y-61583202D01*
X123622926Y-61492926D01*
X123713202Y-61373879D01*
X123768011Y-61234891D01*
X123778500Y-61147550D01*
X123778500Y-60589752D01*
X123798185Y-60522713D01*
X123814819Y-60502071D01*
X124951614Y-59365276D01*
X126124821Y-58192068D01*
X126186142Y-58158585D01*
X126255834Y-58163569D01*
G37*
G04 #@! TD.AperFunction*
G04 #@! TA.AperFunction,Conductor*
G36*
X117305247Y-52669224D02*
G01*
X117451823Y-52708500D01*
X117856000Y-52708500D01*
X117923039Y-52728185D01*
X117968794Y-52780989D01*
X117980000Y-52832500D01*
X117980000Y-52895000D01*
X118008981Y-52923981D01*
X118042466Y-52985304D01*
X118045300Y-53011662D01*
X118045300Y-57229047D01*
X118025615Y-57296086D01*
X117972811Y-57341841D01*
X117903653Y-57351785D01*
X117840097Y-57322760D01*
X117833619Y-57316728D01*
X115556019Y-55039128D01*
X115522534Y-54977805D01*
X115519700Y-54951447D01*
X115519700Y-53840000D01*
X115930000Y-53840000D01*
X115977828Y-53840000D01*
X115977844Y-53839999D01*
X116037377Y-53833597D01*
X116044933Y-53831813D01*
X116045272Y-53833250D01*
X116106342Y-53828874D01*
X116121633Y-53833364D01*
X116122622Y-53833597D01*
X116182155Y-53839999D01*
X116182172Y-53840000D01*
X116230000Y-53840000D01*
X116690000Y-53840000D01*
X116737828Y-53840000D01*
X116737844Y-53839999D01*
X116797377Y-53833597D01*
X116804933Y-53831813D01*
X116805272Y-53833250D01*
X116866342Y-53828874D01*
X116881633Y-53833364D01*
X116882622Y-53833597D01*
X116942155Y-53839999D01*
X116942172Y-53840000D01*
X116990000Y-53840000D01*
X117450000Y-53840000D01*
X117497828Y-53840000D01*
X117497844Y-53839999D01*
X117557377Y-53833597D01*
X117564933Y-53831813D01*
X117565272Y-53833250D01*
X117626342Y-53828874D01*
X117641633Y-53833364D01*
X117642622Y-53833597D01*
X117702155Y-53839999D01*
X117702172Y-53840000D01*
X117750000Y-53840000D01*
X117750000Y-53125000D01*
X117450000Y-53125000D01*
X117450000Y-53840000D01*
X116990000Y-53840000D01*
X116990000Y-53125000D01*
X116690000Y-53125000D01*
X116690000Y-53840000D01*
X116230000Y-53840000D01*
X116230000Y-53125000D01*
X115930000Y-53125000D01*
X115930000Y-53840000D01*
X115519700Y-53840000D01*
X115519700Y-53019000D01*
X115539385Y-52951961D01*
X115592189Y-52906206D01*
X115643700Y-52895000D01*
X115700000Y-52895000D01*
X115700000Y-52789000D01*
X115719685Y-52721961D01*
X115772489Y-52676206D01*
X115824000Y-52665000D01*
X117273156Y-52665000D01*
X117305247Y-52669224D01*
G37*
G04 #@! TD.AperFunction*
G04 #@! TA.AperFunction,Conductor*
G36*
X122357845Y-52669224D02*
G01*
X122504423Y-52708500D01*
X122936000Y-52708500D01*
X123003039Y-52728185D01*
X123048794Y-52780989D01*
X123060000Y-52832500D01*
X123060000Y-52895000D01*
X123116300Y-52895000D01*
X123183339Y-52914685D01*
X123229094Y-52967489D01*
X123240300Y-53019000D01*
X123240300Y-54951447D01*
X123220615Y-55018486D01*
X123203981Y-55039128D01*
X120926381Y-57316728D01*
X120865058Y-57350213D01*
X120795366Y-57345229D01*
X120739433Y-57303357D01*
X120715016Y-57237893D01*
X120714700Y-57229047D01*
X120714700Y-53840000D01*
X121010000Y-53840000D01*
X121057828Y-53840000D01*
X121057844Y-53839999D01*
X121117377Y-53833597D01*
X121124933Y-53831813D01*
X121125272Y-53833250D01*
X121186342Y-53828874D01*
X121201633Y-53833364D01*
X121202622Y-53833597D01*
X121262155Y-53839999D01*
X121262172Y-53840000D01*
X121310000Y-53840000D01*
X121770000Y-53840000D01*
X121817828Y-53840000D01*
X121817844Y-53839999D01*
X121877377Y-53833597D01*
X121884933Y-53831813D01*
X121885272Y-53833250D01*
X121946342Y-53828874D01*
X121961633Y-53833364D01*
X121962622Y-53833597D01*
X122022155Y-53839999D01*
X122022172Y-53840000D01*
X122070000Y-53840000D01*
X122530000Y-53840000D01*
X122577828Y-53840000D01*
X122577844Y-53839999D01*
X122637377Y-53833597D01*
X122644933Y-53831813D01*
X122645272Y-53833250D01*
X122706342Y-53828874D01*
X122721633Y-53833364D01*
X122722622Y-53833597D01*
X122782155Y-53839999D01*
X122782172Y-53840000D01*
X122830000Y-53840000D01*
X122830000Y-53125000D01*
X122530000Y-53125000D01*
X122530000Y-53840000D01*
X122070000Y-53840000D01*
X122070000Y-53125000D01*
X121770000Y-53125000D01*
X121770000Y-53840000D01*
X121310000Y-53840000D01*
X121310000Y-53125000D01*
X121010000Y-53125000D01*
X121010000Y-53840000D01*
X120714700Y-53840000D01*
X120714700Y-53011662D01*
X120734385Y-52944623D01*
X120751019Y-52923981D01*
X120780000Y-52895000D01*
X120780000Y-52832500D01*
X120799685Y-52765461D01*
X120852489Y-52719706D01*
X120904000Y-52708500D01*
X121308174Y-52708500D01*
X121308177Y-52708500D01*
X121454752Y-52669224D01*
X121486844Y-52665000D01*
X122325754Y-52665000D01*
X122357845Y-52669224D01*
G37*
G04 #@! TD.AperFunction*
G04 #@! TA.AperFunction,Conductor*
G36*
X112225247Y-52669224D02*
G01*
X112371823Y-52708500D01*
X112776000Y-52708500D01*
X112843039Y-52728185D01*
X112888794Y-52780989D01*
X112900000Y-52832500D01*
X112900000Y-52895000D01*
X112956300Y-52895000D01*
X113023339Y-52914685D01*
X113069094Y-52967489D01*
X113080300Y-53019000D01*
X113080300Y-55439047D01*
X113060615Y-55506086D01*
X113007811Y-55551841D01*
X112938653Y-55561785D01*
X112875097Y-55532760D01*
X112868619Y-55526728D01*
X111186319Y-53844428D01*
X111183901Y-53840000D01*
X111610000Y-53840000D01*
X111657828Y-53840000D01*
X111657844Y-53839999D01*
X111717377Y-53833597D01*
X111724933Y-53831813D01*
X111725272Y-53833250D01*
X111786342Y-53828874D01*
X111801633Y-53833364D01*
X111802622Y-53833597D01*
X111862155Y-53839999D01*
X111862172Y-53840000D01*
X111910000Y-53840000D01*
X112370000Y-53840000D01*
X112417828Y-53840000D01*
X112417844Y-53839999D01*
X112477377Y-53833597D01*
X112484933Y-53831813D01*
X112485272Y-53833250D01*
X112546342Y-53828874D01*
X112561633Y-53833364D01*
X112562622Y-53833597D01*
X112622155Y-53839999D01*
X112622172Y-53840000D01*
X112670000Y-53840000D01*
X112670000Y-53125000D01*
X112370000Y-53125000D01*
X112370000Y-53840000D01*
X111910000Y-53840000D01*
X111910000Y-53125000D01*
X111610000Y-53125000D01*
X111610000Y-53840000D01*
X111183901Y-53840000D01*
X111152834Y-53783105D01*
X111150000Y-53756747D01*
X111150000Y-53125000D01*
X110772500Y-53125000D01*
X110705461Y-53105315D01*
X110659706Y-53052511D01*
X110648500Y-53001000D01*
X110648500Y-52832500D01*
X110668185Y-52765461D01*
X110720989Y-52719706D01*
X110772500Y-52708500D01*
X111145574Y-52708500D01*
X111145577Y-52708500D01*
X111292152Y-52669224D01*
X111324244Y-52665000D01*
X112193156Y-52665000D01*
X112225247Y-52669224D01*
G37*
G04 #@! TD.AperFunction*
G04 #@! TA.AperFunction,Conductor*
G36*
X128054539Y-52684685D02*
G01*
X128100294Y-52737489D01*
X128111500Y-52789000D01*
X128111500Y-53001000D01*
X128091815Y-53068039D01*
X128039011Y-53113794D01*
X127987500Y-53125000D01*
X127610000Y-53125000D01*
X127610000Y-53756747D01*
X127590315Y-53823786D01*
X127573681Y-53844428D01*
X125891381Y-55526728D01*
X125830058Y-55560213D01*
X125760366Y-55555229D01*
X125704433Y-55513357D01*
X125680016Y-55447893D01*
X125679700Y-55439047D01*
X125679700Y-53840000D01*
X126090000Y-53840000D01*
X126137828Y-53840000D01*
X126137844Y-53839999D01*
X126197377Y-53833597D01*
X126204933Y-53831813D01*
X126205272Y-53833250D01*
X126266342Y-53828874D01*
X126281633Y-53833364D01*
X126282622Y-53833597D01*
X126342155Y-53839999D01*
X126342172Y-53840000D01*
X126390000Y-53840000D01*
X126850000Y-53840000D01*
X126897828Y-53840000D01*
X126897844Y-53839999D01*
X126957377Y-53833597D01*
X126964933Y-53831813D01*
X126965272Y-53833250D01*
X127026342Y-53828874D01*
X127041633Y-53833364D01*
X127042622Y-53833597D01*
X127102155Y-53839999D01*
X127102172Y-53840000D01*
X127150000Y-53840000D01*
X127150000Y-53125000D01*
X126850000Y-53125000D01*
X126850000Y-53840000D01*
X126390000Y-53840000D01*
X126390000Y-53125000D01*
X126090000Y-53125000D01*
X126090000Y-53840000D01*
X125679700Y-53840000D01*
X125679700Y-53019000D01*
X125699385Y-52951961D01*
X125752189Y-52906206D01*
X125803700Y-52895000D01*
X125860000Y-52895000D01*
X125860000Y-52789000D01*
X125879685Y-52721961D01*
X125932489Y-52676206D01*
X125984000Y-52665000D01*
X127987500Y-52665000D01*
X128054539Y-52684685D01*
G37*
G04 #@! TD.AperFunction*
G04 #@! TA.AperFunction,Conductor*
G36*
X136902539Y-19270185D02*
G01*
X136948294Y-19322989D01*
X136959500Y-19374500D01*
X136959500Y-86358141D01*
X136959443Y-86361886D01*
X136941442Y-86957590D01*
X136940990Y-86965067D01*
X136887222Y-87556755D01*
X136886319Y-87564191D01*
X136796925Y-88151545D01*
X136795575Y-88158912D01*
X136670883Y-88739790D01*
X136669091Y-88747063D01*
X136509545Y-89319382D01*
X136507316Y-89326533D01*
X136313517Y-89888141D01*
X136310861Y-89895145D01*
X136083500Y-90444045D01*
X136080426Y-90450875D01*
X135820337Y-90985044D01*
X135816856Y-90991676D01*
X135524998Y-91509154D01*
X135521123Y-91515564D01*
X135198540Y-92014497D01*
X135194285Y-92020662D01*
X134842168Y-92499202D01*
X134837548Y-92505098D01*
X134457194Y-92961488D01*
X134452227Y-92967095D01*
X134044997Y-93399701D01*
X134039701Y-93404997D01*
X133607095Y-93812227D01*
X133601488Y-93817194D01*
X133145098Y-94197548D01*
X133139202Y-94202168D01*
X132660662Y-94554285D01*
X132654497Y-94558540D01*
X132155564Y-94881123D01*
X132149154Y-94884998D01*
X131631676Y-95176856D01*
X131625044Y-95180337D01*
X131090875Y-95440426D01*
X131084045Y-95443500D01*
X130535145Y-95670861D01*
X130528141Y-95673517D01*
X129966533Y-95867316D01*
X129959382Y-95869545D01*
X129387063Y-96029091D01*
X129379790Y-96030883D01*
X128798912Y-96155575D01*
X128791545Y-96156925D01*
X128204191Y-96246319D01*
X128196755Y-96247222D01*
X127605067Y-96300990D01*
X127597590Y-96301442D01*
X127001886Y-96319443D01*
X126998141Y-96319500D01*
X111761859Y-96319500D01*
X111758114Y-96319443D01*
X111162409Y-96301442D01*
X111154932Y-96300990D01*
X110563244Y-96247222D01*
X110555808Y-96246319D01*
X109968454Y-96156925D01*
X109961087Y-96155575D01*
X109380209Y-96030883D01*
X109372936Y-96029091D01*
X108800617Y-95869545D01*
X108793466Y-95867316D01*
X108231858Y-95673517D01*
X108224854Y-95670861D01*
X107675954Y-95443500D01*
X107669124Y-95440426D01*
X107134955Y-95180337D01*
X107128323Y-95176856D01*
X106610845Y-94884998D01*
X106604435Y-94881123D01*
X106105502Y-94558540D01*
X106099350Y-94554294D01*
X105620797Y-94202168D01*
X105614901Y-94197548D01*
X105158511Y-93817194D01*
X105152904Y-93812227D01*
X104720298Y-93404997D01*
X104715002Y-93399701D01*
X104364836Y-93027715D01*
X104307769Y-92967092D01*
X104302805Y-92961488D01*
X104166971Y-92798500D01*
X103922448Y-92505094D01*
X103917831Y-92499202D01*
X103565700Y-92020642D01*
X103561459Y-92014497D01*
X103544192Y-91987791D01*
X103476192Y-91882616D01*
X103238876Y-91515564D01*
X103235001Y-91509154D01*
X102943143Y-90991676D01*
X102939662Y-90985044D01*
X102845282Y-90791207D01*
X102679568Y-90450864D01*
X102676499Y-90444045D01*
X102654326Y-90390515D01*
X102449134Y-89895135D01*
X102446482Y-89888141D01*
X102430215Y-89841000D01*
X102252679Y-89326521D01*
X102250454Y-89319382D01*
X102242402Y-89290499D01*
X102090905Y-88747053D01*
X102089116Y-88739790D01*
X102083003Y-88711314D01*
X101964423Y-88158909D01*
X101963074Y-88151545D01*
X101951773Y-88077296D01*
X101873679Y-87564189D01*
X101872777Y-87556755D01*
X101872292Y-87551416D01*
X101819007Y-86965044D01*
X101818558Y-86957612D01*
X101800557Y-86361886D01*
X101800500Y-86358141D01*
X101800500Y-48259994D01*
X105316844Y-48259994D01*
X105316844Y-48260005D01*
X105335434Y-48484359D01*
X105335436Y-48484371D01*
X105390703Y-48702614D01*
X105481140Y-48908792D01*
X105604276Y-49097265D01*
X105604284Y-49097276D01*
X105756756Y-49262902D01*
X105756760Y-49262906D01*
X105934424Y-49401189D01*
X105934429Y-49401191D01*
X105934431Y-49401193D01*
X105970930Y-49420946D01*
X106020520Y-49470165D01*
X106035628Y-49538382D01*
X106011457Y-49603937D01*
X105970930Y-49639054D01*
X105934431Y-49658806D01*
X105934422Y-49658812D01*
X105756761Y-49797092D01*
X105756756Y-49797097D01*
X105604284Y-49962723D01*
X105604276Y-49962734D01*
X105481140Y-50151207D01*
X105390703Y-50357385D01*
X105335436Y-50575628D01*
X105335434Y-50575640D01*
X105316844Y-50799994D01*
X105316844Y-50800005D01*
X105335434Y-51024359D01*
X105335436Y-51024371D01*
X105390703Y-51242614D01*
X105481140Y-51448792D01*
X105604276Y-51637265D01*
X105604284Y-51637276D01*
X105756756Y-51802902D01*
X105756760Y-51802906D01*
X105934424Y-51941189D01*
X105934429Y-51941191D01*
X105934431Y-51941193D01*
X105970930Y-51960946D01*
X106020520Y-52010165D01*
X106035628Y-52078382D01*
X106011457Y-52143937D01*
X105970930Y-52179054D01*
X105934431Y-52198806D01*
X105934422Y-52198812D01*
X105756761Y-52337092D01*
X105756756Y-52337097D01*
X105604284Y-52502723D01*
X105604276Y-52502734D01*
X105481140Y-52691207D01*
X105390703Y-52897385D01*
X105335436Y-53115628D01*
X105335434Y-53115640D01*
X105316844Y-53339994D01*
X105316844Y-53340005D01*
X105335434Y-53564359D01*
X105335436Y-53564371D01*
X105390703Y-53782614D01*
X105481140Y-53988792D01*
X105604276Y-54177265D01*
X105604284Y-54177276D01*
X105756756Y-54342902D01*
X105756760Y-54342906D01*
X105934424Y-54481189D01*
X105934429Y-54481191D01*
X105934431Y-54481193D01*
X105970930Y-54500946D01*
X106020520Y-54550165D01*
X106035628Y-54618382D01*
X106011457Y-54683937D01*
X105970930Y-54719054D01*
X105934431Y-54738806D01*
X105934422Y-54738812D01*
X105756761Y-54877092D01*
X105756756Y-54877097D01*
X105604284Y-55042723D01*
X105604276Y-55042734D01*
X105481140Y-55231207D01*
X105390703Y-55437385D01*
X105335436Y-55655628D01*
X105335434Y-55655640D01*
X105316844Y-55879994D01*
X105316844Y-55880005D01*
X105335434Y-56104359D01*
X105335436Y-56104371D01*
X105390703Y-56322614D01*
X105481140Y-56528792D01*
X105604276Y-56717265D01*
X105604284Y-56717276D01*
X105756756Y-56882902D01*
X105756760Y-56882906D01*
X105934424Y-57021189D01*
X105934429Y-57021191D01*
X105934431Y-57021193D01*
X105970930Y-57040946D01*
X106020520Y-57090165D01*
X106035628Y-57158382D01*
X106011457Y-57223937D01*
X105970930Y-57259054D01*
X105934431Y-57278806D01*
X105934422Y-57278812D01*
X105756761Y-57417092D01*
X105756756Y-57417097D01*
X105604284Y-57582723D01*
X105604276Y-57582734D01*
X105481140Y-57771207D01*
X105390703Y-57977385D01*
X105335436Y-58195628D01*
X105335434Y-58195640D01*
X105316844Y-58419994D01*
X105316844Y-58420005D01*
X105335434Y-58644359D01*
X105335436Y-58644371D01*
X105390703Y-58862614D01*
X105481140Y-59068792D01*
X105604276Y-59257265D01*
X105604284Y-59257276D01*
X105756756Y-59422902D01*
X105756760Y-59422906D01*
X105934424Y-59561189D01*
X105934429Y-59561191D01*
X105934431Y-59561193D01*
X105970930Y-59580946D01*
X106020520Y-59630165D01*
X106035628Y-59698382D01*
X106011457Y-59763937D01*
X105970930Y-59799054D01*
X105934431Y-59818806D01*
X105934422Y-59818812D01*
X105756761Y-59957092D01*
X105756756Y-59957097D01*
X105604284Y-60122723D01*
X105604276Y-60122734D01*
X105481140Y-60311207D01*
X105390703Y-60517385D01*
X105335436Y-60735628D01*
X105335434Y-60735640D01*
X105316844Y-60959994D01*
X105316844Y-60960005D01*
X105335434Y-61184359D01*
X105335436Y-61184371D01*
X105390703Y-61402614D01*
X105481140Y-61608792D01*
X105604276Y-61797265D01*
X105604284Y-61797276D01*
X105706814Y-61908651D01*
X105756760Y-61962906D01*
X105934424Y-62101189D01*
X105934429Y-62101191D01*
X105934431Y-62101193D01*
X105970930Y-62120946D01*
X106020520Y-62170165D01*
X106035628Y-62238382D01*
X106011457Y-62303937D01*
X105970930Y-62339054D01*
X105934431Y-62358806D01*
X105934422Y-62358812D01*
X105756761Y-62497092D01*
X105756756Y-62497097D01*
X105604284Y-62662723D01*
X105604276Y-62662734D01*
X105481140Y-62851207D01*
X105390703Y-63057385D01*
X105335436Y-63275628D01*
X105335434Y-63275640D01*
X105316844Y-63499994D01*
X105316844Y-63500005D01*
X105335434Y-63724359D01*
X105335436Y-63724371D01*
X105390703Y-63942614D01*
X105481140Y-64148792D01*
X105604276Y-64337265D01*
X105604284Y-64337276D01*
X105756756Y-64502902D01*
X105756760Y-64502906D01*
X105934424Y-64641189D01*
X105934429Y-64641191D01*
X105934431Y-64641193D01*
X105970930Y-64660946D01*
X106020520Y-64710165D01*
X106035628Y-64778382D01*
X106011457Y-64843937D01*
X105970930Y-64879054D01*
X105934431Y-64898806D01*
X105934422Y-64898812D01*
X105756761Y-65037092D01*
X105756756Y-65037097D01*
X105604284Y-65202723D01*
X105604276Y-65202734D01*
X105481140Y-65391207D01*
X105390703Y-65597385D01*
X105335436Y-65815628D01*
X105335434Y-65815640D01*
X105316844Y-66039994D01*
X105316844Y-66040005D01*
X105335434Y-66264359D01*
X105335436Y-66264371D01*
X105390703Y-66482614D01*
X105481140Y-66688792D01*
X105604276Y-66877265D01*
X105604284Y-66877276D01*
X105756756Y-67042902D01*
X105756760Y-67042906D01*
X105934424Y-67181189D01*
X105934429Y-67181191D01*
X105934431Y-67181193D01*
X105970930Y-67200946D01*
X106020520Y-67250165D01*
X106035628Y-67318382D01*
X106011457Y-67383937D01*
X105970930Y-67419054D01*
X105934431Y-67438806D01*
X105934422Y-67438812D01*
X105756761Y-67577092D01*
X105756756Y-67577097D01*
X105604284Y-67742723D01*
X105604276Y-67742734D01*
X105481140Y-67931207D01*
X105390703Y-68137385D01*
X105335436Y-68355628D01*
X105335434Y-68355640D01*
X105316844Y-68579994D01*
X105316844Y-68580005D01*
X105335434Y-68804359D01*
X105335436Y-68804371D01*
X105390703Y-69022614D01*
X105481140Y-69228792D01*
X105604276Y-69417265D01*
X105604284Y-69417276D01*
X105739821Y-69564506D01*
X105756760Y-69582906D01*
X105934424Y-69721189D01*
X105934429Y-69721191D01*
X105934431Y-69721193D01*
X105970930Y-69740946D01*
X106020520Y-69790165D01*
X106035628Y-69858382D01*
X106011457Y-69923937D01*
X105970930Y-69959054D01*
X105934431Y-69978806D01*
X105934422Y-69978812D01*
X105756761Y-70117092D01*
X105756756Y-70117097D01*
X105604284Y-70282723D01*
X105604276Y-70282734D01*
X105481140Y-70471207D01*
X105390703Y-70677385D01*
X105335436Y-70895628D01*
X105335434Y-70895640D01*
X105316844Y-71119994D01*
X105316844Y-71120005D01*
X105335434Y-71344359D01*
X105335436Y-71344371D01*
X105390703Y-71562614D01*
X105481140Y-71768792D01*
X105604276Y-71957265D01*
X105604284Y-71957276D01*
X105756756Y-72122902D01*
X105756760Y-72122906D01*
X105934424Y-72261189D01*
X105934429Y-72261191D01*
X105934431Y-72261193D01*
X105970930Y-72280946D01*
X106020520Y-72330165D01*
X106035628Y-72398382D01*
X106011457Y-72463937D01*
X105970930Y-72499054D01*
X105934431Y-72518806D01*
X105934422Y-72518812D01*
X105756761Y-72657092D01*
X105756756Y-72657097D01*
X105604284Y-72822723D01*
X105604276Y-72822734D01*
X105481140Y-73011207D01*
X105390703Y-73217385D01*
X105335436Y-73435628D01*
X105335434Y-73435640D01*
X105316844Y-73659994D01*
X105316844Y-73660005D01*
X105335434Y-73884359D01*
X105335436Y-73884371D01*
X105390703Y-74102614D01*
X105481140Y-74308792D01*
X105604276Y-74497265D01*
X105604284Y-74497276D01*
X105756756Y-74662902D01*
X105756761Y-74662907D01*
X105778987Y-74680206D01*
X105934424Y-74801189D01*
X105934429Y-74801191D01*
X105934431Y-74801193D01*
X105970930Y-74820946D01*
X106020520Y-74870165D01*
X106035628Y-74938382D01*
X106011457Y-75003937D01*
X105970930Y-75039054D01*
X105934431Y-75058806D01*
X105934422Y-75058812D01*
X105756761Y-75197092D01*
X105756756Y-75197097D01*
X105604284Y-75362723D01*
X105604276Y-75362734D01*
X105481140Y-75551207D01*
X105390703Y-75757385D01*
X105335436Y-75975628D01*
X105335434Y-75975640D01*
X105316844Y-76199994D01*
X105316844Y-76200005D01*
X105335434Y-76424359D01*
X105335436Y-76424371D01*
X105390703Y-76642614D01*
X105481140Y-76848792D01*
X105604276Y-77037265D01*
X105604284Y-77037276D01*
X105754511Y-77200463D01*
X105756760Y-77202906D01*
X105934424Y-77341189D01*
X105934429Y-77341191D01*
X105934431Y-77341193D01*
X105970930Y-77360946D01*
X106020520Y-77410165D01*
X106035628Y-77478382D01*
X106011457Y-77543937D01*
X105970930Y-77579054D01*
X105934431Y-77598806D01*
X105934422Y-77598812D01*
X105756761Y-77737092D01*
X105756756Y-77737097D01*
X105604284Y-77902723D01*
X105604276Y-77902734D01*
X105481140Y-78091207D01*
X105390703Y-78297385D01*
X105335436Y-78515628D01*
X105335434Y-78515640D01*
X105316844Y-78739994D01*
X105316844Y-78740005D01*
X105335434Y-78964359D01*
X105335436Y-78964371D01*
X105390703Y-79182614D01*
X105481140Y-79388792D01*
X105604276Y-79577265D01*
X105604284Y-79577276D01*
X105756587Y-79742718D01*
X105756760Y-79742906D01*
X105934424Y-79881189D01*
X105934429Y-79881191D01*
X105934431Y-79881193D01*
X105970930Y-79900946D01*
X106020520Y-79950165D01*
X106035628Y-80018382D01*
X106011457Y-80083937D01*
X105970930Y-80119054D01*
X105934431Y-80138806D01*
X105934422Y-80138812D01*
X105756761Y-80277092D01*
X105756756Y-80277097D01*
X105604284Y-80442723D01*
X105604276Y-80442734D01*
X105481140Y-80631207D01*
X105390703Y-80837385D01*
X105335436Y-81055628D01*
X105335434Y-81055640D01*
X105316844Y-81279994D01*
X105316844Y-81280005D01*
X105335434Y-81504359D01*
X105335436Y-81504371D01*
X105390703Y-81722614D01*
X105481140Y-81928792D01*
X105604276Y-82117265D01*
X105604284Y-82117276D01*
X105756756Y-82282902D01*
X105756760Y-82282906D01*
X105934424Y-82421189D01*
X105970930Y-82440945D01*
X105977695Y-82444606D01*
X106027286Y-82493825D01*
X106042394Y-82562042D01*
X106018224Y-82627597D01*
X105989802Y-82655236D01*
X105808922Y-82781890D01*
X105808920Y-82781891D01*
X105641891Y-82948920D01*
X105641886Y-82948926D01*
X105506400Y-83142420D01*
X105506399Y-83142422D01*
X105406570Y-83356507D01*
X105406567Y-83356513D01*
X105349364Y-83569999D01*
X105349364Y-83570000D01*
X106246988Y-83570000D01*
X106214075Y-83627007D01*
X106180000Y-83754174D01*
X106180000Y-83885826D01*
X106214075Y-84012993D01*
X106246988Y-84070000D01*
X105349364Y-84070000D01*
X105406567Y-84283486D01*
X105406570Y-84283492D01*
X105506399Y-84497578D01*
X105641894Y-84691082D01*
X105808917Y-84858105D01*
X105989802Y-84984763D01*
X106033427Y-85039340D01*
X106040619Y-85108839D01*
X106009097Y-85171193D01*
X105977697Y-85195392D01*
X105934427Y-85218809D01*
X105934422Y-85218812D01*
X105756761Y-85357092D01*
X105756756Y-85357097D01*
X105604284Y-85522723D01*
X105604276Y-85522734D01*
X105481140Y-85711207D01*
X105390703Y-85917385D01*
X105335436Y-86135628D01*
X105335434Y-86135640D01*
X105316844Y-86359994D01*
X105316844Y-86360005D01*
X105335434Y-86584359D01*
X105335436Y-86584371D01*
X105390703Y-86802614D01*
X105481140Y-87008792D01*
X105604276Y-87197265D01*
X105604284Y-87197276D01*
X105756756Y-87362902D01*
X105756761Y-87362907D01*
X105791163Y-87389683D01*
X105934424Y-87501189D01*
X105934429Y-87501191D01*
X105934431Y-87501193D01*
X105970930Y-87520946D01*
X106020520Y-87570165D01*
X106035628Y-87638382D01*
X106011457Y-87703937D01*
X105970930Y-87739054D01*
X105934431Y-87758806D01*
X105934422Y-87758812D01*
X105756761Y-87897092D01*
X105756756Y-87897097D01*
X105604284Y-88062723D01*
X105604276Y-88062734D01*
X105481140Y-88251207D01*
X105390703Y-88457385D01*
X105335436Y-88675628D01*
X105335434Y-88675640D01*
X105316844Y-88899994D01*
X105316844Y-88900005D01*
X105335434Y-89124359D01*
X105335436Y-89124371D01*
X105390703Y-89342614D01*
X105481140Y-89548792D01*
X105604276Y-89737265D01*
X105604284Y-89737276D01*
X105749489Y-89895008D01*
X105780412Y-89957662D01*
X105772552Y-90027088D01*
X105728405Y-90081244D01*
X105701596Y-90095172D01*
X105583794Y-90139111D01*
X105466739Y-90226739D01*
X105379111Y-90343795D01*
X105328011Y-90480795D01*
X105328011Y-90480797D01*
X105321500Y-90541345D01*
X105321500Y-92338654D01*
X105328011Y-92399202D01*
X105328011Y-92399204D01*
X105366756Y-92503079D01*
X105379111Y-92536204D01*
X105466739Y-92653261D01*
X105583796Y-92740889D01*
X105720799Y-92791989D01*
X105748050Y-92794918D01*
X105781345Y-92798499D01*
X105781362Y-92798500D01*
X107578638Y-92798500D01*
X107578654Y-92798499D01*
X107605692Y-92795591D01*
X107639201Y-92791989D01*
X107776204Y-92740889D01*
X107817467Y-92710000D01*
X116634491Y-92710000D01*
X116654508Y-93040929D01*
X116654508Y-93040934D01*
X116654509Y-93040935D01*
X116714271Y-93367043D01*
X116788510Y-93605288D01*
X116812904Y-93683570D01*
X116948970Y-93985897D01*
X116948976Y-93985907D01*
X117120483Y-94269617D01*
X117120488Y-94269624D01*
X117324959Y-94530612D01*
X117559387Y-94765040D01*
X117559391Y-94765043D01*
X117820373Y-94969510D01*
X117820375Y-94969511D01*
X117820382Y-94969516D01*
X117919584Y-95029485D01*
X118104098Y-95141027D01*
X118406429Y-95277096D01*
X118722957Y-95375729D01*
X119049065Y-95435491D01*
X119380000Y-95455509D01*
X119710935Y-95435491D01*
X120037043Y-95375729D01*
X120353571Y-95277096D01*
X120655902Y-95141027D01*
X120939627Y-94969510D01*
X121200609Y-94765043D01*
X121435043Y-94530609D01*
X121639510Y-94269627D01*
X121811027Y-93985902D01*
X121947096Y-93683571D01*
X122045729Y-93367043D01*
X122105491Y-93040935D01*
X122125509Y-92710000D01*
X122105491Y-92379065D01*
X122045729Y-92052957D01*
X121947096Y-91736429D01*
X121811027Y-91434098D01*
X121678965Y-91215640D01*
X121639516Y-91150382D01*
X121639511Y-91150375D01*
X121639510Y-91150373D01*
X121435043Y-90889391D01*
X121435040Y-90889387D01*
X121200612Y-90654959D01*
X120939624Y-90450488D01*
X120939617Y-90450483D01*
X120655907Y-90278976D01*
X120655897Y-90278970D01*
X120413775Y-90170000D01*
X120353571Y-90142904D01*
X120037043Y-90044271D01*
X119710935Y-89984509D01*
X119710934Y-89984508D01*
X119710929Y-89984508D01*
X119380000Y-89964491D01*
X119049070Y-89984508D01*
X118722956Y-90044271D01*
X118406429Y-90142904D01*
X118104102Y-90278970D01*
X118104092Y-90278976D01*
X117820382Y-90450483D01*
X117820375Y-90450488D01*
X117559387Y-90654959D01*
X117324959Y-90889387D01*
X117120488Y-91150375D01*
X117120483Y-91150382D01*
X116948976Y-91434092D01*
X116948970Y-91434102D01*
X116812904Y-91736429D01*
X116714271Y-92052956D01*
X116654508Y-92379070D01*
X116634491Y-92710000D01*
X107817467Y-92710000D01*
X107893261Y-92653261D01*
X107980889Y-92536204D01*
X108031989Y-92399201D01*
X108035591Y-92365692D01*
X108038499Y-92338654D01*
X108038500Y-92338637D01*
X108038500Y-90541362D01*
X108038499Y-90541345D01*
X108035157Y-90510270D01*
X108031989Y-90480799D01*
X108020683Y-90450488D01*
X107990849Y-90370500D01*
X107980889Y-90343796D01*
X107893261Y-90226739D01*
X107776204Y-90139111D01*
X107658404Y-90095172D01*
X107602471Y-90053300D01*
X107578055Y-89987835D01*
X107592908Y-89919562D01*
X107610509Y-89895009D01*
X107623395Y-89881011D01*
X107683284Y-89845025D01*
X107714620Y-89841000D01*
X117385210Y-89841000D01*
X117385211Y-89841000D01*
X117385212Y-89841000D01*
X117462592Y-89820266D01*
X117539974Y-89799532D01*
X117678728Y-89719422D01*
X118214930Y-89183220D01*
X118276253Y-89149735D01*
X118302611Y-89146901D01*
X118887638Y-89146901D01*
X118887654Y-89146900D01*
X118914692Y-89143992D01*
X118948201Y-89140390D01*
X119085204Y-89089290D01*
X119202261Y-89001662D01*
X119232219Y-88961642D01*
X119269486Y-88928565D01*
X119273870Y-88926033D01*
X119273873Y-88926033D01*
X119412627Y-88845923D01*
X119444481Y-88814068D01*
X119505801Y-88780584D01*
X119575493Y-88785568D01*
X119631427Y-88827438D01*
X119648342Y-88858414D01*
X119658111Y-88884606D01*
X119692886Y-88931059D01*
X119745739Y-89001662D01*
X119862796Y-89089290D01*
X119999799Y-89140390D01*
X120027050Y-89143319D01*
X120060345Y-89146900D01*
X120060362Y-89146901D01*
X121478438Y-89146901D01*
X121478454Y-89146900D01*
X121505492Y-89143992D01*
X121539001Y-89140390D01*
X121676004Y-89089290D01*
X121793061Y-89001662D01*
X121793063Y-89001658D01*
X121799332Y-88995391D01*
X121800491Y-88996550D01*
X121848232Y-88960816D01*
X121891559Y-88953000D01*
X122125479Y-88953000D01*
X122192518Y-88972685D01*
X122231018Y-89011904D01*
X122234400Y-89017387D01*
X122354613Y-89137600D01*
X122499308Y-89226849D01*
X122660686Y-89280324D01*
X122760289Y-89290500D01*
X123619710Y-89290499D01*
X123719314Y-89280324D01*
X123880692Y-89226849D01*
X124025387Y-89137600D01*
X124145600Y-89017387D01*
X124234849Y-88872692D01*
X124288324Y-88711314D01*
X124298500Y-88611711D01*
X124298500Y-88531986D01*
X124599001Y-88531986D01*
X124609494Y-88634697D01*
X124664641Y-88801119D01*
X124664643Y-88801124D01*
X124756684Y-88950345D01*
X124880654Y-89074315D01*
X125029875Y-89166356D01*
X125029880Y-89166358D01*
X125196302Y-89221505D01*
X125196309Y-89221506D01*
X125299019Y-89231999D01*
X125573999Y-89231999D01*
X126074000Y-89231999D01*
X126348972Y-89231999D01*
X126348986Y-89231998D01*
X126451697Y-89221505D01*
X126618119Y-89166358D01*
X126618124Y-89166356D01*
X126767345Y-89074315D01*
X126891315Y-88950345D01*
X126983356Y-88801124D01*
X126983358Y-88801119D01*
X127038505Y-88634697D01*
X127038506Y-88634690D01*
X127048999Y-88531986D01*
X127049000Y-88531973D01*
X127049000Y-88482000D01*
X126074000Y-88482000D01*
X126074000Y-89231999D01*
X125573999Y-89231999D01*
X125574000Y-89231998D01*
X125574000Y-88482000D01*
X124599001Y-88482000D01*
X124599001Y-88531986D01*
X124298500Y-88531986D01*
X124298499Y-88077290D01*
X124288324Y-87977686D01*
X124234849Y-87816308D01*
X124145600Y-87671613D01*
X124025387Y-87551400D01*
X123880692Y-87462151D01*
X123719314Y-87408676D01*
X123719311Y-87408675D01*
X123719313Y-87408675D01*
X123686833Y-87405357D01*
X123622142Y-87378959D01*
X123581992Y-87321778D01*
X123579130Y-87251967D01*
X123614465Y-87191691D01*
X123676779Y-87160087D01*
X123686827Y-87158642D01*
X123719314Y-87155324D01*
X123880692Y-87101849D01*
X124025387Y-87012600D01*
X124145600Y-86892387D01*
X124148982Y-86886904D01*
X124200930Y-86840179D01*
X124254521Y-86828000D01*
X124542105Y-86828000D01*
X124609144Y-86847685D01*
X124654488Y-86899597D01*
X124656884Y-86904735D01*
X124656885Y-86904738D01*
X124749970Y-87055652D01*
X124875348Y-87181030D01*
X124876031Y-87181451D01*
X124876401Y-87181863D01*
X124881015Y-87185511D01*
X124880391Y-87186298D01*
X124922759Y-87233397D01*
X124933984Y-87302359D01*
X124906144Y-87366442D01*
X124885582Y-87384264D01*
X124886323Y-87385202D01*
X124880655Y-87389683D01*
X124756684Y-87513654D01*
X124664643Y-87662875D01*
X124664641Y-87662880D01*
X124609494Y-87829302D01*
X124609493Y-87829309D01*
X124599000Y-87932013D01*
X124599000Y-87982000D01*
X127048999Y-87982000D01*
X127048999Y-87932028D01*
X127048998Y-87932013D01*
X127038505Y-87829302D01*
X126983358Y-87662880D01*
X126983356Y-87662875D01*
X126891315Y-87513654D01*
X126767344Y-87389683D01*
X126761677Y-87385202D01*
X126763404Y-87383016D01*
X126725240Y-87340589D01*
X126714015Y-87271627D01*
X126741855Y-87207543D01*
X126767106Y-87185664D01*
X126766985Y-87185511D01*
X126770401Y-87182809D01*
X126771969Y-87181451D01*
X126772652Y-87181030D01*
X126898030Y-87055652D01*
X126991115Y-86904738D01*
X127046887Y-86736426D01*
X127057500Y-86632545D01*
X127057499Y-86031456D01*
X127046887Y-85927574D01*
X126991115Y-85759262D01*
X126898030Y-85608348D01*
X126772652Y-85482970D01*
X126621738Y-85389885D01*
X126527023Y-85358500D01*
X126517496Y-85355343D01*
X126460051Y-85315570D01*
X126433228Y-85251055D01*
X126432500Y-85237637D01*
X126432500Y-84798121D01*
X126452185Y-84731082D01*
X126498048Y-84688762D01*
X126547004Y-84662595D01*
X126700568Y-84536568D01*
X126826595Y-84383004D01*
X126882782Y-84277884D01*
X126920239Y-84207808D01*
X126920239Y-84207807D01*
X126920241Y-84207804D01*
X126977908Y-84017701D01*
X126997380Y-83820000D01*
X126977908Y-83622299D01*
X126920241Y-83432196D01*
X126920239Y-83432193D01*
X126920239Y-83432191D01*
X126826598Y-83257001D01*
X126826594Y-83256994D01*
X126700568Y-83103431D01*
X126547005Y-82977405D01*
X126546998Y-82977401D01*
X126371808Y-82883760D01*
X126211103Y-82835011D01*
X126181701Y-82826092D01*
X126181699Y-82826091D01*
X126181701Y-82826091D01*
X125984000Y-82806620D01*
X125786300Y-82826091D01*
X125596191Y-82883760D01*
X125421001Y-82977401D01*
X125420994Y-82977405D01*
X125267431Y-83103431D01*
X125141405Y-83256994D01*
X125141401Y-83257001D01*
X125047760Y-83432191D01*
X124990091Y-83622300D01*
X124970620Y-83820000D01*
X124990091Y-84017699D01*
X125047760Y-84207808D01*
X125141401Y-84382998D01*
X125141406Y-84383006D01*
X125187352Y-84438990D01*
X125214666Y-84503300D01*
X125215500Y-84517656D01*
X125215500Y-85237637D01*
X125195815Y-85304676D01*
X125143011Y-85350431D01*
X125130504Y-85355343D01*
X125026264Y-85389884D01*
X125026259Y-85389886D01*
X124875349Y-85482969D01*
X124783636Y-85574682D01*
X124722312Y-85608166D01*
X124695955Y-85611000D01*
X124254521Y-85611000D01*
X124187482Y-85591315D01*
X124148982Y-85552096D01*
X124145600Y-85546613D01*
X124025388Y-85426401D01*
X124025387Y-85426400D01*
X123915304Y-85358500D01*
X123880694Y-85337152D01*
X123880689Y-85337150D01*
X123865072Y-85331975D01*
X123719314Y-85283676D01*
X123719311Y-85283675D01*
X123719312Y-85283675D01*
X123619711Y-85273500D01*
X122760296Y-85273500D01*
X122760280Y-85273501D01*
X122660684Y-85283676D01*
X122499310Y-85337150D01*
X122499305Y-85337152D01*
X122354611Y-85426401D01*
X122234399Y-85546613D01*
X122231018Y-85552096D01*
X122179070Y-85598821D01*
X122125479Y-85611000D01*
X121501900Y-85611000D01*
X121434861Y-85591315D01*
X121389106Y-85538511D01*
X121377900Y-85487000D01*
X121377900Y-84494291D01*
X121377900Y-84494289D01*
X121336432Y-84339528D01*
X121292027Y-84262616D01*
X121292027Y-84262615D01*
X121256326Y-84200779D01*
X121256320Y-84200771D01*
X119240865Y-82185316D01*
X119207380Y-82123993D01*
X119212364Y-82054301D01*
X119254236Y-81998368D01*
X119289542Y-81979929D01*
X119436119Y-81931358D01*
X119436124Y-81931356D01*
X119585345Y-81839315D01*
X119709315Y-81715345D01*
X119801356Y-81566124D01*
X119801358Y-81566119D01*
X119856505Y-81399697D01*
X119856506Y-81399690D01*
X119866999Y-81296986D01*
X119867000Y-81296973D01*
X119867000Y-81022000D01*
X118991000Y-81022000D01*
X118923961Y-81002315D01*
X118878206Y-80949511D01*
X118867000Y-80898000D01*
X118867000Y-80772000D01*
X118741000Y-80772000D01*
X118673961Y-80752315D01*
X118628206Y-80699511D01*
X118617000Y-80648000D01*
X118617000Y-80522000D01*
X119117000Y-80522000D01*
X119866999Y-80522000D01*
X119866999Y-80247028D01*
X119866998Y-80247013D01*
X119856505Y-80144302D01*
X119801358Y-79977880D01*
X119801356Y-79977875D01*
X119709315Y-79828654D01*
X119585345Y-79704684D01*
X119429975Y-79608851D01*
X119431241Y-79606797D01*
X119387418Y-79568216D01*
X119368262Y-79501023D01*
X119388474Y-79434141D01*
X119431193Y-79397124D01*
X119429975Y-79395149D01*
X119585345Y-79299315D01*
X119709315Y-79175345D01*
X119801356Y-79026124D01*
X119801358Y-79026119D01*
X119856505Y-78859697D01*
X119856506Y-78859690D01*
X119866999Y-78756986D01*
X119867000Y-78756973D01*
X119867000Y-78482000D01*
X119117000Y-78482000D01*
X119117000Y-80522000D01*
X118617000Y-80522000D01*
X118617000Y-78356000D01*
X118636685Y-78288961D01*
X118689489Y-78243206D01*
X118741000Y-78232000D01*
X118867000Y-78232000D01*
X118867000Y-78106000D01*
X118886685Y-78038961D01*
X118939489Y-77993206D01*
X118991000Y-77982000D01*
X119866999Y-77982000D01*
X119866999Y-77707028D01*
X119866998Y-77707013D01*
X119856505Y-77604302D01*
X119801358Y-77437880D01*
X119801356Y-77437875D01*
X119709315Y-77288654D01*
X119697447Y-77276786D01*
X119663962Y-77215463D01*
X119668946Y-77145771D01*
X119710818Y-77089838D01*
X119749129Y-77070446D01*
X119870380Y-77033665D01*
X120045580Y-76940019D01*
X120199144Y-76813992D01*
X120272109Y-76725083D01*
X120329851Y-76685751D01*
X120399696Y-76683880D01*
X120429957Y-76696361D01*
X120482984Y-76726976D01*
X120552361Y-76767032D01*
X120619916Y-76785133D01*
X120707123Y-76808500D01*
X120707124Y-76808500D01*
X120820192Y-76808500D01*
X120887231Y-76828185D01*
X120932986Y-76880989D01*
X120935620Y-76887198D01*
X120966201Y-76965118D01*
X120966204Y-76965124D01*
X121097985Y-77193376D01*
X121173967Y-77288654D01*
X121262317Y-77399442D01*
X121375733Y-77504676D01*
X121455519Y-77578706D01*
X121673285Y-77727176D01*
X121910746Y-77841532D01*
X122162600Y-77919218D01*
X122162601Y-77919218D01*
X122162604Y-77919219D01*
X122423211Y-77958499D01*
X122423216Y-77958499D01*
X122423219Y-77958500D01*
X122423220Y-77958500D01*
X122686780Y-77958500D01*
X122686781Y-77958500D01*
X122743175Y-77950000D01*
X122947395Y-77919219D01*
X122947396Y-77919218D01*
X122947400Y-77919218D01*
X123199254Y-77841532D01*
X123368700Y-77759930D01*
X123437639Y-77748579D01*
X123501774Y-77776301D01*
X123540740Y-77834296D01*
X123546500Y-77871651D01*
X123546500Y-78515109D01*
X123587968Y-78669874D01*
X123628023Y-78739250D01*
X123668078Y-78808627D01*
X123668080Y-78808629D01*
X130738080Y-85878629D01*
X130771565Y-85939952D01*
X130770605Y-85996750D01*
X130735435Y-86135635D01*
X130716844Y-86359994D01*
X130716844Y-86360005D01*
X130735434Y-86584359D01*
X130735436Y-86584371D01*
X130790703Y-86802614D01*
X130881140Y-87008792D01*
X131004276Y-87197265D01*
X131004284Y-87197276D01*
X131156756Y-87362902D01*
X131156761Y-87362907D01*
X131191163Y-87389683D01*
X131334424Y-87501189D01*
X131334429Y-87501191D01*
X131334431Y-87501193D01*
X131370930Y-87520946D01*
X131420520Y-87570165D01*
X131435628Y-87638382D01*
X131411457Y-87703937D01*
X131370930Y-87739054D01*
X131334431Y-87758806D01*
X131334422Y-87758812D01*
X131156761Y-87897092D01*
X131156756Y-87897097D01*
X131004284Y-88062723D01*
X131004276Y-88062734D01*
X130881140Y-88251207D01*
X130790703Y-88457385D01*
X130735436Y-88675628D01*
X130735434Y-88675640D01*
X130716844Y-88899994D01*
X130716844Y-88900005D01*
X130735434Y-89124359D01*
X130735436Y-89124371D01*
X130790703Y-89342614D01*
X130881140Y-89548792D01*
X131004276Y-89737265D01*
X131004284Y-89737276D01*
X131149489Y-89895008D01*
X131156760Y-89902906D01*
X131334424Y-90041189D01*
X131334429Y-90041191D01*
X131334431Y-90041193D01*
X131370930Y-90060946D01*
X131420520Y-90110165D01*
X131435628Y-90178382D01*
X131411457Y-90243937D01*
X131370930Y-90279054D01*
X131334431Y-90298806D01*
X131334422Y-90298812D01*
X131156761Y-90437092D01*
X131156756Y-90437097D01*
X131004284Y-90602723D01*
X131004276Y-90602734D01*
X130881140Y-90791207D01*
X130790703Y-90997385D01*
X130735436Y-91215628D01*
X130735434Y-91215640D01*
X130716844Y-91439994D01*
X130716844Y-91440005D01*
X130735434Y-91664359D01*
X130735436Y-91664371D01*
X130790703Y-91882614D01*
X130881140Y-92088792D01*
X131004276Y-92277265D01*
X131004284Y-92277276D01*
X131156756Y-92442902D01*
X131156760Y-92442906D01*
X131334424Y-92581189D01*
X131334425Y-92581189D01*
X131334427Y-92581191D01*
X131461135Y-92649761D01*
X131532426Y-92688342D01*
X131745365Y-92761444D01*
X131967431Y-92798500D01*
X132192569Y-92798500D01*
X132414635Y-92761444D01*
X132627574Y-92688342D01*
X132825576Y-92581189D01*
X133003240Y-92442906D01*
X133155722Y-92277268D01*
X133278860Y-92088791D01*
X133369296Y-91882616D01*
X133424564Y-91664368D01*
X133434849Y-91540250D01*
X133443156Y-91440005D01*
X133443156Y-91439994D01*
X133424565Y-91215640D01*
X133424563Y-91215628D01*
X133369296Y-90997385D01*
X133365359Y-90988410D01*
X133278860Y-90791209D01*
X133155722Y-90602732D01*
X133155719Y-90602729D01*
X133155715Y-90602723D01*
X133003243Y-90437097D01*
X133003238Y-90437092D01*
X132825577Y-90298812D01*
X132825578Y-90298812D01*
X132825576Y-90298811D01*
X132789070Y-90279055D01*
X132739479Y-90229836D01*
X132724371Y-90161619D01*
X132748541Y-90096064D01*
X132789070Y-90060945D01*
X132789084Y-90060936D01*
X132825576Y-90041189D01*
X133003240Y-89902906D01*
X133155722Y-89737268D01*
X133278860Y-89548791D01*
X133369296Y-89342616D01*
X133424564Y-89124368D01*
X133433429Y-89017386D01*
X133443156Y-88900005D01*
X133443156Y-88899994D01*
X133424565Y-88675640D01*
X133424563Y-88675628D01*
X133388188Y-88531986D01*
X133369296Y-88457384D01*
X133278860Y-88251209D01*
X133155722Y-88062732D01*
X133155719Y-88062729D01*
X133155715Y-88062723D01*
X133003243Y-87897097D01*
X133003238Y-87897092D01*
X132825577Y-87758812D01*
X132825578Y-87758812D01*
X132825576Y-87758811D01*
X132789070Y-87739055D01*
X132739479Y-87689836D01*
X132724371Y-87621619D01*
X132748541Y-87556064D01*
X132789070Y-87520945D01*
X132789084Y-87520936D01*
X132825576Y-87501189D01*
X133003240Y-87362906D01*
X133155722Y-87197268D01*
X133278860Y-87008791D01*
X133369296Y-86802616D01*
X133424564Y-86584368D01*
X133424565Y-86584359D01*
X133443156Y-86360005D01*
X133443156Y-86359994D01*
X133424565Y-86135640D01*
X133424563Y-86135628D01*
X133398430Y-86032430D01*
X133369296Y-85917384D01*
X133278860Y-85711209D01*
X133155722Y-85522732D01*
X133155719Y-85522729D01*
X133155715Y-85522723D01*
X133003243Y-85357097D01*
X133003238Y-85357092D01*
X132825577Y-85218812D01*
X132825578Y-85218812D01*
X132825576Y-85218811D01*
X132789070Y-85199055D01*
X132739479Y-85149836D01*
X132724371Y-85081619D01*
X132748541Y-85016064D01*
X132789070Y-84980945D01*
X132789084Y-84980936D01*
X132825576Y-84961189D01*
X133003240Y-84822906D01*
X133124594Y-84691082D01*
X133155715Y-84657276D01*
X133155716Y-84657274D01*
X133155722Y-84657268D01*
X133278860Y-84468791D01*
X133369296Y-84262616D01*
X133424564Y-84044368D01*
X133428543Y-83996348D01*
X133443156Y-83820005D01*
X133443156Y-83819994D01*
X133424565Y-83595640D01*
X133424563Y-83595628D01*
X133369296Y-83377385D01*
X133360138Y-83356507D01*
X133278860Y-83171209D01*
X133269903Y-83157500D01*
X133155723Y-82982734D01*
X133155715Y-82982723D01*
X133003243Y-82817097D01*
X133003238Y-82817092D01*
X132825577Y-82678812D01*
X132825578Y-82678812D01*
X132825576Y-82678811D01*
X132789070Y-82659055D01*
X132739479Y-82609836D01*
X132724371Y-82541619D01*
X132748541Y-82476064D01*
X132789070Y-82440945D01*
X132789084Y-82440936D01*
X132825576Y-82421189D01*
X133003240Y-82282906D01*
X133155722Y-82117268D01*
X133278860Y-81928791D01*
X133369296Y-81722616D01*
X133424564Y-81504368D01*
X133424565Y-81504359D01*
X133443156Y-81280005D01*
X133443156Y-81279994D01*
X133424565Y-81055640D01*
X133424563Y-81055628D01*
X133397690Y-80949511D01*
X133369296Y-80837384D01*
X133278860Y-80631209D01*
X133155722Y-80442732D01*
X133155719Y-80442729D01*
X133155715Y-80442723D01*
X133003243Y-80277097D01*
X133003238Y-80277092D01*
X132832631Y-80144302D01*
X132825576Y-80138811D01*
X132789070Y-80119055D01*
X132739479Y-80069836D01*
X132724371Y-80001619D01*
X132748541Y-79936064D01*
X132789070Y-79900945D01*
X132789084Y-79900936D01*
X132825576Y-79881189D01*
X133003240Y-79742906D01*
X133102614Y-79634957D01*
X133155715Y-79577276D01*
X133155716Y-79577274D01*
X133155722Y-79577268D01*
X133278860Y-79388791D01*
X133369296Y-79182616D01*
X133424564Y-78964368D01*
X133433094Y-78861426D01*
X133443156Y-78740005D01*
X133443156Y-78739994D01*
X133424565Y-78515640D01*
X133424563Y-78515628D01*
X133416047Y-78482000D01*
X133369296Y-78297384D01*
X133278860Y-78091209D01*
X133251613Y-78049505D01*
X133166492Y-77919217D01*
X133155722Y-77902732D01*
X133155719Y-77902729D01*
X133155715Y-77902723D01*
X133003243Y-77737097D01*
X133003238Y-77737092D01*
X132830598Y-77602720D01*
X132825576Y-77598811D01*
X132789070Y-77579055D01*
X132739479Y-77529836D01*
X132724371Y-77461619D01*
X132748541Y-77396064D01*
X132789070Y-77360945D01*
X132790842Y-77359986D01*
X132825576Y-77341189D01*
X133003240Y-77202906D01*
X133155722Y-77037268D01*
X133278860Y-76848791D01*
X133369296Y-76642616D01*
X133424564Y-76424368D01*
X133434087Y-76309446D01*
X133443156Y-76200005D01*
X133443156Y-76199994D01*
X133424565Y-75975640D01*
X133424563Y-75975628D01*
X133401954Y-75886346D01*
X133369296Y-75757384D01*
X133278860Y-75551209D01*
X133155722Y-75362732D01*
X133155719Y-75362729D01*
X133155715Y-75362723D01*
X133003243Y-75197097D01*
X133003238Y-75197092D01*
X132825577Y-75058812D01*
X132825578Y-75058812D01*
X132825576Y-75058811D01*
X132789070Y-75039055D01*
X132739479Y-74989836D01*
X132724371Y-74921619D01*
X132748541Y-74856064D01*
X132789070Y-74820945D01*
X132790842Y-74819986D01*
X132825576Y-74801189D01*
X133003240Y-74662906D01*
X133111781Y-74545000D01*
X133155715Y-74497276D01*
X133155716Y-74497274D01*
X133155722Y-74497268D01*
X133278860Y-74308791D01*
X133369296Y-74102616D01*
X133424564Y-73884368D01*
X133424565Y-73884359D01*
X133443156Y-73660005D01*
X133443156Y-73659994D01*
X133424565Y-73435640D01*
X133424563Y-73435628D01*
X133404545Y-73356578D01*
X133369296Y-73217384D01*
X133278860Y-73011209D01*
X133270482Y-72998386D01*
X133201138Y-72892246D01*
X133155722Y-72822732D01*
X133155719Y-72822729D01*
X133155715Y-72822723D01*
X133003243Y-72657097D01*
X133003238Y-72657092D01*
X132825577Y-72518812D01*
X132825578Y-72518812D01*
X132825576Y-72518811D01*
X132789070Y-72499055D01*
X132739479Y-72449836D01*
X132724371Y-72381619D01*
X132748541Y-72316064D01*
X132789070Y-72280945D01*
X132789084Y-72280936D01*
X132825576Y-72261189D01*
X133003240Y-72122906D01*
X133155722Y-71957268D01*
X133278860Y-71768791D01*
X133369296Y-71562616D01*
X133424564Y-71344368D01*
X133443156Y-71120000D01*
X133440429Y-71087091D01*
X133424565Y-70895640D01*
X133424563Y-70895628D01*
X133369296Y-70677385D01*
X133332920Y-70594456D01*
X133278860Y-70471209D01*
X133275700Y-70466373D01*
X133181548Y-70322262D01*
X133155722Y-70282732D01*
X133155719Y-70282729D01*
X133155715Y-70282723D01*
X133003243Y-70117097D01*
X133003238Y-70117092D01*
X132862709Y-70007713D01*
X132825576Y-69978811D01*
X132789070Y-69959055D01*
X132739479Y-69909836D01*
X132724371Y-69841619D01*
X132748541Y-69776064D01*
X132789070Y-69740945D01*
X132792006Y-69739356D01*
X132825576Y-69721189D01*
X133003240Y-69582906D01*
X133107171Y-69470008D01*
X133155715Y-69417276D01*
X133155716Y-69417274D01*
X133155722Y-69417268D01*
X133278860Y-69228791D01*
X133369296Y-69022616D01*
X133424564Y-68804368D01*
X133424671Y-68803079D01*
X133443156Y-68580005D01*
X133443156Y-68579994D01*
X133424565Y-68355640D01*
X133424563Y-68355628D01*
X133393255Y-68231996D01*
X133369296Y-68137384D01*
X133278860Y-67931209D01*
X133265169Y-67910254D01*
X133193850Y-67801091D01*
X133155722Y-67742732D01*
X133155719Y-67742729D01*
X133155715Y-67742723D01*
X133003243Y-67577097D01*
X133003238Y-67577092D01*
X132825577Y-67438812D01*
X132825578Y-67438812D01*
X132825576Y-67438811D01*
X132789070Y-67419055D01*
X132739479Y-67369836D01*
X132724371Y-67301619D01*
X132748541Y-67236064D01*
X132789070Y-67200945D01*
X132789084Y-67200936D01*
X132825576Y-67181189D01*
X133003240Y-67042906D01*
X133155722Y-66877268D01*
X133278860Y-66688791D01*
X133369296Y-66482616D01*
X133424564Y-66264368D01*
X133426666Y-66239001D01*
X133443156Y-66040005D01*
X133443156Y-66039994D01*
X133424565Y-65815640D01*
X133424563Y-65815628D01*
X133401927Y-65726241D01*
X133369296Y-65597384D01*
X133278860Y-65391209D01*
X133269012Y-65376136D01*
X133200121Y-65270690D01*
X133155722Y-65202732D01*
X133155719Y-65202729D01*
X133155715Y-65202723D01*
X133003243Y-65037097D01*
X133003238Y-65037092D01*
X132825577Y-64898812D01*
X132825578Y-64898812D01*
X132825576Y-64898811D01*
X132789070Y-64879055D01*
X132739479Y-64829836D01*
X132724371Y-64761619D01*
X132748541Y-64696064D01*
X132789070Y-64660945D01*
X132789084Y-64660936D01*
X132825576Y-64641189D01*
X133003240Y-64502906D01*
X133155722Y-64337268D01*
X133278860Y-64148791D01*
X133369296Y-63942616D01*
X133424564Y-63724368D01*
X133427121Y-63693509D01*
X133443156Y-63500005D01*
X133443156Y-63499994D01*
X133424565Y-63275640D01*
X133424563Y-63275628D01*
X133399241Y-63175633D01*
X133369296Y-63057384D01*
X133278860Y-62851209D01*
X133247414Y-62803078D01*
X133172667Y-62688669D01*
X133155722Y-62662732D01*
X133155719Y-62662729D01*
X133155715Y-62662723D01*
X133003243Y-62497097D01*
X133003238Y-62497092D01*
X132825577Y-62358812D01*
X132825578Y-62358812D01*
X132825576Y-62358811D01*
X132789070Y-62339055D01*
X132739479Y-62289836D01*
X132724371Y-62221619D01*
X132748541Y-62156064D01*
X132789070Y-62120945D01*
X132789574Y-62120672D01*
X132825576Y-62101189D01*
X133003240Y-61962906D01*
X133137668Y-61816880D01*
X133155715Y-61797276D01*
X133155716Y-61797274D01*
X133155722Y-61797268D01*
X133278860Y-61608791D01*
X133369296Y-61402616D01*
X133424564Y-61184368D01*
X133441702Y-60977552D01*
X133443156Y-60960005D01*
X133443156Y-60959994D01*
X133424565Y-60735640D01*
X133424563Y-60735628D01*
X133399402Y-60636269D01*
X133369296Y-60517384D01*
X133278860Y-60311209D01*
X133155722Y-60122732D01*
X133155719Y-60122729D01*
X133155715Y-60122723D01*
X133003243Y-59957097D01*
X133003238Y-59957092D01*
X132884797Y-59864905D01*
X132825576Y-59818811D01*
X132789070Y-59799055D01*
X132739479Y-59749836D01*
X132724371Y-59681619D01*
X132748541Y-59616064D01*
X132789070Y-59580945D01*
X132789084Y-59580936D01*
X132825576Y-59561189D01*
X133003240Y-59422906D01*
X133155722Y-59257268D01*
X133278860Y-59068791D01*
X133369296Y-58862616D01*
X133424564Y-58644368D01*
X133443156Y-58420000D01*
X133431534Y-58279751D01*
X133424565Y-58195640D01*
X133424563Y-58195628D01*
X133369296Y-57977385D01*
X133343886Y-57919456D01*
X133278860Y-57771209D01*
X133155722Y-57582732D01*
X133155719Y-57582729D01*
X133155715Y-57582723D01*
X133003243Y-57417097D01*
X133003238Y-57417092D01*
X132857112Y-57303357D01*
X132825576Y-57278811D01*
X132789070Y-57259055D01*
X132739479Y-57209836D01*
X132724371Y-57141619D01*
X132748541Y-57076064D01*
X132789070Y-57040945D01*
X132789084Y-57040936D01*
X132825576Y-57021189D01*
X133003240Y-56882906D01*
X133155722Y-56717268D01*
X133278860Y-56528791D01*
X133369296Y-56322616D01*
X133424564Y-56104368D01*
X133428057Y-56062216D01*
X133443156Y-55880005D01*
X133443156Y-55879994D01*
X133424565Y-55655640D01*
X133424563Y-55655628D01*
X133400799Y-55561785D01*
X133369296Y-55437384D01*
X133278860Y-55231209D01*
X133155722Y-55042732D01*
X133155719Y-55042729D01*
X133155715Y-55042723D01*
X133003243Y-54877097D01*
X133003238Y-54877092D01*
X132881891Y-54782643D01*
X132825576Y-54738811D01*
X132789070Y-54719055D01*
X132739479Y-54669836D01*
X132724371Y-54601619D01*
X132748541Y-54536064D01*
X132789070Y-54500945D01*
X132789084Y-54500936D01*
X132825576Y-54481189D01*
X133003240Y-54342906D01*
X133155722Y-54177268D01*
X133278860Y-53988791D01*
X133369296Y-53782616D01*
X133424564Y-53564368D01*
X133443156Y-53340000D01*
X133440389Y-53306609D01*
X133424565Y-53115640D01*
X133424563Y-53115628D01*
X133412512Y-53068039D01*
X133369296Y-52897384D01*
X133278860Y-52691209D01*
X133264123Y-52668653D01*
X133190946Y-52556647D01*
X133155722Y-52502732D01*
X133155719Y-52502729D01*
X133155715Y-52502723D01*
X133003243Y-52337097D01*
X133003238Y-52337092D01*
X132825577Y-52198812D01*
X132825578Y-52198812D01*
X132825576Y-52198811D01*
X132789070Y-52179055D01*
X132739479Y-52129836D01*
X132724371Y-52061619D01*
X132748541Y-51996064D01*
X132789070Y-51960945D01*
X132789084Y-51960936D01*
X132825576Y-51941189D01*
X133003240Y-51802906D01*
X133155722Y-51637268D01*
X133278860Y-51448791D01*
X133369296Y-51242616D01*
X133424564Y-51024368D01*
X133431021Y-50946449D01*
X133443156Y-50800005D01*
X133443156Y-50799994D01*
X133424565Y-50575640D01*
X133424563Y-50575628D01*
X133369296Y-50357385D01*
X133311755Y-50226204D01*
X133278860Y-50151209D01*
X133155722Y-49962732D01*
X133155719Y-49962729D01*
X133155715Y-49962723D01*
X133010510Y-49804991D01*
X132979587Y-49742337D01*
X132987447Y-49672911D01*
X133031594Y-49618755D01*
X133058405Y-49604827D01*
X133138584Y-49574920D01*
X133176204Y-49560889D01*
X133293261Y-49473261D01*
X133380889Y-49356204D01*
X133431989Y-49219201D01*
X133435591Y-49185692D01*
X133438499Y-49158654D01*
X133438500Y-49158637D01*
X133438500Y-47361362D01*
X133438499Y-47361345D01*
X133435157Y-47330270D01*
X133431989Y-47300799D01*
X133420799Y-47270799D01*
X133397464Y-47208236D01*
X133380889Y-47163796D01*
X133293261Y-47046739D01*
X133176204Y-46959111D01*
X133146104Y-46947884D01*
X133039203Y-46908011D01*
X132978654Y-46901500D01*
X132978638Y-46901500D01*
X131181362Y-46901500D01*
X131181345Y-46901500D01*
X131120797Y-46908011D01*
X131120795Y-46908011D01*
X130983795Y-46959111D01*
X130866739Y-47046739D01*
X130779111Y-47163795D01*
X130728011Y-47300795D01*
X130728011Y-47300797D01*
X130721500Y-47361345D01*
X130721500Y-49158654D01*
X130728011Y-49219202D01*
X130728011Y-49219204D01*
X130779111Y-49356204D01*
X130866739Y-49473261D01*
X130983796Y-49560889D01*
X131035737Y-49580262D01*
X131101595Y-49604827D01*
X131157528Y-49646699D01*
X131181944Y-49712163D01*
X131167092Y-49780436D01*
X131149490Y-49804991D01*
X131004279Y-49962730D01*
X131004276Y-49962734D01*
X130881140Y-50151207D01*
X130790703Y-50357385D01*
X130735436Y-50575628D01*
X130735434Y-50575640D01*
X130716844Y-50799994D01*
X130716844Y-50800005D01*
X130735434Y-51024359D01*
X130735436Y-51024371D01*
X130790703Y-51242614D01*
X130881140Y-51448792D01*
X131004276Y-51637265D01*
X131004284Y-51637276D01*
X131156756Y-51802902D01*
X131156760Y-51802906D01*
X131334424Y-51941189D01*
X131334429Y-51941191D01*
X131334431Y-51941193D01*
X131370930Y-51960946D01*
X131420520Y-52010165D01*
X131435628Y-52078382D01*
X131411457Y-52143937D01*
X131370930Y-52179054D01*
X131334431Y-52198806D01*
X131334422Y-52198812D01*
X131156761Y-52337092D01*
X131156756Y-52337097D01*
X131004284Y-52502723D01*
X131004276Y-52502734D01*
X130881140Y-52691207D01*
X130790703Y-52897385D01*
X130735436Y-53115628D01*
X130735434Y-53115640D01*
X130716844Y-53339994D01*
X130716844Y-53340005D01*
X130735434Y-53564359D01*
X130735436Y-53564371D01*
X130790703Y-53782614D01*
X130881140Y-53988792D01*
X131004276Y-54177265D01*
X131004284Y-54177276D01*
X131156756Y-54342902D01*
X131156760Y-54342906D01*
X131334424Y-54481189D01*
X131334429Y-54481191D01*
X131334431Y-54481193D01*
X131370930Y-54500946D01*
X131420520Y-54550165D01*
X131435628Y-54618382D01*
X131411457Y-54683937D01*
X131370930Y-54719054D01*
X131334431Y-54738806D01*
X131334422Y-54738812D01*
X131156761Y-54877092D01*
X131156756Y-54877097D01*
X131004284Y-55042723D01*
X131004276Y-55042734D01*
X130881140Y-55231207D01*
X130790703Y-55437385D01*
X130735436Y-55655628D01*
X130735434Y-55655640D01*
X130716844Y-55879994D01*
X130716844Y-55880005D01*
X130735434Y-56104359D01*
X130735436Y-56104371D01*
X130790703Y-56322614D01*
X130881140Y-56528792D01*
X131004276Y-56717265D01*
X131004284Y-56717276D01*
X131156756Y-56882902D01*
X131156760Y-56882906D01*
X131334424Y-57021189D01*
X131334429Y-57021191D01*
X131334431Y-57021193D01*
X131370930Y-57040946D01*
X131420520Y-57090165D01*
X131435628Y-57158382D01*
X131411457Y-57223937D01*
X131370930Y-57259054D01*
X131334431Y-57278806D01*
X131334422Y-57278812D01*
X131156761Y-57417092D01*
X131156756Y-57417097D01*
X131004284Y-57582723D01*
X131004276Y-57582734D01*
X130881140Y-57771207D01*
X130790703Y-57977385D01*
X130735436Y-58195628D01*
X130735434Y-58195640D01*
X130716844Y-58419994D01*
X130716844Y-58420005D01*
X130735434Y-58644359D01*
X130735436Y-58644371D01*
X130790703Y-58862614D01*
X130881140Y-59068792D01*
X131004276Y-59257265D01*
X131004284Y-59257276D01*
X131156756Y-59422902D01*
X131156760Y-59422906D01*
X131334424Y-59561189D01*
X131334429Y-59561191D01*
X131334431Y-59561193D01*
X131370930Y-59580946D01*
X131420520Y-59630165D01*
X131435628Y-59698382D01*
X131411457Y-59763937D01*
X131370930Y-59799054D01*
X131334431Y-59818806D01*
X131334422Y-59818812D01*
X131156761Y-59957092D01*
X131156756Y-59957097D01*
X131004284Y-60122723D01*
X131004276Y-60122734D01*
X130881140Y-60311207D01*
X130790703Y-60517385D01*
X130735436Y-60735628D01*
X130735434Y-60735640D01*
X130716844Y-60959994D01*
X130716844Y-60960005D01*
X130735434Y-61184359D01*
X130735436Y-61184371D01*
X130790703Y-61402614D01*
X130881140Y-61608792D01*
X131004276Y-61797265D01*
X131004284Y-61797276D01*
X131106814Y-61908651D01*
X131156760Y-61962906D01*
X131334424Y-62101189D01*
X131334429Y-62101191D01*
X131334431Y-62101193D01*
X131370930Y-62120946D01*
X131420520Y-62170165D01*
X131435628Y-62238382D01*
X131411457Y-62303937D01*
X131370930Y-62339054D01*
X131334431Y-62358806D01*
X131334422Y-62358812D01*
X131156761Y-62497092D01*
X131156756Y-62497097D01*
X131004284Y-62662723D01*
X131004276Y-62662734D01*
X130881140Y-62851207D01*
X130790703Y-63057385D01*
X130735436Y-63275628D01*
X130735434Y-63275640D01*
X130716844Y-63499994D01*
X130716844Y-63500005D01*
X130735434Y-63724359D01*
X130735436Y-63724371D01*
X130790703Y-63942614D01*
X130881140Y-64148792D01*
X131004276Y-64337265D01*
X131004284Y-64337276D01*
X131156756Y-64502902D01*
X131156760Y-64502906D01*
X131334424Y-64641189D01*
X131334429Y-64641191D01*
X131334431Y-64641193D01*
X131370930Y-64660946D01*
X131420520Y-64710165D01*
X131435628Y-64778382D01*
X131411457Y-64843937D01*
X131370930Y-64879054D01*
X131334431Y-64898806D01*
X131334422Y-64898812D01*
X131156761Y-65037092D01*
X131156756Y-65037097D01*
X131004284Y-65202723D01*
X131004276Y-65202734D01*
X130881140Y-65391207D01*
X130790703Y-65597385D01*
X130735436Y-65815628D01*
X130735434Y-65815640D01*
X130716844Y-66039994D01*
X130716844Y-66040005D01*
X130735434Y-66264359D01*
X130735436Y-66264371D01*
X130790703Y-66482614D01*
X130881140Y-66688792D01*
X131004276Y-66877265D01*
X131004284Y-66877276D01*
X131156756Y-67042902D01*
X131156760Y-67042906D01*
X131334424Y-67181189D01*
X131334429Y-67181191D01*
X131334431Y-67181193D01*
X131370930Y-67200946D01*
X131420520Y-67250165D01*
X131435628Y-67318382D01*
X131411457Y-67383937D01*
X131370930Y-67419054D01*
X131334431Y-67438806D01*
X131334422Y-67438812D01*
X131156761Y-67577092D01*
X131156756Y-67577097D01*
X131004284Y-67742723D01*
X131004276Y-67742734D01*
X130881140Y-67931207D01*
X130790703Y-68137385D01*
X130735436Y-68355628D01*
X130735434Y-68355640D01*
X130716844Y-68579994D01*
X130716844Y-68580005D01*
X130735434Y-68804359D01*
X130735436Y-68804371D01*
X130790703Y-69022614D01*
X130881140Y-69228792D01*
X131004276Y-69417265D01*
X131004284Y-69417276D01*
X131139821Y-69564506D01*
X131156760Y-69582906D01*
X131334424Y-69721189D01*
X131334429Y-69721191D01*
X131334431Y-69721193D01*
X131370930Y-69740946D01*
X131420520Y-69790165D01*
X131435628Y-69858382D01*
X131411457Y-69923937D01*
X131370930Y-69959054D01*
X131334431Y-69978806D01*
X131334422Y-69978812D01*
X131156761Y-70117092D01*
X131156756Y-70117097D01*
X131004284Y-70282723D01*
X131004276Y-70282734D01*
X130881140Y-70471207D01*
X130790703Y-70677385D01*
X130735436Y-70895628D01*
X130735434Y-70895640D01*
X130716844Y-71119994D01*
X130716844Y-71120005D01*
X130735434Y-71344359D01*
X130735436Y-71344371D01*
X130790703Y-71562614D01*
X130881140Y-71768792D01*
X131004276Y-71957265D01*
X131004284Y-71957276D01*
X131156756Y-72122902D01*
X131156760Y-72122906D01*
X131334424Y-72261189D01*
X131334429Y-72261191D01*
X131334431Y-72261193D01*
X131370930Y-72280946D01*
X131420520Y-72330165D01*
X131435628Y-72398382D01*
X131411457Y-72463937D01*
X131370930Y-72499054D01*
X131334431Y-72518806D01*
X131334422Y-72518812D01*
X131156761Y-72657092D01*
X131156756Y-72657097D01*
X131004284Y-72822723D01*
X131004276Y-72822734D01*
X130881140Y-73011207D01*
X130790703Y-73217385D01*
X130735436Y-73435628D01*
X130735434Y-73435640D01*
X130716844Y-73659994D01*
X130716844Y-73660005D01*
X130735434Y-73884359D01*
X130735436Y-73884371D01*
X130790703Y-74102614D01*
X130881140Y-74308792D01*
X131004276Y-74497265D01*
X131004284Y-74497276D01*
X131156756Y-74662902D01*
X131156761Y-74662907D01*
X131178987Y-74680206D01*
X131334424Y-74801189D01*
X131334429Y-74801191D01*
X131334431Y-74801193D01*
X131370930Y-74820946D01*
X131420520Y-74870165D01*
X131435628Y-74938382D01*
X131411457Y-75003937D01*
X131370930Y-75039054D01*
X131334431Y-75058806D01*
X131334422Y-75058812D01*
X131156761Y-75197092D01*
X131156756Y-75197097D01*
X131004284Y-75362723D01*
X131004276Y-75362734D01*
X130881140Y-75551207D01*
X130790703Y-75757385D01*
X130735436Y-75975628D01*
X130735434Y-75975640D01*
X130716844Y-76199994D01*
X130716844Y-76200005D01*
X130735434Y-76424359D01*
X130735436Y-76424371D01*
X130790703Y-76642614D01*
X130881140Y-76848792D01*
X131004276Y-77037265D01*
X131004284Y-77037276D01*
X131154511Y-77200463D01*
X131156760Y-77202906D01*
X131334424Y-77341189D01*
X131334429Y-77341191D01*
X131334431Y-77341193D01*
X131370930Y-77360946D01*
X131420520Y-77410165D01*
X131435628Y-77478382D01*
X131411457Y-77543937D01*
X131370930Y-77579054D01*
X131334431Y-77598806D01*
X131334422Y-77598812D01*
X131156761Y-77737092D01*
X131156756Y-77737097D01*
X131004284Y-77902723D01*
X131004276Y-77902734D01*
X130881140Y-78091207D01*
X130790703Y-78297385D01*
X130735436Y-78515628D01*
X130735434Y-78515640D01*
X130716844Y-78739994D01*
X130716844Y-78740005D01*
X130735434Y-78964359D01*
X130735436Y-78964371D01*
X130790703Y-79182614D01*
X130881140Y-79388792D01*
X131004276Y-79577265D01*
X131004284Y-79577276D01*
X131156587Y-79742718D01*
X131156760Y-79742906D01*
X131334424Y-79881189D01*
X131334429Y-79881191D01*
X131334431Y-79881193D01*
X131370930Y-79900946D01*
X131420520Y-79950165D01*
X131435628Y-80018382D01*
X131411457Y-80083937D01*
X131370930Y-80119054D01*
X131334431Y-80138806D01*
X131334422Y-80138812D01*
X131156761Y-80277092D01*
X131156756Y-80277097D01*
X131004284Y-80442723D01*
X131004276Y-80442734D01*
X130881140Y-80631207D01*
X130790703Y-80837385D01*
X130735436Y-81055628D01*
X130735434Y-81055640D01*
X130716844Y-81279994D01*
X130716844Y-81280005D01*
X130735434Y-81504359D01*
X130735436Y-81504371D01*
X130790703Y-81722614D01*
X130881140Y-81928792D01*
X131004276Y-82117265D01*
X131004284Y-82117276D01*
X131156756Y-82282902D01*
X131156760Y-82282906D01*
X131334424Y-82421189D01*
X131334429Y-82421191D01*
X131334431Y-82421193D01*
X131370930Y-82440946D01*
X131420520Y-82490165D01*
X131435628Y-82558382D01*
X131411457Y-82623937D01*
X131370930Y-82659054D01*
X131334431Y-82678806D01*
X131334422Y-82678812D01*
X131156761Y-82817092D01*
X131156756Y-82817097D01*
X131004284Y-82982723D01*
X131004276Y-82982734D01*
X130881140Y-83171207D01*
X130790703Y-83377385D01*
X130735436Y-83595628D01*
X130735434Y-83595640D01*
X130716844Y-83819994D01*
X130716844Y-83819999D01*
X130717487Y-83827763D01*
X130703403Y-83896199D01*
X130654556Y-83946156D01*
X130586455Y-83961775D01*
X130520720Y-83938095D01*
X130506229Y-83925680D01*
X128226764Y-81646215D01*
X128193279Y-81584892D01*
X128198263Y-81515200D01*
X128235778Y-81462683D01*
X128317609Y-81395527D01*
X128443636Y-81241963D01*
X128537282Y-81066763D01*
X128594949Y-80876660D01*
X128614421Y-80678959D01*
X128594949Y-80481258D01*
X128537282Y-80291155D01*
X128537280Y-80291152D01*
X128537280Y-80291150D01*
X128443639Y-80115960D01*
X128443635Y-80115953D01*
X128317609Y-79962390D01*
X128164046Y-79836364D01*
X128164039Y-79836360D01*
X127988849Y-79742719D01*
X127841327Y-79697969D01*
X127798742Y-79685051D01*
X127798740Y-79685050D01*
X127798742Y-79685050D01*
X127601041Y-79665579D01*
X127403341Y-79685050D01*
X127213236Y-79742718D01*
X127129093Y-79787693D01*
X127060690Y-79801934D01*
X126995446Y-79776933D01*
X126982960Y-79766015D01*
X125358819Y-78141874D01*
X125325334Y-78080551D01*
X125322500Y-78054193D01*
X125322500Y-77602720D01*
X125950830Y-77602720D01*
X126122546Y-77719793D01*
X126122550Y-77719795D01*
X126358854Y-77833594D01*
X126358858Y-77833595D01*
X126609494Y-77910907D01*
X126609500Y-77910909D01*
X126868848Y-77949999D01*
X126868857Y-77950000D01*
X127131143Y-77950000D01*
X127131151Y-77949999D01*
X127390499Y-77910909D01*
X127390505Y-77910907D01*
X127641143Y-77833595D01*
X127877445Y-77719798D01*
X127877447Y-77719797D01*
X128049168Y-77602720D01*
X127000000Y-76553553D01*
X125950830Y-77602720D01*
X125322500Y-77602720D01*
X125322500Y-77256849D01*
X125342185Y-77189810D01*
X125394989Y-77144055D01*
X125464147Y-77134111D01*
X125527703Y-77163136D01*
X125547131Y-77184951D01*
X125547136Y-77184948D01*
X125547205Y-77185035D01*
X125548958Y-77187003D01*
X125550037Y-77188585D01*
X125597873Y-77248572D01*
X126646446Y-76200000D01*
X126646446Y-76199999D01*
X127353553Y-76199999D01*
X127353553Y-76200000D01*
X128402125Y-77248572D01*
X128449971Y-77188573D01*
X128581116Y-76961426D01*
X128676941Y-76717270D01*
X128735306Y-76461550D01*
X128735307Y-76461545D01*
X128754907Y-76200004D01*
X128754907Y-76199995D01*
X128735307Y-75938454D01*
X128735306Y-75938449D01*
X128676941Y-75682729D01*
X128581116Y-75438573D01*
X128581117Y-75438573D01*
X128449972Y-75211426D01*
X128402124Y-75151427D01*
X127353553Y-76199999D01*
X126646446Y-76199999D01*
X125597874Y-75151427D01*
X125550027Y-75211426D01*
X125548955Y-75213000D01*
X125548429Y-75213431D01*
X125547135Y-75215054D01*
X125546787Y-75214777D01*
X125494926Y-75257303D01*
X125425523Y-75265363D01*
X125362780Y-75234621D01*
X125326617Y-75174838D01*
X125322500Y-75143150D01*
X125322500Y-74797277D01*
X125950830Y-74797277D01*
X127000000Y-75846446D01*
X128049168Y-74797278D01*
X127877454Y-74680206D01*
X127877445Y-74680201D01*
X127641142Y-74566404D01*
X127641144Y-74566404D01*
X127390505Y-74489092D01*
X127390499Y-74489090D01*
X127131151Y-74450000D01*
X126868848Y-74450000D01*
X126609500Y-74489090D01*
X126609494Y-74489092D01*
X126358858Y-74566404D01*
X126358854Y-74566405D01*
X126122547Y-74680205D01*
X126122539Y-74680210D01*
X125950830Y-74797277D01*
X125322500Y-74797277D01*
X125322500Y-73223891D01*
X125322500Y-73223889D01*
X125288499Y-73096996D01*
X125281032Y-73069127D01*
X125210161Y-72946376D01*
X125200923Y-72930375D01*
X125200918Y-72930369D01*
X123814819Y-71544270D01*
X123781334Y-71482947D01*
X123778500Y-71456589D01*
X123778500Y-70932449D01*
X123768011Y-70845110D01*
X123768011Y-70845109D01*
X123747145Y-70792195D01*
X123738500Y-70746706D01*
X123738500Y-70627966D01*
X123758185Y-70560927D01*
X123774814Y-70540290D01*
X123920422Y-70394682D01*
X123981743Y-70361199D01*
X124051435Y-70366183D01*
X124053591Y-70367010D01*
X124187142Y-70419675D01*
X124187141Y-70419675D01*
X124273116Y-70430000D01*
X124920000Y-70430000D01*
X124920000Y-70062500D01*
X124939685Y-69995461D01*
X124992489Y-69949706D01*
X125044000Y-69938500D01*
X125076000Y-69938500D01*
X125143039Y-69958185D01*
X125188794Y-70010989D01*
X125200000Y-70062500D01*
X125200000Y-70430000D01*
X125846884Y-70430000D01*
X125932858Y-70419675D01*
X126069676Y-70365721D01*
X126186859Y-70276859D01*
X126275721Y-70159676D01*
X126329674Y-70022858D01*
X126331494Y-70007713D01*
X126359032Y-69943499D01*
X126416916Y-69904368D01*
X126454609Y-69898500D01*
X127347609Y-69898500D01*
X127347610Y-69898500D01*
X127347611Y-69898500D01*
X127469168Y-69865929D01*
X127502373Y-69857032D01*
X127641127Y-69776922D01*
X129507795Y-67910252D01*
X129569116Y-67876769D01*
X129582853Y-67874579D01*
X129599426Y-67872887D01*
X129767738Y-67817115D01*
X129918652Y-67724030D01*
X130044030Y-67598652D01*
X130137115Y-67447738D01*
X130192887Y-67279426D01*
X130203500Y-67175545D01*
X130203499Y-66174456D01*
X130192887Y-66070574D01*
X130137115Y-65902262D01*
X130044030Y-65751348D01*
X130044028Y-65751346D01*
X130040238Y-65745201D01*
X130042726Y-65743666D01*
X130021551Y-65691198D01*
X130034582Y-65622554D01*
X130057283Y-65591376D01*
X130062317Y-65586342D01*
X130154356Y-65437124D01*
X130154358Y-65437119D01*
X130209505Y-65270697D01*
X130209506Y-65270690D01*
X130219999Y-65167986D01*
X130220000Y-65167973D01*
X130220000Y-64893000D01*
X129344000Y-64893000D01*
X129276961Y-64873315D01*
X129231206Y-64820511D01*
X129220000Y-64769000D01*
X129220000Y-64643000D01*
X129094000Y-64643000D01*
X129026961Y-64623315D01*
X128981206Y-64570511D01*
X128970000Y-64519000D01*
X128970000Y-64393000D01*
X129470000Y-64393000D01*
X130219999Y-64393000D01*
X130219999Y-64118028D01*
X130219998Y-64118013D01*
X130209505Y-64015302D01*
X130154358Y-63848880D01*
X130154356Y-63848875D01*
X130058525Y-63693509D01*
X130060898Y-63692044D01*
X130039543Y-63639142D01*
X130052568Y-63570497D01*
X130058864Y-63560700D01*
X130058525Y-63560491D01*
X130154356Y-63405124D01*
X130154358Y-63405119D01*
X130209505Y-63238697D01*
X130209506Y-63238690D01*
X130219999Y-63135986D01*
X130220000Y-63135973D01*
X130220000Y-62861000D01*
X129470000Y-62861000D01*
X129470000Y-64393000D01*
X128970000Y-64393000D01*
X128970000Y-62735000D01*
X128989685Y-62667961D01*
X129042489Y-62622206D01*
X129094000Y-62611000D01*
X129220000Y-62611000D01*
X129220000Y-62485000D01*
X129239685Y-62417961D01*
X129292489Y-62372206D01*
X129344000Y-62361000D01*
X130219999Y-62361000D01*
X130219999Y-62086028D01*
X130219998Y-62086013D01*
X130209505Y-61983302D01*
X130154358Y-61816880D01*
X130154356Y-61816875D01*
X130062315Y-61667654D01*
X130019852Y-61625191D01*
X129986367Y-61563868D01*
X129991351Y-61494176D01*
X130019851Y-61449830D01*
X130069030Y-61400652D01*
X130162115Y-61249738D01*
X130217887Y-61081426D01*
X130228500Y-60977545D01*
X130228499Y-59926456D01*
X130217887Y-59822574D01*
X130162115Y-59654262D01*
X130069030Y-59503348D01*
X130061973Y-59496291D01*
X130028488Y-59434968D01*
X130033472Y-59365276D01*
X130044116Y-59343513D01*
X130137110Y-59192746D01*
X130137109Y-59192746D01*
X130137115Y-59192738D01*
X130192887Y-59024426D01*
X130203500Y-58920545D01*
X130203499Y-57919456D01*
X130192887Y-57815574D01*
X130137115Y-57647262D01*
X130044030Y-57496348D01*
X129918652Y-57370970D01*
X129918651Y-57370969D01*
X129874902Y-57343984D01*
X129828178Y-57292035D01*
X129816000Y-57238446D01*
X129816000Y-56323488D01*
X129835685Y-56256449D01*
X129861336Y-56227634D01*
X129863313Y-56226011D01*
X129875780Y-56215780D01*
X130001807Y-56062216D01*
X130095453Y-55887016D01*
X130153120Y-55696913D01*
X130172592Y-55499212D01*
X130153120Y-55301511D01*
X130095453Y-55111408D01*
X130095451Y-55111405D01*
X130095451Y-55111403D01*
X130001810Y-54936213D01*
X130001806Y-54936206D01*
X129875780Y-54782643D01*
X129722212Y-54656613D01*
X129720308Y-54655341D01*
X129719535Y-54654417D01*
X129717507Y-54652752D01*
X129717822Y-54652367D01*
X129675505Y-54601727D01*
X129666801Y-54532401D01*
X129669428Y-54520148D01*
X129683301Y-54468376D01*
X129683301Y-51744224D01*
X129643454Y-51595515D01*
X129602827Y-51525147D01*
X129566477Y-51462186D01*
X129265015Y-51160724D01*
X128912184Y-50807893D01*
X128878699Y-50746570D01*
X128876578Y-50733485D01*
X128871989Y-50690799D01*
X128820889Y-50553796D01*
X128768899Y-50484346D01*
X128744483Y-50418884D01*
X128759334Y-50350611D01*
X128768897Y-50335732D01*
X128850889Y-50226204D01*
X128901989Y-50089201D01*
X128905591Y-50055692D01*
X128908499Y-50028654D01*
X128908500Y-50028637D01*
X128908500Y-49031362D01*
X128908499Y-49031345D01*
X128905157Y-49000270D01*
X128901989Y-48970799D01*
X128878861Y-48908792D01*
X128850888Y-48833793D01*
X128850887Y-48833792D01*
X128791387Y-48754311D01*
X128766969Y-48688847D01*
X128781820Y-48620574D01*
X128791387Y-48605689D01*
X128850887Y-48526207D01*
X128850888Y-48526206D01*
X128866497Y-48484359D01*
X128901989Y-48389201D01*
X128905591Y-48355692D01*
X128908499Y-48328654D01*
X128908500Y-48328637D01*
X128908500Y-47331362D01*
X128908499Y-47331345D01*
X128905157Y-47300270D01*
X128901989Y-47270799D01*
X128901173Y-47268612D01*
X128868094Y-47179925D01*
X128850889Y-47133796D01*
X128763261Y-47016739D01*
X128763259Y-47016737D01*
X128716493Y-46981729D01*
X128687584Y-46960088D01*
X128674348Y-46947010D01*
X128673625Y-46947734D01*
X127621019Y-45895128D01*
X127587534Y-45833805D01*
X127584700Y-45807447D01*
X127584700Y-45805630D01*
X127584702Y-45805601D01*
X127584702Y-44266439D01*
X127604387Y-44199400D01*
X127652405Y-44155955D01*
X127837011Y-44061894D01*
X128010006Y-43936206D01*
X128161208Y-43785004D01*
X128286896Y-43612009D01*
X128317266Y-43552405D01*
X128365241Y-43501609D01*
X128427751Y-43484700D01*
X129550175Y-43484700D01*
X129550178Y-43484700D01*
X129698887Y-43444853D01*
X129832215Y-43367876D01*
X129941077Y-43259014D01*
X132277874Y-40922217D01*
X132309248Y-40867876D01*
X132354851Y-40788889D01*
X132394698Y-40640180D01*
X132394698Y-40488054D01*
X132402517Y-40444719D01*
X132411587Y-40420403D01*
X132414447Y-40393799D01*
X132418097Y-40359856D01*
X132418098Y-40359839D01*
X132418098Y-39557764D01*
X132418097Y-39557747D01*
X132414427Y-39523618D01*
X132411587Y-39497201D01*
X132360487Y-39360198D01*
X132272859Y-39243141D01*
X132272857Y-39243139D01*
X132267544Y-39236042D01*
X132268868Y-39235050D01*
X132240315Y-39182759D01*
X132245299Y-39113067D01*
X132268279Y-39077310D01*
X132267544Y-39076760D01*
X132272857Y-39069662D01*
X132272859Y-39069661D01*
X132360487Y-38952604D01*
X132411587Y-38815601D01*
X132415189Y-38782092D01*
X132418097Y-38755054D01*
X132418098Y-38755037D01*
X132418098Y-37952962D01*
X132418097Y-37952945D01*
X132413285Y-37908192D01*
X132411587Y-37892399D01*
X132411586Y-37892396D01*
X132402516Y-37868077D01*
X132394698Y-37824744D01*
X132394698Y-37672624D01*
X132394697Y-37672617D01*
X132390614Y-37657380D01*
X132354852Y-37523914D01*
X132277874Y-37390585D01*
X129819413Y-34932124D01*
X129722351Y-34876085D01*
X129686088Y-34855148D01*
X129686089Y-34855148D01*
X129673893Y-34851880D01*
X129537376Y-34815300D01*
X129537373Y-34815300D01*
X128427751Y-34815300D01*
X128360712Y-34795615D01*
X128317266Y-34747595D01*
X128286895Y-34687990D01*
X128161208Y-34514996D01*
X128010006Y-34363794D01*
X127966101Y-34331895D01*
X127853820Y-34250318D01*
X127811154Y-34194988D01*
X127805175Y-34125375D01*
X127837781Y-34063580D01*
X127853820Y-34049682D01*
X127904202Y-34013076D01*
X128010006Y-33936206D01*
X128161208Y-33785004D01*
X128286896Y-33612009D01*
X128317266Y-33552405D01*
X128365241Y-33501609D01*
X128427751Y-33484700D01*
X129603774Y-33484700D01*
X129603777Y-33484700D01*
X129752486Y-33444853D01*
X129885814Y-33367876D01*
X129994676Y-33259014D01*
X130053235Y-33200455D01*
X130053247Y-33200441D01*
X132277875Y-30975816D01*
X132354852Y-30842487D01*
X132394698Y-30693779D01*
X132394698Y-30541653D01*
X132402517Y-30498318D01*
X132404914Y-30491892D01*
X132411587Y-30474002D01*
X132415733Y-30435442D01*
X132418097Y-30413455D01*
X132418098Y-30413438D01*
X132418098Y-29611363D01*
X132418097Y-29611346D01*
X132414314Y-29576168D01*
X132411587Y-29550800D01*
X132411061Y-29549391D01*
X132373218Y-29447930D01*
X132360487Y-29413797D01*
X132272859Y-29296740D01*
X132272857Y-29296738D01*
X132267544Y-29289641D01*
X132268868Y-29288649D01*
X132240315Y-29236358D01*
X132245299Y-29166666D01*
X132268279Y-29130909D01*
X132267544Y-29130359D01*
X132272857Y-29123261D01*
X132272859Y-29123260D01*
X132360487Y-29006203D01*
X132411587Y-28869200D01*
X132415189Y-28835691D01*
X132418097Y-28808653D01*
X132418098Y-28808636D01*
X132418098Y-28006561D01*
X132418097Y-28006544D01*
X132414755Y-27975469D01*
X132411587Y-27945998D01*
X132411586Y-27945995D01*
X132402516Y-27921676D01*
X132394698Y-27878343D01*
X132394698Y-27726223D01*
X132394698Y-27726221D01*
X132354851Y-27577512D01*
X132295839Y-27475300D01*
X132277874Y-27444183D01*
X129765814Y-24932124D01*
X129723329Y-24907595D01*
X129632489Y-24855148D01*
X129632490Y-24855148D01*
X129620294Y-24851880D01*
X129483777Y-24815300D01*
X129483774Y-24815300D01*
X128602206Y-24815300D01*
X128535167Y-24795615D01*
X128489412Y-24742811D01*
X128478848Y-24703903D01*
X128476732Y-24683196D01*
X128472889Y-24645574D01*
X128417117Y-24477262D01*
X128324032Y-24326348D01*
X128198654Y-24200970D01*
X128047740Y-24107885D01*
X128047737Y-24107884D01*
X127879429Y-24052113D01*
X127775547Y-24041500D01*
X126224464Y-24041500D01*
X126224448Y-24041501D01*
X126120574Y-24052113D01*
X125952266Y-24107884D01*
X125952261Y-24107886D01*
X125801348Y-24200971D01*
X125675973Y-24326346D01*
X125582888Y-24477259D01*
X125582886Y-24477264D01*
X125527115Y-24645572D01*
X125516502Y-24749447D01*
X125516502Y-26005246D01*
X125496817Y-26072285D01*
X125480183Y-26092927D01*
X122338142Y-29234970D01*
X122229282Y-29343829D01*
X122229278Y-29343835D01*
X122152304Y-29477156D01*
X122152303Y-29477160D01*
X122112456Y-29625869D01*
X122112456Y-29625871D01*
X122112456Y-32231379D01*
X122092771Y-32298418D01*
X122039967Y-32344173D01*
X121970809Y-32354117D01*
X121907253Y-32325092D01*
X121877971Y-32287674D01*
X121849287Y-32231379D01*
X121811894Y-32157991D01*
X121686206Y-31984996D01*
X121535004Y-31833794D01*
X121362009Y-31708106D01*
X121362008Y-31708105D01*
X121362006Y-31708104D01*
X121351204Y-31702600D01*
X121300408Y-31654625D01*
X121283500Y-31592116D01*
X121283500Y-29917606D01*
X121283499Y-29917602D01*
X121281731Y-29908716D01*
X121259155Y-29795216D01*
X121211400Y-29679926D01*
X121211399Y-29679925D01*
X121211396Y-29679919D01*
X121142072Y-29576169D01*
X121102071Y-29536168D01*
X121053833Y-29487930D01*
X120524418Y-28958515D01*
X120490933Y-28897192D01*
X120488099Y-28870834D01*
X120488099Y-28808962D01*
X120488098Y-28808945D01*
X120484756Y-28777870D01*
X120481588Y-28748399D01*
X120430488Y-28611396D01*
X120342860Y-28494339D01*
X120342858Y-28494337D01*
X120337545Y-28487240D01*
X120338869Y-28486248D01*
X120310316Y-28433957D01*
X120315300Y-28364265D01*
X120338280Y-28328508D01*
X120337545Y-28327958D01*
X120342858Y-28320860D01*
X120342860Y-28320859D01*
X120430488Y-28203802D01*
X120481588Y-28066799D01*
X120487880Y-28008275D01*
X120488098Y-28006252D01*
X120488099Y-28006235D01*
X120488099Y-27204160D01*
X120488098Y-27204143D01*
X120484756Y-27173068D01*
X120481588Y-27143597D01*
X120430488Y-27006594D01*
X120342860Y-26889537D01*
X120225803Y-26801909D01*
X120088802Y-26750809D01*
X120028253Y-26744298D01*
X120028237Y-26744298D01*
X119731761Y-26744298D01*
X119731744Y-26744298D01*
X119671201Y-26750808D01*
X119663644Y-26752594D01*
X119663205Y-26750739D01*
X119603623Y-26754992D01*
X119591753Y-26751506D01*
X119588797Y-26750808D01*
X119528254Y-26744298D01*
X119528238Y-26744298D01*
X119231762Y-26744298D01*
X119231745Y-26744298D01*
X119171202Y-26750808D01*
X119163645Y-26752594D01*
X119163206Y-26750739D01*
X119103624Y-26754992D01*
X119091754Y-26751506D01*
X119088798Y-26750808D01*
X119028255Y-26744298D01*
X119028239Y-26744298D01*
X118731763Y-26744298D01*
X118731746Y-26744298D01*
X118671198Y-26750809D01*
X118671196Y-26750809D01*
X118534196Y-26801909D01*
X118417140Y-26889537D01*
X118329512Y-27006593D01*
X118278412Y-27143593D01*
X118278412Y-27143595D01*
X118271901Y-27204143D01*
X118271901Y-28006252D01*
X118278412Y-28066800D01*
X118278412Y-28066802D01*
X118291807Y-28102713D01*
X118329512Y-28203802D01*
X118417140Y-28320859D01*
X118417141Y-28320860D01*
X118422455Y-28327958D01*
X118421130Y-28328949D01*
X118449684Y-28381241D01*
X118444700Y-28450933D01*
X118421719Y-28486689D01*
X118422455Y-28487240D01*
X118417141Y-28494337D01*
X118417140Y-28494339D01*
X118385892Y-28536082D01*
X118329512Y-28611395D01*
X118278412Y-28748395D01*
X118278412Y-28748397D01*
X118271901Y-28808945D01*
X118271901Y-28870834D01*
X118252216Y-28937873D01*
X118235582Y-28958515D01*
X117746167Y-29447930D01*
X117716941Y-29477156D01*
X117657927Y-29536169D01*
X117588603Y-29639919D01*
X117588598Y-29639928D01*
X117540845Y-29755215D01*
X117540843Y-29755223D01*
X117516500Y-29877602D01*
X117516500Y-31397781D01*
X117496815Y-31464820D01*
X117444011Y-31510575D01*
X117405107Y-31521139D01*
X117395571Y-31522113D01*
X117227264Y-31577884D01*
X117227259Y-31577886D01*
X117076346Y-31670971D01*
X116950971Y-31796346D01*
X116857886Y-31947259D01*
X116857884Y-31947264D01*
X116802113Y-32115572D01*
X116791500Y-32219447D01*
X116791500Y-33820537D01*
X116791501Y-33820553D01*
X116802113Y-33924427D01*
X116848223Y-34063580D01*
X116857885Y-34092738D01*
X116950970Y-34243652D01*
X117076348Y-34369030D01*
X117227262Y-34462115D01*
X117395574Y-34517887D01*
X117499455Y-34528500D01*
X118711233Y-34528499D01*
X118778272Y-34548184D01*
X118798914Y-34564818D01*
X119110181Y-34876085D01*
X119143666Y-34937408D01*
X119146500Y-34963766D01*
X119146500Y-36167500D01*
X119126815Y-36234539D01*
X119074011Y-36280294D01*
X119022500Y-36291500D01*
X118731345Y-36291500D01*
X118670802Y-36298010D01*
X118670791Y-36298012D01*
X118611170Y-36320250D01*
X118541478Y-36325234D01*
X118524505Y-36320250D01*
X118487379Y-36306403D01*
X118487372Y-36306401D01*
X118427844Y-36300000D01*
X118380000Y-36300000D01*
X118380000Y-36444545D01*
X118360315Y-36511584D01*
X118355267Y-36518856D01*
X118329111Y-36553795D01*
X118278011Y-36690795D01*
X118278011Y-36690797D01*
X118271500Y-36751345D01*
X118271500Y-37748654D01*
X118278011Y-37809202D01*
X118278011Y-37809204D01*
X118322543Y-37928594D01*
X118329111Y-37946204D01*
X118355266Y-37981143D01*
X118379684Y-38046606D01*
X118380000Y-38055454D01*
X118380000Y-38144545D01*
X118360315Y-38211584D01*
X118355267Y-38218856D01*
X118329111Y-38253795D01*
X118278011Y-38390795D01*
X118278011Y-38390797D01*
X118271500Y-38451345D01*
X118271500Y-39448654D01*
X118278011Y-39509202D01*
X118278012Y-39509207D01*
X118329108Y-39646198D01*
X118329109Y-39646201D01*
X118329110Y-39646203D01*
X118329111Y-39646204D01*
X118341767Y-39663111D01*
X118366184Y-39728574D01*
X118366500Y-39737420D01*
X118366500Y-40289220D01*
X118346815Y-40356259D01*
X118341768Y-40363529D01*
X118319113Y-40393792D01*
X118319110Y-40393799D01*
X118268011Y-40530795D01*
X118268011Y-40530797D01*
X118261500Y-40591345D01*
X118261500Y-41157500D01*
X118241815Y-41224539D01*
X118189011Y-41270294D01*
X118137500Y-41281500D01*
X117572601Y-41281500D01*
X117450222Y-41305843D01*
X117450214Y-41305845D01*
X117334927Y-41353598D01*
X117334918Y-41353603D01*
X117231168Y-41422927D01*
X117151168Y-41502928D01*
X117071167Y-41582929D01*
X117037793Y-41616303D01*
X116982927Y-41671168D01*
X116913603Y-41774918D01*
X116913598Y-41774927D01*
X116865845Y-41890214D01*
X116865843Y-41890222D01*
X116841500Y-42012601D01*
X116841500Y-43242398D01*
X116865843Y-43364777D01*
X116865845Y-43364785D01*
X116913598Y-43480072D01*
X116913603Y-43480081D01*
X116982928Y-43583832D01*
X116982931Y-43583836D01*
X117208885Y-43809789D01*
X117242370Y-43871112D01*
X117237386Y-43940803D01*
X117230562Y-43955923D01*
X117173760Y-44062191D01*
X117116091Y-44252300D01*
X117096620Y-44450000D01*
X117116091Y-44647699D01*
X117173760Y-44837808D01*
X117267401Y-45012998D01*
X117267405Y-45013005D01*
X117393431Y-45166568D01*
X117546994Y-45292594D01*
X117547001Y-45292598D01*
X117722191Y-45386239D01*
X117722193Y-45386239D01*
X117722196Y-45386241D01*
X117912299Y-45443908D01*
X117912298Y-45443908D01*
X117930024Y-45445653D01*
X118110000Y-45463380D01*
X118307701Y-45443908D01*
X118497804Y-45386241D01*
X118673004Y-45292595D01*
X118826568Y-45166568D01*
X118952595Y-45013004D01*
X119046241Y-44837804D01*
X119103908Y-44647701D01*
X119123380Y-44450000D01*
X119103908Y-44252299D01*
X119046241Y-44062196D01*
X119046239Y-44062193D01*
X119046239Y-44062191D01*
X118952598Y-43887001D01*
X118952594Y-43886994D01*
X118826566Y-43733429D01*
X118815333Y-43724210D01*
X118785220Y-43680000D01*
X119230000Y-43680000D01*
X119277828Y-43680000D01*
X119277844Y-43679999D01*
X119337377Y-43673597D01*
X119344933Y-43671813D01*
X119345272Y-43673250D01*
X119406342Y-43668874D01*
X119421633Y-43673364D01*
X119422622Y-43673597D01*
X119482155Y-43679999D01*
X119482172Y-43680000D01*
X119530000Y-43680000D01*
X119530000Y-42965000D01*
X119230000Y-42965000D01*
X119230000Y-43680000D01*
X118785220Y-43680000D01*
X118776000Y-43666463D01*
X118770000Y-43628359D01*
X118770000Y-42965000D01*
X118364000Y-42965000D01*
X118296961Y-42945315D01*
X118251206Y-42892511D01*
X118240000Y-42841000D01*
X118240000Y-42714065D01*
X118231696Y-42698858D01*
X118236680Y-42629166D01*
X118278552Y-42573233D01*
X118344016Y-42548816D01*
X118352862Y-42548500D01*
X119562395Y-42548500D01*
X119562396Y-42548499D01*
X119684785Y-42524155D01*
X119708241Y-42514438D01*
X119755694Y-42505000D01*
X120396000Y-42505000D01*
X120463039Y-42524685D01*
X120508794Y-42577489D01*
X120520000Y-42629000D01*
X120520000Y-42841000D01*
X120500315Y-42908039D01*
X120447511Y-42953794D01*
X120396000Y-42965000D01*
X119990000Y-42965000D01*
X119990000Y-43680000D01*
X120037828Y-43680000D01*
X120037844Y-43679999D01*
X120097377Y-43673597D01*
X120104933Y-43671813D01*
X120105272Y-43673250D01*
X120166342Y-43668874D01*
X120181633Y-43673364D01*
X120182622Y-43673597D01*
X120242155Y-43679999D01*
X120242172Y-43680000D01*
X120350106Y-43680000D01*
X120417145Y-43699685D01*
X120462900Y-43752489D01*
X120472844Y-43821647D01*
X120445959Y-43882665D01*
X120442405Y-43886994D01*
X120442401Y-43887001D01*
X120348760Y-44062191D01*
X120291091Y-44252300D01*
X120271620Y-44450000D01*
X120291091Y-44647699D01*
X120348760Y-44837808D01*
X120442401Y-45012998D01*
X120442405Y-45013005D01*
X120568431Y-45166568D01*
X120721994Y-45292594D01*
X120722001Y-45292598D01*
X120897191Y-45386239D01*
X120897193Y-45386239D01*
X120897196Y-45386241D01*
X121087299Y-45443908D01*
X121087298Y-45443908D01*
X121106770Y-45445825D01*
X121285000Y-45463380D01*
X121353121Y-45456670D01*
X121421764Y-45469688D01*
X121472475Y-45517753D01*
X121489150Y-45585603D01*
X121466495Y-45651698D01*
X121452954Y-45667754D01*
X120360986Y-46759724D01*
X120252126Y-46868583D01*
X120252124Y-46868586D01*
X120186800Y-46981729D01*
X120162100Y-47009561D01*
X120163008Y-47010469D01*
X120156738Y-47016738D01*
X120069112Y-47133793D01*
X120069111Y-47133793D01*
X120018011Y-47270795D01*
X120018011Y-47270797D01*
X120011500Y-47331345D01*
X120011500Y-48328654D01*
X120018011Y-48389202D01*
X120018011Y-48389204D01*
X120069111Y-48526204D01*
X120128613Y-48605689D01*
X120153030Y-48671154D01*
X120138178Y-48739427D01*
X120128613Y-48754311D01*
X120069111Y-48833795D01*
X120018011Y-48970795D01*
X120018011Y-48970797D01*
X120011500Y-49031345D01*
X120011500Y-50028654D01*
X120018011Y-50089202D01*
X120018011Y-50089204D01*
X120069111Y-50226204D01*
X120151099Y-50335727D01*
X120175516Y-50401190D01*
X120160664Y-50469463D01*
X120151099Y-50484347D01*
X120099112Y-50553793D01*
X120099111Y-50553793D01*
X120048011Y-50690795D01*
X120048011Y-50690797D01*
X120043423Y-50733468D01*
X120016685Y-50798019D01*
X120007815Y-50807893D01*
X119467681Y-51348028D01*
X119406358Y-51381513D01*
X119336667Y-51376529D01*
X119292319Y-51348028D01*
X118752184Y-50807893D01*
X118718699Y-50746570D01*
X118716578Y-50733485D01*
X118711989Y-50690799D01*
X118660889Y-50553796D01*
X118608899Y-50484346D01*
X118584483Y-50418884D01*
X118599334Y-50350611D01*
X118608897Y-50335732D01*
X118690889Y-50226204D01*
X118741989Y-50089201D01*
X118745591Y-50055692D01*
X118748499Y-50028654D01*
X118748500Y-50028637D01*
X118748500Y-49031362D01*
X118748499Y-49031345D01*
X118745157Y-49000270D01*
X118741989Y-48970799D01*
X118718861Y-48908792D01*
X118690888Y-48833793D01*
X118690887Y-48833792D01*
X118631387Y-48754311D01*
X118606969Y-48688847D01*
X118621820Y-48620574D01*
X118631387Y-48605689D01*
X118690887Y-48526207D01*
X118690888Y-48526206D01*
X118706497Y-48484359D01*
X118741989Y-48389201D01*
X118745591Y-48355692D01*
X118748499Y-48328654D01*
X118748500Y-48328637D01*
X118748500Y-47331362D01*
X118748499Y-47331345D01*
X118745157Y-47300270D01*
X118741989Y-47270799D01*
X118741173Y-47268612D01*
X118708094Y-47179925D01*
X118690889Y-47133796D01*
X118603261Y-47016739D01*
X118486204Y-46929111D01*
X118349203Y-46878011D01*
X118322306Y-46875119D01*
X118257755Y-46848380D01*
X118247882Y-46839511D01*
X116128220Y-44719849D01*
X116094735Y-44658526D01*
X116091901Y-44632168D01*
X116091901Y-40592155D01*
X117510000Y-40592155D01*
X117510000Y-40855000D01*
X118010000Y-40855000D01*
X118010000Y-40140000D01*
X117997794Y-40127794D01*
X117972323Y-40120315D01*
X117972206Y-40120180D01*
X117925336Y-40143642D01*
X117916580Y-40144901D01*
X117902625Y-40146401D01*
X117902620Y-40146403D01*
X117767913Y-40196645D01*
X117767906Y-40196649D01*
X117652812Y-40282809D01*
X117652809Y-40282812D01*
X117566649Y-40397906D01*
X117566645Y-40397913D01*
X117516403Y-40532620D01*
X117516401Y-40532627D01*
X117510000Y-40592155D01*
X116091901Y-40592155D01*
X116091901Y-39447844D01*
X117480000Y-39447844D01*
X117486401Y-39507372D01*
X117486403Y-39507379D01*
X117536645Y-39642086D01*
X117536649Y-39642093D01*
X117622809Y-39757187D01*
X117622812Y-39757190D01*
X117737906Y-39843350D01*
X117737913Y-39843354D01*
X117872620Y-39893596D01*
X117916573Y-39898322D01*
X117962609Y-39917390D01*
X117980000Y-39900000D01*
X117980000Y-39150000D01*
X117480000Y-39150000D01*
X117480000Y-39447844D01*
X116091901Y-39447844D01*
X116091901Y-37747844D01*
X117480000Y-37747844D01*
X117486401Y-37807372D01*
X117486403Y-37807379D01*
X117536645Y-37942086D01*
X117536647Y-37942088D01*
X117599230Y-38025689D01*
X117623647Y-38091153D01*
X117608796Y-38159426D01*
X117599230Y-38174311D01*
X117536647Y-38257911D01*
X117536645Y-38257913D01*
X117486403Y-38392620D01*
X117486401Y-38392627D01*
X117480000Y-38452155D01*
X117480000Y-38750000D01*
X117980000Y-38750000D01*
X117980000Y-37450000D01*
X117480000Y-37450000D01*
X117480000Y-37747844D01*
X116091901Y-37747844D01*
X116091901Y-36752155D01*
X117480000Y-36752155D01*
X117480000Y-37050000D01*
X117980000Y-37050000D01*
X117980000Y-36300000D01*
X117932155Y-36300000D01*
X117872627Y-36306401D01*
X117872620Y-36306403D01*
X117737913Y-36356645D01*
X117737906Y-36356649D01*
X117622812Y-36442809D01*
X117622809Y-36442812D01*
X117536649Y-36557906D01*
X117536645Y-36557913D01*
X117486403Y-36692620D01*
X117486401Y-36692627D01*
X117480000Y-36752155D01*
X116091901Y-36752155D01*
X116091901Y-29230226D01*
X116091901Y-29230224D01*
X116052054Y-29081515D01*
X115979472Y-28955799D01*
X115975077Y-28948186D01*
X115975075Y-28948184D01*
X115975074Y-28948182D01*
X113188972Y-26162082D01*
X113155487Y-26100759D01*
X113158721Y-26036087D01*
X113210049Y-25878116D01*
X113243500Y-25666916D01*
X113243500Y-25453084D01*
X113210049Y-25241884D01*
X113161390Y-25092124D01*
X113143973Y-25038519D01*
X113143972Y-25038516D01*
X113077264Y-24907595D01*
X113046894Y-24847991D01*
X112921206Y-24674996D01*
X112770004Y-24523794D01*
X112597009Y-24398106D01*
X112406483Y-24301027D01*
X112406480Y-24301026D01*
X112203117Y-24234951D01*
X112097516Y-24218225D01*
X111991916Y-24201500D01*
X111528084Y-24201500D01*
X111457684Y-24212650D01*
X111316882Y-24234951D01*
X111113519Y-24301026D01*
X111113516Y-24301027D01*
X110922990Y-24398106D01*
X110749993Y-24523796D01*
X110598796Y-24674993D01*
X110473106Y-24847990D01*
X110442736Y-24907595D01*
X110394761Y-24958391D01*
X110332251Y-24975300D01*
X109202822Y-24975300D01*
X109054114Y-25015146D01*
X109054111Y-25015147D01*
X108920788Y-25092120D01*
X108920783Y-25092124D01*
X106590988Y-27421921D01*
X106482128Y-27530780D01*
X106482124Y-27530786D01*
X106405150Y-27664107D01*
X106405149Y-27664111D01*
X106365302Y-27812820D01*
X106365302Y-27812822D01*
X106365302Y-27964942D01*
X106357484Y-28008275D01*
X106348413Y-28032594D01*
X106348413Y-28032595D01*
X106341902Y-28093143D01*
X106341902Y-28895252D01*
X106348413Y-28955799D01*
X106348413Y-28955802D01*
X106394327Y-29078898D01*
X106399513Y-29092802D01*
X106487141Y-29209859D01*
X106487142Y-29209860D01*
X106492456Y-29216958D01*
X106491131Y-29217949D01*
X106519685Y-29270241D01*
X106514701Y-29339933D01*
X106491720Y-29375689D01*
X106492456Y-29376240D01*
X106487142Y-29383337D01*
X106487141Y-29383339D01*
X106453932Y-29427701D01*
X106399513Y-29500395D01*
X106348413Y-29637395D01*
X106348413Y-29637397D01*
X106341902Y-29697945D01*
X106341902Y-30500054D01*
X106348412Y-30560599D01*
X106348413Y-30560601D01*
X106355489Y-30579573D01*
X106357483Y-30584917D01*
X106365302Y-30628252D01*
X106365302Y-30780378D01*
X106405149Y-30929087D01*
X106462185Y-31027876D01*
X106482126Y-31062415D01*
X108947586Y-33527876D01*
X108947587Y-33527877D01*
X108947589Y-33527878D01*
X109014248Y-33566362D01*
X109014250Y-33566364D01*
X109014251Y-33566364D01*
X109080915Y-33604853D01*
X109229624Y-33644700D01*
X110332251Y-33644700D01*
X110399290Y-33664385D01*
X110442736Y-33712405D01*
X110467999Y-33761986D01*
X110473106Y-33772009D01*
X110598794Y-33945004D01*
X110749996Y-34096206D01*
X110852344Y-34170566D01*
X110906182Y-34209682D01*
X110948847Y-34265012D01*
X110954826Y-34334626D01*
X110922220Y-34396421D01*
X110906182Y-34410318D01*
X110837297Y-34460365D01*
X110749996Y-34523794D01*
X110749994Y-34523796D01*
X110749993Y-34523796D01*
X110598796Y-34674993D01*
X110473106Y-34847990D01*
X110442736Y-34907595D01*
X110394761Y-34958391D01*
X110332251Y-34975300D01*
X109235822Y-34975300D01*
X109087114Y-35015146D01*
X109087111Y-35015147D01*
X108953788Y-35092120D01*
X108953783Y-35092124D01*
X106590988Y-37454921D01*
X106482128Y-37563780D01*
X106482124Y-37563786D01*
X106405150Y-37697107D01*
X106405149Y-37697111D01*
X106365302Y-37845820D01*
X106365302Y-37845822D01*
X106365302Y-37997942D01*
X106357484Y-38041275D01*
X106348413Y-38065594D01*
X106348413Y-38065595D01*
X106341902Y-38126143D01*
X106341902Y-38928252D01*
X106348413Y-38988800D01*
X106348413Y-38988802D01*
X106394327Y-39111898D01*
X106399513Y-39125802D01*
X106487141Y-39242859D01*
X106487142Y-39242860D01*
X106492456Y-39249958D01*
X106491131Y-39250949D01*
X106519685Y-39303241D01*
X106514701Y-39372933D01*
X106491720Y-39408689D01*
X106492456Y-39409240D01*
X106487142Y-39416337D01*
X106487141Y-39416339D01*
X106463557Y-39447844D01*
X106399513Y-39533395D01*
X106348413Y-39670395D01*
X106348413Y-39670397D01*
X106341902Y-39730945D01*
X106341902Y-40533054D01*
X106348412Y-40593599D01*
X106357483Y-40617917D01*
X106365302Y-40661252D01*
X106365302Y-40813378D01*
X106405149Y-40962087D01*
X106444982Y-41031079D01*
X106482126Y-41095415D01*
X108914586Y-43527876D01*
X108914587Y-43527877D01*
X108914589Y-43527878D01*
X108981248Y-43566362D01*
X108981250Y-43566364D01*
X108981251Y-43566364D01*
X109047915Y-43604853D01*
X109196624Y-43644700D01*
X110157796Y-43644700D01*
X110224835Y-43664385D01*
X110270590Y-43717189D01*
X110281154Y-43756097D01*
X110287113Y-43814427D01*
X110327465Y-43936203D01*
X110342885Y-43982738D01*
X110435970Y-44133652D01*
X110561348Y-44259030D01*
X110712262Y-44352115D01*
X110880574Y-44407887D01*
X110984455Y-44418500D01*
X111051300Y-44418499D01*
X111118338Y-44438183D01*
X111164094Y-44490986D01*
X111175300Y-44542499D01*
X111175300Y-45734047D01*
X111155615Y-45801086D01*
X111138981Y-45821728D01*
X110200986Y-46759724D01*
X110092126Y-46868583D01*
X110092124Y-46868586D01*
X110026800Y-46981729D01*
X110002100Y-47009561D01*
X110003008Y-47010469D01*
X109996738Y-47016738D01*
X109909112Y-47133793D01*
X109909111Y-47133793D01*
X109858011Y-47270795D01*
X109858011Y-47270797D01*
X109851500Y-47331345D01*
X109851500Y-48328654D01*
X109858011Y-48389202D01*
X109858011Y-48389204D01*
X109909111Y-48526204D01*
X109968613Y-48605689D01*
X109993030Y-48671154D01*
X109978178Y-48739427D01*
X109968613Y-48754311D01*
X109909111Y-48833795D01*
X109858011Y-48970795D01*
X109858011Y-48970797D01*
X109851500Y-49031345D01*
X109851500Y-50028654D01*
X109858011Y-50089202D01*
X109858011Y-50089204D01*
X109909111Y-50226204D01*
X109991099Y-50335727D01*
X110015516Y-50401190D01*
X110000664Y-50469463D01*
X109991099Y-50484347D01*
X109939113Y-50553791D01*
X109939109Y-50553798D01*
X109914104Y-50620839D01*
X109872232Y-50676772D01*
X109830019Y-50697278D01*
X109819316Y-50700146D01*
X109819314Y-50700146D01*
X109779694Y-50723022D01*
X109779692Y-50723022D01*
X109685991Y-50777119D01*
X109685983Y-50777125D01*
X109302386Y-51160724D01*
X109193526Y-51269583D01*
X109193522Y-51269589D01*
X109116548Y-51402910D01*
X109116547Y-51402914D01*
X109076700Y-51551623D01*
X109076700Y-54468377D01*
X109116547Y-54617086D01*
X109185151Y-54735911D01*
X109185151Y-54735913D01*
X109193521Y-54750410D01*
X109193525Y-54750415D01*
X114945181Y-60502071D01*
X114978666Y-60563394D01*
X114981500Y-60589752D01*
X114981500Y-61147550D01*
X114991988Y-61234889D01*
X114991989Y-61234891D01*
X115046798Y-61373879D01*
X115046799Y-61373881D01*
X115137073Y-61492926D01*
X115230625Y-61563868D01*
X115256121Y-61583202D01*
X115395109Y-61638011D01*
X115482450Y-61648500D01*
X115777550Y-61648500D01*
X115864891Y-61638011D01*
X115864891Y-61638010D01*
X115865215Y-61637972D01*
X115894785Y-61637972D01*
X115895108Y-61638010D01*
X115895109Y-61638011D01*
X115982450Y-61648500D01*
X116277550Y-61648500D01*
X116364891Y-61638011D01*
X116364891Y-61638010D01*
X116365215Y-61637972D01*
X116394785Y-61637972D01*
X116395108Y-61638010D01*
X116395109Y-61638011D01*
X116482450Y-61648500D01*
X116777550Y-61648500D01*
X116864891Y-61638011D01*
X116864891Y-61638010D01*
X116865215Y-61637972D01*
X116894785Y-61637972D01*
X116895108Y-61638010D01*
X116895109Y-61638011D01*
X116982450Y-61648500D01*
X117277550Y-61648500D01*
X117364891Y-61638011D01*
X117364891Y-61638010D01*
X117365215Y-61637972D01*
X117394785Y-61637972D01*
X117395108Y-61638010D01*
X117395109Y-61638011D01*
X117482450Y-61648500D01*
X117777550Y-61648500D01*
X117864891Y-61638011D01*
X117864891Y-61638010D01*
X117865215Y-61637972D01*
X117894785Y-61637972D01*
X117895108Y-61638010D01*
X117895109Y-61638011D01*
X117982450Y-61648500D01*
X118277550Y-61648500D01*
X118364891Y-61638011D01*
X118364891Y-61638010D01*
X118365215Y-61637972D01*
X118394785Y-61637972D01*
X118395108Y-61638010D01*
X118395109Y-61638011D01*
X118482450Y-61648500D01*
X118777550Y-61648500D01*
X118864891Y-61638011D01*
X118864891Y-61638010D01*
X118865215Y-61637972D01*
X118894785Y-61637972D01*
X118895108Y-61638010D01*
X118895109Y-61638011D01*
X118982450Y-61648500D01*
X119277550Y-61648500D01*
X119364891Y-61638011D01*
X119364891Y-61638010D01*
X119365215Y-61637972D01*
X119394785Y-61637972D01*
X119395108Y-61638010D01*
X119395109Y-61638011D01*
X119482450Y-61648500D01*
X119777550Y-61648500D01*
X119864891Y-61638011D01*
X119864891Y-61638010D01*
X119865215Y-61637972D01*
X119894785Y-61637972D01*
X119895108Y-61638010D01*
X119895109Y-61638011D01*
X119982450Y-61648500D01*
X120277550Y-61648500D01*
X120364891Y-61638011D01*
X120364891Y-61638010D01*
X120365215Y-61637972D01*
X120394785Y-61637972D01*
X120395108Y-61638010D01*
X120395109Y-61638011D01*
X120482450Y-61648500D01*
X120777550Y-61648500D01*
X120864891Y-61638011D01*
X120864891Y-61638010D01*
X120865215Y-61637972D01*
X120894785Y-61637972D01*
X120895108Y-61638010D01*
X120895109Y-61638011D01*
X120982450Y-61648500D01*
X121277550Y-61648500D01*
X121364891Y-61638011D01*
X121364891Y-61638010D01*
X121365215Y-61637972D01*
X121394785Y-61637972D01*
X121395108Y-61638010D01*
X121395109Y-61638011D01*
X121482450Y-61648500D01*
X121620146Y-61648500D01*
X121687185Y-61668185D01*
X121732940Y-61720989D01*
X121742884Y-61790147D01*
X121713859Y-61853703D01*
X121656141Y-61891160D01*
X121634660Y-61897677D01*
X121532191Y-61928760D01*
X121357001Y-62022401D01*
X121356994Y-62022405D01*
X121203431Y-62148431D01*
X121077405Y-62301994D01*
X121077401Y-62302001D01*
X120983760Y-62477191D01*
X120926091Y-62667300D01*
X120906620Y-62865000D01*
X120926091Y-63062699D01*
X120983760Y-63252808D01*
X121077401Y-63427998D01*
X121077405Y-63428005D01*
X121203431Y-63581568D01*
X121356994Y-63707594D01*
X121357001Y-63707598D01*
X121532191Y-63801239D01*
X121532193Y-63801239D01*
X121532196Y-63801241D01*
X121722299Y-63858908D01*
X121722298Y-63858908D01*
X121743897Y-63861035D01*
X121920000Y-63878380D01*
X122000763Y-63870424D01*
X122069406Y-63883442D01*
X122100597Y-63906146D01*
X122164270Y-63969819D01*
X122197755Y-64031142D01*
X122192771Y-64100834D01*
X122150899Y-64156767D01*
X122085435Y-64181184D01*
X122076589Y-64181500D01*
X121386905Y-64181500D01*
X121319866Y-64161815D01*
X121291052Y-64136165D01*
X121239568Y-64073431D01*
X121086005Y-63947405D01*
X121085998Y-63947401D01*
X120910808Y-63853760D01*
X120815752Y-63824925D01*
X120720701Y-63796092D01*
X120720699Y-63796091D01*
X120720701Y-63796091D01*
X120523000Y-63776620D01*
X120325300Y-63796091D01*
X120135191Y-63853760D01*
X119960001Y-63947401D01*
X119959994Y-63947405D01*
X119806431Y-64073431D01*
X119754948Y-64136165D01*
X119697203Y-64175499D01*
X119659095Y-64181500D01*
X115562500Y-64181500D01*
X115495461Y-64161815D01*
X115449706Y-64109011D01*
X115438500Y-64057500D01*
X115438500Y-63444447D01*
X115438500Y-63444445D01*
X115397032Y-63289684D01*
X115397032Y-63289683D01*
X115316921Y-63150928D01*
X114985677Y-62819684D01*
X114952192Y-62758361D01*
X114957176Y-62688669D01*
X114980000Y-62653154D01*
X114980000Y-62643115D01*
X114969392Y-62554785D01*
X114969392Y-62525215D01*
X114980000Y-62436884D01*
X114980000Y-62430000D01*
X113840000Y-62430000D01*
X113840000Y-62517500D01*
X113820315Y-62584539D01*
X113767511Y-62630294D01*
X113716000Y-62641500D01*
X113684000Y-62641500D01*
X113616961Y-62621815D01*
X113571206Y-62569011D01*
X113560000Y-62517500D01*
X113560000Y-62430000D01*
X112420000Y-62430000D01*
X112400443Y-62449556D01*
X112400315Y-62449995D01*
X112397992Y-62452007D01*
X112383681Y-62466319D01*
X112382657Y-62465295D01*
X112347511Y-62495750D01*
X112278353Y-62505694D01*
X112214797Y-62476669D01*
X112208319Y-62470637D01*
X112163651Y-62425969D01*
X112107402Y-62391274D01*
X112060678Y-62339326D01*
X112048500Y-62285736D01*
X112048500Y-62174263D01*
X112068185Y-62107224D01*
X112107401Y-62068725D01*
X112163652Y-62034030D01*
X112216325Y-61981356D01*
X112277646Y-61947872D01*
X112347338Y-61952856D01*
X112403271Y-61994727D01*
X112427689Y-62060191D01*
X112427121Y-62083822D01*
X112420000Y-62143122D01*
X112420000Y-62150000D01*
X113560000Y-62150000D01*
X113840000Y-62150000D01*
X114980000Y-62150000D01*
X114980000Y-62143115D01*
X114969675Y-62057141D01*
X114915721Y-61920323D01*
X114826859Y-61803140D01*
X114709676Y-61714278D01*
X114572857Y-61660324D01*
X114572858Y-61660324D01*
X114486884Y-61650000D01*
X113840000Y-61650000D01*
X113840000Y-62150000D01*
X113560000Y-62150000D01*
X113560000Y-61650000D01*
X112913116Y-61650000D01*
X112827141Y-61660324D01*
X112690323Y-61714278D01*
X112616179Y-61770503D01*
X112550867Y-61795325D01*
X112482504Y-61780896D01*
X112432793Y-61731798D01*
X112417518Y-61663619D01*
X112423550Y-61632693D01*
X112437886Y-61589430D01*
X112437886Y-61589428D01*
X112437887Y-61589426D01*
X112448500Y-61485545D01*
X112448499Y-60434456D01*
X112437887Y-60330574D01*
X112382115Y-60162262D01*
X112289030Y-60011348D01*
X112163652Y-59885970D01*
X112054767Y-59818809D01*
X112012740Y-59792886D01*
X112012735Y-59792884D01*
X111844427Y-59737113D01*
X111740546Y-59726500D01*
X111139462Y-59726500D01*
X111139446Y-59726501D01*
X111035572Y-59737113D01*
X110867264Y-59792884D01*
X110867259Y-59792886D01*
X110716346Y-59885971D01*
X110590970Y-60011347D01*
X110590968Y-60011350D01*
X110590541Y-60012043D01*
X110590123Y-60012418D01*
X110586489Y-60017015D01*
X110585703Y-60016393D01*
X110538591Y-60058764D01*
X110469627Y-60069983D01*
X110405547Y-60042136D01*
X110387739Y-60021578D01*
X110386798Y-60022323D01*
X110382316Y-60016655D01*
X110258345Y-59892684D01*
X110109124Y-59800643D01*
X110109119Y-59800641D01*
X109942697Y-59745494D01*
X109942690Y-59745493D01*
X109839986Y-59735000D01*
X109790000Y-59735000D01*
X109790000Y-64724999D01*
X109839972Y-64724999D01*
X109839986Y-64724998D01*
X109942697Y-64714505D01*
X110109119Y-64659358D01*
X110109124Y-64659356D01*
X110258345Y-64567315D01*
X110382316Y-64443344D01*
X110386798Y-64437677D01*
X110388991Y-64439411D01*
X110431357Y-64401265D01*
X110500314Y-64390008D01*
X110564410Y-64417818D01*
X110586334Y-64443106D01*
X110586489Y-64442985D01*
X110589183Y-64446392D01*
X110590545Y-64447963D01*
X110590969Y-64448651D01*
X110716347Y-64574029D01*
X110716351Y-64574032D01*
X110790569Y-64619811D01*
X110837294Y-64671759D01*
X110845247Y-64693255D01*
X110872968Y-64796714D01*
X110872969Y-64796715D01*
X110955954Y-64940449D01*
X110972427Y-65008349D01*
X110949574Y-65074376D01*
X110894653Y-65117567D01*
X110887574Y-65120154D01*
X110867266Y-65126883D01*
X110867259Y-65126886D01*
X110716346Y-65219971D01*
X110590970Y-65345347D01*
X110590968Y-65345350D01*
X110590541Y-65346043D01*
X110590123Y-65346418D01*
X110586489Y-65351015D01*
X110585703Y-65350393D01*
X110538591Y-65392764D01*
X110469627Y-65403983D01*
X110405547Y-65376136D01*
X110387739Y-65355578D01*
X110386798Y-65356323D01*
X110382316Y-65350655D01*
X110258345Y-65226684D01*
X110109124Y-65134643D01*
X110109119Y-65134641D01*
X109942697Y-65079494D01*
X109942690Y-65079493D01*
X109839986Y-65069000D01*
X109790000Y-65069000D01*
X109790000Y-67543890D01*
X109770315Y-67610929D01*
X109753681Y-67631571D01*
X109736252Y-67649000D01*
X109736252Y-69765000D01*
X109753681Y-69782429D01*
X109787166Y-69843752D01*
X109790000Y-69870110D01*
X109790000Y-72344999D01*
X109839972Y-72344999D01*
X109839986Y-72344998D01*
X109942697Y-72334505D01*
X110109119Y-72279358D01*
X110109124Y-72279356D01*
X110258345Y-72187315D01*
X110382316Y-72063344D01*
X110386798Y-72057677D01*
X110388991Y-72059411D01*
X110431357Y-72021265D01*
X110500314Y-72010008D01*
X110564410Y-72037818D01*
X110586334Y-72063106D01*
X110586489Y-72062985D01*
X110589183Y-72066392D01*
X110590545Y-72067963D01*
X110590970Y-72068652D01*
X110716348Y-72194030D01*
X110867262Y-72287115D01*
X111035574Y-72342887D01*
X111139455Y-72353500D01*
X111740544Y-72353499D01*
X111844426Y-72342887D01*
X112012738Y-72287115D01*
X112163652Y-72194030D01*
X112289030Y-72068652D01*
X112382115Y-71917738D01*
X112437887Y-71749426D01*
X112448500Y-71645545D01*
X112448499Y-70594456D01*
X112437887Y-70490574D01*
X112423548Y-70447303D01*
X112421147Y-70377477D01*
X112456878Y-70317435D01*
X112519399Y-70286242D01*
X112588858Y-70293802D01*
X112616180Y-70309497D01*
X112690323Y-70365721D01*
X112827142Y-70419675D01*
X112827141Y-70419675D01*
X112913116Y-70430000D01*
X113518303Y-70430000D01*
X113585342Y-70449685D01*
X113631097Y-70502489D01*
X113641041Y-70571647D01*
X113635020Y-70589042D01*
X113636193Y-70589357D01*
X113631968Y-70605126D01*
X113631968Y-70605127D01*
X113590500Y-70759889D01*
X113590500Y-73064699D01*
X113570815Y-73131738D01*
X113531598Y-73170237D01*
X113449348Y-73220969D01*
X113323970Y-73346347D01*
X113323968Y-73346350D01*
X113323541Y-73347043D01*
X113323123Y-73347418D01*
X113319489Y-73352015D01*
X113318703Y-73351393D01*
X113271591Y-73393764D01*
X113202627Y-73404983D01*
X113138547Y-73377136D01*
X113120739Y-73356578D01*
X113119798Y-73357323D01*
X113115316Y-73351655D01*
X112991345Y-73227684D01*
X112842124Y-73135643D01*
X112842119Y-73135641D01*
X112675697Y-73080494D01*
X112675690Y-73080493D01*
X112572986Y-73070000D01*
X112523000Y-73070000D01*
X112523000Y-78059999D01*
X112572972Y-78059999D01*
X112572986Y-78059998D01*
X112675697Y-78049505D01*
X112842119Y-77994358D01*
X112842124Y-77994356D01*
X112991345Y-77902315D01*
X113115316Y-77778344D01*
X113119798Y-77772677D01*
X113121991Y-77774411D01*
X113164357Y-77736265D01*
X113233314Y-77725008D01*
X113297410Y-77752818D01*
X113319334Y-77778106D01*
X113319489Y-77777985D01*
X113322183Y-77781392D01*
X113323545Y-77782963D01*
X113323970Y-77783652D01*
X113449348Y-77909030D01*
X113531597Y-77959761D01*
X113578321Y-78011709D01*
X113590500Y-78065300D01*
X113590500Y-85358500D01*
X113570815Y-85425539D01*
X113518011Y-85471294D01*
X113466500Y-85482500D01*
X113374000Y-85482500D01*
X113374000Y-86358500D01*
X113354315Y-86425539D01*
X113301511Y-86471294D01*
X113250000Y-86482500D01*
X113124000Y-86482500D01*
X113124000Y-86608500D01*
X113104315Y-86675539D01*
X113051511Y-86721294D01*
X113000000Y-86732500D01*
X111899001Y-86732500D01*
X111899001Y-86782486D01*
X111909494Y-86885197D01*
X111964641Y-87051619D01*
X111964643Y-87051624D01*
X112056684Y-87200845D01*
X112180655Y-87324816D01*
X112186323Y-87329298D01*
X112184592Y-87331486D01*
X112222749Y-87373890D01*
X112233987Y-87442850D01*
X112206158Y-87506938D01*
X112180894Y-87528836D01*
X112181015Y-87528989D01*
X112177627Y-87531667D01*
X112176043Y-87533041D01*
X112175350Y-87533468D01*
X112175347Y-87533470D01*
X112049971Y-87658846D01*
X111956886Y-87809759D01*
X111956884Y-87809764D01*
X111901113Y-87978072D01*
X111890500Y-88081947D01*
X111890500Y-88081960D01*
X111890501Y-88500000D01*
X111870817Y-88567039D01*
X111818013Y-88612794D01*
X111766501Y-88624000D01*
X108108002Y-88624000D01*
X108040963Y-88604315D01*
X107995208Y-88551511D01*
X107987796Y-88530440D01*
X107975529Y-88482000D01*
X107969296Y-88457384D01*
X107878860Y-88251209D01*
X107755722Y-88062732D01*
X107755719Y-88062729D01*
X107755715Y-88062723D01*
X107603243Y-87897097D01*
X107603238Y-87897092D01*
X107425577Y-87758812D01*
X107425578Y-87758812D01*
X107425576Y-87758811D01*
X107389070Y-87739055D01*
X107339479Y-87689836D01*
X107324371Y-87621619D01*
X107348541Y-87556064D01*
X107389070Y-87520945D01*
X107389084Y-87520936D01*
X107425576Y-87501189D01*
X107603240Y-87362906D01*
X107755722Y-87197268D01*
X107878860Y-87008791D01*
X107969296Y-86802616D01*
X108024564Y-86584368D01*
X108024565Y-86584359D01*
X108043156Y-86360005D01*
X108043156Y-86359994D01*
X108028449Y-86182513D01*
X111899000Y-86182513D01*
X111899000Y-86232500D01*
X112874000Y-86232500D01*
X112874000Y-85482500D01*
X112599029Y-85482500D01*
X112599012Y-85482501D01*
X112496302Y-85492994D01*
X112329880Y-85548141D01*
X112329875Y-85548143D01*
X112180654Y-85640184D01*
X112056684Y-85764154D01*
X111964643Y-85913375D01*
X111964641Y-85913380D01*
X111909494Y-86079802D01*
X111909493Y-86079809D01*
X111899000Y-86182513D01*
X108028449Y-86182513D01*
X108024565Y-86135640D01*
X108024563Y-86135628D01*
X107998430Y-86032430D01*
X107969296Y-85917384D01*
X107878860Y-85711209D01*
X107755722Y-85522732D01*
X107755719Y-85522729D01*
X107755715Y-85522723D01*
X107603243Y-85357097D01*
X107603238Y-85357092D01*
X107425577Y-85218812D01*
X107425577Y-85218811D01*
X107382303Y-85195393D01*
X107332713Y-85146173D01*
X107317605Y-85077957D01*
X107341775Y-85012401D01*
X107370198Y-84984763D01*
X107551079Y-84858108D01*
X107718105Y-84691082D01*
X107853600Y-84497578D01*
X107953429Y-84283492D01*
X107953432Y-84283486D01*
X108010636Y-84070000D01*
X107113012Y-84070000D01*
X107145925Y-84012993D01*
X107180000Y-83885826D01*
X107180000Y-83754174D01*
X107145925Y-83627007D01*
X107113012Y-83570000D01*
X108010636Y-83570000D01*
X108010635Y-83569999D01*
X107953432Y-83356513D01*
X107953429Y-83356507D01*
X107853600Y-83142422D01*
X107853599Y-83142420D01*
X107718113Y-82948926D01*
X107718108Y-82948920D01*
X107551082Y-82781894D01*
X107370197Y-82655236D01*
X107326572Y-82600659D01*
X107319380Y-82531160D01*
X107350902Y-82468806D01*
X107382300Y-82444608D01*
X107425576Y-82421189D01*
X107603240Y-82282906D01*
X107755722Y-82117268D01*
X107878860Y-81928791D01*
X107969296Y-81722616D01*
X108024564Y-81504368D01*
X108024565Y-81504359D01*
X108043156Y-81280005D01*
X108043156Y-81279994D01*
X108024565Y-81055640D01*
X108024563Y-81055628D01*
X107997690Y-80949511D01*
X107969296Y-80837384D01*
X107878860Y-80631209D01*
X107755722Y-80442732D01*
X107755719Y-80442729D01*
X107755715Y-80442723D01*
X107603243Y-80277097D01*
X107603238Y-80277092D01*
X107432631Y-80144302D01*
X107425576Y-80138811D01*
X107389070Y-80119055D01*
X107339479Y-80069836D01*
X107324371Y-80001619D01*
X107348541Y-79936064D01*
X107389070Y-79900945D01*
X107389084Y-79900936D01*
X107425576Y-79881189D01*
X107603240Y-79742906D01*
X107702614Y-79634957D01*
X107755715Y-79577276D01*
X107755716Y-79577274D01*
X107755722Y-79577268D01*
X107878860Y-79388791D01*
X107969296Y-79182616D01*
X108024564Y-78964368D01*
X108033094Y-78861426D01*
X108043156Y-78740005D01*
X108043156Y-78739994D01*
X108024565Y-78515640D01*
X108024563Y-78515628D01*
X108016047Y-78482000D01*
X107969296Y-78297384D01*
X107878860Y-78091209D01*
X107851613Y-78049505D01*
X107766492Y-77919217D01*
X107755722Y-77902732D01*
X107755719Y-77902729D01*
X107755715Y-77902723D01*
X107603243Y-77737097D01*
X107603238Y-77737092D01*
X107430598Y-77602720D01*
X107425576Y-77598811D01*
X107389070Y-77579055D01*
X107339479Y-77529836D01*
X107324371Y-77461619D01*
X107348541Y-77396064D01*
X107389070Y-77360945D01*
X107390842Y-77359986D01*
X111273001Y-77359986D01*
X111283494Y-77462697D01*
X111338641Y-77629119D01*
X111338643Y-77629124D01*
X111430684Y-77778345D01*
X111554654Y-77902315D01*
X111703875Y-77994356D01*
X111703880Y-77994358D01*
X111870302Y-78049505D01*
X111870309Y-78049506D01*
X111973019Y-78059999D01*
X112022999Y-78059998D01*
X112023000Y-78059998D01*
X112023000Y-77085000D01*
X111273001Y-77085000D01*
X111273001Y-77359986D01*
X107390842Y-77359986D01*
X107425576Y-77341189D01*
X107603240Y-77202906D01*
X107755722Y-77037268D01*
X107878860Y-76848791D01*
X107969296Y-76642616D01*
X108024564Y-76424368D01*
X108034040Y-76310013D01*
X111273000Y-76310013D01*
X111273000Y-76585000D01*
X112023000Y-76585000D01*
X112023000Y-74545000D01*
X111273001Y-74545000D01*
X111273001Y-74819986D01*
X111283494Y-74922697D01*
X111338641Y-75089119D01*
X111338643Y-75089124D01*
X111430684Y-75238345D01*
X111554654Y-75362315D01*
X111710025Y-75458149D01*
X111708759Y-75460199D01*
X111752590Y-75498799D01*
X111771737Y-75565994D01*
X111751516Y-75632873D01*
X111708808Y-75669879D01*
X111710025Y-75671851D01*
X111554654Y-75767684D01*
X111430684Y-75891654D01*
X111338643Y-76040875D01*
X111338641Y-76040880D01*
X111283494Y-76207302D01*
X111283493Y-76207309D01*
X111273000Y-76310013D01*
X108034040Y-76310013D01*
X108034087Y-76309446D01*
X108043156Y-76200005D01*
X108043156Y-76199994D01*
X108024565Y-75975640D01*
X108024563Y-75975628D01*
X108001954Y-75886346D01*
X107969296Y-75757384D01*
X107878860Y-75551209D01*
X107755722Y-75362732D01*
X107755719Y-75362729D01*
X107755715Y-75362723D01*
X107603243Y-75197097D01*
X107603238Y-75197092D01*
X107425577Y-75058812D01*
X107425578Y-75058812D01*
X107425576Y-75058811D01*
X107389070Y-75039055D01*
X107339479Y-74989836D01*
X107324371Y-74921619D01*
X107348541Y-74856064D01*
X107389070Y-74820945D01*
X107390842Y-74819986D01*
X107425576Y-74801189D01*
X107603240Y-74662906D01*
X107711781Y-74545000D01*
X107755715Y-74497276D01*
X107755716Y-74497274D01*
X107755722Y-74497268D01*
X107878860Y-74308791D01*
X107969296Y-74102616D01*
X108024564Y-73884368D01*
X108024565Y-73884359D01*
X108034040Y-73770013D01*
X111273000Y-73770013D01*
X111273000Y-74045000D01*
X112023000Y-74045000D01*
X112023000Y-73070000D01*
X112022999Y-73069999D01*
X111973029Y-73070000D01*
X111973011Y-73070001D01*
X111870302Y-73080494D01*
X111703880Y-73135641D01*
X111703875Y-73135643D01*
X111554654Y-73227684D01*
X111430684Y-73351654D01*
X111338643Y-73500875D01*
X111338641Y-73500880D01*
X111283494Y-73667302D01*
X111283493Y-73667309D01*
X111273000Y-73770013D01*
X108034040Y-73770013D01*
X108043156Y-73660005D01*
X108043156Y-73659994D01*
X108024565Y-73435640D01*
X108024563Y-73435628D01*
X108004545Y-73356578D01*
X107969296Y-73217384D01*
X107878860Y-73011209D01*
X107870482Y-72998386D01*
X107801138Y-72892246D01*
X107755722Y-72822732D01*
X107755719Y-72822729D01*
X107755715Y-72822723D01*
X107603243Y-72657097D01*
X107603238Y-72657092D01*
X107425577Y-72518812D01*
X107425578Y-72518812D01*
X107425576Y-72518811D01*
X107389070Y-72499055D01*
X107339479Y-72449836D01*
X107324371Y-72381619D01*
X107348541Y-72316064D01*
X107389070Y-72280945D01*
X107389084Y-72280936D01*
X107425576Y-72261189D01*
X107603240Y-72122906D01*
X107755722Y-71957268D01*
X107878860Y-71768791D01*
X107933165Y-71644986D01*
X108540001Y-71644986D01*
X108550494Y-71747697D01*
X108605641Y-71914119D01*
X108605643Y-71914124D01*
X108697684Y-72063345D01*
X108821654Y-72187315D01*
X108970875Y-72279356D01*
X108970880Y-72279358D01*
X109137302Y-72334505D01*
X109137309Y-72334506D01*
X109240019Y-72344999D01*
X109289999Y-72344998D01*
X109290000Y-72344998D01*
X109290000Y-71370000D01*
X108540001Y-71370000D01*
X108540001Y-71644986D01*
X107933165Y-71644986D01*
X107969296Y-71562616D01*
X108024564Y-71344368D01*
X108043156Y-71120000D01*
X108040429Y-71087091D01*
X108024565Y-70895640D01*
X108024563Y-70895628D01*
X107969296Y-70677385D01*
X107932920Y-70594456D01*
X107878860Y-70471209D01*
X107875700Y-70466373D01*
X107781548Y-70322262D01*
X107755722Y-70282732D01*
X107755719Y-70282729D01*
X107755715Y-70282723D01*
X107603243Y-70117097D01*
X107603238Y-70117092D01*
X107462709Y-70007713D01*
X107425576Y-69978811D01*
X107389070Y-69959055D01*
X107339479Y-69909836D01*
X107324371Y-69841619D01*
X107348541Y-69776064D01*
X107389070Y-69740945D01*
X107392006Y-69739356D01*
X107425576Y-69721189D01*
X107603240Y-69582906D01*
X107707171Y-69470008D01*
X107755715Y-69417276D01*
X107755716Y-69417274D01*
X107755722Y-69417268D01*
X107878860Y-69228791D01*
X107933165Y-69104986D01*
X108486253Y-69104986D01*
X108496746Y-69207697D01*
X108551893Y-69374119D01*
X108551895Y-69374124D01*
X108643936Y-69523345D01*
X108767906Y-69647315D01*
X108917127Y-69739356D01*
X108917131Y-69739357D01*
X108933049Y-69744632D01*
X108990495Y-69784403D01*
X109017320Y-69848919D01*
X109005006Y-69917695D01*
X108959146Y-69967877D01*
X108821656Y-70052682D01*
X108697684Y-70176654D01*
X108605643Y-70325875D01*
X108605641Y-70325880D01*
X108550494Y-70492302D01*
X108550493Y-70492309D01*
X108540000Y-70595013D01*
X108540000Y-70870000D01*
X109290000Y-70870000D01*
X109290000Y-69935000D01*
X109272571Y-69917571D01*
X109239086Y-69856248D01*
X109236252Y-69829890D01*
X109236252Y-68830000D01*
X108486253Y-68830000D01*
X108486253Y-69104986D01*
X107933165Y-69104986D01*
X107969296Y-69022616D01*
X108024564Y-68804368D01*
X108024671Y-68803079D01*
X108043156Y-68580005D01*
X108043156Y-68579994D01*
X108024565Y-68355640D01*
X108024563Y-68355628D01*
X107993255Y-68231996D01*
X107969296Y-68137384D01*
X107933165Y-68055013D01*
X108486252Y-68055013D01*
X108486252Y-68330000D01*
X109236252Y-68330000D01*
X109236252Y-67330110D01*
X109255937Y-67263071D01*
X109272571Y-67242429D01*
X109290000Y-67225000D01*
X109290000Y-66544000D01*
X108540001Y-66544000D01*
X108540001Y-66818986D01*
X108550494Y-66921697D01*
X108605641Y-67088119D01*
X108605643Y-67088124D01*
X108697684Y-67237345D01*
X108783925Y-67323586D01*
X108817410Y-67384909D01*
X108812426Y-67454601D01*
X108773161Y-67508528D01*
X108767911Y-67512679D01*
X108643936Y-67636654D01*
X108551895Y-67785875D01*
X108551893Y-67785880D01*
X108496746Y-67952302D01*
X108496745Y-67952309D01*
X108486252Y-68055013D01*
X107933165Y-68055013D01*
X107878860Y-67931209D01*
X107865169Y-67910254D01*
X107793850Y-67801091D01*
X107755722Y-67742732D01*
X107755719Y-67742729D01*
X107755715Y-67742723D01*
X107603243Y-67577097D01*
X107603238Y-67577092D01*
X107425577Y-67438812D01*
X107425578Y-67438812D01*
X107425576Y-67438811D01*
X107389070Y-67419055D01*
X107339479Y-67369836D01*
X107324371Y-67301619D01*
X107348541Y-67236064D01*
X107389070Y-67200945D01*
X107389084Y-67200936D01*
X107425576Y-67181189D01*
X107603240Y-67042906D01*
X107755722Y-66877268D01*
X107878860Y-66688791D01*
X107969296Y-66482616D01*
X108024564Y-66264368D01*
X108026666Y-66239001D01*
X108043156Y-66040005D01*
X108043156Y-66039994D01*
X108024565Y-65815640D01*
X108024563Y-65815628D01*
X108012758Y-65769013D01*
X108540000Y-65769013D01*
X108540000Y-66044000D01*
X109290000Y-66044000D01*
X109290000Y-65069000D01*
X109289999Y-65068999D01*
X109240029Y-65069000D01*
X109240011Y-65069001D01*
X109137302Y-65079494D01*
X108970880Y-65134641D01*
X108970875Y-65134643D01*
X108821654Y-65226684D01*
X108697684Y-65350654D01*
X108605643Y-65499875D01*
X108605641Y-65499880D01*
X108550494Y-65666302D01*
X108550493Y-65666309D01*
X108540000Y-65769013D01*
X108012758Y-65769013D01*
X108001927Y-65726241D01*
X107969296Y-65597384D01*
X107878860Y-65391209D01*
X107869012Y-65376136D01*
X107800121Y-65270690D01*
X107755722Y-65202732D01*
X107755719Y-65202729D01*
X107755715Y-65202723D01*
X107603243Y-65037097D01*
X107603238Y-65037092D01*
X107425577Y-64898812D01*
X107425578Y-64898812D01*
X107425576Y-64898811D01*
X107389070Y-64879055D01*
X107339479Y-64829836D01*
X107324371Y-64761619D01*
X107348541Y-64696064D01*
X107389070Y-64660945D01*
X107389084Y-64660936D01*
X107425576Y-64641189D01*
X107603240Y-64502906D01*
X107755722Y-64337268D01*
X107878860Y-64148791D01*
X107933165Y-64024986D01*
X108540001Y-64024986D01*
X108550494Y-64127697D01*
X108605641Y-64294119D01*
X108605643Y-64294124D01*
X108697684Y-64443345D01*
X108821654Y-64567315D01*
X108970875Y-64659356D01*
X108970880Y-64659358D01*
X109137302Y-64714505D01*
X109137309Y-64714506D01*
X109240019Y-64724999D01*
X109289999Y-64724998D01*
X109290000Y-64724998D01*
X109290000Y-63750000D01*
X108540001Y-63750000D01*
X108540001Y-64024986D01*
X107933165Y-64024986D01*
X107969296Y-63942616D01*
X108024564Y-63724368D01*
X108027121Y-63693509D01*
X108043156Y-63500005D01*
X108043156Y-63499994D01*
X108024565Y-63275640D01*
X108024563Y-63275628D01*
X107999241Y-63175633D01*
X107969296Y-63057384D01*
X107933165Y-62975013D01*
X108540000Y-62975013D01*
X108540000Y-63250000D01*
X109290000Y-63250000D01*
X109290000Y-61210000D01*
X108540001Y-61210000D01*
X108540001Y-61484986D01*
X108550494Y-61587697D01*
X108605641Y-61754119D01*
X108605643Y-61754124D01*
X108697684Y-61903345D01*
X108821654Y-62027315D01*
X108977025Y-62123149D01*
X108975759Y-62125199D01*
X109019590Y-62163799D01*
X109038737Y-62230994D01*
X109018516Y-62297873D01*
X108975808Y-62334879D01*
X108977025Y-62336851D01*
X108821654Y-62432684D01*
X108697684Y-62556654D01*
X108605643Y-62705875D01*
X108605641Y-62705880D01*
X108550494Y-62872302D01*
X108550493Y-62872309D01*
X108540000Y-62975013D01*
X107933165Y-62975013D01*
X107878860Y-62851209D01*
X107847414Y-62803078D01*
X107772667Y-62688669D01*
X107755722Y-62662732D01*
X107755719Y-62662729D01*
X107755715Y-62662723D01*
X107603243Y-62497097D01*
X107603238Y-62497092D01*
X107425577Y-62358812D01*
X107425578Y-62358812D01*
X107425576Y-62358811D01*
X107389070Y-62339055D01*
X107339479Y-62289836D01*
X107324371Y-62221619D01*
X107348541Y-62156064D01*
X107389070Y-62120945D01*
X107389574Y-62120672D01*
X107425576Y-62101189D01*
X107603240Y-61962906D01*
X107737668Y-61816880D01*
X107755715Y-61797276D01*
X107755716Y-61797274D01*
X107755722Y-61797268D01*
X107878860Y-61608791D01*
X107969296Y-61402616D01*
X108024564Y-61184368D01*
X108041702Y-60977552D01*
X108043156Y-60960005D01*
X108043156Y-60959994D01*
X108024565Y-60735640D01*
X108024563Y-60735628D01*
X107999402Y-60636269D01*
X107969296Y-60517384D01*
X107933165Y-60435013D01*
X108540000Y-60435013D01*
X108540000Y-60710000D01*
X109290000Y-60710000D01*
X109290000Y-59735000D01*
X109289999Y-59734999D01*
X109240029Y-59735000D01*
X109240011Y-59735001D01*
X109137302Y-59745494D01*
X108970880Y-59800641D01*
X108970875Y-59800643D01*
X108821654Y-59892684D01*
X108697684Y-60016654D01*
X108605643Y-60165875D01*
X108605641Y-60165880D01*
X108550494Y-60332302D01*
X108550493Y-60332309D01*
X108540000Y-60435013D01*
X107933165Y-60435013D01*
X107878860Y-60311209D01*
X107755722Y-60122732D01*
X107755719Y-60122729D01*
X107755715Y-60122723D01*
X107603243Y-59957097D01*
X107603238Y-59957092D01*
X107484797Y-59864905D01*
X107425576Y-59818811D01*
X107389070Y-59799055D01*
X107339479Y-59749836D01*
X107324371Y-59681619D01*
X107348541Y-59616064D01*
X107389070Y-59580945D01*
X107389084Y-59580936D01*
X107425576Y-59561189D01*
X107603240Y-59422906D01*
X107755722Y-59257268D01*
X107878860Y-59068791D01*
X107969296Y-58862616D01*
X108024564Y-58644368D01*
X108043156Y-58420000D01*
X108031534Y-58279751D01*
X108024565Y-58195640D01*
X108024563Y-58195628D01*
X107969296Y-57977385D01*
X107943886Y-57919456D01*
X107878860Y-57771209D01*
X107755722Y-57582732D01*
X107755719Y-57582729D01*
X107755715Y-57582723D01*
X107603243Y-57417097D01*
X107603238Y-57417092D01*
X107457112Y-57303357D01*
X107425576Y-57278811D01*
X107389070Y-57259055D01*
X107339479Y-57209836D01*
X107324371Y-57141619D01*
X107348541Y-57076064D01*
X107389070Y-57040945D01*
X107389084Y-57040936D01*
X107425576Y-57021189D01*
X107603240Y-56882906D01*
X107755722Y-56717268D01*
X107878860Y-56528791D01*
X107969296Y-56322616D01*
X108024564Y-56104368D01*
X108028057Y-56062216D01*
X108043156Y-55880005D01*
X108043156Y-55879994D01*
X108024565Y-55655640D01*
X108024563Y-55655628D01*
X108000799Y-55561785D01*
X107969296Y-55437384D01*
X107878860Y-55231209D01*
X107755722Y-55042732D01*
X107755719Y-55042729D01*
X107755715Y-55042723D01*
X107603243Y-54877097D01*
X107603238Y-54877092D01*
X107481891Y-54782643D01*
X107425576Y-54738811D01*
X107389070Y-54719055D01*
X107339479Y-54669836D01*
X107324371Y-54601619D01*
X107348541Y-54536064D01*
X107389070Y-54500945D01*
X107389084Y-54500936D01*
X107425576Y-54481189D01*
X107603240Y-54342906D01*
X107755722Y-54177268D01*
X107878860Y-53988791D01*
X107969296Y-53782616D01*
X108024564Y-53564368D01*
X108043156Y-53340000D01*
X108040389Y-53306609D01*
X108024565Y-53115640D01*
X108024563Y-53115628D01*
X108012512Y-53068039D01*
X107969296Y-52897384D01*
X107878860Y-52691209D01*
X107864123Y-52668653D01*
X107790946Y-52556647D01*
X107755722Y-52502732D01*
X107755719Y-52502729D01*
X107755715Y-52502723D01*
X107603243Y-52337097D01*
X107603238Y-52337092D01*
X107425577Y-52198812D01*
X107425578Y-52198812D01*
X107425576Y-52198811D01*
X107389070Y-52179055D01*
X107339479Y-52129836D01*
X107324371Y-52061619D01*
X107348541Y-51996064D01*
X107389070Y-51960945D01*
X107389084Y-51960936D01*
X107425576Y-51941189D01*
X107603240Y-51802906D01*
X107755722Y-51637268D01*
X107878860Y-51448791D01*
X107969296Y-51242616D01*
X108024564Y-51024368D01*
X108031021Y-50946449D01*
X108043156Y-50800005D01*
X108043156Y-50799994D01*
X108024565Y-50575640D01*
X108024563Y-50575628D01*
X107969296Y-50357385D01*
X107911755Y-50226204D01*
X107878860Y-50151209D01*
X107755722Y-49962732D01*
X107755719Y-49962729D01*
X107755715Y-49962723D01*
X107603243Y-49797097D01*
X107603238Y-49797092D01*
X107425577Y-49658812D01*
X107425578Y-49658812D01*
X107425576Y-49658811D01*
X107389070Y-49639055D01*
X107339479Y-49589836D01*
X107324371Y-49521619D01*
X107348541Y-49456064D01*
X107389070Y-49420945D01*
X107389084Y-49420936D01*
X107425576Y-49401189D01*
X107603240Y-49262906D01*
X107755722Y-49097268D01*
X107878860Y-48908791D01*
X107969296Y-48702616D01*
X108024564Y-48484368D01*
X108037467Y-48328654D01*
X108043156Y-48260005D01*
X108043156Y-48259994D01*
X108024565Y-48035640D01*
X108024563Y-48035628D01*
X107969296Y-47817385D01*
X107878859Y-47611207D01*
X107755723Y-47422734D01*
X107755715Y-47422723D01*
X107603243Y-47257097D01*
X107603238Y-47257092D01*
X107468756Y-47152420D01*
X107425576Y-47118811D01*
X107425575Y-47118810D01*
X107425572Y-47118808D01*
X107227580Y-47011661D01*
X107227577Y-47011659D01*
X107227574Y-47011658D01*
X107227571Y-47011657D01*
X107227569Y-47011656D01*
X107014637Y-46938556D01*
X106792569Y-46901500D01*
X106567431Y-46901500D01*
X106345362Y-46938556D01*
X106132430Y-47011656D01*
X106132419Y-47011661D01*
X105934427Y-47118808D01*
X105934422Y-47118812D01*
X105756761Y-47257092D01*
X105756756Y-47257097D01*
X105604284Y-47422723D01*
X105604276Y-47422734D01*
X105481140Y-47611207D01*
X105390703Y-47817385D01*
X105335436Y-48035628D01*
X105335434Y-48035640D01*
X105316844Y-48259994D01*
X101800500Y-48259994D01*
X101800500Y-19374500D01*
X101820185Y-19307461D01*
X101872989Y-19261706D01*
X101924500Y-19250500D01*
X136835500Y-19250500D01*
X136902539Y-19270185D01*
G37*
G04 #@! TD.AperFunction*
M02*
